ISO-10303-21;
HEADER;
FILE_DESCRIPTION (( 'STEP AP203' ),
    '1' );
FILE_NAME ('jet_ski_dash_cover_v3.step',
    '2026-07-30T04:50:34',
    ( '' ),
    ( '' ),
    'SwSTEP 2.0',
    'SolidWorks 2026',
    '' );
FILE_SCHEMA (( 'CONFIG_CONTROL_DESIGN' ));
ENDSEC;

DATA;
#1 = VERTEX_POINT ( 'NONE', #404 ) ;
#2 = DATE_AND_TIME ( #246, #513 ) ;
#3 = DIRECTION ( 'NONE',  ( 0.000000000000000000, 1.000000000000000000, 0.000000000000000000 ) ) ;
#4 = ADVANCED_FACE ( 'NONE', ( #66 ), #68, .F. ) ;
#5 = DIRECTION ( 'NONE',  ( 0.000000000000000000, -0.9406166412960484946, 0.3394706675354159375 ) ) ;
#6 = VECTOR ( 'NONE', #537, 1000.000000000000000 ) ;
#7 = DIRECTION ( 'NONE',  ( 0.000000000000000000, 1.000000000000000000, 0.000000000000000000 ) ) ;
#8 = DIRECTION ( 'NONE',  ( 0.000000000000000000, -0.000000000000000000, -1.000000000000000000 ) ) ;
#9 = VECTOR ( 'NONE', #23, 1000.000000000000000 ) ;
#10 = FACE_OUTER_BOUND ( 'NONE', #212, .T. ) ;
#11 = AXIS2_PLACEMENT_3D ( 'NONE', #549, #289, #457 ) ;
#12 = CARTESIAN_POINT ( 'NONE',  ( -80.00000000000000000, 60.00000000000000000, 96.00000000000000000 ) ) ;
#13 = AXIS2_PLACEMENT_3D ( 'NONE', #291, #411, #153 ) ;
#14 = FACE_OUTER_BOUND ( 'NONE', #61, .T. ) ;
#15 = EDGE_CURVE ( 'NONE', #245, #446, #27, .T. ) ;
#16 = ORIENTED_EDGE ( 'NONE', *, *, #430, .T. ) ;
#17 = DIRECTION ( 'NONE',  ( 0.000000000000000000, 1.000000000000000000, 0.000000000000000000 ) ) ;
#18 = CARTESIAN_POINT ( 'NONE',  ( 80.00000000000000000, 0.000000000000000000, 0.000000000000000000 ) ) ;
#19 = ORIENTED_EDGE ( 'NONE', *, *, #113, .F. ) ;
#20 =( LENGTH_UNIT ( ) NAMED_UNIT ( * ) SI_UNIT ( .MILLI., .METRE. ) );
#21 = CLOSED_SHELL ( 'NONE', ( #467, #280, #249, #474, #448, #522, #400, #349, #427, #342, #4, #544, #193, #516, #79, #510 ) ) ;
#22 = FACE_OUTER_BOUND ( 'NONE', #145, .T. ) ;
#23 = DIRECTION ( 'NONE',  ( 1.000000000000000000, 0.000000000000000000, 0.000000000000000000 ) ) ;
#24 = VERTEX_POINT ( 'NONE', #192 ) ;
#25 = EDGE_CURVE ( 'NONE', #290, #334, #103, .T. ) ;
#26 = CARTESIAN_POINT ( 'NONE',  ( -95.00000000000000000, 200.0000000000000000, 47.31428571428565988 ) ) ;
#27 = LINE ( 'NONE', #100, #217 ) ;
#28 = EDGE_LOOP ( 'NONE', ( #173, #302, #487, #263 ) ) ;
#29 = VERTEX_POINT ( 'NONE', #365 ) ;
#30 = DIRECTION ( 'NONE',  ( -0.7071067811865500152, 0.000000000000000000, 0.7071067811865451302 ) ) ;
#31 = VECTOR ( 'NONE', #507, 1000.000000000000114 ) ;
#32 = ORIENTED_EDGE ( 'NONE', *, *, #366, .F. ) ;
#33 = PERSON_AND_ORGANIZATION_ROLE ( 'classification_officer' ) ;
#34 = CARTESIAN_POINT ( 'NONE',  ( -95.00000000000000000, 25.00000000000000000, 22.00000000000000000 ) ) ;
#35 =( GEOMETRIC_REPRESENTATION_CONTEXT ( 3 ) GLOBAL_UNCERTAINTY_ASSIGNED_CONTEXT ( ( #89 ) ) GLOBAL_UNIT_ASSIGNED_CONTEXT ( ( #20, #234, #236 ) ) REPRESENTATION_CONTEXT ( 'NONE', 'WORKASPACE' ) );
#36 = EDGE_CURVE ( 'NONE', #446, #290, #283, .T. ) ;
#37 = ORIENTED_EDGE ( 'NONE', *, *, #126, .F. ) ;
#38 = DATE_AND_TIME ( #419, #247 ) ;
#39 = CARTESIAN_POINT ( 'NONE',  ( 95.00000000000000000, 0.000000000000000000, 96.00000000000004263 ) ) ;
#40 = ORIENTED_EDGE ( 'NONE', *, *, #292, .T. ) ;
#41 = COORDINATED_UNIVERSAL_TIME_OFFSET ( 5, 0, .BEHIND. ) ;
#42 = DIRECTION ( 'NONE',  ( 0.000000000000000000, 1.000000000000000000, 0.000000000000000000 ) ) ;
#43 = VECTOR ( 'NONE', #50, 1000.000000000000000 ) ;
#44 = EDGE_LOOP ( 'NONE', ( #418, #539, #276, #105, #152 ) ) ;
#45 = CARTESIAN_POINT ( 'NONE',  ( -80.00000000000000000, 193.0000000000000000, 48.00000000000000000 ) ) ;
#46 = LINE ( 'NONE', #385, #288 ) ;
#47 = DIRECTION ( 'NONE',  ( -1.000000000000000000, 0.000000000000000000, 0.000000000000000000 ) ) ;
#48 = EDGE_LOOP ( 'NONE', ( #445, #356, #111, #517, #346, #187, #37, #77 ) ) ;
#49 = VECTOR ( 'NONE', #135, 1000.000000000000000 ) ;
#50 = DIRECTION ( 'NONE',  ( 0.000000000000000000, -1.000000000000000000, 0.000000000000000000 ) ) ;
#51 = EDGE_CURVE ( 'NONE', #245, #344, #534, .T. ) ;
#52 = LINE ( 'NONE', #222, #428 ) ;
#53 = LINE ( 'NONE', #434, #311 ) ;
#54 = LINE ( 'NONE', #391, #355 ) ;
#55 = EDGE_CURVE ( 'NONE', #344, #290, #270, .T. ) ;
#56 = EDGE_LOOP ( 'NONE', ( #237, #352, #108, #119, #67, #367, #140, #403, #122, #84 ) ) ;
#57 = ORGANIZATION ( 'UNSPECIFIED', 'UNSPECIFIED', '' ) ;
#58 = LINE ( 'NONE', #149, #257 ) ;
#59 = DIRECTION ( 'NONE',  ( 0.000000000000000000, 1.000000000000000000, 0.000000000000000000 ) ) ;
#60 = DIRECTION ( 'NONE',  ( 0.000000000000000000, -0.9459459459459459429, 0.3243243243243243423 ) ) ;
#61 = EDGE_LOOP ( 'NONE', ( #478, #548, #69, #189, #309 ) ) ;
#62 = EDGE_CURVE ( 'NONE', #441, #494, #197, .T. ) ;
#63 = ORIENTED_EDGE ( 'NONE', *, *, #480, .T. ) ;
#64 = CARTESIAN_POINT ( 'NONE',  ( -95.00000000000000000, 200.0000000000000000, 22.00000000000000000 ) ) ;
#65 = AXIS2_PLACEMENT_3D ( 'NONE', #87, #296, #251 ) ;
#66 = FACE_OUTER_BOUND ( 'NONE', #44, .T. ) ;
#67 = ORIENTED_EDGE ( 'NONE', *, *, #258, .T. ) ;
#68 = PLANE ( 'NONE',  #233 ) ;
#69 = ORIENTED_EDGE ( 'NONE', *, *, #62, .F. ) ;
#70 = DIRECTION ( 'NONE',  ( 0.000000000000000000, 0.9459459459459459429, -0.3243243243243243423 ) ) ;
#71 = ORIENTED_EDGE ( 'NONE', *, *, #299, .F. ) ;
#72 = ORIENTED_EDGE ( 'NONE', *, *, #480, .F. ) ;
#73 = PERSON_AND_ORGANIZATION ( #264, #57 ) ;
#74 = LINE ( 'NONE', #333, #386 ) ;
#75 = EDGE_CURVE ( 'NONE', #156, #109, #491, .T. ) ;
#76 = VECTOR ( 'NONE', #466, 1000.000000000000000 ) ;
#77 = ORIENTED_EDGE ( 'NONE', *, *, #440, .F. ) ;
#78 = APPROVAL_STATUS ( 'not_yet_approved' ) ;
#79 = ADVANCED_FACE ( 'NONE', ( #22 ), #439, .T. ) ;
#80 = DIRECTION ( 'NONE',  ( 0.000000000000000000, -1.000000000000000000, 0.000000000000000000 ) ) ;
#81 = ORIENTED_EDGE ( 'NONE', *, *, #458, .T. ) ;
#82 = COORDINATED_UNIVERSAL_TIME_OFFSET ( 5, 0, .BEHIND. ) ;
#83 = CARTESIAN_POINT ( 'NONE',  ( 95.00000000000000000, 35.00000000000000000, 108.0000000000000000 ) ) ;
#84 = ORIENTED_EDGE ( 'NONE', *, *, #440, .T. ) ;
#85 = DIRECTION ( 'NONE',  ( 0.000000000000000000, -0.9459459459459459429, 0.3243243243243243423 ) ) ;
#86 = CC_DESIGN_PERSON_AND_ORGANIZATION_ASSIGNMENT ( #506, #297, ( #512 ) ) ;
#87 = CARTESIAN_POINT ( 'NONE',  ( 95.00000000000000000, 0.000000000000000000, 96.00000000000004263 ) ) ;
#88 = AXIS2_PLACEMENT_3D ( 'NONE', #438, #141, #396 ) ;
#89 = UNCERTAINTY_MEASURE_WITH_UNIT (LENGTH_MEASURE( 1.000000000000000082E-05 ), #20, 'distance_accuracy_value', 'NONE');
#90 = DIRECTION ( 'NONE',  ( 0.000000000000000000, 0.1155008581745644164, 0.9933073803012536507 ) ) ;
#91 = PLANE ( 'NONE',  #107 ) ;
#92 = EDGE_CURVE ( 'NONE', #286, #505, #226, .T. ) ;
#93 = VECTOR ( 'NONE', #397, 1000.000000000000000 ) ;
#94 = CARTESIAN_POINT ( 'NONE',  ( 80.00000000000000000, 60.00000000000000000, 96.00000000000000000 ) ) ;
#95 = CARTESIAN_POINT ( 'NONE',  ( 79.99999999999998579, 25.00000000000000000, 22.00000000000000000 ) ) ;
#96 = EDGE_CURVE ( 'NONE', #334, #369, #186, .T. ) ;
#97 = DIRECTION ( 'NONE',  ( 1.000000000000000000, 0.000000000000000000, 0.000000000000000000 ) ) ;
#98 = VECTOR ( 'NONE', #437, 1000.000000000000000 ) ;
#99 = DIRECTION ( 'NONE',  ( 0.000000000000000000, 0.000000000000000000, -1.000000000000000000 ) ) ;
#100 = CARTESIAN_POINT ( 'NONE',  ( -95.00000000000000000, 193.0000000000000000, 22.00000000000000000 ) ) ;
#101 = SECURITY_CLASSIFICATION ( '', '', #112 ) ;
#102 = DIRECTION ( 'NONE',  ( 0.000000000000000000, 0.000000000000000000, -1.000000000000000000 ) ) ;
#103 = LINE ( 'NONE', #402, #118 ) ;
#104 = DIRECTION ( 'NONE',  ( 1.000000000000000000, 0.000000000000000000, 0.000000000000000000 ) ) ;
#105 = ORIENTED_EDGE ( 'NONE', *, *, #51, .F. ) ;
#106 = ORIENTED_EDGE ( 'NONE', *, *, #458, .F. ) ;
#107 = AXIS2_PLACEMENT_3D ( 'NONE', #432, #429, #177 ) ;
#108 = ORIENTED_EDGE ( 'NONE', *, *, #388, .F. ) ;
#109 = VERTEX_POINT ( 'NONE', #358 ) ;
#110 = DIRECTION ( 'NONE',  ( 0.000000000000000000, -0.9459459459459459429, 0.3243243243243243423 ) ) ;
#111 = ORIENTED_EDGE ( 'NONE', *, *, #183, .T. ) ;
#112 = SECURITY_CLASSIFICATION_LEVEL ( 'unclassified' ) ;
#113 = EDGE_CURVE ( 'NONE', #479, #156, #143, .T. ) ;
#114 = DIRECTION ( 'NONE',  ( -1.000000000000000000, 0.000000000000000000, 0.000000000000000000 ) ) ;
#115 = CC_DESIGN_DATE_AND_TIME_ASSIGNMENT ( #460, #157, ( #101 ) ) ;
#116 = ORIENTED_EDGE ( 'NONE', *, *, #370, .T. ) ;
#117 = DIRECTION ( 'NONE',  ( 1.000000000000000000, 0.000000000000000000, 0.000000000000000000 ) ) ;
#118 = VECTOR ( 'NONE', #240, 1000.000000000000114 ) ;
#119 = ORIENTED_EDGE ( 'NONE', *, *, #421, .T. ) ;
#120 = APPROVAL_DATE_TIME ( #331, #533 ) ;
#121 = PLANE ( 'NONE',  #65 ) ;
#122 = ORIENTED_EDGE ( 'NONE', *, *, #214, .F. ) ;
#123 = DATE_AND_TIME ( #498, #436 ) ;
#124 = PRODUCT ( 'jet_ski_dash_cover_v3', 'jet_ski_dash_cover_v3', '', ( #325 ) ) ;
#125 = DIRECTION ( 'NONE',  ( -0.000000000000000000, 0.3243243243243243423, 0.9459459459459459429 ) ) ;
#126 = EDGE_CURVE ( 'NONE', #1, #253, #330, .T. ) ;
#127 = CARTESIAN_POINT ( 'NONE',  ( 95.00000000000000000, 200.0000000000000000, 47.31428571428577357 ) ) ;
#128 = LINE ( 'NONE', #300, #546 ) ;
#129 = CC_DESIGN_APPROVAL ( #216, ( #512 ) ) ;
#130 = EDGE_CURVE ( 'NONE', #410, #483, #377, .T. ) ;
#131 = FACE_OUTER_BOUND ( 'NONE', #528, .T. ) ;
#132 = PLANE ( 'NONE',  #380 ) ;
#133 = VECTOR ( 'NONE', #468, 1000.000000000000000 ) ;
#134 = LINE ( 'NONE', #471, #133 ) ;
#135 = DIRECTION ( 'NONE',  ( 0.6871998538760797359, -0.000000000000000000, 0.7264684169547184212 ) ) ;
#136 = DIRECTION ( 'NONE',  ( 0.000000000000000000, -0.000000000000000000, 1.000000000000000000 ) ) ;
#137 = ORIENTED_EDGE ( 'NONE', *, *, #25, .F. ) ;
#138 = DIRECTION ( 'NONE',  ( 1.000000000000000000, -0.000000000000000000, 0.000000000000000000 ) ) ;
#139 = CARTESIAN_POINT ( 'NONE',  ( 80.00000000000000000, 193.0000000000000000, 48.00000000000000000 ) ) ;
#140 = ORIENTED_EDGE ( 'NONE', *, *, #351, .T. ) ;
#141 = DIRECTION ( 'NONE',  ( 0.000000000000000000, -0.9933073803012536507, 0.1155008581745644164 ) ) ;
#142 = EDGE_CURVE ( 'NONE', #198, #441, #509, .T. ) ;
#143 = LINE ( 'NONE', #315, #310 ) ;
#144 = CC_DESIGN_APPROVAL ( #533, ( #101 ) ) ;
#145 = EDGE_LOOP ( 'NONE', ( #194, #275, #359, #32 ) ) ;
#146 = CARTESIAN_POINT ( 'NONE',  ( -83.00000000000004263, 200.0000000000000000, 60.00000000000000000 ) ) ;
#147 = ORIENTED_EDGE ( 'NONE', *, *, #36, .F. ) ;
#148 = ORIENTED_EDGE ( 'NONE', *, *, #374, .F. ) ;
#149 = CARTESIAN_POINT ( 'NONE',  ( 82.99999999999995737, 200.0000000000000000, 60.00000000000000000 ) ) ;
#150 = DIRECTION ( 'NONE',  ( -1.000000000000000000, 0.000000000000000000, 0.000000000000000000 ) ) ;
#151 = EDGE_CURVE ( 'NONE', #109, #378, #244, .T. ) ;
#152 = ORIENTED_EDGE ( 'NONE', *, *, #425, .T. ) ;
#153 = DIRECTION ( 'NONE',  ( 1.000000000000000000, 0.000000000000000000, 0.000000000000000000 ) ) ;
#154 = AXIS2_PLACEMENT_3D ( 'NONE', #146, #526, #70 ) ;
#155 = CARTESIAN_POINT ( 'NONE',  ( 95.00000000000000000, 25.00000000000000000, 22.00000000000000000 ) ) ;
#156 = VERTEX_POINT ( 'NONE', #127 ) ;
#157 = DATE_TIME_ROLE ( 'classification_date' ) ;
#158 = PLANE ( 'NONE',  #11 ) ;
#159 = CALENDAR_DATE ( 2026, 30, 7 ) ;
#160 = DIRECTION ( 'NONE',  ( 0.7022468831767859632, -0.1170411471961276956, -0.7022468831767811892 ) ) ;
#161 = VECTOR ( 'NONE', #343, 1000.000000000000000 ) ;
#162 = ORIENTED_EDGE ( 'NONE', *, *, #370, .F. ) ;
#163 = CARTESIAN_POINT ( 'NONE',  ( 82.99999999999995737, 35.00000000000000000, 108.0000000000000000 ) ) ;
#164 = SHAPE_DEFINITION_REPRESENTATION ( #456, #179 ) ;
#165 = LINE ( 'NONE', #339, #49 ) ;
#166 = CARTESIAN_POINT ( 'NONE',  ( 80.00000000000000000, 193.0000000000000000, 48.00000000000000000 ) ) ;
#167 = VECTOR ( 'NONE', #407, 1000.000000000000000 ) ;
#168 = APPLICATION_CONTEXT ( 'configuration controlled 3d designs of mechanical parts and assemblies' ) ;
#169 = EDGE_CURVE ( 'NONE', #378, #1, #503, .T. ) ;
#170 = DIRECTION ( 'NONE',  ( 0.000000000000000000, 0.000000000000000000, -1.000000000000000000 ) ) ;
#171 = AXIS2_PLACEMENT_3D ( 'NONE', #520, #308, #102 ) ;
#172 = LINE ( 'NONE', #219, #161 ) ;
#173 = ORIENTED_EDGE ( 'NONE', *, *, #388, .T. ) ;
#174 = PLANE ( 'NONE',  #207 ) ;
#175 = AXIS2_PLACEMENT_3D ( 'NONE', #357, #99, #278 ) ;
#176 = AXIS2_PLACEMENT_3D ( 'NONE', #201, #125, #85 ) ;
#177 = DIRECTION ( 'NONE',  ( 0.000000000000000000, 0.9406166412960484946, -0.3394706675354159375 ) ) ;
#178 = FACE_OUTER_BOUND ( 'NONE', #48, .T. ) ;
#179 = ADVANCED_BREP_SHAPE_REPRESENTATION ( 'jet_ski_dash_cover_v3', ( #415, #13 ), #35 ) ;
#180 = CARTESIAN_POINT ( 'NONE',  ( -95.00000000000000000, 60.00000000000000000, 108.0000000000000000 ) ) ;
#181 = CARTESIAN_POINT ( 'NONE',  ( -80.00000000000000000, 60.00000000000000000, 96.00000000000000000 ) ) ;
#182 = EDGE_LOOP ( 'NONE', ( #81, #382, #405, #501, #422, #40 ) ) ;
#183 = EDGE_CURVE ( 'NONE', #446, #521, #248, .T. ) ;
#184 = VECTOR ( 'NONE', #150, 1000.000000000000000 ) ;
#185 = FACE_OUTER_BOUND ( 'NONE', #182, .T. ) ;
#186 = LINE ( 'NONE', #181, #93 ) ;
#187 = ORIENTED_EDGE ( 'NONE', *, *, #220, .T. ) ;
#188 = CARTESIAN_POINT ( 'NONE',  ( -95.00000000000000000, 200.0000000000000000, 60.00000000000000000 ) ) ;
#189 = ORIENTED_EDGE ( 'NONE', *, *, #142, .F. ) ;
#190 = ORIENTED_EDGE ( 'NONE', *, *, #211, .T. ) ;
#191 = LINE ( 'NONE', #180, #393 ) ;
#192 = CARTESIAN_POINT ( 'NONE',  ( 79.99999999999998579, 25.00000000000000000, 22.00000000000000000 ) ) ;
#193 = ADVANCED_FACE ( 'NONE', ( #210 ), #121, .F. ) ;
#194 = ORIENTED_EDGE ( 'NONE', *, *, #421, .F. ) ;
#195 = APPROVAL_ROLE ( '' ) ;
#196 = EDGE_CURVE ( 'NONE', #228, #109, #424, .T. ) ;
#197 = LINE ( 'NONE', #322, #98 ) ;
#198 = VERTEX_POINT ( 'NONE', #256 ) ;
#199 = COORDINATED_UNIVERSAL_TIME_OFFSET ( 5, 0, .BEHIND. ) ;
#200 = APPROVAL_PERSON_ORGANIZATION ( #536, #547, #195 ) ;
#201 = CARTESIAN_POINT ( 'NONE',  ( -95.00000000000000000, 200.0000000000000000, 60.00000000000000000 ) ) ;
#202 = APPROVAL_DATE_TIME ( #2, #547 ) ;
#203 = LINE ( 'NONE', #541, #255 ) ;
#204 = ORIENTED_EDGE ( 'NONE', *, *, #25, .T. ) ;
#205 = APPROVAL_STATUS ( 'not_yet_approved' ) ;
#206 = DIRECTION ( 'NONE',  ( 0.000000000000000000, 0.000000000000000000, 1.000000000000000000 ) ) ;
#207 = AXIS2_PLACEMENT_3D ( 'NONE', #514, #221, #47 ) ;
#208 = EDGE_LOOP ( 'NONE', ( #190, #327, #341, #316, #535 ) ) ;
#209 = PERSON_AND_ORGANIZATION_ROLE ( 'design_owner' ) ;
#210 = FACE_OUTER_BOUND ( 'NONE', #238, .T. ) ;
#211 = EDGE_CURVE ( 'NONE', #253, #156, #499, .T. ) ;
#212 = EDGE_LOOP ( 'NONE', ( #162, #354, #241, #324 ) ) ;
#213 = LINE ( 'NONE', #384, #488 ) ;
#214 = EDGE_CURVE ( 'NONE', #24, #483, #74, .T. ) ;
#215 = LINE ( 'NONE', #511, #332 ) ;
#216 = APPROVAL ( #379, 'UNSPECIFIED' ) ;
#217 = VECTOR ( 'NONE', #235, 1000.000000000000000 ) ;
#218 = LINE ( 'NONE', #306, #500 ) ;
#219 = CARTESIAN_POINT ( 'NONE',  ( -95.00000000000000000, 60.00000000000000000, 95.99999999999995737 ) ) ;
#220 = EDGE_CURVE ( 'NONE', #441, #253, #46, .T. ) ;
#221 = DIRECTION ( 'NONE',  ( -0.000000000000000000, 0.000000000000000000, -1.000000000000000000 ) ) ;
#222 = CARTESIAN_POINT ( 'NONE',  ( 80.00000000000000000, 193.0000000000000000, 48.00000000000000000 ) ) ;
#223 = EDGE_LOOP ( 'NONE', ( #443, #318, #204, #294, #542 ) ) ;
#224 = ORIENTED_EDGE ( 'NONE', *, *, #430, .F. ) ;
#225 = CARTESIAN_POINT ( 'NONE',  ( 95.00000000000000000, 35.55295836376919993, 103.6961285609934862 ) ) ;
#226 = LINE ( 'NONE', #527, #243 ) ;
#227 = EDGE_CURVE ( 'NONE', #483, #369, #213, .T. ) ;
#228 = VERTEX_POINT ( 'NONE', #285 ) ;
#229 = PLANE ( 'NONE',  #171 ) ;
#230 = PRODUCT_RELATED_PRODUCT_CATEGORY ( 'detail', '', ( #124 ) ) ;
#231 = DIRECTION ( 'NONE',  ( 0.000000000000000000, 0.000000000000000000, -1.000000000000000000 ) ) ;
#232 = VERTEX_POINT ( 'NONE', #293 ) ;
#233 = AXIS2_PLACEMENT_3D ( 'NONE', #18, #313, #231 ) ;
#234 =( NAMED_UNIT ( * ) PLANE_ANGLE_UNIT ( ) SI_UNIT ( $, .RADIAN. ) );
#235 = DIRECTION ( 'NONE',  ( -1.000000000000000000, 0.000000000000000000, 0.000000000000000000 ) ) ;
#236 =( NAMED_UNIT ( * ) SI_UNIT ( $, .STERADIAN. ) SOLID_ANGLE_UNIT ( ) );
#237 = ORIENTED_EDGE ( 'NONE', *, *, #169, .F. ) ;
#238 = EDGE_LOOP ( 'NONE', ( #71, #375, #272, #148 ) ) ;
#239 = APPLICATION_PROTOCOL_DEFINITION ( 'international standard', 'config_control_design', 1994, #168 ) ;
#240 = DIRECTION ( 'NONE',  ( 0.000000000000000000, -0.9406166412960484946, 0.3394706675354159375 ) ) ;
#241 = ORIENTED_EDGE ( 'NONE', *, *, #227, .T. ) ;
#242 = PERSON_AND_ORGANIZATION ( #264, #57 ) ;
#243 = VECTOR ( 'NONE', #395, 1000.000000000000000 ) ;
#244 = LINE ( 'NONE', #39, #347 ) ;
#245 = VERTEX_POINT ( 'NONE', #453 ) ;
#246 = CALENDAR_DATE ( 2026, 30, 7 ) ;
#247 = LOCAL_TIME ( 0, 50, 34.00000000000000000, #41 ) ;
#248 = LINE ( 'NONE', #335, #76 ) ;
#249 = ADVANCED_FACE ( 'NONE', ( #413 ), #464, .T. ) ;
#250 = EDGE_LOOP ( 'NONE', ( #455, #279, #116, #137 ) ) ;
#251 = DIRECTION ( 'NONE',  ( 0.000000000000000000, -1.000000000000000000, 0.000000000000000000 ) ) ;
#252 = CC_DESIGN_PERSON_AND_ORGANIZATION_ASSIGNMENT ( #73, #502, ( #492 ) ) ;
#253 = VERTEX_POINT ( 'NONE', #417 ) ;
#254 = FACE_OUTER_BOUND ( 'NONE', #28, .T. ) ;
#255 = VECTOR ( 'NONE', #117, 1000.000000000000000 ) ;
#256 = CARTESIAN_POINT ( 'NONE',  ( -95.00000000000000000, 25.00000000000000000, 22.00000000000000000 ) ) ;
#257 = VECTOR ( 'NONE', #529, 1000.000000000000000 ) ;
#258 = EDGE_CURVE ( 'NONE', #29, #198, #381, .T. ) ;
#259 = DIRECTION ( 'NONE',  ( 0.000000000000000000, -0.9459459459459459429, 0.3243243243243243423 ) ) ;
#260 = LINE ( 'NONE', #392, #9 ) ;
#261 = AXIS2_PLACEMENT_3D ( 'NONE', #338, #469, #8 ) ;
#262 = LINE ( 'NONE', #431, #277 ) ;
#263 = ORIENTED_EDGE ( 'NONE', *, *, #92, .T. ) ;
#264 = PERSON ( 'UNSPECIFIED', 'UNSPECIFIED', 'UNSPECIFIED', ('UNSPECIFIED'), ('UNSPECIFIED'), ('UNSPECIFIED') ) ;
#265 = FACE_OUTER_BOUND ( 'NONE', #250, .T. ) ;
#266 = FACE_OUTER_BOUND ( 'NONE', #208, .T. ) ;
#267 = VECTOR ( 'NONE', #3, 1000.000000000000000 ) ;
#268 = CARTESIAN_POINT ( 'NONE',  ( -83.00000000000004263, 35.00000000000000000, 108.0000000000000000 ) ) ;
#269 = EDGE_CURVE ( 'NONE', #198, #521, #203, .T. ) ;
#270 = LINE ( 'NONE', #139, #184 ) ;
#271 = AXIS2_PLACEMENT_3D ( 'NONE', #225, #353, #60 ) ;
#272 = ORIENTED_EDGE ( 'NONE', *, *, #196, .F. ) ;
#273 = CARTESIAN_POINT ( 'NONE',  ( 95.00000000000000000, 35.55295836376919993, 103.6961285609934862 ) ) ;
#274 = DIRECTION ( 'NONE',  ( 0.000000000000000000, 0.000000000000000000, -1.000000000000000000 ) ) ;
#275 = ORIENTED_EDGE ( 'NONE', *, *, #92, .F. ) ;
#276 = ORIENTED_EDGE ( 'NONE', *, *, #307, .F. ) ;
#277 = VECTOR ( 'NONE', #305, 1000.000000000000114 ) ;
#278 = DIRECTION ( 'NONE',  ( -1.000000000000000000, 0.000000000000000000, -0.000000000000000000 ) ) ;
#279 = ORIENTED_EDGE ( 'NONE', *, *, #307, .T. ) ;
#280 = ADVANCED_FACE ( 'NONE', ( #254 ), #158, .T. ) ;
#281 = ORIENTED_EDGE ( 'NONE', *, *, #15, .F. ) ;
#282 = CARTESIAN_POINT ( 'NONE',  ( 82.99999999999995737, 200.0000000000000000, 60.00000000000000000 ) ) ;
#283 = LINE ( 'NONE', #530, #6 ) ;
#284 = VERTEX_POINT ( 'NONE', #163 ) ;
#285 = CARTESIAN_POINT ( 'NONE',  ( 82.99999999999995737, 60.00000000000000000, 108.0000000000000000 ) ) ;
#286 = VERTEX_POINT ( 'NONE', #423 ) ;
#287 = PERSON_AND_ORGANIZATION ( #264, #57 ) ;
#288 = VECTOR ( 'NONE', #336, 1000.000000000000000 ) ;
#289 = DIRECTION ( 'NONE',  ( -0.000000000000000000, 0.000000000000000000, 1.000000000000000000 ) ) ;
#290 = VERTEX_POINT ( 'NONE', #45 ) ;
#291 = CARTESIAN_POINT ( 'NONE',  ( 0.000000000000000000, 0.000000000000000000, 0.000000000000000000 ) ) ;
#292 = EDGE_CURVE ( 'NONE', #494, #531, #165, .T. ) ;
#293 = CARTESIAN_POINT ( 'NONE',  ( -95.00000000000000000, 57.99999999999998579, 95.99999999999995737 ) ) ;
#294 = ORIENTED_EDGE ( 'NONE', *, *, #96, .T. ) ;
#295 = CALENDAR_DATE ( 2026, 30, 7 ) ;
#296 = DIRECTION ( 'NONE',  ( -0.7071067811865451302, -0.000000000000000000, -0.7071067811865500152 ) ) ;
#297 = PERSON_AND_ORGANIZATION_ROLE ( 'creator' ) ;
#298 = CARTESIAN_POINT ( 'NONE',  ( 80.00000000000000000, 60.00000000000000000, 96.00000000000000000 ) ) ;
#299 = EDGE_CURVE ( 'NONE', #378, #284, #54, .T. ) ;
#300 = CARTESIAN_POINT ( 'NONE',  ( 82.99999999999995737, 60.00000000000000000, 108.0000000000000000 ) ) ;
#301 = LINE ( 'NONE', #95, #43 ) ;
#302 = ORIENTED_EDGE ( 'NONE', *, *, #374, .T. ) ;
#303 = DIRECTION ( 'NONE',  ( 1.000000000000000000, -0.000000000000000000, 0.000000000000000000 ) ) ;
#304 = VECTOR ( 'NONE', #97, 1000.000000000000000 ) ;
#305 = DIRECTION ( 'NONE',  ( -0.7047286659512866924, -0.08194519371526647056, -0.7047286659512915774 ) ) ;
#306 = CARTESIAN_POINT ( 'NONE',  ( -83.00000000000004263, 60.00000000000002842, 108.0000000000000000 ) ) ;
#307 = EDGE_CURVE ( 'NONE', #344, #410, #52, .T. ) ;
#308 = DIRECTION ( 'NONE',  ( 1.000000000000000000, -0.000000000000000000, 0.000000000000000000 ) ) ;
#309 = ORIENTED_EDGE ( 'NONE', *, *, #258, .F. ) ;
#310 = VECTOR ( 'NONE', #485, 1000.000000000000114 ) ;
#311 = VECTOR ( 'NONE', #259, 1000.000000000000000 ) ;
#312 = CARTESIAN_POINT ( 'NONE',  ( -83.00000000000004263, 200.0000000000000000, 60.00000000000000000 ) ) ;
#313 = DIRECTION ( 'NONE',  ( 1.000000000000000000, -0.000000000000000000, 0.000000000000000000 ) ) ;
#314 = CARTESIAN_POINT ( 'NONE',  ( 80.00000000000000000, 33.60465116279069520, 96.00000000000000000 ) ) ;
#315 = CARTESIAN_POINT ( 'NONE',  ( 17.91133384733926803, 200.0000000000000000, 128.8080185042407209 ) ) ;
#316 = ORIENTED_EDGE ( 'NONE', *, *, #169, .T. ) ;
#317 = PLANE ( 'NONE',  #271 ) ;
#318 = ORIENTED_EDGE ( 'NONE', *, *, #36, .T. ) ;
#319 = ORIENTED_EDGE ( 'NONE', *, *, #408, .F. ) ;
#320 = VECTOR ( 'NONE', #42, 1000.000000000000000 ) ;
#321 = LINE ( 'NONE', #188, #323 ) ;
#322 = CARTESIAN_POINT ( 'NONE',  ( -95.00000000000000000, 200.0000000000000000, 22.00000000000000000 ) ) ;
#323 = VECTOR ( 'NONE', #360, 1000.000000000000000 ) ;
#324 = ORIENTED_EDGE ( 'NONE', *, *, #96, .F. ) ;
#325 = MECHANICAL_CONTEXT ( 'NONE', #168, 'mechanical' ) ;
#326 = DIRECTION ( 'NONE',  ( 0.000000000000000000, -1.000000000000000000, 0.000000000000000000 ) ) ;
#327 = ORIENTED_EDGE ( 'NONE', *, *, #75, .T. ) ;
#328 = PERSON_AND_ORGANIZATION ( #264, #57 ) ;
#329 = EDGE_CURVE ( 'NONE', #232, #286, #218, .T. ) ;
#330 = LINE ( 'NONE', #155, #320 ) ;
#331 = DATE_AND_TIME ( #159, #362 ) ;
#332 = VECTOR ( 'NONE', #90, 999.9999999999998863 ) ;
#333 = CARTESIAN_POINT ( 'NONE',  ( 79.99999999999998579, 35.00000000000000000, 108.0000000000000000 ) ) ;
#334 = VERTEX_POINT ( 'NONE', #12 ) ;
#335 = CARTESIAN_POINT ( 'NONE',  ( -80.00000000000000000, 25.00000000000000000, 22.00000000000000000 ) ) ;
#336 = DIRECTION ( 'NONE',  ( 1.000000000000000000, 0.000000000000000000, 0.000000000000000000 ) ) ;
#337 = VECTOR ( 'NONE', #206, 1000.000000000000000 ) ;
#338 = CARTESIAN_POINT ( 'NONE',  ( 80.00000000000000000, 193.0000000000000000, 18.00000000000000355 ) ) ;
#339 = CARTESIAN_POINT ( 'NONE',  ( -107.6376252891287351, 200.0000000000000000, 33.95451040863518699 ) ) ;
#340 = CC_DESIGN_APPROVAL ( #547, ( #492 ) ) ;
#341 = ORIENTED_EDGE ( 'NONE', *, *, #151, .T. ) ;
#342 = ADVANCED_FACE ( 'NONE', ( #10 ), #174, .T. ) ;
#343 = DIRECTION ( 'NONE',  ( 0.000000000000000000, 1.000000000000000000, 0.000000000000000000 ) ) ;
#344 = VERTEX_POINT ( 'NONE', #166 ) ;
#345 = CARTESIAN_POINT ( 'NONE',  ( -80.00000000000000000, 33.60465116279069520, 96.00000000000000000 ) ) ;
#346 = ORIENTED_EDGE ( 'NONE', *, *, #142, .T. ) ;
#347 = VECTOR ( 'NONE', #326, 1000.000000000000000 ) ;
#348 = DIRECTION ( 'NONE',  ( -0.7047286659512916884, 0.08194519371526594320, 0.7047286659512868034 ) ) ;
#349 = ADVANCED_FACE ( 'NONE', ( #131 ), #389, .T. ) ;
#350 = PLANE ( 'NONE',  #88 ) ;
#351 = EDGE_CURVE ( 'NONE', #521, #369, #215, .T. ) ;
#352 = ORIENTED_EDGE ( 'NONE', *, *, #299, .T. ) ;
#353 = DIRECTION ( 'NONE',  ( -0.7071067811865445751, -0.2293319290334758509, -0.6688847930143044795 ) ) ;
#354 = ORIENTED_EDGE ( 'NONE', *, *, #130, .T. ) ;
#355 = VECTOR ( 'NONE', #348, 1000.000000000000000 ) ;
#356 = ORIENTED_EDGE ( 'NONE', *, *, #15, .T. ) ;
#357 = CARTESIAN_POINT ( 'NONE',  ( -95.00000000000000000, 25.00000000000000000, 22.00000000000000000 ) ) ;
#358 = CARTESIAN_POINT ( 'NONE',  ( 95.00000000000000000, 58.00000000000005684, 96.00000000000004263 ) ) ;
#359 = ORIENTED_EDGE ( 'NONE', *, *, #329, .F. ) ;
#360 = DIRECTION ( 'NONE',  ( 1.000000000000000000, 0.000000000000000000, 0.000000000000000000 ) ) ;
#361 = ORIENTED_EDGE ( 'NONE', *, *, #75, .F. ) ;
#362 = LOCAL_TIME ( 0, 50, 34.00000000000000000, #543 ) ;
#363 = ORIENTED_EDGE ( 'NONE', *, *, #55, .T. ) ;
#364 = CARTESIAN_POINT ( 'NONE',  ( -95.00000000000000000, 200.0000000000000000, 22.00000000000000000 ) ) ;
#365 = CARTESIAN_POINT ( 'NONE',  ( -95.00000000000000000, 33.60465116279069520, 95.99999999999995737 ) ) ;
#366 = EDGE_CURVE ( 'NONE', #29, #232, #172, .T. ) ;
#367 = ORIENTED_EDGE ( 'NONE', *, *, #269, .T. ) ;
#368 = COORDINATED_UNIVERSAL_TIME_OFFSET ( 5, 0, .BEHIND. ) ;
#369 = VERTEX_POINT ( 'NONE', #345 ) ;
#370 = EDGE_CURVE ( 'NONE', #410, #334, #387, .T. ) ;
#371 = APPROVAL_PERSON_ORGANIZATION ( #465, #216, #406 ) ;
#372 = EDGE_LOOP ( 'NONE', ( #19, #72, #489, #361 ) ) ;
#373 = CARTESIAN_POINT ( 'NONE',  ( -95.00000000000000000, 35.00000000000000000, 108.0000000000000000 ) ) ;
#374 = EDGE_CURVE ( 'NONE', #284, #228, #128, .T. ) ;
#375 = ORIENTED_EDGE ( 'NONE', *, *, #151, .F. ) ;
#376 = APPROVAL_ROLE ( '' ) ;
#377 = LINE ( 'NONE', #298, #398 ) ;
#378 = VERTEX_POINT ( 'NONE', #518 ) ;
#379 = APPROVAL_STATUS ( 'not_yet_approved' ) ;
#380 = AXIS2_PLACEMENT_3D ( 'NONE', #473, #303, #170 ) ;
#381 = LINE ( 'NONE', #373, #454 ) ;
#382 = ORIENTED_EDGE ( 'NONE', *, *, #113, .T. ) ;
#383 = DATE_TIME_ROLE ( 'creation_date' ) ;
#384 = CARTESIAN_POINT ( 'NONE',  ( 80.00000000000000000, 33.60465116279069520, 96.00000000000000000 ) ) ;
#385 = CARTESIAN_POINT ( 'NONE',  ( -95.00000000000000000, 200.0000000000000000, 22.00000000000000000 ) ) ;
#386 = VECTOR ( 'NONE', #420, 999.9999999999998863 ) ;
#387 = LINE ( 'NONE', #476, #470 ) ;
#388 = EDGE_CURVE ( 'NONE', #505, #284, #519, .T. ) ;
#389 = PLANE ( 'NONE',  #261 ) ;
#390 = DIRECTION ( 'NONE',  ( -1.000000000000000000, 0.000000000000000000, 0.000000000000000000 ) ) ;
#391 = CARTESIAN_POINT ( 'NONE',  ( -5.402363685200736398, 45.27934461455816262, 196.4023636852001005 ) ) ;
#392 = CARTESIAN_POINT ( 'NONE',  ( -95.00000000000000000, 25.00000000000000000, 22.00000000000000000 ) ) ;
#393 = VECTOR ( 'NONE', #104, 1000.000000000000000 ) ;
#394 = CARTESIAN_POINT ( 'NONE',  ( -80.00000000000000000, 25.00000000000000000, 22.00000000000000000 ) ) ;
#395 = DIRECTION ( 'NONE',  ( 0.000000000000000000, -1.000000000000000000, 0.000000000000000000 ) ) ;
#396 = DIRECTION ( 'NONE',  ( 0.000000000000000000, -0.1155008581745644164, -0.9933073803012536507 ) ) ;
#397 = DIRECTION ( 'NONE',  ( 0.000000000000000000, -1.000000000000000000, 0.000000000000000000 ) ) ;
#398 = VECTOR ( 'NONE', #80, 1000.000000000000000 ) ;
#399 = APPLICATION_CONTEXT ( 'configuration controlled 3d designs of mechanical parts and assemblies' ) ;
#400 = ADVANCED_FACE ( 'NONE', ( #266 ), #132, .T. ) ;
#401 = CARTESIAN_POINT ( 'NONE',  ( -95.00000000000000000, 0.000000000000000000, 0.000000000000000000 ) ) ;
#402 = CARTESIAN_POINT ( 'NONE',  ( -80.00000000000000000, 193.0000000000000000, 48.00000000000000000 ) ) ;
#403 = ORIENTED_EDGE ( 'NONE', *, *, #227, .F. ) ;
#404 = CARTESIAN_POINT ( 'NONE',  ( 95.00000000000000000, 25.00000000000000000, 22.00000000000000000 ) ) ;
#405 = ORIENTED_EDGE ( 'NONE', *, *, #211, .F. ) ;
#406 = APPROVAL_ROLE ( '' ) ;
#407 = DIRECTION ( 'NONE',  ( 0.000000000000000000, 0.000000000000000000, 1.000000000000000000 ) ) ;
#408 = EDGE_CURVE ( 'NONE', #232, #494, #134, .T. ) ;
#409 = VECTOR ( 'NONE', #160, 1000.000000000000227 ) ;
#410 = VERTEX_POINT ( 'NONE', #94 ) ;
#411 = DIRECTION ( 'NONE',  ( 0.000000000000000000, 0.000000000000000000, 1.000000000000000000 ) ) ;
#412 = CC_DESIGN_PERSON_AND_ORGANIZATION_ASSIGNMENT ( #242, #33, ( #101 ) ) ;
#413 = FACE_OUTER_BOUND ( 'NONE', #459, .T. ) ;
#414 = ORIENTED_EDGE ( 'NONE', *, *, #51, .T. ) ;
#415 = MANIFOLD_SOLID_BREP ( '12 mm Full-Length Shape-Defining Roof Chamfers', #21 ) ;
#416 = PERSON_AND_ORGANIZATION ( #264, #57 ) ;
#417 = CARTESIAN_POINT ( 'NONE',  ( 95.00000000000000000, 200.0000000000000000, 22.00000000000000000 ) ) ;
#418 = ORIENTED_EDGE ( 'NONE', *, *, #214, .T. ) ;
#419 = CALENDAR_DATE ( 2026, 30, 7 ) ;
#420 = DIRECTION ( 'NONE',  ( 0.000000000000000000, 0.1155008581745644164, 0.9933073803012536507 ) ) ;
#421 = EDGE_CURVE ( 'NONE', #505, #29, #262, .T. ) ;
#422 = ORIENTED_EDGE ( 'NONE', *, *, #62, .T. ) ;
#423 = CARTESIAN_POINT ( 'NONE',  ( -83.00000000000004263, 60.00000000000000000, 108.0000000000000000 ) ) ;
#424 = LINE ( 'NONE', #545, #409 ) ;
#425 = EDGE_CURVE ( 'NONE', #245, #24, #301, .T. ) ;
#426 = DIRECTION ( 'NONE',  ( 0.7022468831767807451, 0.1170411471961326499, 0.7022468831767857411 ) ) ;
#427 = ADVANCED_FACE ( 'NONE', ( #265 ), #91, .T. ) ;
#428 = VECTOR ( 'NONE', #5, 1000.000000000000114 ) ;
#429 = DIRECTION ( 'NONE',  ( 0.000000000000000000, -0.3394706675354159375, -0.9406166412960484946 ) ) ;
#430 = EDGE_CURVE ( 'NONE', #531, #286, #53, .T. ) ;
#431 = CARTESIAN_POINT ( 'NONE',  ( -88.95970991136178441, 34.30701047542305560, 102.0402900886382156 ) ) ;
#432 = CARTESIAN_POINT ( 'NONE',  ( 80.00000000000000000, 193.0000000000000000, 48.00000000000000000 ) ) ;
#433 = CC_DESIGN_PERSON_AND_ORGANIZATION_ASSIGNMENT ( #287, #209, ( #124 ) ) ;
#434 = CARTESIAN_POINT ( 'NONE',  ( -83.00000000000004263, 60.00000000000000000, 108.0000000000000142 ) ) ;
#435 = FACE_OUTER_BOUND ( 'NONE', #372, .T. ) ;
#436 = LOCAL_TIME ( 0, 50, 34.00000000000000000, #82 ) ;
#437 = DIRECTION ( 'NONE',  ( 0.000000000000000000, 0.000000000000000000, 1.000000000000000000 ) ) ;
#438 = CARTESIAN_POINT ( 'NONE',  ( -95.00000000000000000, 35.00000000000000000, 108.0000000000000000 ) ) ;
#439 = PLANE ( 'NONE',  #524 ) ;
#440 = EDGE_CURVE ( 'NONE', #24, #1, #260, .T. ) ;
#441 = VERTEX_POINT ( 'NONE', #364 ) ;
#442 = VECTOR ( 'NONE', #110, 1000.000000000000000 ) ;
#443 = ORIENTED_EDGE ( 'NONE', *, *, #183, .F. ) ;
#444 = FACE_OUTER_BOUND ( 'NONE', #451, .T. ) ;
#445 = ORIENTED_EDGE ( 'NONE', *, *, #425, .F. ) ;
#446 = VERTEX_POINT ( 'NONE', #484 ) ;
#447 = FACE_OUTER_BOUND ( 'NONE', #56, .T. ) ;
#448 = ADVANCED_FACE ( 'NONE', ( #178 ), #477, .T. ) ;
#449 = CARTESIAN_POINT ( 'NONE',  ( -83.00000000000004263, 60.00000000000000000, 108.0000000000000000 ) ) ;
#450 = CC_DESIGN_DATE_AND_TIME_ASSIGNMENT ( #123, #383, ( #512 ) ) ;
#451 = EDGE_LOOP ( 'NONE', ( #482, #319, #497, #224 ) ) ;
#452 = APPLICATION_PROTOCOL_DEFINITION ( 'international standard', 'config_control_design', 1994, #399 ) ;
#453 = CARTESIAN_POINT ( 'NONE',  ( 80.00000000000000000, 193.0000000000000000, 22.00000000000000000 ) ) ;
#454 = VECTOR ( 'NONE', #461, 1000.000000000000114 ) ;
#455 = ORIENTED_EDGE ( 'NONE', *, *, #55, .F. ) ;
#456 = PRODUCT_DEFINITION_SHAPE ( 'NONE', 'NONE',  #512 ) ;
#457 = DIRECTION ( 'NONE',  ( 1.000000000000000000, 0.000000000000000000, 0.000000000000000000 ) ) ;
#458 = EDGE_CURVE ( 'NONE', #531, #479, #321, .T. ) ;
#459 = EDGE_LOOP ( 'NONE', ( #463, #63, #106, #16 ) ) ;
#460 = DATE_AND_TIME ( #295, #508 ) ;
#461 = DIRECTION ( 'NONE',  ( 0.000000000000000000, -0.1155008581745644025, -0.9933073803012535397 ) ) ;
#462 = APPROVAL_PERSON_ORGANIZATION ( #328, #533, #376 ) ;
#463 = ORIENTED_EDGE ( 'NONE', *, *, #504, .T. ) ;
#464 = PLANE ( 'NONE',  #176 ) ;
#465 = PERSON_AND_ORGANIZATION ( #264, #57 ) ;
#466 = DIRECTION ( 'NONE',  ( 0.000000000000000000, -1.000000000000000000, 0.000000000000000000 ) ) ;
#467 = ADVANCED_FACE ( 'NONE', ( #447 ), #350, .T. ) ;
#468 = DIRECTION ( 'NONE',  ( 0.000000000000000000, 0.9459459459459459429, -0.3243243243243243423 ) ) ;
#469 = DIRECTION ( 'NONE',  ( 0.000000000000000000, -1.000000000000000000, 0.000000000000000000 ) ) ;
#470 = VECTOR ( 'NONE', #390, 1000.000000000000000 ) ;
#471 = CARTESIAN_POINT ( 'NONE',  ( -95.00000000000000000, 196.1081081081080981, 48.64864864864860294 ) ) ;
#472 = DESIGN_CONTEXT ( 'detailed design', #399, 'design' ) ;
#473 = CARTESIAN_POINT ( 'NONE',  ( 95.00000000000000000, 0.000000000000000000, 0.000000000000000000 ) ) ;
#474 = ADVANCED_FACE ( 'NONE', ( #185 ), #532, .T. ) ;
#475 = CC_DESIGN_SECURITY_CLASSIFICATION ( #101, ( #492 ) ) ;
#476 = CARTESIAN_POINT ( 'NONE',  ( 80.00000000000000000, 60.00000000000000000, 96.00000000000000000 ) ) ;
#477 = PLANE ( 'NONE',  #175 ) ;
#478 = ORIENTED_EDGE ( 'NONE', *, *, #366, .T. ) ;
#479 = VERTEX_POINT ( 'NONE', #282 ) ;
#480 = EDGE_CURVE ( 'NONE', #228, #479, #58, .T. ) ;
#481 = AXIS2_PLACEMENT_3D ( 'NONE', #401, #138, #274 ) ;
#482 = ORIENTED_EDGE ( 'NONE', *, *, #292, .F. ) ;
#483 = VERTEX_POINT ( 'NONE', #314 ) ;
#484 = CARTESIAN_POINT ( 'NONE',  ( -80.00000000000000000, 193.0000000000000000, 22.00000000000000000 ) ) ;
#485 = DIRECTION ( 'NONE',  ( 0.6871998538760853981, -0.000000000000000000, -0.7264684169547130921 ) ) ;
#486 = PLANE ( 'NONE',  #481 ) ;
#487 = ORIENTED_EDGE ( 'NONE', *, *, #504, .F. ) ;
#488 = VECTOR ( 'NONE', #114, 1000.000000000000000 ) ;
#489 = ORIENTED_EDGE ( 'NONE', *, *, #196, .T. ) ;
#490 = FACE_OUTER_BOUND ( 'NONE', #223, .T. ) ;
#491 = LINE ( 'NONE', #273, #442 ) ;
#492 = PRODUCT_DEFINITION_FORMATION_WITH_SPECIFIED_SOURCE ( 'ANY', '', #124, .NOT_KNOWN. ) ;
#493 = CC_DESIGN_PERSON_AND_ORGANIZATION_ASSIGNMENT ( #416, #495, ( #492 ) ) ;
#494 = VERTEX_POINT ( 'NONE', #26 ) ;
#495 = PERSON_AND_ORGANIZATION_ROLE ( 'creator' ) ;
#496 = CARTESIAN_POINT ( 'NONE',  ( 95.00000000000000000, 200.0000000000000000, 22.00000000000000000 ) ) ;
#497 = ORIENTED_EDGE ( 'NONE', *, *, #329, .T. ) ;
#498 = CALENDAR_DATE ( 2026, 30, 7 ) ;
#499 = LINE ( 'NONE', #496, #337 ) ;
#500 = VECTOR ( 'NONE', #426, 1000.000000000000114 ) ;
#501 = ORIENTED_EDGE ( 'NONE', *, *, #220, .F. ) ;
#502 = PERSON_AND_ORGANIZATION_ROLE ( 'design_supplier' ) ;
#503 = LINE ( 'NONE', #83, #31 ) ;
#504 = EDGE_CURVE ( 'NONE', #286, #228, #191, .T. ) ;
#505 = VERTEX_POINT ( 'NONE', #268 ) ;
#506 = PERSON_AND_ORGANIZATION ( #264, #57 ) ;
#507 = DIRECTION ( 'NONE',  ( 0.000000000000000000, -0.1155008581745644025, -0.9933073803012535397 ) ) ;
#508 = LOCAL_TIME ( 0, 50, 34.00000000000000000, #199 ) ;
#509 = LINE ( 'NONE', #34, #267 ) ;
#510 = ADVANCED_FACE ( 'NONE', ( #444 ), #523, .T. ) ;
#511 = CARTESIAN_POINT ( 'NONE',  ( -80.00000000000000000, 35.00000000000000000, 108.0000000000000000 ) ) ;
#512 = PRODUCT_DEFINITION ( 'UNKNOWN', '', #492, #472 ) ;
#513 = LOCAL_TIME ( 0, 50, 34.00000000000000000, #368 ) ;
#514 = CARTESIAN_POINT ( 'NONE',  ( 80.00000000000000000, 60.00000000000000000, 96.00000000000000000 ) ) ;
#515 = CARTESIAN_POINT ( 'NONE',  ( -95.00000000000000000, 35.00000000000000000, 108.0000000000000000 ) ) ;
#516 = ADVANCED_FACE ( 'NONE', ( #435 ), #317, .F. ) ;
#517 = ORIENTED_EDGE ( 'NONE', *, *, #269, .F. ) ;
#518 = CARTESIAN_POINT ( 'NONE',  ( 95.00000000000000000, 33.60465116279070230, 96.00000000000004263 ) ) ;
#519 = LINE ( 'NONE', #515, #304 ) ;
#520 = CARTESIAN_POINT ( 'NONE',  ( -80.00000000000000000, 0.000000000000000000, 0.000000000000000000 ) ) ;
#521 = VERTEX_POINT ( 'NONE', #394 ) ;
#522 = ADVANCED_FACE ( 'NONE', ( #14 ), #486, .F. ) ;
#523 = PLANE ( 'NONE',  #154 ) ;
#524 = AXIS2_PLACEMENT_3D ( 'NONE', #449, #30, #59 ) ;
#525 = CARTESIAN_POINT ( 'NONE',  ( 80.00000000000000000, 193.0000000000000000, 18.00000000000000355 ) ) ;
#526 = DIRECTION ( 'NONE',  ( -0.7071067811865501263, 0.2293319290334740468, 0.6688847930142992615 ) ) ;
#527 = CARTESIAN_POINT ( 'NONE',  ( -83.00000000000004263, 35.00000000000000000, 108.0000000000000000 ) ) ;
#528 = EDGE_LOOP ( 'NONE', ( #414, #363, #147, #281 ) ) ;
#529 = DIRECTION ( 'NONE',  ( 0.000000000000000000, 0.9459459459459459429, -0.3243243243243243423 ) ) ;
#530 = CARTESIAN_POINT ( 'NONE',  ( -80.00000000000000000, 193.0000000000000000, 18.00000000000000355 ) ) ;
#531 = VERTEX_POINT ( 'NONE', #312 ) ;
#532 = PLANE ( 'NONE',  #538 ) ;
#533 = APPROVAL ( #205, 'UNSPECIFIED' ) ;
#534 = LINE ( 'NONE', #525, #167 ) ;
#535 = ORIENTED_EDGE ( 'NONE', *, *, #126, .T. ) ;
#536 = PERSON_AND_ORGANIZATION ( #264, #57 ) ;
#537 = DIRECTION ( 'NONE',  ( 0.000000000000000000, 0.000000000000000000, 1.000000000000000000 ) ) ;
#538 = AXIS2_PLACEMENT_3D ( 'NONE', #64, #17, #136 ) ;
#539 = ORIENTED_EDGE ( 'NONE', *, *, #130, .F. ) ;
#540 = APPROVAL_DATE_TIME ( #38, #216 ) ;
#541 = CARTESIAN_POINT ( 'NONE',  ( -95.00000000000000000, 25.00000000000000000, 22.00000000000000000 ) ) ;
#542 = ORIENTED_EDGE ( 'NONE', *, *, #351, .F. ) ;
#543 = COORDINATED_UNIVERSAL_TIME_OFFSET ( 5, 0, .BEHIND. ) ;
#544 = ADVANCED_FACE ( 'NONE', ( #490 ), #229, .T. ) ;
#545 = CARTESIAN_POINT ( 'NONE',  ( 99.76712328767115423, 57.20547945205491658, 91.23287671232893103 ) ) ;
#546 = VECTOR ( 'NONE', #7, 1000.000000000000000 ) ;
#547 = APPROVAL ( #78, 'UNSPECIFIED' ) ;
#548 = ORIENTED_EDGE ( 'NONE', *, *, #408, .T. ) ;
#549 = CARTESIAN_POINT ( 'NONE',  ( -95.00000000000000000, 60.00000000000000000, 108.0000000000000000 ) ) ;
ENDSEC;
END-ISO-10303-21;
