ISO-10303-21;
HEADER;
FILE_DESCRIPTION (( 'STEP AP203' ),
    '1' );
FILE_NAME ('jet_ski_dash_cover_v2.step',
    '2026-07-25T19:49:12',
    ( '' ),
    ( '' ),
    'SwSTEP 2.0',
    'SolidWorks 2026',
    '' );
FILE_SCHEMA (( 'CONFIG_CONTROL_DESIGN' ));
ENDSEC;

DATA;
#1 = FACE_OUTER_BOUND ( 'NONE', #192, .T. ) ;
#2 = VECTOR ( 'NONE', #190, 999.9999999999998863 ) ;
#3 = EDGE_LOOP ( 'NONE', ( #429, #230, #114, #399 ) ) ;
#4 = LOCAL_TIME ( 15, 49, 12.00000000000000000, #437 ) ;
#5 = APPROVAL_PERSON_ORGANIZATION ( #251, #420, #100 ) ;
#6 = CARTESIAN_POINT ( 'NONE',  ( -88.00000000000000000, 193.0000000000000000, 56.00000000000000000 ) ) ;
#7 = VERTEX_POINT ( 'NONE', #357 ) ;
#8 = CARTESIAN_POINT ( 'NONE',  ( 95.00000000000000000, 40.00000000000000000, 22.00000000000000000 ) ) ;
#9 = ORIENTED_EDGE ( 'NONE', *, *, #219, .T. ) ;
#10 = FACE_OUTER_BOUND ( 'NONE', #150, .T. ) ;
#11 = VERTEX_POINT ( 'NONE', #50 ) ;
#12 = APPLICATION_CONTEXT ( 'configuration controlled 3d designs of mechanical parts and assemblies' ) ;
#13 = VECTOR ( 'NONE', #430, 1000.000000000000000 ) ;
#14 = DIRECTION ( 'NONE',  ( 0.000000000000000000, -1.000000000000000000, 0.000000000000000000 ) ) ;
#15 = CARTESIAN_POINT ( 'NONE',  ( -95.00000000000000000, 45.00000000000000000, 25.00000000000000000 ) ) ;
#16 = CARTESIAN_POINT ( 'NONE',  ( 95.00000000000000000, 200.0000000000000000, 22.00000000000000000 ) ) ;
#17 = EDGE_CURVE ( 'NONE', #344, #341, #85, .T. ) ;
#18 = FACE_OUTER_BOUND ( 'NONE', #436, .T. ) ;
#19 = VECTOR ( 'NONE', #220, 1000.000000000000000 ) ;
#20 = EDGE_LOOP ( 'NONE', ( #112, #480, #495, #392 ) ) ;
#21 = PRODUCT_DEFINITION_SHAPE ( 'NONE', 'NONE',  #49 ) ;
#22 = LINE ( 'NONE', #295, #162 ) ;
#23 = APPROVAL_ROLE ( '' ) ;
#24 = DIRECTION ( 'NONE',  ( 0.000000000000000000, 1.000000000000000000, 0.000000000000000000 ) ) ;
#25 = COORDINATED_UNIVERSAL_TIME_OFFSET ( 5, 0, .BEHIND. ) ;
#26 = VECTOR ( 'NONE', #375, 1000.000000000000000 ) ;
#27 = CARTESIAN_POINT ( 'NONE',  ( 88.00000000000000000, 40.00000000000000000, 22.00000000000000000 ) ) ;
#28 = LINE ( 'NONE', #366, #80 ) ;
#29 = DIRECTION ( 'NONE',  ( 0.000000000000000000, -0.9626509401538988486, 0.2707455769182840477 ) ) ;
#30 = EDGE_CURVE ( 'NONE', #7, #352, #394, .T. ) ;
#31 = CARTESIAN_POINT ( 'NONE',  ( -95.00000000000000000, 200.0000000000000000, 22.00000000000000000 ) ) ;
#32 = AXIS2_PLACEMENT_3D ( 'NONE', #435, #355, #167 ) ;
#33 = ORIENTED_EDGE ( 'NONE', *, *, #398, .F. ) ;
#34 = EDGE_CURVE ( 'NONE', #69, #344, #244, .T. ) ;
#35 = DIRECTION ( 'NONE',  ( 0.000000000000000000, 1.000000000000000000, 0.000000000000000000 ) ) ;
#36 = ORIENTED_EDGE ( 'NONE', *, *, #86, .F. ) ;
#37 = DIRECTION ( 'NONE',  ( 0.000000000000000000, 0.000000000000000000, -1.000000000000000000 ) ) ;
#38 = ORIENTED_EDGE ( 'NONE', *, *, #311, .F. ) ;
#39 = DIRECTION ( 'NONE',  ( -1.000000000000000000, 0.000000000000000000, -0.000000000000000000 ) ) ;
#40 = VECTOR ( 'NONE', #197, 1000.000000000000000 ) ;
#41 = ORIENTED_EDGE ( 'NONE', *, *, #386, .T. ) ;
#42 = APPROVAL_PERSON_ORGANIZATION ( #330, #191, #23 ) ;
#43 = FACE_OUTER_BOUND ( 'NONE', #156, .T. ) ;
#44 = ORIENTED_EDGE ( 'NONE', *, *, #130, .T. ) ;
#45 = ORIENTED_EDGE ( 'NONE', *, *, #294, .F. ) ;
#46 = ORIENTED_EDGE ( 'NONE', *, *, #228, .T. ) ;
#47 = VECTOR ( 'NONE', #358, 1000.000000000000000 ) ;
#48 = DIRECTION ( 'NONE',  ( 0.000000000000000000, 0.000000000000000000, -1.000000000000000000 ) ) ;
#49 = PRODUCT_DEFINITION ( 'UNKNOWN', '', #389, #222 ) ;
#50 = CARTESIAN_POINT ( 'NONE',  ( 95.00000000000000000, 40.00000000000000000, 105.0000000000000000 ) ) ;
#51 = LINE ( 'NONE', #164, #40 ) ;
#52 = CARTESIAN_POINT ( 'NONE',  ( -95.00000000000000000, 40.00000000000000000, 22.00000000000000000 ) ) ;
#53 = COORDINATED_UNIVERSAL_TIME_OFFSET ( 5, 0, .BEHIND. ) ;
#54 = ORIENTED_EDGE ( 'NONE', *, *, #299, .T. ) ;
#55 = CLOSED_SHELL ( 'NONE', ( #332, #139, #367, #350, #448, #115, #410, #438, #76, #323, #443, #343, #267 ) ) ;
#56 = EDGE_CURVE ( 'NONE', #122, #152, #285, .T. ) ;
#57 = VECTOR ( 'NONE', #108, 1000.000000000000000 ) ;
#58 = PERSON_AND_ORGANIZATION ( #166, #303 ) ;
#59 = CARTESIAN_POINT ( 'NONE',  ( -88.00000000000000000, 45.00000000000000000, 25.00000000000000000 ) ) ;
#60 = PERSON_AND_ORGANIZATION ( #166, #303 ) ;
#61 = CARTESIAN_POINT ( 'NONE',  ( -95.00000000000000000, 40.00000000000000000, 22.00000000000000000 ) ) ;
#62 = APPROVAL_ROLE ( '' ) ;
#63 = CARTESIAN_POINT ( 'NONE',  ( 95.00000000000000000, 40.00000000000000000, 22.00000000000000000 ) ) ;
#64 = AXIS2_PLACEMENT_3D ( 'NONE', #487, #143, #304 ) ;
#65 = CALENDAR_DATE ( 2026, 25, 7 ) ;
#66 = LINE ( 'NONE', #447, #388 ) ;
#67 = CARTESIAN_POINT ( 'NONE',  ( 88.00000000000000000, 45.00000000000000000, 25.00000000000000000 ) ) ;
#68 = DIRECTION ( 'NONE',  ( 0.000000000000000000, 0.000000000000000000, -1.000000000000000000 ) ) ;
#69 = VERTEX_POINT ( 'NONE', #434 ) ;
#70 = VECTOR ( 'NONE', #163, 1000.000000000000000 ) ;
#71 = CARTESIAN_POINT ( 'NONE',  ( 88.00000000000000000, 40.00000000000000000, 105.0000000000000000 ) ) ;
#72 = VECTOR ( 'NONE', #407, 1000.000000000000000 ) ;
#73 = ORIENTED_EDGE ( 'NONE', *, *, #257, .T. ) ;
#74 = CARTESIAN_POINT ( 'NONE',  ( -88.00000000000000000, 0.000000000000000000, 0.000000000000000000 ) ) ;
#75 = ORIENTED_EDGE ( 'NONE', *, *, #145, .F. ) ;
#76 = ADVANCED_FACE ( 'NONE', ( #18 ), #427, .F. ) ;
#77 = CARTESIAN_POINT ( 'NONE',  ( -95.00000000000000000, 40.00000000000000000, 105.0000000000000000 ) ) ;
#78 = ORIENTED_EDGE ( 'NONE', *, *, #86, .T. ) ;
#79 = LINE ( 'NONE', #82, #345 ) ;
#80 = VECTOR ( 'NONE', #288, 1000.000000000000000 ) ;
#81 = ORIENTED_EDGE ( 'NONE', *, *, #123, .F. ) ;
#82 = CARTESIAN_POINT ( 'NONE',  ( -95.00000000000000000, 200.0000000000000000, 60.00000000000000000 ) ) ;
#83 = CARTESIAN_POINT ( 'NONE',  ( 88.00000000000000000, 0.000000000000000000, 0.000000000000000000 ) ) ;
#84 = LINE ( 'NONE', #249, #13 ) ;
#85 = LINE ( 'NONE', #283, #144 ) ;
#86 = EDGE_CURVE ( 'NONE', #69, #391, #239, .T. ) ;
#87 = EDGE_LOOP ( 'NONE', ( #202, #468, #277, #90 ) ) ;
#88 = APPROVAL_PERSON_ORGANIZATION ( #406, #280, #62 ) ;
#89 = LINE ( 'NONE', #204, #47 ) ;
#90 = ORIENTED_EDGE ( 'NONE', *, *, #291, .T. ) ;
#91 = FACE_OUTER_BOUND ( 'NONE', #20, .T. ) ;
#92 = VERTEX_POINT ( 'NONE', #484 ) ;
#93 = APPLICATION_PROTOCOL_DEFINITION ( 'international standard', 'config_control_design', 1994, #12 ) ;
#94 = DIRECTION ( 'NONE',  ( 0.000000000000000000, -0.9626509401538989597, 0.2707455769182840477 ) ) ;
#95 = CC_DESIGN_SECURITY_CLASSIFICATION ( #417, ( #389 ) ) ;
#96 = APPROVAL_STATUS ( 'not_yet_approved' ) ;
#97 = DIRECTION ( 'NONE',  ( 1.000000000000000000, -0.000000000000000000, 0.000000000000000000 ) ) ;
#98 = DIRECTION ( 'NONE',  ( 0.000000000000000000, -0.9603462267536241326, 0.2788101948639554739 ) ) ;
#99 = EDGE_CURVE ( 'NONE', #391, #7, #22, .T. ) ;
#100 = APPROVAL_ROLE ( '' ) ;
#101 = DIRECTION ( 'NONE',  ( 0.000000000000000000, -1.000000000000000000, 0.000000000000000000 ) ) ;
#102 = VECTOR ( 'NONE', #404, 1000.000000000000000 ) ;
#103 = DATE_TIME_ROLE ( 'creation_date' ) ;
#104 = LOCAL_TIME ( 15, 49, 12.00000000000000000, #25 ) ;
#105 = DIRECTION ( 'NONE',  ( 0.000000000000000000, 0.000000000000000000, 1.000000000000000000 ) ) ;
#106 = CARTESIAN_POINT ( 'NONE',  ( -95.00000000000000000, 40.00000000000000000, 22.00000000000000000 ) ) ;
#107 = CC_DESIGN_PERSON_AND_ORGANIZATION_ASSIGNMENT ( #134, #292, ( #389 ) ) ;
#108 = DIRECTION ( 'NONE',  ( 1.000000000000000000, 0.000000000000000000, 0.000000000000000000 ) ) ;
#109 = EDGE_LOOP ( 'NONE', ( #73, #224, #455, #170 ) ) ;
#110 = LINE ( 'NONE', #77, #57 ) ;
#111 = VECTOR ( 'NONE', #226, 1000.000000000000000 ) ;
#112 = ORIENTED_EDGE ( 'NONE', *, *, #485, .F. ) ;
#113 = CARTESIAN_POINT ( 'NONE',  ( -95.00000000000000000, 52.00000000000000711, 25.00000000000000000 ) ) ;
#114 = ORIENTED_EDGE ( 'NONE', *, *, #176, .T. ) ;
#115 = ADVANCED_FACE ( 'NONE', ( #221 ), #328, .T. ) ;
#116 = CARTESIAN_POINT ( 'NONE',  ( 88.00000000000000000, 40.00000000000000000, 22.00000000000000000 ) ) ;
#117 = VERTEX_POINT ( 'NONE', #138 ) ;
#118 = EDGE_CURVE ( 'NONE', #336, #184, #445, .T. ) ;
#119 = VECTOR ( 'NONE', #132, 1000.000000000000000 ) ;
#120 = EDGE_LOOP ( 'NONE', ( #38, #384, #232, #400 ) ) ;
#121 = DIRECTION ( 'NONE',  ( 1.000000000000000000, 0.000000000000000000, 0.000000000000000000 ) ) ;
#122 = VERTEX_POINT ( 'NONE', #59 ) ;
#123 = EDGE_CURVE ( 'NONE', #465, #152, #135, .T. ) ;
#124 = PLANE ( 'NONE',  #127 ) ;
#125 = ORIENTED_EDGE ( 'NONE', *, *, #17, .T. ) ;
#126 = ORIENTED_EDGE ( 'NONE', *, *, #129, .T. ) ;
#127 = AXIS2_PLACEMENT_3D ( 'NONE', #201, #14, #467 ) ;
#128 = CC_DESIGN_APPROVAL ( #191, ( #389 ) ) ;
#129 = EDGE_CURVE ( 'NONE', #117, #336, #477, .T. ) ;
#130 = EDGE_CURVE ( 'NONE', #269, #344, #256, .T. ) ;
#131 = LINE ( 'NONE', #395, #136 ) ;
#132 = DIRECTION ( 'NONE',  ( 0.000000000000000000, 1.000000000000000000, 0.000000000000000000 ) ) ;
#133 = DIRECTION ( 'NONE',  ( -0.000000000000000000, 0.000000000000000000, 1.000000000000000000 ) ) ;
#134 = PERSON_AND_ORGANIZATION ( #166, #303 ) ;
#135 = LINE ( 'NONE', #211, #102 ) ;
#136 = VECTOR ( 'NONE', #284, 1000.000000000000000 ) ;
#137 = COORDINATED_UNIVERSAL_TIME_OFFSET ( 5, 0, .BEHIND. ) ;
#138 = CARTESIAN_POINT ( 'NONE',  ( 88.00000000000000000, 193.0000000000000000, 22.00000000000000000 ) ) ;
#139 = ADVANCED_FACE ( 'NONE', ( #175 ), #293, .T. ) ;
#140 = PERSON_AND_ORGANIZATION ( #166, #303 ) ;
#141 = DIRECTION ( 'NONE',  ( 1.000000000000000000, 0.000000000000000000, 0.000000000000000000 ) ) ;
#142 = APPROVAL_DATE_TIME ( #374, #420 ) ;
#143 = DIRECTION ( 'NONE',  ( 0.000000000000000000, 1.000000000000000000, 0.000000000000000000 ) ) ;
#144 = VECTOR ( 'NONE', #241, 1000.000000000000000 ) ;
#145 = EDGE_CURVE ( 'NONE', #492, #419, #183, .T. ) ;
#146 = VECTOR ( 'NONE', #234, 1000.000000000000000 ) ;
#147 = CARTESIAN_POINT ( 'NONE',  ( -88.00000000000000000, 40.00000000000000711, 100.4193548387096939 ) ) ;
#148 = EDGE_LOOP ( 'NONE', ( #9, #168, #250, #205 ) ) ;
#149 = DIRECTION ( 'NONE',  ( 0.000000000000000000, 0.000000000000000000, -1.000000000000000000 ) ) ;
#150 = EDGE_LOOP ( 'NONE', ( #126, #54, #325, #227 ) ) ;
#151 = CARTESIAN_POINT ( 'NONE',  ( -88.00000000000000000, 45.00000000000000000, 0.000000000000000000 ) ) ;
#152 = VERTEX_POINT ( 'NONE', #67 ) ;
#153 = DIRECTION ( 'NONE',  ( 0.000000000000000000, -0.000000000000000000, -1.000000000000000000 ) ) ;
#154 = VECTOR ( 'NONE', #255, 1000.000000000000000 ) ;
#155 = CC_DESIGN_APPROVAL ( #420, ( #417 ) ) ;
#156 = EDGE_LOOP ( 'NONE', ( #313, #339, #412, #195, #275, #422, #464, #431 ) ) ;
#157 = CARTESIAN_POINT ( 'NONE',  ( -95.00000000000000000, 200.0000000000000000, 60.00000000000000000 ) ) ;
#158 = ORIENTED_EDGE ( 'NONE', *, *, #208, .F. ) ;
#159 =( NAMED_UNIT ( * ) SI_UNIT ( $, .STERADIAN. ) SOLID_ANGLE_UNIT ( ) );
#160 = ORIENTED_EDGE ( 'NONE', *, *, #416, .T. ) ;
#161 = DIRECTION ( 'NONE',  ( 0.000000000000000000, -1.000000000000000000, 0.000000000000000000 ) ) ;
#162 = VECTOR ( 'NONE', #141, 1000.000000000000000 ) ;
#163 = DIRECTION ( 'NONE',  ( 0.000000000000000000, 0.000000000000000000, 1.000000000000000000 ) ) ;
#164 = CARTESIAN_POINT ( 'NONE',  ( -88.00000000000000000, 0.000000000000000000, 25.00000000000000000 ) ) ;
#165 = DIRECTION ( 'NONE',  ( 1.000000000000000000, -0.000000000000000000, 0.000000000000000000 ) ) ;
#166 = PERSON ( 'UNSPECIFIED', 'UNSPECIFIED', 'UNSPECIFIED', ('UNSPECIFIED'), ('UNSPECIFIED'), ('UNSPECIFIED') ) ;
#167 = DIRECTION ( 'NONE',  ( 0.000000000000000000, 0.9603462267536241326, -0.2788101948639554739 ) ) ;
#168 = ORIENTED_EDGE ( 'NONE', *, *, #30, .T. ) ;
#169 = FACE_OUTER_BOUND ( 'NONE', #120, .T. ) ;
#170 = ORIENTED_EDGE ( 'NONE', *, *, #471, .T. ) ;
#171 = AXIS2_PLACEMENT_3D ( 'NONE', #106, #68, #39 ) ;
#172 = CC_DESIGN_APPROVAL ( #280, ( #49 ) ) ;
#173 = ORIENTED_EDGE ( 'NONE', *, *, #237, .T. ) ;
#174 = CARTESIAN_POINT ( 'NONE',  ( 0.000000000000000000, 0.000000000000000000, 0.000000000000000000 ) ) ;
#175 = FACE_OUTER_BOUND ( 'NONE', #472, .T. ) ;
#176 = EDGE_CURVE ( 'NONE', #236, #92, #66, .T. ) ;
#177 = CARTESIAN_POINT ( 'NONE',  ( 88.00000000000000000, 193.0000000000000000, 18.00000000000000355 ) ) ;
#178 = VECTOR ( 'NONE', #37, 1000.000000000000000 ) ;
#179 = MECHANICAL_CONTEXT ( 'NONE', #452, 'mechanical' ) ;
#180 = CARTESIAN_POINT ( 'NONE',  ( 88.00000000000000000, 40.00000000000000711, 100.4193548387096939 ) ) ;
#181 = LINE ( 'NONE', #63, #296 ) ;
#182 = CC_DESIGN_DATE_AND_TIME_ASSIGNMENT ( #440, #444, ( #417 ) ) ;
#183 = LINE ( 'NONE', #61, #72 ) ;
#184 = VERTEX_POINT ( 'NONE', #180 ) ;
#185 = AXIS2_PLACEMENT_3D ( 'NONE', #381, #35, #385 ) ;
#186 = DIRECTION ( 'NONE',  ( 1.000000000000000000, 0.000000000000000000, 0.000000000000000000 ) ) ;
#187 = ORIENTED_EDGE ( 'NONE', *, *, #459, .F. ) ;
#188 = CARTESIAN_POINT ( 'NONE',  ( -95.00000000000000000, 40.00000000000000000, 105.0000000000000000 ) ) ;
#189 = ORIENTED_EDGE ( 'NONE', *, *, #118, .F. ) ;
#190 = DIRECTION ( 'NONE',  ( 0.000000000000000000, -0.9603462267536241326, 0.2788101948639554739 ) ) ;
#191 = APPROVAL ( #261, 'UNSPECIFIED' ) ;
#192 = EDGE_LOOP ( 'NONE', ( #264, #273, #349, #489, #309, #200, #125, #160 ) ) ;
#193 = VECTOR ( 'NONE', #361, 1000.000000000000000 ) ;
#194 = DIRECTION ( 'NONE',  ( 0.000000000000000000, 0.000000000000000000, 1.000000000000000000 ) ) ;
#195 = ORIENTED_EDGE ( 'NONE', *, *, #257, .F. ) ;
#196 = ADVANCED_BREP_SHAPE_REPRESENTATION ( 'jet_ski_dash_cover_v2', ( #460, #243 ), #329 ) ;
#197 = DIRECTION ( 'NONE',  ( 0.000000000000000000, -1.000000000000000000, 0.000000000000000000 ) ) ;
#198 = ORIENTED_EDGE ( 'NONE', *, *, #402, .T. ) ;
#199 = LINE ( 'NONE', #240, #354 ) ;
#200 = ORIENTED_EDGE ( 'NONE', *, *, #34, .T. ) ;
#201 = CARTESIAN_POINT ( 'NONE',  ( 88.00000000000000000, 193.0000000000000000, 18.00000000000000355 ) ) ;
#202 = ORIENTED_EDGE ( 'NONE', *, *, #398, .T. ) ;
#203 = EDGE_CURVE ( 'NONE', #92, #465, #213, .T. ) ;
#204 = CARTESIAN_POINT ( 'NONE',  ( 88.00000000000000000, 45.00000000000000000, 0.000000000000000000 ) ) ;
#205 = ORIENTED_EDGE ( 'NONE', *, *, #322, .T. ) ;
#206 =( NAMED_UNIT ( * ) PLANE_ANGLE_UNIT ( ) SI_UNIT ( $, .RADIAN. ) );
#207 = VERTEX_POINT ( 'NONE', #479 ) ;
#208 = EDGE_CURVE ( 'NONE', #302, #492, #286, .T. ) ;
#209 = VERTEX_POINT ( 'NONE', #369 ) ;
#210 = CALENDAR_DATE ( 2026, 25, 7 ) ;
#211 = CARTESIAN_POINT ( 'NONE',  ( 88.00000000000000000, 0.000000000000000000, 25.00000000000000000 ) ) ;
#212 = DATE_AND_TIME ( #65, #104 ) ;
#213 = LINE ( 'NONE', #442, #432 ) ;
#214 = APPROVAL_STATUS ( 'not_yet_approved' ) ;
#215 = CARTESIAN_POINT ( 'NONE',  ( -88.00000000000000000, 52.00000000000000711, 22.00000000000000000 ) ) ;
#216 = VECTOR ( 'NONE', #105, 1000.000000000000000 ) ;
#217 = VECTOR ( 'NONE', #194, 1000.000000000000000 ) ;
#218 = CALENDAR_DATE ( 2026, 25, 7 ) ;
#219 = EDGE_CURVE ( 'NONE', #419, #7, #181, .T. ) ;
#220 = DIRECTION ( 'NONE',  ( 0.000000000000000000, -1.000000000000000000, 0.000000000000000000 ) ) ;
#221 = FACE_OUTER_BOUND ( 'NONE', #148, .T. ) ;
#222 = DESIGN_CONTEXT ( 'detailed design', #12, 'design' ) ;
#223 = FACE_OUTER_BOUND ( 'NONE', #87, .T. ) ;
#224 = ORIENTED_EDGE ( 'NONE', *, *, #454, .T. ) ;
#225 = AXIS2_PLACEMENT_3D ( 'NONE', #397, #161, #278 ) ;
#226 = DIRECTION ( 'NONE',  ( 0.000000000000000000, 0.000000000000000000, 1.000000000000000000 ) ) ;
#227 = ORIENTED_EDGE ( 'NONE', *, *, #471, .F. ) ;
#228 = EDGE_CURVE ( 'NONE', #207, #465, #28, .T. ) ;
#229 = CARTESIAN_POINT ( 'NONE',  ( 95.00000000000000000, 40.00000000000000000, 105.0000000000000000 ) ) ;
#230 = ORIENTED_EDGE ( 'NONE', *, *, #454, .F. ) ;
#231 = PLANE ( 'NONE',  #185 ) ;
#232 = ORIENTED_EDGE ( 'NONE', *, *, #118, .T. ) ;
#233 = AXIS2_PLACEMENT_3D ( 'NONE', #259, #409, #29 ) ;
#234 = DIRECTION ( 'NONE',  ( 0.000000000000000000, 0.000000000000000000, -1.000000000000000000 ) ) ;
#235 = EDGE_CURVE ( 'NONE', #305, #457, #334, .T. ) ;
#236 = VERTEX_POINT ( 'NONE', #215 ) ;
#237 = EDGE_CURVE ( 'NONE', #382, #209, #449, .T. ) ;
#238 = APPLICATION_PROTOCOL_DEFINITION ( 'international standard', 'config_control_design', 1994, #452 ) ;
#239 = LINE ( 'NONE', #319, #119 ) ;
#240 = CARTESIAN_POINT ( 'NONE',  ( -95.00000000000000000, 193.0000000000000000, 22.00000000000000000 ) ) ;
#241 = DIRECTION ( 'NONE',  ( 0.000000000000000000, 0.000000000000000000, 1.000000000000000000 ) ) ;
#242 = DIRECTION ( 'NONE',  ( -1.000000000000000000, 0.000000000000000000, 0.000000000000000000 ) ) ;
#243 = AXIS2_PLACEMENT_3D ( 'NONE', #174, #258, #365 ) ;
#244 = LINE ( 'NONE', #52, #353 ) ;
#245 = LOCAL_TIME ( 15, 49, 12.00000000000000000, #137 ) ;
#246 = DIRECTION ( 'NONE',  ( 1.000000000000000000, -0.000000000000000000, 0.000000000000000000 ) ) ;
#247 = CC_DESIGN_DATE_AND_TIME_ASSIGNMENT ( #212, #103, ( #49 ) ) ;
#248 = EDGE_LOOP ( 'NONE', ( #81, #387, #198, #470 ) ) ;
#249 = CARTESIAN_POINT ( 'NONE',  ( 95.00000000000000000, 200.0000000000000000, 60.00000000000000000 ) ) ;
#250 = ORIENTED_EDGE ( 'NONE', *, *, #459, .T. ) ;
#251 = PERSON_AND_ORGANIZATION ( #166, #303 ) ;
#252 = FACE_OUTER_BOUND ( 'NONE', #3, .T. ) ;
#253 = VECTOR ( 'NONE', #276, 1000.000000000000000 ) ;
#254 = SHAPE_DEFINITION_REPRESENTATION ( #21, #196 ) ;
#255 = DIRECTION ( 'NONE',  ( 0.000000000000000000, -1.000000000000000000, 0.000000000000000000 ) ) ;
#256 = LINE ( 'NONE', #377, #154 ) ;
#257 = EDGE_CURVE ( 'NONE', #305, #236, #327, .T. ) ;
#258 = DIRECTION ( 'NONE',  ( 0.000000000000000000, 0.000000000000000000, 1.000000000000000000 ) ) ;
#259 = CARTESIAN_POINT ( 'NONE',  ( -95.00000000000000000, 200.0000000000000000, 60.00000000000000000 ) ) ;
#260 = VECTOR ( 'NONE', #94, 1000.000000000000000 ) ;
#261 = APPROVAL_STATUS ( 'not_yet_approved' ) ;
#262 = DIRECTION ( 'NONE',  ( 1.000000000000000000, 0.000000000000000000, 0.000000000000000000 ) ) ;
#263 = LINE ( 'NONE', #346, #282 ) ;
#264 = ORIENTED_EDGE ( 'NONE', *, *, #337, .F. ) ;
#265 = DIRECTION ( 'NONE',  ( 0.000000000000000000, 0.000000000000000000, -1.000000000000000000 ) ) ;
#266 = ORIENTED_EDGE ( 'NONE', *, *, #129, .F. ) ;
#267 = ADVANCED_FACE ( 'NONE', ( #252 ), #401, .T. ) ;
#268 = LINE ( 'NONE', #229, #178 ) ;
#269 = VERTEX_POINT ( 'NONE', #493 ) ;
#270 = CARTESIAN_POINT ( 'NONE',  ( 95.00000000000000000, 200.0000000000000000, 60.00000000000000000 ) ) ;
#271 = ORIENTED_EDGE ( 'NONE', *, *, #208, .T. ) ;
#272 = DIRECTION ( 'NONE',  ( 0.000000000000000000, -1.000000000000000000, 0.000000000000000000 ) ) ;
#273 = ORIENTED_EDGE ( 'NONE', *, *, #145, .T. ) ;
#274 = FACE_OUTER_BOUND ( 'NONE', #379, .T. ) ;
#275 = ORIENTED_EDGE ( 'NONE', *, *, #235, .T. ) ;
#276 = DIRECTION ( 'NONE',  ( 1.000000000000000000, 0.000000000000000000, 0.000000000000000000 ) ) ;
#277 = ORIENTED_EDGE ( 'NONE', *, *, #99, .F. ) ;
#278 = DIRECTION ( 'NONE',  ( 0.000000000000000000, -0.000000000000000000, -1.000000000000000000 ) ) ;
#279 = ORIENTED_EDGE ( 'NONE', *, *, #34, .F. ) ;
#280 = APPROVAL ( #214, 'UNSPECIFIED' ) ;
#281 = CARTESIAN_POINT ( 'NONE',  ( -95.00000000000000000, 0.000000000000000000, 0.000000000000000000 ) ) ;
#282 = VECTOR ( 'NONE', #298, 1000.000000000000000 ) ;
#283 = CARTESIAN_POINT ( 'NONE',  ( -88.00000000000000000, 40.00000000000000000, 105.0000000000000000 ) ) ;
#284 = DIRECTION ( 'NONE',  ( 1.000000000000000000, 0.000000000000000000, 0.000000000000000000 ) ) ;
#285 = LINE ( 'NONE', #15, #193 ) ;
#286 = LINE ( 'NONE', #27, #19 ) ;
#287 = APPROVAL_DATE_TIME ( #370, #280 ) ;
#288 = DIRECTION ( 'NONE',  ( -0.000000000000000000, 0.000000000000000000, 1.000000000000000000 ) ) ;
#289 = VECTOR ( 'NONE', #393, 1000.000000000000000 ) ;
#290 = CARTESIAN_POINT ( 'NONE',  ( 95.00000000000000000, 0.000000000000000000, 0.000000000000000000 ) ) ;
#291 = EDGE_CURVE ( 'NONE', #391, #382, #488, .T. ) ;
#292 = PERSON_AND_ORGANIZATION_ROLE ( 'creator' ) ;
#293 = PLANE ( 'NONE',  #233 ) ;
#294 = EDGE_CURVE ( 'NONE', #209, #69, #456, .T. ) ;
#295 = CARTESIAN_POINT ( 'NONE',  ( -95.00000000000000000, 200.0000000000000000, 22.00000000000000000 ) ) ;
#296 = VECTOR ( 'NONE', #24, 1000.000000000000000 ) ;
#297 = PLANE ( 'NONE',  #458 ) ;
#298 = DIRECTION ( 'NONE',  ( -1.000000000000000000, 0.000000000000000000, 0.000000000000000000 ) ) ;
#299 = EDGE_CURVE ( 'NONE', #336, #457, #263, .T. ) ;
#300 = ORIENTED_EDGE ( 'NONE', *, *, #337, .T. ) ;
#301 = DIRECTION ( 'NONE',  ( 0.000000000000000000, -1.000000000000000000, 0.000000000000000000 ) ) ;
#302 = VERTEX_POINT ( 'NONE', #342 ) ;
#303 = ORGANIZATION ( 'UNSPECIFIED', 'UNSPECIFIED', '' ) ;
#304 = DIRECTION ( 'NONE',  ( 0.000000000000000000, -0.000000000000000000, 1.000000000000000000 ) ) ;
#305 = VERTEX_POINT ( 'NONE', #418 ) ;
#306 = EDGE_CURVE ( 'NONE', #122, #269, #390, .T. ) ;
#307 = DIRECTION ( 'NONE',  ( -0.000000000000000000, 0.000000000000000000, 1.000000000000000000 ) ) ;
#308 = ORIENTED_EDGE ( 'NONE', *, *, #237, .F. ) ;
#309 = ORIENTED_EDGE ( 'NONE', *, *, #294, .T. ) ;
#310 = AXIS2_PLACEMENT_3D ( 'NONE', #281, #246, #48 ) ;
#311 = EDGE_CURVE ( 'NONE', #457, #341, #421, .T. ) ;
#312 = PLANE ( 'NONE',  #225 ) ;
#313 = ORIENTED_EDGE ( 'NONE', *, *, #306, .F. ) ;
#314 = CARTESIAN_POINT ( 'NONE',  ( -95.00000000000000000, 52.00000000000000711, 22.00000000000000000 ) ) ;
#315 = PRODUCT ( 'jet_ski_dash_cover_v2', 'jet_ski_dash_cover_v2', '', ( #179 ) ) ;
#316 = DIRECTION ( 'NONE',  ( 0.000000000000000000, 0.000000000000000000, -1.000000000000000000 ) ) ;
#317 = CC_DESIGN_PERSON_AND_ORGANIZATION_ASSIGNMENT ( #58, #324, ( #389 ) ) ;
#318 = PLANE ( 'NONE',  #310 ) ;
#319 = CARTESIAN_POINT ( 'NONE',  ( -95.00000000000000000, 40.00000000000000000, 22.00000000000000000 ) ) ;
#320 = AXIS2_PLACEMENT_3D ( 'NONE', #74, #335, #149 ) ;
#321 = EDGE_LOOP ( 'NONE', ( #158, #347, #44, #279, #78, #462, #475, #75 ) ) ;
#322 = EDGE_CURVE ( 'NONE', #11, #419, #268, .T. ) ;
#323 = ADVANCED_FACE ( 'NONE', ( #43 ), #383, .T. ) ;
#324 = PERSON_AND_ORGANIZATION_ROLE ( 'design_supplier' ) ;
#325 = ORIENTED_EDGE ( 'NONE', *, *, #235, .F. ) ;
#326 = DATE_AND_TIME ( #476, #4 ) ;
#327 = LINE ( 'NONE', #372, #466 ) ;
#328 = PLANE ( 'NONE',  #415 ) ;
#329 =( GEOMETRIC_REPRESENTATION_CONTEXT ( 3 ) GLOBAL_UNCERTAINTY_ASSIGNED_CONTEXT ( ( #376 ) ) GLOBAL_UNIT_ASSIGNED_CONTEXT ( ( #351, #206, #159 ) ) REPRESENTATION_CONTEXT ( 'NONE', 'WORKASPACE' ) );
#330 = PERSON_AND_ORGANIZATION ( #166, #303 ) ;
#331 = CARTESIAN_POINT ( 'NONE',  ( -88.00000000000000000, 193.0000000000000000, 18.00000000000000355 ) ) ;
#332 = ADVANCED_FACE ( 'NONE', ( #1 ), #413, .T. ) ;
#333 = APPROVAL_DATE_TIME ( #326, #191 ) ;
#334 = LINE ( 'NONE', #331, #216 ) ;
#335 = DIRECTION ( 'NONE',  ( 1.000000000000000000, -0.000000000000000000, 0.000000000000000000 ) ) ;
#336 = VERTEX_POINT ( 'NONE', #378 ) ;
#337 = EDGE_CURVE ( 'NONE', #492, #184, #338, .T. ) ;
#338 = LINE ( 'NONE', #71, #111 ) ;
#339 = ORIENTED_EDGE ( 'NONE', *, *, #402, .F. ) ;
#340 = PLANE ( 'NONE',  #171 ) ;
#341 = VERTEX_POINT ( 'NONE', #147 ) ;
#342 = CARTESIAN_POINT ( 'NONE',  ( 88.00000000000000000, 45.00000000000000000, 22.00000000000000000 ) ) ;
#343 = ADVANCED_FACE ( 'NONE', ( #461 ), #297, .T. ) ;
#344 = VERTEX_POINT ( 'NONE', #491 ) ;
#345 = VECTOR ( 'NONE', #121, 1000.000000000000000 ) ;
#346 = CARTESIAN_POINT ( 'NONE',  ( 88.00000000000000000, 193.0000000000000000, 56.00000000000000000 ) ) ;
#347 = ORIENTED_EDGE ( 'NONE', *, *, #490, .F. ) ;
#348 = CARTESIAN_POINT ( 'NONE',  ( -95.00000000000000000, 40.00000000000000000, 100.4193548387096939 ) ) ;
#349 = ORIENTED_EDGE ( 'NONE', *, *, #322, .F. ) ;
#350 = ADVANCED_FACE ( 'NONE', ( #453, #451 ), #340, .T. ) ;
#351 =( LENGTH_UNIT ( ) NAMED_UNIT ( * ) SI_UNIT ( .MILLI., .METRE. ) );
#352 = VERTEX_POINT ( 'NONE', #270 ) ;
#353 = VECTOR ( 'NONE', #396, 1000.000000000000000 ) ;
#354 = VECTOR ( 'NONE', #242, 1000.000000000000000 ) ;
#355 = DIRECTION ( 'NONE',  ( 0.000000000000000000, -0.2788101948639554739, -0.9603462267536241326 ) ) ;
#356 = EDGE_CURVE ( 'NONE', #209, #11, #110, .T. ) ;
#357 = CARTESIAN_POINT ( 'NONE',  ( 95.00000000000000000, 200.0000000000000000, 22.00000000000000000 ) ) ;
#358 = DIRECTION ( 'NONE',  ( 0.000000000000000000, 0.000000000000000000, -1.000000000000000000 ) ) ;
#359 = ORIENTED_EDGE ( 'NONE', *, *, #123, .T. ) ;
#360 = CARTESIAN_POINT ( 'NONE',  ( -88.00000000000000000, 193.0000000000000000, 56.00000000000000000 ) ) ;
#361 = DIRECTION ( 'NONE',  ( 1.000000000000000000, 0.000000000000000000, 0.000000000000000000 ) ) ;
#362 = PRODUCT_RELATED_PRODUCT_CATEGORY ( 'detail', '', ( #315 ) ) ;
#363 = VECTOR ( 'NONE', #265, 1000.000000000000000 ) ;
#364 = ORIENTED_EDGE ( 'NONE', *, *, #356, .T. ) ;
#365 = DIRECTION ( 'NONE',  ( 1.000000000000000000, 0.000000000000000000, 0.000000000000000000 ) ) ;
#366 = CARTESIAN_POINT ( 'NONE',  ( 88.00000000000000000, 52.00000000000000711, 0.000000000000000000 ) ) ;
#367 = ADVANCED_FACE ( 'NONE', ( #223 ), #231, .T. ) ;
#368 = CALENDAR_DATE ( 2026, 25, 7 ) ;
#369 = CARTESIAN_POINT ( 'NONE',  ( -95.00000000000000000, 40.00000000000000000, 105.0000000000000000 ) ) ;
#370 = DATE_AND_TIME ( #210, #373 ) ;
#371 = CC_DESIGN_PERSON_AND_ORGANIZATION_ASSIGNMENT ( #446, #486, ( #417 ) ) ;
#372 = CARTESIAN_POINT ( 'NONE',  ( -88.00000000000000000, 40.00000000000000000, 22.00000000000000000 ) ) ;
#373 = LOCAL_TIME ( 15, 49, 12.00000000000000000, #53 ) ;
#374 = DATE_AND_TIME ( #218, #450 ) ;
#375 = DIRECTION ( 'NONE',  ( 0.000000000000000000, 0.000000000000000000, 1.000000000000000000 ) ) ;
#376 = UNCERTAINTY_MEASURE_WITH_UNIT (LENGTH_MEASURE( 1.000000000000000082E-05 ), #351, 'distance_accuracy_value', 'NONE');
#377 = CARTESIAN_POINT ( 'NONE',  ( -88.00000000000000000, 40.00000000000000000, 22.00000000000000000 ) ) ;
#378 = CARTESIAN_POINT ( 'NONE',  ( 88.00000000000000000, 193.0000000000000000, 56.00000000000000000 ) ) ;
#379 = EDGE_LOOP ( 'NONE', ( #414, #36, #45, #308 ) ) ;
#380 = AXIS2_PLACEMENT_3D ( 'NONE', #83, #165, #316 ) ;
#381 = CARTESIAN_POINT ( 'NONE',  ( -95.00000000000000000, 200.0000000000000000, 22.00000000000000000 ) ) ;
#382 = VERTEX_POINT ( 'NONE', #157 ) ;
#383 = PLANE ( 'NONE',  #320 ) ;
#384 = ORIENTED_EDGE ( 'NONE', *, *, #299, .F. ) ;
#385 = DIRECTION ( 'NONE',  ( 0.000000000000000000, -0.000000000000000000, 1.000000000000000000 ) ) ;
#386 = EDGE_CURVE ( 'NONE', #117, #207, #463, .T. ) ;
#387 = ORIENTED_EDGE ( 'NONE', *, *, #203, .F. ) ;
#388 = VECTOR ( 'NONE', #133, 1000.000000000000000 ) ;
#389 = PRODUCT_DEFINITION_FORMATION_WITH_SPECIFIED_SOURCE ( 'ANY', '', #315, .NOT_KNOWN. ) ;
#390 = LINE ( 'NONE', #151, #146 ) ;
#391 = VERTEX_POINT ( 'NONE', #423 ) ;
#392 = ORIENTED_EDGE ( 'NONE', *, *, #490, .T. ) ;
#393 = DIRECTION ( 'NONE',  ( 1.000000000000000000, 0.000000000000000000, 0.000000000000000000 ) ) ;
#394 = LINE ( 'NONE', #16, #70 ) ;
#395 = CARTESIAN_POINT ( 'NONE',  ( -95.00000000000000000, 45.00000000000000000, 22.00000000000000000 ) ) ;
#396 = DIRECTION ( 'NONE',  ( 1.000000000000000000, 0.000000000000000000, 0.000000000000000000 ) ) ;
#397 = CARTESIAN_POINT ( 'NONE',  ( -95.00000000000000000, 45.00000000000000000, 25.00000000000000000 ) ) ;
#398 = EDGE_CURVE ( 'NONE', #382, #352, #79, .T. ) ;
#399 = ORIENTED_EDGE ( 'NONE', *, *, #203, .T. ) ;
#400 = ORIENTED_EDGE ( 'NONE', *, *, #416, .F. ) ;
#401 = PLANE ( 'NONE',  #64 ) ;
#402 = EDGE_CURVE ( 'NONE', #92, #122, #51, .T. ) ;
#403 = COORDINATED_UNIVERSAL_TIME_OFFSET ( 5, 0, .BEHIND. ) ;
#404 = DIRECTION ( 'NONE',  ( 0.000000000000000000, -1.000000000000000000, 0.000000000000000000 ) ) ;
#405 = CC_DESIGN_PERSON_AND_ORGANIZATION_ASSIGNMENT ( #60, #483, ( #49 ) ) ;
#406 = PERSON_AND_ORGANIZATION ( #166, #303 ) ;
#407 = DIRECTION ( 'NONE',  ( 1.000000000000000000, 0.000000000000000000, 0.000000000000000000 ) ) ;
#408 = CARTESIAN_POINT ( 'NONE',  ( 88.00000000000000000, 193.0000000000000000, 56.00000000000000000 ) ) ;
#409 = DIRECTION ( 'NONE',  ( -0.000000000000000000, 0.2707455769182841032, 0.9626509401538989597 ) ) ;
#410 = ADVANCED_FACE ( 'NONE', ( #10 ), #124, .T. ) ;
#411 = CARTESIAN_POINT ( 'NONE',  ( -95.00000000000000000, 40.00000000000000000, 105.0000000000000000 ) ) ;
#412 = ORIENTED_EDGE ( 'NONE', *, *, #176, .F. ) ;
#413 = PLANE ( 'NONE',  #473 ) ;
#414 = ORIENTED_EDGE ( 'NONE', *, *, #291, .F. ) ;
#415 = AXIS2_PLACEMENT_3D ( 'NONE', #290, #97, #482 ) ;
#416 = EDGE_CURVE ( 'NONE', #341, #184, #469, .T. ) ;
#417 = SECURITY_CLASSIFICATION ( '', '', #478 ) ;
#418 = CARTESIAN_POINT ( 'NONE',  ( -88.00000000000000000, 193.0000000000000000, 22.00000000000000000 ) ) ;
#419 = VERTEX_POINT ( 'NONE', #8 ) ;
#420 = APPROVAL ( #96, 'UNSPECIFIED' ) ;
#421 = LINE ( 'NONE', #6, #2 ) ;
#422 = ORIENTED_EDGE ( 'NONE', *, *, #311, .T. ) ;
#423 = CARTESIAN_POINT ( 'NONE',  ( -95.00000000000000000, 200.0000000000000000, 22.00000000000000000 ) ) ;
#424 = ORIENTED_EDGE ( 'NONE', *, *, #485, .T. ) ;
#425 = VECTOR ( 'NONE', #98, 999.9999999999998863 ) ;
#426 = CARTESIAN_POINT ( 'NONE',  ( 88.00000000000000000, 40.00000000000000000, 22.00000000000000000 ) ) ;
#427 = PLANE ( 'NONE',  #380 ) ;
#428 = LINE ( 'NONE', #314, #289 ) ;
#429 = ORIENTED_EDGE ( 'NONE', *, *, #228, .F. ) ;
#430 = DIRECTION ( 'NONE',  ( 0.000000000000000000, -0.9626509401538989597, 0.2707455769182840477 ) ) ;
#431 = ORIENTED_EDGE ( 'NONE', *, *, #130, .F. ) ;
#432 = VECTOR ( 'NONE', #262, 1000.000000000000000 ) ;
#433 = CARTESIAN_POINT ( 'NONE',  ( 88.00000000000000000, 52.00000000000000711, 25.00000000000000000 ) ) ;
#434 = CARTESIAN_POINT ( 'NONE',  ( -95.00000000000000000, 40.00000000000000000, 22.00000000000000000 ) ) ;
#435 = CARTESIAN_POINT ( 'NONE',  ( 88.00000000000000000, 193.0000000000000000, 56.00000000000000000 ) ) ;
#436 = EDGE_LOOP ( 'NONE', ( #359, #424, #271, #300, #189, #266, #41, #46 ) ) ;
#437 = COORDINATED_UNIVERSAL_TIME_OFFSET ( 5, 0, .BEHIND. ) ;
#438 = ADVANCED_FACE ( 'NONE', ( #169 ), #474, .T. ) ;
#439 = CARTESIAN_POINT ( 'NONE',  ( -95.00000000000000000, 200.0000000000000000, 60.00000000000000000 ) ) ;
#440 = DATE_AND_TIME ( #368, #245 ) ;
#441 = VECTOR ( 'NONE', #272, 1000.000000000000000 ) ;
#442 = CARTESIAN_POINT ( 'NONE',  ( -95.00000000000000000, 52.00000000000000711, 25.00000000000000000 ) ) ;
#443 = ADVANCED_FACE ( 'NONE', ( #91 ), #312, .T. ) ;
#444 = DATE_TIME_ROLE ( 'classification_date' ) ;
#445 = LINE ( 'NONE', #408, #425 ) ;
#446 = PERSON_AND_ORGANIZATION ( #166, #303 ) ;
#447 = CARTESIAN_POINT ( 'NONE',  ( -88.00000000000000000, 52.00000000000000711, 0.000000000000000000 ) ) ;
#448 = ADVANCED_FACE ( 'NONE', ( #274 ), #318, .F. ) ;
#449 = LINE ( 'NONE', #439, #260 ) ;
#450 = LOCAL_TIME ( 15, 49, 12.00000000000000000, #403 ) ;
#451 = FACE_BOUND ( 'NONE', #109, .T. ) ;
#452 = APPLICATION_CONTEXT ( 'configuration controlled 3d designs of mechanical parts and assemblies' ) ;
#453 = FACE_OUTER_BOUND ( 'NONE', #321, .T. ) ;
#454 = EDGE_CURVE ( 'NONE', #236, #207, #428, .T. ) ;
#455 = ORIENTED_EDGE ( 'NONE', *, *, #386, .F. ) ;
#456 = LINE ( 'NONE', #188, #363 ) ;
#457 = VERTEX_POINT ( 'NONE', #360 ) ;
#458 = AXIS2_PLACEMENT_3D ( 'NONE', #113, #307, #186 ) ;
#459 = EDGE_CURVE ( 'NONE', #352, #11, #84, .T. ) ;
#460 = MANIFOLD_SOLID_BREP ( 'Front Gasket Compression Rail', #55 ) ;
#461 = FACE_OUTER_BOUND ( 'NONE', #248, .T. ) ;
#462 = ORIENTED_EDGE ( 'NONE', *, *, #99, .T. ) ;
#463 = LINE ( 'NONE', #116, #441 ) ;
#464 = ORIENTED_EDGE ( 'NONE', *, *, #17, .F. ) ;
#465 = VERTEX_POINT ( 'NONE', #433 ) ;
#466 = VECTOR ( 'NONE', #101, 1000.000000000000000 ) ;
#467 = DIRECTION ( 'NONE',  ( 0.000000000000000000, -0.000000000000000000, -1.000000000000000000 ) ) ;
#468 = ORIENTED_EDGE ( 'NONE', *, *, #30, .F. ) ;
#469 = LINE ( 'NONE', #348, #253 ) ;
#470 = ORIENTED_EDGE ( 'NONE', *, *, #56, .T. ) ;
#471 = EDGE_CURVE ( 'NONE', #117, #305, #199, .T. ) ;
#472 = EDGE_LOOP ( 'NONE', ( #364, #187, #33, #173 ) ) ;
#473 = AXIS2_PLACEMENT_3D ( 'NONE', #411, #301, #153 ) ;
#474 = PLANE ( 'NONE',  #32 ) ;
#475 = ORIENTED_EDGE ( 'NONE', *, *, #219, .F. ) ;
#476 = CALENDAR_DATE ( 2026, 25, 7 ) ;
#477 = LINE ( 'NONE', #177, #26 ) ;
#478 = SECURITY_CLASSIFICATION_LEVEL ( 'unclassified' ) ;
#479 = CARTESIAN_POINT ( 'NONE',  ( 88.00000000000000000, 52.00000000000000711, 22.00000000000000000 ) ) ;
#480 = ORIENTED_EDGE ( 'NONE', *, *, #56, .F. ) ;
#481 = PERSON_AND_ORGANIZATION_ROLE ( 'design_owner' ) ;
#482 = DIRECTION ( 'NONE',  ( 0.000000000000000000, 0.000000000000000000, -1.000000000000000000 ) ) ;
#483 = PERSON_AND_ORGANIZATION_ROLE ( 'creator' ) ;
#484 = CARTESIAN_POINT ( 'NONE',  ( -88.00000000000000000, 52.00000000000000711, 25.00000000000000000 ) ) ;
#485 = EDGE_CURVE ( 'NONE', #152, #302, #89, .T. ) ;
#486 = PERSON_AND_ORGANIZATION_ROLE ( 'classification_officer' ) ;
#487 = CARTESIAN_POINT ( 'NONE',  ( -95.00000000000000000, 52.00000000000000711, 22.00000000000000000 ) ) ;
#488 = LINE ( 'NONE', #31, #217 ) ;
#489 = ORIENTED_EDGE ( 'NONE', *, *, #356, .F. ) ;
#490 = EDGE_CURVE ( 'NONE', #269, #302, #131, .T. ) ;
#491 = CARTESIAN_POINT ( 'NONE',  ( -88.00000000000000000, 40.00000000000000000, 22.00000000000000000 ) ) ;
#492 = VERTEX_POINT ( 'NONE', #426 ) ;
#493 = CARTESIAN_POINT ( 'NONE',  ( -88.00000000000000000, 45.00000000000000000, 22.00000000000000000 ) ) ;
#494 = CC_DESIGN_PERSON_AND_ORGANIZATION_ASSIGNMENT ( #140, #481, ( #315 ) ) ;
#495 = ORIENTED_EDGE ( 'NONE', *, *, #306, .T. ) ;
ENDSEC;
END-ISO-10303-21;
