ISO-10303-21;
HEADER;
FILE_DESCRIPTION (( 'STEP AP203' ),
    '1' );
FILE_NAME ('jet_ski_dash_tray_v2.step',
    '2026-07-25T19:48:54',
    ( '' ),
    ( '' ),
    'SwSTEP 2.0',
    'SolidWorks 2026',
    '' );
FILE_SCHEMA (( 'CONFIG_CONTROL_DESIGN' ));
ENDSEC;

DATA;
#1 = PLANE ( 'NONE',  #644 ) ;
#2 = VECTOR ( 'NONE', #451, 1000.000000000000000 ) ;
#3 = ORIENTED_EDGE ( 'NONE', *, *, #505, .T. ) ;
#4 = CC_DESIGN_APPROVAL ( #526, ( #204 ) ) ;
#5 = DIRECTION ( 'NONE',  ( 0.000000000000000000, 0.000000000000000000, -1.000000000000000000 ) ) ;
#6 = DIRECTION ( 'NONE',  ( 1.000000000000000000, 0.000000000000000000, 0.000000000000000000 ) ) ;
#7 = FACE_OUTER_BOUND ( 'NONE', #465, .T. ) ;
#8 = LINE ( 'NONE', #216, #575 ) ;
#9 = ORIENTED_EDGE ( 'NONE', *, *, #491, .T. ) ;
#10 = COORDINATED_UNIVERSAL_TIME_OFFSET ( 5, 0, .BEHIND. ) ;
#11 = DIRECTION ( 'NONE',  ( 0.000000000000000000, -1.000000000000000000, 0.000000000000000000 ) ) ;
#12 = PLANE ( 'NONE',  #615 ) ;
#13 = DIRECTION ( 'NONE',  ( -1.000000000000000000, 0.000000000000000000, -0.000000000000000000 ) ) ;
#14 = CARTESIAN_POINT ( 'NONE',  ( 75.00000000000000000, 20.59183673469387799, 4.000000000000001776 ) ) ;
#15 = ORIENTED_EDGE ( 'NONE', *, *, #596, .T. ) ;
#16 = FACE_OUTER_BOUND ( 'NONE', #124, .T. ) ;
#17 = ADVANCED_FACE ( 'NONE', ( #619 ), #233, .F. ) ;
#18 = ORIENTED_EDGE ( 'NONE', *, *, #766, .F. ) ;
#19 = VECTOR ( 'NONE', #126, 1000.000000000000000 ) ;
#20 = PLANE ( 'NONE',  #617 ) ;
#21 = CARTESIAN_POINT ( 'NONE',  ( 0.000000000000000000, 0.000000000000000000, 22.00000000000000000 ) ) ;
#22 = CARTESIAN_POINT ( 'NONE',  ( -88.00000000000000000, 193.0000000000000000, 4.000000000000000000 ) ) ;
#23 = ORIENTED_EDGE ( 'NONE', *, *, #132, .F. ) ;
#24 = ADVANCED_FACE ( 'NONE', ( #425 ), #214, .F. ) ;
#25 = CARTESIAN_POINT ( 'NONE',  ( 88.00000000000000000, 193.0000000000000000, 4.000000000000000000 ) ) ;
#26 = EDGE_CURVE ( 'NONE', #321, #771, #625, .T. ) ;
#27 = ADVANCED_FACE ( 'NONE', ( #16 ), #682, .F. ) ;
#28 = DIRECTION ( 'NONE',  ( -1.000000000000000000, 0.000000000000000000, -0.000000000000000000 ) ) ;
#29 = AXIS2_PLACEMENT_3D ( 'NONE', #289, #344, #227 ) ;
#30 = CARTESIAN_POINT ( 'NONE',  ( -93.20000000000000284, 46.80000000000000426, 19.69999999999999929 ) ) ;
#31 = VERTEX_POINT ( 'NONE', #89 ) ;
#32 = VECTOR ( 'NONE', #68, 1000.000000000000000 ) ;
#33 = CLOSED_SHELL ( 'NONE', ( #502, #721, #583, #17, #188, #49, #24, #638, #656, #186, #646, #870, #409, #835, #360, #83, #595, #570, #41, #711, #174, #475, #52, #369, #340, #27, #514, #775 ) ) ;
#34 = VECTOR ( 'NONE', #247, 1000.000000000000000 ) ;
#35 = PLANE ( 'NONE',  #792 ) ;
#36 = DIRECTION ( 'NONE',  ( -0.000000000000000000, 0.000000000000000000, 1.000000000000000000 ) ) ;
#37 = ORIENTED_EDGE ( 'NONE', *, *, #396, .F. ) ;
#38 = FACE_OUTER_BOUND ( 'NONE', #694, .T. ) ;
#39 = DIRECTION ( 'NONE',  ( 0.000000000000000000, -1.000000000000000000, 0.000000000000000000 ) ) ;
#40 = LINE ( 'NONE', #650, #345 ) ;
#41 = ADVANCED_FACE ( 'NONE', ( #7 ), #279, .T. ) ;
#42 = APPLICATION_CONTEXT ( 'configuration controlled 3d designs of mechanical parts and assemblies' ) ;
#43 = ORIENTED_EDGE ( 'NONE', *, *, #65, .F. ) ;
#44 = FACE_OUTER_BOUND ( 'NONE', #722, .T. ) ;
#45 = AXIS2_PLACEMENT_3D ( 'NONE', #445, #114, #791 ) ;
#46 = VECTOR ( 'NONE', #443, 1000.000000000000000 ) ;
#47 = EDGE_LOOP ( 'NONE', ( #175, #258, #118, #357 ) ) ;
#48 = DIRECTION ( 'NONE',  ( 0.000000000000000000, -0.000000000000000000, -1.000000000000000000 ) ) ;
#49 = ADVANCED_FACE ( 'NONE', ( #496 ), #80, .T. ) ;
#50 = EDGE_LOOP ( 'NONE', ( #461, #730, #335, #732 ) ) ;
#51 = DIRECTION ( 'NONE',  ( -1.000000000000000000, -0.000000000000000000, -0.000000000000000000 ) ) ;
#52 = ADVANCED_FACE ( 'NONE', ( #285, #430 ), #359, .F. ) ;
#53 = EDGE_CURVE ( 'NONE', #368, #497, #99, .T. ) ;
#54 = LINE ( 'NONE', #731, #203 ) ;
#55 = VERTEX_POINT ( 'NONE', #366 ) ;
#56 = CARTESIAN_POINT ( 'NONE',  ( -75.00000000000000000, 20.59183673469387799, 4.000000000000001776 ) ) ;
#57 = PLANE ( 'NONE',  #704 ) ;
#58 = VECTOR ( 'NONE', #811, 1000.000000000000000 ) ;
#59 = AXIS2_PLACEMENT_3D ( 'NONE', #30, #507, #841 ) ;
#60 = DIRECTION ( 'NONE',  ( 0.000000000000000000, 0.000000000000000000, -1.000000000000000000 ) ) ;
#61 = ORIENTED_EDGE ( 'NONE', *, *, #276, .T. ) ;
#62 = DIRECTION ( 'NONE',  ( 0.000000000000000000, 0.2837551651986739421, 0.9588967651541396853 ) ) ;
#63 = CARTESIAN_POINT ( 'NONE',  ( -75.00000000000000000, 49.00000000000000000, 100.0000000000000000 ) ) ;
#64 = ORIENTED_EDGE ( 'NONE', *, *, #797, .T. ) ;
#65 = EDGE_CURVE ( 'NONE', #200, #794, #503, .T. ) ;
#66 = SHAPE_DEFINITION_REPRESENTATION ( #266, #568 ) ;
#67 = LINE ( 'NONE', #480, #529 ) ;
#68 = DIRECTION ( 'NONE',  ( 1.000000000000000000, 0.000000000000000000, 0.000000000000000000 ) ) ;
#69 = VERTEX_POINT ( 'NONE', #597 ) ;
#70 = APPROVAL_STATUS ( 'not_yet_approved' ) ;
#71 = LINE ( 'NONE', #633, #116 ) ;
#72 = CARTESIAN_POINT ( 'NONE',  ( -75.00000000000000000, 49.00000000000000000, 100.0000000000000000 ) ) ;
#73 = ORIENTED_EDGE ( 'NONE', *, *, #26, .T. ) ;
#74 = LINE ( 'NONE', #823, #515 ) ;
#75 = EDGE_LOOP ( 'NONE', ( #431, #866, #452, #610 ) ) ;
#76 = CALENDAR_DATE ( 2026, 25, 7 ) ;
#77 = VECTOR ( 'NONE', #641, 1000.000000000000000 ) ;
#78 = CARTESIAN_POINT ( 'NONE',  ( -88.00000000000000000, 52.00000000000000711, 22.00000000000000000 ) ) ;
#79 = FACE_BOUND ( 'NONE', #637, .T. ) ;
#80 = PLANE ( 'NONE',  #100 ) ;
#81 = CARTESIAN_POINT ( 'NONE',  ( 0.000000000000000000, 0.000000000000000000, 4.000000000000000000 ) ) ;
#82 = ORIENTED_EDGE ( 'NONE', *, *, #281, .T. ) ;
#83 = ADVANCED_FACE ( 'NONE', ( #586 ), #320, .T. ) ;
#84 = CARTESIAN_POINT ( 'NONE',  ( -93.20000000000000284, 198.1999999999999886, 22.00000000000000000 ) ) ;
#85 = VERTEX_POINT ( 'NONE', #847 ) ;
#86 = ORIENTED_EDGE ( 'NONE', *, *, #313, .F. ) ;
#87 = DIRECTION ( 'NONE',  ( 1.000000000000000000, 0.000000000000000000, 0.000000000000000000 ) ) ;
#88 = DIRECTION ( 'NONE',  ( -0.000000000000000000, -0.000000000000000000, -1.000000000000000000 ) ) ;
#89 = CARTESIAN_POINT ( 'NONE',  ( -75.00000000000000000, 54.00000000000000000, 100.0000000000000000 ) ) ;
#90 = EDGE_LOOP ( 'NONE', ( #312, #324, #852, #275 ) ) ;
#91 = FACE_OUTER_BOUND ( 'NONE', #768, .T. ) ;
#92 = CC_DESIGN_APPROVAL ( #439, ( #280 ) ) ;
#93 = ORIENTED_EDGE ( 'NONE', *, *, #672, .F. ) ;
#94 = EDGE_CURVE ( 'NONE', #321, #243, #107, .T. ) ;
#95 = EDGE_CURVE ( 'NONE', #653, #781, #305, .T. ) ;
#96 = DIRECTION ( 'NONE',  ( 0.000000000000000000, -1.000000000000000000, 0.000000000000000000 ) ) ;
#97 = LINE ( 'NONE', #642, #390 ) ;
#98 = ORIENTED_EDGE ( 'NONE', *, *, #248, .F. ) ;
#99 = LINE ( 'NONE', #574, #361 ) ;
#100 = AXIS2_PLACEMENT_3D ( 'NONE', #352, #160, #13 ) ;
#101 = CARTESIAN_POINT ( 'NONE',  ( -75.00000000000000000, 54.00000000000000000, 100.0000000000000000 ) ) ;
#102 = VECTOR ( 'NONE', #311, 1000.000000000000000 ) ;
#103 = APPROVAL_PERSON_ORGANIZATION ( #536, #306, #332 ) ;
#104 = CARTESIAN_POINT ( 'NONE',  ( 90.00000000000000000, 195.0000000000000000, 19.69999999999999929 ) ) ;
#105 = CARTESIAN_POINT ( 'NONE',  ( 0.000000000000000000, 0.000000000000000000, 0.000000000000000000 ) ) ;
#106 = EDGE_CURVE ( 'NONE', #566, #593, #712, .T. ) ;
#107 = LINE ( 'NONE', #652, #315 ) ;
#108 = ORIENTED_EDGE ( 'NONE', *, *, #525, .F. ) ;
#109 = DIRECTION ( 'NONE',  ( 1.000000000000000000, 0.000000000000000000, 0.000000000000000000 ) ) ;
#110 = DIRECTION ( 'NONE',  ( 1.000000000000000000, -0.000000000000000000, 0.000000000000000000 ) ) ;
#111 = ORIENTED_EDGE ( 'NONE', *, *, #749, .F. ) ;
#112 = DIRECTION ( 'NONE',  ( 0.000000000000000000, 0.2837551651986739421, 0.9588967651541396853 ) ) ;
#113 = VECTOR ( 'NONE', #110, 1000.000000000000000 ) ;
#114 = DIRECTION ( 'NONE',  ( 1.000000000000000000, -0.000000000000000000, 0.000000000000000000 ) ) ;
#115 = EDGE_CURVE ( 'NONE', #601, #141, #661, .T. ) ;
#116 = VECTOR ( 'NONE', #763, 1000.000000000000000 ) ;
#117 = EDGE_CURVE ( 'NONE', #55, #628, #253, .T. ) ;
#118 = ORIENTED_EDGE ( 'NONE', *, *, #94, .T. ) ;
#119 = CARTESIAN_POINT ( 'NONE',  ( 88.00000000000000000, 52.00000000000000711, 4.000000000000000000 ) ) ;
#120 = EDGE_CURVE ( 'NONE', #433, #469, #40, .T. ) ;
#121 = CARTESIAN_POINT ( 'NONE',  ( 75.00000000000000000, 25.59183673469387799, 4.000000000000000000 ) ) ;
#122 = ORIENTED_EDGE ( 'NONE', *, *, #146, .F. ) ;
#123 = DIRECTION ( 'NONE',  ( 0.000000000000000000, 1.000000000000000000, 0.000000000000000000 ) ) ;
#124 = EDGE_LOOP ( 'NONE', ( #857, #444, #488, #649 ) ) ;
#125 = DATE_AND_TIME ( #820, #301 ) ;
#126 = DIRECTION ( 'NONE',  ( -1.000000000000000000, -0.000000000000000000, -0.000000000000000000 ) ) ;
#127 = VECTOR ( 'NONE', #221, 1000.000000000000000 ) ;
#128 = CARTESIAN_POINT ( 'NONE',  ( 75.00000000000000000, 49.00000000000000000, 100.0000000000000000 ) ) ;
#129 = ORIENTED_EDGE ( 'NONE', *, *, #672, .T. ) ;
#130 = APPROVAL_DATE_TIME ( #401, #306 ) ;
#131 = APPLICATION_CONTEXT ( 'configuration controlled 3d designs of mechanical parts and assemblies' ) ;
#132 = EDGE_CURVE ( 'NONE', #469, #794, #842, .T. ) ;
#133 = CARTESIAN_POINT ( 'NONE',  ( -88.00000000000000000, 52.00000000000000711, 4.000000000000000000 ) ) ;
#134 = PLANE ( 'NONE',  #290 ) ;
#135 = ORIENTED_EDGE ( 'NONE', *, *, #686, .T. ) ;
#136 = APPROVAL_DATE_TIME ( #125, #439 ) ;
#137 = DIRECTION ( 'NONE',  ( 0.000000000000000000, -1.000000000000000000, 0.000000000000000000 ) ) ;
#138 = CARTESIAN_POINT ( 'NONE',  ( 75.00000000000000000, 25.00000000000000000, 2.000000000000000000 ) ) ;
#139 = ORIENTED_EDGE ( 'NONE', *, *, #217, .F. ) ;
#140 = DIRECTION ( 'NONE',  ( 0.000000000000000000, 0.000000000000000000, -1.000000000000000000 ) ) ;
#141 = VERTEX_POINT ( 'NONE', #104 ) ;
#142 = PERSON_AND_ORGANIZATION_ROLE ( 'creator' ) ;
#143 = FACE_BOUND ( 'NONE', #585, .T. ) ;
#144 = CARTESIAN_POINT ( 'NONE',  ( 88.00000000000000000, 0.000000000000000000, 4.000000000000000000 ) ) ;
#145 = ORIENTED_EDGE ( 'NONE', *, *, #745, .T. ) ;
#146 = EDGE_CURVE ( 'NONE', #511, #771, #579, .T. ) ;
#147 = DIRECTION ( 'NONE',  ( -0.000000000000000000, -1.000000000000000000, -0.000000000000000000 ) ) ;
#148 = VECTOR ( 'NONE', #6, 1000.000000000000000 ) ;
#149 = VERTEX_POINT ( 'NONE', #121 ) ;
#150 = UNCERTAINTY_MEASURE_WITH_UNIT (LENGTH_MEASURE( 1.000000000000000082E-05 ), #325, 'distance_accuracy_value', 'NONE');
#151 = COORDINATED_UNIVERSAL_TIME_OFFSET ( 5, 0, .BEHIND. ) ;
#152 = APPROVAL_PERSON_ORGANIZATION ( #660, #439, #207 ) ;
#153 = PRODUCT_RELATED_PRODUCT_CATEGORY ( 'detail', '', ( #228 ) ) ;
#154 = DIRECTION ( 'NONE',  ( 0.000000000000000000, 0.000000000000000000, -1.000000000000000000 ) ) ;
#155 = DIRECTION ( 'NONE',  ( 0.000000000000000000, 0.000000000000000000, 1.000000000000000000 ) ) ;
#156 = EDGE_LOOP ( 'NONE', ( #43, #64, #828, #822 ) ) ;
#157 = PERSON ( 'UNSPECIFIED', 'UNSPECIFIED', 'UNSPECIFIED', ('UNSPECIFIED'), ('UNSPECIFIED'), ('UNSPECIFIED') ) ;
#158 = LINE ( 'NONE', #298, #645 ) ;
#159 = CARTESIAN_POINT ( 'NONE',  ( 75.00000000000000000, 0.000000000000000000, 4.000000000000000000 ) ) ;
#160 = DIRECTION ( 'NONE',  ( 0.000000000000000000, 0.000000000000000000, -1.000000000000000000 ) ) ;
#161 = ORIENTED_EDGE ( 'NONE', *, *, #859, .F. ) ;
#162 = LINE ( 'NONE', #307, #77 ) ;
#163 = ORIENTED_EDGE ( 'NONE', *, *, #648, .T. ) ;
#164 = EDGE_CURVE ( 'NONE', #628, #862, #395, .T. ) ;
#165 = CARTESIAN_POINT ( 'NONE',  ( -90.00000000000000000, 195.0000000000000000, 19.69999999999999929 ) ) ;
#166 = DIRECTION ( 'NONE',  ( -1.000000000000000000, -0.000000000000000000, -0.000000000000000000 ) ) ;
#167 = VECTOR ( 'NONE', #11, 1000.000000000000000 ) ;
#168 = ORIENTED_EDGE ( 'NONE', *, *, #370, .T. ) ;
#169 = CARTESIAN_POINT ( 'NONE',  ( -90.00000000000000000, 195.0000000000000000, 22.00000000000000000 ) ) ;
#170 = ORIENTED_EDGE ( 'NONE', *, *, #437, .T. ) ;
#171 = PLANE ( 'NONE',  #234 ) ;
#172 = ORIENTED_EDGE ( 'NONE', *, *, #115, .T. ) ;
#173 = DIRECTION ( 'NONE',  ( 0.000000000000000000, -0.000000000000000000, 1.000000000000000000 ) ) ;
#174 = ADVANCED_FACE ( 'NONE', ( #458 ), #524, .T. ) ;
#175 = ORIENTED_EDGE ( 'NONE', *, *, #523, .T. ) ;
#176 = LINE ( 'NONE', #252, #193 ) ;
#177 = ORIENTED_EDGE ( 'NONE', *, *, #26, .F. ) ;
#178 = VECTOR ( 'NONE', #337, 1000.000000000000000 ) ;
#179 = LINE ( 'NONE', #717, #376 ) ;
#180 = FACE_OUTER_BOUND ( 'NONE', #754, .T. ) ;
#181 = ORIENTED_EDGE ( 'NONE', *, *, #766, .T. ) ;
#182 = LINE ( 'NONE', #719, #113 ) ;
#183 = ORIENTED_EDGE ( 'NONE', *, *, #261, .F. ) ;
#184 = DIRECTION ( 'NONE',  ( 0.000000000000000000, 0.000000000000000000, 1.000000000000000000 ) ) ;
#185 = DIRECTION ( 'NONE',  ( -1.000000000000000000, -0.000000000000000000, -0.000000000000000000 ) ) ;
#186 = ADVANCED_FACE ( 'NONE', ( #38 ), #35, .F. ) ;
#187 = CC_DESIGN_PERSON_AND_ORGANIZATION_ASSIGNMENT ( #727, #718, ( #228 ) ) ;
#188 = ADVANCED_FACE ( 'NONE', ( #44 ), #308, .F. ) ;
#189 = ORIENTED_EDGE ( 'NONE', *, *, #427, .T. ) ;
#190 = VECTOR ( 'NONE', #630, 1000.000000000000000 ) ;
#191 = VECTOR ( 'NONE', #334, 1000.000000000000000 ) ;
#192 = CARTESIAN_POINT ( 'NONE',  ( -93.20000000000000284, 198.1999999999999886, 22.00000000000000000 ) ) ;
#193 = VECTOR ( 'NONE', #385, 1000.000000000000000 ) ;
#194 = ORIENTED_EDGE ( 'NONE', *, *, #747, .F. ) ;
#195 = APPLICATION_PROTOCOL_DEFINITION ( 'international standard', 'config_control_design', 1994, #42 ) ;
#196 = LINE ( 'NONE', #209, #58 ) ;
#197 = ORIENTED_EDGE ( 'NONE', *, *, #810, .T. ) ;
#198 = CARTESIAN_POINT ( 'NONE',  ( -88.00000000000000000, 0.000000000000000000, 4.000000000000000000 ) ) ;
#199 = DIRECTION ( 'NONE',  ( 1.000000000000000000, -0.000000000000000000, 0.000000000000000000 ) ) ;
#200 = VERTEX_POINT ( 'NONE', #782 ) ;
#201 = EDGE_CURVE ( 'NONE', #416, #798, #179, .T. ) ;
#202 = DIRECTION ( 'NONE',  ( 0.000000000000000000, 0.2837551651986739421, 0.9588967651541396853 ) ) ;
#203 = VECTOR ( 'NONE', #860, 1000.000000000000000 ) ;
#204 = PRODUCT_DEFINITION_FORMATION_WITH_SPECIFIED_SOURCE ( 'ANY', '', #228, .NOT_KNOWN. ) ;
#205 = FACE_OUTER_BOUND ( 'NONE', #314, .T. ) ;
#206 = VERTEX_POINT ( 'NONE', #592 ) ;
#207 = APPROVAL_ROLE ( '' ) ;
#208 = FACE_OUTER_BOUND ( 'NONE', #426, .T. ) ;
#209 = CARTESIAN_POINT ( 'NONE',  ( 93.20000000000000284, 46.80000000000000426, 19.69999999999999929 ) ) ;
#210 = LINE ( 'NONE', #668, #32 ) ;
#211 = ORIENTED_EDGE ( 'NONE', *, *, #859, .T. ) ;
#212 = EDGE_CURVE ( 'NONE', #741, #771, #182, .T. ) ;
#213 = PLANE ( 'NONE',  #271 ) ;
#214 = PLANE ( 'NONE',  #573 ) ;
#215 = EDGE_CURVE ( 'NONE', #593, #781, #724, .T. ) ;
#216 = CARTESIAN_POINT ( 'NONE',  ( -88.00000000000000000, 52.00000000000000711, 22.00000000000000000 ) ) ;
#217 = EDGE_CURVE ( 'NONE', #781, #297, #788, .T. ) ;
#218 = ORIENTED_EDGE ( 'NONE', *, *, #608, .F. ) ;
#219 = ORIENTED_EDGE ( 'NONE', *, *, #565, .F. ) ;
#220 = AXIS2_PLACEMENT_3D ( 'NONE', #692, #703, #155 ) ;
#221 = DIRECTION ( 'NONE',  ( -0.000000000000000000, -0.000000000000000000, -1.000000000000000000 ) ) ;
#222 = ORIENTED_EDGE ( 'NONE', *, *, #146, .T. ) ;
#223 = DESIGN_CONTEXT ( 'detailed design', #131, 'design' ) ;
#224 = VECTOR ( 'NONE', #232, 1000.000000000000000 ) ;
#225 = LINE ( 'NONE', #831, #659 ) ;
#226 = LINE ( 'NONE', #548, #316 ) ;
#227 = DIRECTION ( 'NONE',  ( 0.000000000000000000, 0.000000000000000000, -1.000000000000000000 ) ) ;
#228 = PRODUCT ( 'jet_ski_dash_tray_v2', 'jet_ski_dash_tray_v2', '', ( #244 ) ) ;
#229 = VERTEX_POINT ( 'NONE', #72 ) ;
#230 = DIRECTION ( 'NONE',  ( -0.000000000000000000, -0.000000000000000000, -1.000000000000000000 ) ) ;
#231 = EDGE_LOOP ( 'NONE', ( #527, #218, #406, #764 ) ) ;
#232 = DIRECTION ( 'NONE',  ( 1.000000000000000000, 0.000000000000000000, 0.000000000000000000 ) ) ;
#233 = PLANE ( 'NONE',  #220 ) ;
#234 = AXIS2_PLACEMENT_3D ( 'NONE', #101, #36, #87 ) ;
#235 = CARTESIAN_POINT ( 'NONE',  ( 95.00000000000000000, 0.000000000000000000, 4.000000000000000000 ) ) ;
#236 = ORIENTED_EDGE ( 'NONE', *, *, #812, .T. ) ;
#237 = CARTESIAN_POINT ( 'NONE',  ( -93.20000000000000284, 46.80000000000000426, 19.69999999999999929 ) ) ;
#238 = ORIENTED_EDGE ( 'NONE', *, *, #440, .F. ) ;
#239 = EDGE_CURVE ( 'NONE', #141, #643, #323, .T. ) ;
#240 = CARTESIAN_POINT ( 'NONE',  ( -88.00000000000000000, 193.0000000000000000, 22.00000000000000000 ) ) ;
#241 = DIRECTION ( 'NONE',  ( -1.000000000000000000, 0.000000000000000000, 0.000000000000000000 ) ) ;
#242 = DIRECTION ( 'NONE',  ( 0.000000000000000000, -0.000000000000000000, -1.000000000000000000 ) ) ;
#243 = VERTEX_POINT ( 'NONE', #413 ) ;
#244 = MECHANICAL_CONTEXT ( 'NONE', #42, 'mechanical' ) ;
#245 = CARTESIAN_POINT ( 'NONE',  ( -93.20000000000000284, 46.80000000000000426, 22.00000000000000000 ) ) ;
#246 = ORIENTED_EDGE ( 'NONE', *, *, #733, .T. ) ;
#247 = DIRECTION ( 'NONE',  ( 1.000000000000000000, 0.000000000000000000, 0.000000000000000000 ) ) ;
#248 = EDGE_CURVE ( 'NONE', #665, #555, #196, .T. ) ;
#249 = DIRECTION ( 'NONE',  ( -0.000000000000000000, -1.000000000000000000, -0.000000000000000000 ) ) ;
#250 = EDGE_CURVE ( 'NONE', #798, #566, #549, .T. ) ;
#251 = EDGE_LOOP ( 'NONE', ( #309, #679, #172, #129 ) ) ;
#252 = CARTESIAN_POINT ( 'NONE',  ( -93.20000000000000284, 46.80000000000000426, 19.69999999999999929 ) ) ;
#253 = LINE ( 'NONE', #192, #756 ) ;
#254 = ORIENTED_EDGE ( 'NONE', *, *, #427, .F. ) ;
#255 =( NAMED_UNIT ( * ) SI_UNIT ( $, .STERADIAN. ) SOLID_ANGLE_UNIT ( ) );
#256 = VECTOR ( 'NONE', #613, 1000.000000000000000 ) ;
#257 = DIRECTION ( 'NONE',  ( -0.000000000000000000, 1.000000000000000000, 0.000000000000000000 ) ) ;
#258 = ORIENTED_EDGE ( 'NONE', *, *, #720, .T. ) ;
#259 = DATE_TIME_ROLE ( 'classification_date' ) ;
#260 = DIRECTION ( 'NONE',  ( 0.000000000000000000, -0.000000000000000000, 1.000000000000000000 ) ) ;
#261 = EDGE_CURVE ( 'NONE', #535, #206, #664, .T. ) ;
#262 = CARTESIAN_POINT ( 'NONE',  ( 93.20000000000000284, 46.80000000000000426, 22.00000000000000000 ) ) ;
#263 = ORIENTED_EDGE ( 'NONE', *, *, #117, .T. ) ;
#264 = PERSON_AND_ORGANIZATION_ROLE ( 'classification_officer' ) ;
#265 = CARTESIAN_POINT ( 'NONE',  ( -95.00000000000000000, 0.000000000000000000, 4.000000000000000000 ) ) ;
#266 = PRODUCT_DEFINITION_SHAPE ( 'NONE', 'NONE',  #280 ) ;
#267 = DIRECTION ( 'NONE',  ( 0.000000000000000000, -0.2837551651986739976, -0.9588967651541396853 ) ) ;
#268 = ORIENTED_EDGE ( 'NONE', *, *, #217, .T. ) ;
#269 = PERSON_AND_ORGANIZATION ( #157, #690 ) ;
#270 = DIRECTION ( 'NONE',  ( 0.000000000000000000, -0.9588967651541396853, 0.2837551651986739976 ) ) ;
#271 = AXIS2_PLACEMENT_3D ( 'NONE', #802, #751, #202 ) ;
#272 = VECTOR ( 'NONE', #864, 1000.000000000000000 ) ;
#273 = VECTOR ( 'NONE', #112, 1000.000000000000000 ) ;
#274 = LINE ( 'NONE', #415, #688 ) ;
#275 = ORIENTED_EDGE ( 'NONE', *, *, #201, .F. ) ;
#276 = EDGE_CURVE ( 'NONE', #535, #601, #530, .T. ) ;
#277 = EDGE_CURVE ( 'NONE', #606, #521, #54, .T. ) ;
#278 = CARTESIAN_POINT ( 'NONE',  ( -95.00000000000000000, 44.99999999999998579, 22.00000000000000000 ) ) ;
#279 = PLANE ( 'NONE',  #803 ) ;
#280 = PRODUCT_DEFINITION ( 'UNKNOWN', '', #204, #223 ) ;
#281 = EDGE_CURVE ( 'NONE', #862, #555, #734, .T. ) ;
#282 = CARTESIAN_POINT ( 'NONE',  ( -95.00000000000000000, 0.000000000000000000, 4.000000000000000000 ) ) ;
#283 = ORIENTED_EDGE ( 'NONE', *, *, #683, .T. ) ;
#284 = PLANE ( 'NONE',  #772 ) ;
#285 = FACE_BOUND ( 'NONE', #90, .T. ) ;
#286 = PLANE ( 'NONE',  #402 ) ;
#287 = ORIENTED_EDGE ( 'NONE', *, *, #412, .T. ) ;
#288 = CARTESIAN_POINT ( 'NONE',  ( 0.000000000000000000, 0.000000000000000000, 4.000000000000000000 ) ) ;
#289 = CARTESIAN_POINT ( 'NONE',  ( -75.00000000000000000, 0.000000000000000000, 0.000000000000000000 ) ) ;
#290 = AXIS2_PLACEMENT_3D ( 'NONE', #81, #140, #353 ) ;
#291 = ORIENTED_EDGE ( 'NONE', *, *, #277, .F. ) ;
#292 = LOCAL_TIME ( 15, 48, 54.00000000000000000, #151 ) ;
#293 = CARTESIAN_POINT ( 'NONE',  ( -95.00000000000000000, 0.000000000000000000, 4.000000000000000000 ) ) ;
#294 = ORIENTED_EDGE ( 'NONE', *, *, #709, .F. ) ;
#295 = EDGE_CURVE ( 'NONE', #869, #628, #67, .T. ) ;
#296 = CARTESIAN_POINT ( 'NONE',  ( 90.00000000000000000, 50.00000000000000000, 19.69999999999999929 ) ) ;
#297 = VERTEX_POINT ( 'NONE', #133 ) ;
#298 = CARTESIAN_POINT ( 'NONE',  ( -75.00000000000000000, 54.00000000000000000, 100.0000000000000000 ) ) ;
#299 = VECTOR ( 'NONE', #740, 1000.000000000000000 ) ;
#300 = EDGE_CURVE ( 'NONE', #149, #85, #867, .T. ) ;
#301 = LOCAL_TIME ( 15, 48, 54.00000000000000000, #407 ) ;
#302 = LINE ( 'NONE', #296, #46 ) ;
#303 = EDGE_LOOP ( 'NONE', ( #832, #93, #356, #236 ) ) ;
#304 = CARTESIAN_POINT ( 'NONE',  ( 93.20000000000000284, 46.80000000000000426, 19.69999999999999929 ) ) ;
#305 = LINE ( 'NONE', #655, #489 ) ;
#306 = APPROVAL ( #478, 'UNSPECIFIED' ) ;
#307 = CARTESIAN_POINT ( 'NONE',  ( -95.00000000000000000, 200.0000000000000000, 4.000000000000000000 ) ) ;
#308 = PLANE ( 'NONE',  #657 ) ;
#309 = ORIENTED_EDGE ( 'NONE', *, *, #438, .F. ) ;
#310 = DIRECTION ( 'NONE',  ( -1.000000000000000000, -0.000000000000000000, -0.000000000000000000 ) ) ;
#311 = DIRECTION ( 'NONE',  ( 0.000000000000000000, -1.000000000000000000, 0.000000000000000000 ) ) ;
#312 = ORIENTED_EDGE ( 'NONE', *, *, #412, .F. ) ;
#313 = EDGE_CURVE ( 'NONE', #643, #535, #333, .T. ) ;
#314 = EDGE_LOOP ( 'NONE', ( #423, #685, #482, #222 ) ) ;
#315 = VECTOR ( 'NONE', #845, 1000.000000000000000 ) ;
#316 = VECTOR ( 'NONE', #88, 1000.000000000000000 ) ;
#317 = CARTESIAN_POINT ( 'NONE',  ( 0.000000000000000000, 20.59183673469388154, 4.000000000000000000 ) ) ;
#318 = ORIENTED_EDGE ( 'NONE', *, *, #459, .F. ) ;
#319 = LINE ( 'NONE', #855, #329 ) ;
#320 = PLANE ( 'NONE',  #45 ) ;
#321 = VERTEX_POINT ( 'NONE', #328 ) ;
#322 = LINE ( 'NONE', #381, #34 ) ;
#323 = LINE ( 'NONE', #484, #19 ) ;
#324 = ORIENTED_EDGE ( 'NONE', *, *, #106, .F. ) ;
#325 =( LENGTH_UNIT ( ) NAMED_UNIT ( * ) SI_UNIT ( .MILLI., .METRE. ) );
#326 = EDGE_CURVE ( 'NONE', #606, #511, #618, .T. ) ;
#327 = VECTOR ( 'NONE', #185, 1000.000000000000000 ) ;
#328 = CARTESIAN_POINT ( 'NONE',  ( 95.00000000000000000, 44.99999999999998579, 22.00000000000000000 ) ) ;
#329 = VECTOR ( 'NONE', #109, 1000.000000000000000 ) ;
#330 = CARTESIAN_POINT ( 'NONE',  ( 95.00000000000000000, 0.000000000000000000, 4.000000000000000000 ) ) ;
#331 = ORIENTED_EDGE ( 'NONE', *, *, #164, .T. ) ;
#332 = APPROVAL_ROLE ( '' ) ;
#333 = LINE ( 'NONE', #681, #504 ) ;
#334 = DIRECTION ( 'NONE',  ( -0.000000000000000000, -0.000000000000000000, -1.000000000000000000 ) ) ;
#335 = ORIENTED_EDGE ( 'NONE', *, *, #849, .T. ) ;
#336 = CALENDAR_DATE ( 2026, 25, 7 ) ;
#337 = DIRECTION ( 'NONE',  ( 1.000000000000000000, -0.000000000000000000, 0.000000000000000000 ) ) ;
#338 = FACE_OUTER_BOUND ( 'NONE', #388, .T. ) ;
#339 = VERTEX_POINT ( 'NONE', #278 ) ;
#340 = ADVANCED_FACE ( 'NONE', ( #537 ), #213, .T. ) ;
#341 = EDGE_CURVE ( 'NONE', #830, #653, #473, .T. ) ;
#342 = LINE ( 'NONE', #159, #167 ) ;
#343 = DIRECTION ( 'NONE',  ( -0.000000000000000000, -0.000000000000000000, 1.000000000000000000 ) ) ;
#344 = DIRECTION ( 'NONE',  ( 1.000000000000000000, -0.000000000000000000, 0.000000000000000000 ) ) ;
#345 = VECTOR ( 'NONE', #729, 1000.000000000000000 ) ;
#346 = VECTOR ( 'NONE', #833, 1000.000000000000000 ) ;
#347 = DIRECTION ( 'NONE',  ( -0.000000000000000000, -1.000000000000000000, -0.000000000000000000 ) ) ;
#348 = ORIENTED_EDGE ( 'NONE', *, *, #505, .F. ) ;
#349 = PERSON_AND_ORGANIZATION ( #157, #690 ) ;
#350 = DIRECTION ( 'NONE',  ( 0.000000000000000000, 1.000000000000000000, 0.000000000000000000 ) ) ;
#351 = CARTESIAN_POINT ( 'NONE',  ( 0.000000000000000000, 0.000000000000000000, 19.69999999999999929 ) ) ;
#352 = CARTESIAN_POINT ( 'NONE',  ( 0.000000000000000000, 0.000000000000000000, 0.000000000000000000 ) ) ;
#353 = DIRECTION ( 'NONE',  ( -1.000000000000000000, 0.000000000000000000, -0.000000000000000000 ) ) ;
#354 = ORIENTED_EDGE ( 'NONE', *, *, #281, .F. ) ;
#355 = DIRECTION ( 'NONE',  ( -1.000000000000000000, 0.000000000000000000, -0.000000000000000000 ) ) ;
#356 = ORIENTED_EDGE ( 'NONE', *, *, #239, .T. ) ;
#357 = ORIENTED_EDGE ( 'NONE', *, *, #749, .T. ) ;
#358 = CARTESIAN_POINT ( 'NONE',  ( -95.00000000000000000, 0.000000000000000000, 0.000000000000000000 ) ) ;
#359 = PLANE ( 'NONE',  #387 ) ;
#360 = ADVANCED_FACE ( 'NONE', ( #398 ), #667, .T. ) ;
#361 = VECTOR ( 'NONE', #769, 1000.000000000000000 ) ;
#362 = EDGE_LOOP ( 'NONE', ( #485, #631, #197, #675 ) ) ;
#363 = AXIS2_PLACEMENT_3D ( 'NONE', #105, #516, #851 ) ;
#364 = PLANE ( 'NONE',  #59 ) ;
#365 = ORIENTED_EDGE ( 'NONE', *, *, #440, .T. ) ;
#366 = CARTESIAN_POINT ( 'NONE',  ( 93.20000000000000284, 198.1999999999999886, 22.00000000000000000 ) ) ;
#367 = CARTESIAN_POINT ( 'NONE',  ( -95.00000000000000000, 44.99999999999998579, 4.000000000000000000 ) ) ;
#368 = VERTEX_POINT ( 'NONE', #677 ) ;
#369 = ADVANCED_FACE ( 'NONE', ( #796 ), #57, .T. ) ;
#370 = EDGE_CURVE ( 'NONE', #297, #830, #739, .T. ) ;
#371 = PLANE ( 'NONE',  #506 ) ;
#372 = EDGE_LOOP ( 'NONE', ( #145, #814, #447, #283 ) ) ;
#373 = CC_DESIGN_PERSON_AND_ORGANIZATION_ASSIGNMENT ( #269, #264, ( #758 ) ) ;
#374 = CARTESIAN_POINT ( 'NONE',  ( -75.00000000000000000, 0.000000000000000000, 4.000000000000000000 ) ) ;
#375 = FACE_OUTER_BOUND ( 'NONE', #231, .T. ) ;
#376 = VECTOR ( 'NONE', #383, 1000.000000000000000 ) ;
#377 = AXIS2_PLACEMENT_3D ( 'NONE', #743, #137, #623 ) ;
#378 = LINE ( 'NONE', #358, #391 ) ;
#379 = ORIENTED_EDGE ( 'NONE', *, *, #239, .F. ) ;
#380 = DIRECTION ( 'NONE',  ( 0.000000000000000000, -1.000000000000000000, 0.000000000000000000 ) ) ;
#381 = CARTESIAN_POINT ( 'NONE',  ( 0.000000000000000000, 25.59183673469387799, 4.000000000000000000 ) ) ;
#382 = ORIENTED_EDGE ( 'NONE', *, *, #295, .F. ) ;
#383 = DIRECTION ( 'NONE',  ( 1.000000000000000000, 0.000000000000000000, 0.000000000000000000 ) ) ;
#384 = ORIENTED_EDGE ( 'NONE', *, *, #525, .T. ) ;
#385 = DIRECTION ( 'NONE',  ( -0.000000000000000000, -1.000000000000000000, -0.000000000000000000 ) ) ;
#386 = CARTESIAN_POINT ( 'NONE',  ( 90.00000000000000000, 50.00000000000000000, 19.69999999999999929 ) ) ;
#387 = AXIS2_PLACEMENT_3D ( 'NONE', #21, #634, #28 ) ;
#388 = EDGE_LOOP ( 'NONE', ( #139, #598, #287, #584 ) ) ;
#389 = VECTOR ( 'NONE', #123, 1000.000000000000000 ) ;
#390 = VECTOR ( 'NONE', #230, 1000.000000000000000 ) ;
#391 = VECTOR ( 'NONE', #632, 1000.000000000000000 ) ;
#392 = DIRECTION ( 'NONE',  ( -1.000000000000000000, -0.000000000000000000, -0.000000000000000000 ) ) ;
#393 = ORIENTED_EDGE ( 'NONE', *, *, #250, .T. ) ;
#394 = LINE ( 'NONE', #651, #544 ) ;
#395 = LINE ( 'NONE', #245, #825 ) ;
#396 = EDGE_CURVE ( 'NONE', #229, #433, #612, .T. ) ;
#397 = ORIENTED_EDGE ( 'NONE', *, *, #720, .F. ) ;
#398 = FACE_OUTER_BOUND ( 'NONE', #303, .T. ) ;
#399 = CARTESIAN_POINT ( 'NONE',  ( 90.00000000000000000, 195.0000000000000000, 22.00000000000000000 ) ) ;
#400 = EDGE_LOOP ( 'NONE', ( #189, #487, #177, #397 ) ) ;
#401 = DATE_AND_TIME ( #76, #404 ) ;
#402 = AXIS2_PLACEMENT_3D ( 'NONE', #813, #199, #481 ) ;
#403 = CARTESIAN_POINT ( 'NONE',  ( -90.00000000000000000, 50.00000000000000000, 19.69999999999999929 ) ) ;
#404 = LOCAL_TIME ( 15, 48, 54.00000000000000000, #532 ) ;
#405 = CARTESIAN_POINT ( 'NONE',  ( -93.20000000000000284, 46.80000000000000426, 19.69999999999999929 ) ) ;
#406 = ORIENTED_EDGE ( 'NONE', *, *, #491, .F. ) ;
#407 = COORDINATED_UNIVERSAL_TIME_OFFSET ( 5, 0, .BEHIND. ) ;
#408 = CARTESIAN_POINT ( 'NONE',  ( 0.000000000000000000, 52.00000000000000711, 4.000000000000000000 ) ) ;
#409 = ADVANCED_FACE ( 'NONE', ( #79, #691 ), #12, .F. ) ;
#410 = CARTESIAN_POINT ( 'NONE',  ( -93.20000000000000284, 46.80000000000000426, 19.69999999999999929 ) ) ;
#411 = EDGE_LOOP ( 'NONE', ( #614, #18, #393, #15 ) ) ;
#412 = EDGE_CURVE ( 'NONE', #593, #416, #8, .T. ) ;
#413 = CARTESIAN_POINT ( 'NONE',  ( 95.00000000000000000, 200.0000000000000000, 22.00000000000000000 ) ) ;
#414 = CARTESIAN_POINT ( 'NONE',  ( 95.00000000000000000, 44.99999999999998579, 22.00000000000000000 ) ) ;
#415 = CARTESIAN_POINT ( 'NONE',  ( 90.00000000000000000, 50.00000000000000000, 22.00000000000000000 ) ) ;
#416 = VERTEX_POINT ( 'NONE', #486 ) ;
#417 = SECURITY_CLASSIFICATION_LEVEL ( 'unclassified' ) ;
#418 = DIRECTION ( 'NONE',  ( 0.000000000000000000, 0.000000000000000000, -1.000000000000000000 ) ) ;
#419 = DIRECTION ( 'NONE',  ( 0.000000000000000000, -0.000000000000000000, 1.000000000000000000 ) ) ;
#420 = VECTOR ( 'NONE', #267, 1000.000000000000000 ) ;
#421 = APPROVAL_PERSON_ORGANIZATION ( #540, #526, #755 ) ;
#422 = LINE ( 'NONE', #868, #191 ) ;
#423 = ORIENTED_EDGE ( 'NONE', *, *, #212, .F. ) ;
#424 = FACE_OUTER_BOUND ( 'NONE', #436, .T. ) ;
#425 = FACE_OUTER_BOUND ( 'NONE', #400, .T. ) ;
#426 = EDGE_LOOP ( 'NONE', ( #736, #789, #765, #442 ) ) ;
#427 = EDGE_CURVE ( 'NONE', #339, #741, #422, .T. ) ;
#428 = DIRECTION ( 'NONE',  ( -1.000000000000000000, -0.000000000000000000, -0.000000000000000000 ) ) ;
#429 = PLANE ( 'NONE',  #434 ) ;
#430 = FACE_OUTER_BOUND ( 'NONE', #372, .T. ) ;
#431 = ORIENTED_EDGE ( 'NONE', *, *, #95, .F. ) ;
#432 = LINE ( 'NONE', #698, #224 ) ;
#433 = VERTEX_POINT ( 'NONE', #128 ) ;
#434 = AXIS2_PLACEMENT_3D ( 'NONE', #288, #154, #809 ) ;
#435 = CARTESIAN_POINT ( 'NONE',  ( 88.00000000000000000, 52.00000000000000711, 22.00000000000000000 ) ) ;
#436 = EDGE_LOOP ( 'NONE', ( #318, #183, #61, #135 ) ) ;
#437 = EDGE_CURVE ( 'NONE', #229, #794, #753, .T. ) ;
#438 = EDGE_CURVE ( 'NONE', #559, #546, #274, .T. ) ;
#439 = APPROVAL ( #70, 'UNSPECIFIED' ) ;
#440 = EDGE_CURVE ( 'NONE', #752, #665, #551, .T. ) ;
#441 = DIRECTION ( 'NONE',  ( -1.000000000000000000, 0.000000000000000000, 0.000000000000000000 ) ) ;
#442 = ORIENTED_EDGE ( 'NONE', *, *, #277, .T. ) ;
#443 = DIRECTION ( 'NONE',  ( -0.000000000000000000, -0.000000000000000000, 1.000000000000000000 ) ) ;
#444 = ORIENTED_EDGE ( 'NONE', *, *, #65, .T. ) ;
#445 = CARTESIAN_POINT ( 'NONE',  ( 90.00000000000000000, 50.00000000000000000, 19.69999999999999929 ) ) ;
#446 = VECTOR ( 'NONE', #520, 1000.000000000000000 ) ;
#447 = ORIENTED_EDGE ( 'NONE', *, *, #438, .T. ) ;
#448 = DIRECTION ( 'NONE',  ( -1.000000000000000000, 0.000000000000000000, 0.000000000000000000 ) ) ;
#449 = EDGE_CURVE ( 'NONE', #741, #606, #609, .T. ) ;
#450 = ORIENTED_EDGE ( 'NONE', *, *, #164, .F. ) ;
#451 = DIRECTION ( 'NONE',  ( 0.000000000000000000, 1.000000000000000000, 0.000000000000000000 ) ) ;
#452 = ORIENTED_EDGE ( 'NONE', *, *, #106, .T. ) ;
#453 = CARTESIAN_POINT ( 'NONE',  ( -88.00000000000000000, 193.0000000000000000, 22.00000000000000000 ) ) ;
#454 = EDGE_LOOP ( 'NONE', ( #108, #621, #73, #122, #163, #759 ) ) ;
#455 = VECTOR ( 'NONE', #624, 1000.000000000000000 ) ;
#456 = DIRECTION ( 'NONE',  ( 1.000000000000000000, -0.000000000000000000, 0.000000000000000000 ) ) ;
#457 = VECTOR ( 'NONE', #310, 1000.000000000000000 ) ;
#458 = FACE_OUTER_BOUND ( 'NONE', #75, .T. ) ;
#459 = EDGE_CURVE ( 'NONE', #206, #559, #210, .T. ) ;
#460 = MANIFOLD_SOLID_BREP ( '150 mm Wide Angled Display Bulkhead', #33 ) ;
#461 = ORIENTED_EDGE ( 'NONE', *, *, #797, .F. ) ;
#462 = CARTESIAN_POINT ( 'NONE',  ( -75.00000000000000000, 25.00000000000000000, 2.000000000000000000 ) ) ;
#463 = CC_DESIGN_PERSON_AND_ORGANIZATION_ASSIGNMENT ( #737, #806, ( #204 ) ) ;
#464 = DIRECTION ( 'NONE',  ( 1.000000000000000000, 0.000000000000000000, 0.000000000000000000 ) ) ;
#465 = EDGE_LOOP ( 'NONE', ( #557, #219, #726, #181 ) ) ;
#466 = CALENDAR_DATE ( 2026, 25, 7 ) ;
#467 = DIRECTION ( 'NONE',  ( 0.000000000000000000, -1.000000000000000000, 0.000000000000000000 ) ) ;
#468 = CARTESIAN_POINT ( 'NONE',  ( 90.00000000000000000, 50.00000000000000000, 22.00000000000000000 ) ) ;
#469 = VERTEX_POINT ( 'NONE', #14 ) ;
#470 = DATE_AND_TIME ( #466, #292 ) ;
#471 = LINE ( 'NONE', #78, #589 ) ;
#472 = VECTOR ( 'NONE', #744, 1000.000000000000000 ) ;
#473 = LINE ( 'NONE', #144, #389 ) ;
#474 = VECTOR ( 'NONE', #166, 1000.000000000000000 ) ;
#475 = ADVANCED_FACE ( 'NONE', ( #338 ), #1, .T. ) ;
#476 = DIRECTION ( 'NONE',  ( -0.000000000000000000, -1.000000000000000000, -0.000000000000000000 ) ) ;
#477 = ORIENTED_EDGE ( 'NONE', *, *, #745, .F. ) ;
#478 = APPROVAL_STATUS ( 'not_yet_approved' ) ;
#479 = PLANE ( 'NONE',  #561 ) ;
#480 = CARTESIAN_POINT ( 'NONE',  ( -93.20000000000000284, 198.1999999999999886, 19.69999999999999929 ) ) ;
#481 = DIRECTION ( 'NONE',  ( 0.000000000000000000, 0.000000000000000000, -1.000000000000000000 ) ) ;
#482 = ORIENTED_EDGE ( 'NONE', *, *, #326, .T. ) ;
#483 = CARTESIAN_POINT ( 'NONE',  ( -90.00000000000000000, 195.0000000000000000, 22.00000000000000000 ) ) ;
#484 = CARTESIAN_POINT ( 'NONE',  ( -90.00000000000000000, 195.0000000000000000, 19.69999999999999929 ) ) ;
#485 = ORIENTED_EDGE ( 'NONE', *, *, #622, .F. ) ;
#486 = CARTESIAN_POINT ( 'NONE',  ( -88.00000000000000000, 52.00000000000000711, 22.00000000000000000 ) ) ;
#487 = ORIENTED_EDGE ( 'NONE', *, *, #212, .T. ) ;
#488 = ORIENTED_EDGE ( 'NONE', *, *, #437, .F. ) ;
#489 = VECTOR ( 'NONE', #582, 1000.000000000000000 ) ;
#490 = LOCAL_TIME ( 15, 48, 54.00000000000000000, #815 ) ;
#491 = EDGE_CURVE ( 'NONE', #665, #569, #674, .T. ) ;
#492 = LINE ( 'NONE', #620, #127 ) ;
#493 = EDGE_LOOP ( 'NONE', ( #701, #254, #834, #716, #552, #291 ) ) ;
#494 = CARTESIAN_POINT ( 'NONE',  ( 93.20000000000000284, 46.80000000000000426, 22.00000000000000000 ) ) ;
#495 = CARTESIAN_POINT ( 'NONE',  ( -95.00000000000000000, 0.000000000000000000, 4.000000000000000000 ) ) ;
#496 = FACE_OUTER_BOUND ( 'NONE', #539, .T. ) ;
#497 = VERTEX_POINT ( 'NONE', #804 ) ;
#498 = FACE_OUTER_BOUND ( 'NONE', #493, .T. ) ;
#499 = ORIENTED_EDGE ( 'NONE', *, *, #849, .F. ) ;
#500 = FACE_OUTER_BOUND ( 'NONE', #824, .T. ) ;
#501 = DIRECTION ( 'NONE',  ( 0.000000000000000000, -0.000000000000000000, 1.000000000000000000 ) ) ;
#502 = ADVANCED_FACE ( 'NONE', ( #205, #678 ), #134, .F. ) ;
#503 = LINE ( 'NONE', #374, #102 ) ;
#504 = VECTOR ( 'NONE', #816, 1000.000000000000000 ) ;
#505 = EDGE_CURVE ( 'NONE', #752, #862, #545, .T. ) ;
#506 = AXIS2_PLACEMENT_3D ( 'NONE', #293, #577, #567 ) ;
#507 = DIRECTION ( 'NONE',  ( -1.000000000000000000, 0.000000000000000000, 0.000000000000000000 ) ) ;
#508 = ORIENTED_EDGE ( 'NONE', *, *, #341, .T. ) ;
#509 = PLANE ( 'NONE',  #808 ) ;
#510 = CARTESIAN_POINT ( 'NONE',  ( 93.20000000000000284, 46.80000000000000426, 19.69999999999999929 ) ) ;
#511 = VERTEX_POINT ( 'NONE', #330 ) ;
#512 = DIRECTION ( 'NONE',  ( 0.000000000000000000, -1.000000000000000000, 0.000000000000000000 ) ) ;
#513 = CARTESIAN_POINT ( 'NONE',  ( -95.00000000000000000, 200.0000000000000000, 4.000000000000000000 ) ) ;
#514 = ADVANCED_FACE ( 'NONE', ( #818 ), #286, .T. ) ;
#515 = VECTOR ( 'NONE', #347, 1000.000000000000000 ) ;
#516 = DIRECTION ( 'NONE',  ( 0.000000000000000000, 0.000000000000000000, 1.000000000000000000 ) ) ;
#517 = CARTESIAN_POINT ( 'NONE',  ( -93.20000000000000284, 198.1999999999999886, 19.69999999999999929 ) ) ;
#518 = ORIENTED_EDGE ( 'NONE', *, *, #838, .T. ) ;
#519 = APPLICATION_PROTOCOL_DEFINITION ( 'international standard', 'config_control_design', 1994, #131 ) ;
#520 = DIRECTION ( 'NONE',  ( -0.000000000000000000, -0.000000000000000000, -1.000000000000000000 ) ) ;
#521 = VERTEX_POINT ( 'NONE', #556 ) ;
#522 = CARTESIAN_POINT ( 'NONE',  ( -93.20000000000000284, 46.80000000000000426, 19.69999999999999929 ) ) ;
#523 = EDGE_CURVE ( 'NONE', #69, #339, #74, .T. ) ;
#524 = PLANE ( 'NONE',  #807 ) ;
#525 = EDGE_CURVE ( 'NONE', #243, #497, #492, .T. ) ;
#526 = APPROVAL ( #863, 'UNSPECIFIED' ) ;
#527 = ORIENTED_EDGE ( 'NONE', *, *, #747, .T. ) ;
#528 = LINE ( 'NONE', #846, #457 ) ;
#529 = VECTOR ( 'NONE', #343, 1000.000000000000000 ) ;
#530 = LINE ( 'NONE', #403, #848 ) ;
#531 = EDGE_LOOP ( 'NONE', ( #844, #268, #168, #508 ) ) ;
#532 = COORDINATED_UNIVERSAL_TIME_OFFSET ( 5, 0, .BEHIND. ) ;
#533 = CARTESIAN_POINT ( 'NONE',  ( -75.00000000000000000, 49.00000000000000000, 100.0000000000000000 ) ) ;
#534 = DIRECTION ( 'NONE',  ( -0.000000000000000000, -1.000000000000000000, -0.000000000000000000 ) ) ;
#535 = VERTEX_POINT ( 'NONE', #760 ) ;
#536 = PERSON_AND_ORGANIZATION ( #157, #690 ) ;
#537 = FACE_OUTER_BOUND ( 'NONE', #50, .T. ) ;
#538 = CARTESIAN_POINT ( 'NONE',  ( -88.00000000000000000, 52.00000000000000711, 22.00000000000000000 ) ) ;
#539 = EDGE_LOOP ( 'NONE', ( #854, #819, #658, #572 ) ) ;
#540 = PERSON_AND_ORGANIZATION ( #157, #690 ) ;
#541 = FACE_OUTER_BOUND ( 'NONE', #531, .T. ) ;
#542 = VECTOR ( 'NONE', #856, 1000.000000000000000 ) ;
#543 = CARTESIAN_POINT ( 'NONE',  ( -75.00000000000000000, 49.00000000000000000, 100.0000000000000000 ) ) ;
#544 = VECTOR ( 'NONE', #599, 1000.000000000000000 ) ;
#545 = LINE ( 'NONE', #410, #783 ) ;
#546 = VERTEX_POINT ( 'NONE', #399 ) ;
#547 = CALENDAR_DATE ( 2026, 25, 7 ) ;
#548 = CARTESIAN_POINT ( 'NONE',  ( 88.00000000000000000, 193.0000000000000000, 22.00000000000000000 ) ) ;
#549 = LINE ( 'NONE', #604, #472 ) ;
#550 = ORIENTED_EDGE ( 'NONE', *, *, #295, .T. ) ;
#551 = LINE ( 'NONE', #405, #299 ) ;
#552 = ORIENTED_EDGE ( 'NONE', *, *, #554, .T. ) ;
#553 = PERSON_AND_ORGANIZATION_ROLE ( 'creator' ) ;
#554 = EDGE_CURVE ( 'NONE', #562, #521, #605, .T. ) ;
#555 = VERTEX_POINT ( 'NONE', #262 ) ;
#556 = CARTESIAN_POINT ( 'NONE',  ( -95.00000000000000000, 0.000000000000000000, 0.000000000000000000 ) ) ;
#557 = ORIENTED_EDGE ( 'NONE', *, *, #370, .F. ) ;
#558 = CARTESIAN_POINT ( 'NONE',  ( -88.00000000000000000, 193.0000000000000000, 22.00000000000000000 ) ) ;
#559 = VERTEX_POINT ( 'NONE', #468 ) ;
#560 = AXIS2_PLACEMENT_3D ( 'NONE', #600, #257, #260 ) ;
#561 = AXIS2_PLACEMENT_3D ( 'NONE', #757, #350, #699 ) ;
#562 = VERTEX_POINT ( 'NONE', #800 ) ;
#563 = LINE ( 'NONE', #639, #861 ) ;
#564 = EDGE_LOOP ( 'NONE', ( #211, #365, #9, #518 ) ) ;
#565 = EDGE_CURVE ( 'NONE', #416, #297, #471, .T. ) ;
#566 = VERTEX_POINT ( 'NONE', #629 ) ;
#567 = DIRECTION ( 'NONE',  ( 0.000000000000000000, 0.000000000000000000, -1.000000000000000000 ) ) ;
#568 = ADVANCED_BREP_SHAPE_REPRESENTATION ( 'jet_ski_dash_tray_v2', ( #460, #363 ), #636 ) ;
#569 = VERTEX_POINT ( 'NONE', #611 ) ;
#570 = ADVANCED_FACE ( 'NONE', ( #541 ), #429, .F. ) ;
#571 = DIRECTION ( 'NONE',  ( 0.000000000000000000, 1.000000000000000000, 0.000000000000000000 ) ) ;
#572 = ORIENTED_EDGE ( 'NONE', *, *, #554, .F. ) ;
#573 = AXIS2_PLACEMENT_3D ( 'NONE', #640, #696, #501 ) ;
#574 = CARTESIAN_POINT ( 'NONE',  ( 95.00000000000000000, 0.000000000000000000, 0.000000000000000000 ) ) ;
#575 = VECTOR ( 'NONE', #476, 1000.000000000000000 ) ;
#576 = VECTOR ( 'NONE', #571, 1000.000000000000000 ) ;
#577 = DIRECTION ( 'NONE',  ( 1.000000000000000000, 0.000000000000000000, 0.000000000000000000 ) ) ;
#578 = ORIENTED_EDGE ( 'NONE', *, *, #115, .F. ) ;
#579 = LINE ( 'NONE', #779, #2 ) ;
#580 = LINE ( 'NONE', #778, #346 ) ;
#581 = VERTEX_POINT ( 'NONE', #483 ) ;
#582 = DIRECTION ( 'NONE',  ( -1.000000000000000000, 0.000000000000000000, 0.000000000000000000 ) ) ;
#583 = ADVANCED_FACE ( 'NONE', ( #208 ), #479, .F. ) ;
#584 = ORIENTED_EDGE ( 'NONE', *, *, #565, .T. ) ;
#585 = EDGE_LOOP ( 'NONE', ( #354, #450, #786, #194 ) ) ;
#586 = FACE_OUTER_BOUND ( 'NONE', #251, .T. ) ;
#587 = VECTOR ( 'NONE', #871, 1000.000000000000000 ) ;
#588 = ORIENTED_EDGE ( 'NONE', *, *, #313, .T. ) ;
#589 = VECTOR ( 'NONE', #695, 1000.000000000000000 ) ;
#590 = CARTESIAN_POINT ( 'NONE',  ( -90.00000000000000000, 195.0000000000000000, 19.69999999999999929 ) ) ;
#591 = ORIENTED_EDGE ( 'NONE', *, *, #608, .T. ) ;
#592 = CARTESIAN_POINT ( 'NONE',  ( -90.00000000000000000, 50.00000000000000000, 22.00000000000000000 ) ) ;
#593 = VERTEX_POINT ( 'NONE', #558 ) ;
#594 = LINE ( 'NONE', #462, #273 ) ;
#595 = ADVANCED_FACE ( 'NONE', ( #424 ), #826, .T. ) ;
#596 = EDGE_CURVE ( 'NONE', #566, #653, #226, .T. ) ;
#597 = CARTESIAN_POINT ( 'NONE',  ( -95.00000000000000000, 200.0000000000000000, 22.00000000000000000 ) ) ;
#598 = ORIENTED_EDGE ( 'NONE', *, *, #215, .F. ) ;
#599 = DIRECTION ( 'NONE',  ( 0.000000000000000000, -1.000000000000000000, 0.000000000000000000 ) ) ;
#600 = CARTESIAN_POINT ( 'NONE',  ( -90.00000000000000000, 195.0000000000000000, 19.69999999999999929 ) ) ;
#601 = VERTEX_POINT ( 'NONE', #680 ) ;
#602 = VECTOR ( 'NONE', #467, 1000.000000000000000 ) ;
#603 = VECTOR ( 'NONE', #767, 1000.000000000000000 ) ;
#604 = CARTESIAN_POINT ( 'NONE',  ( 88.00000000000000000, 52.00000000000000711, 22.00000000000000000 ) ) ;
#605 = LINE ( 'NONE', #865, #635 ) ;
#606 = VERTEX_POINT ( 'NONE', #495 ) ;
#607 = CARTESIAN_POINT ( 'NONE',  ( -90.00000000000000000, 50.00000000000000000, 19.69999999999999929 ) ) ;
#608 = EDGE_CURVE ( 'NONE', #569, #55, #71, .T. ) ;
#609 = LINE ( 'NONE', #282, #671 ) ;
#610 = ORIENTED_EDGE ( 'NONE', *, *, #215, .T. ) ;
#611 = CARTESIAN_POINT ( 'NONE',  ( 93.20000000000000284, 198.1999999999999886, 19.69999999999999929 ) ) ;
#612 = LINE ( 'NONE', #543, #455 ) ;
#613 = DIRECTION ( 'NONE',  ( 0.000000000000000000, 1.000000000000000000, 0.000000000000000000 ) ) ;
#614 = ORIENTED_EDGE ( 'NONE', *, *, #341, .F. ) ;
#615 = AXIS2_PLACEMENT_3D ( 'NONE', #351, #418, #735 ) ;
#616 = FACE_OUTER_BOUND ( 'NONE', #47, .T. ) ;
#617 = AXIS2_PLACEMENT_3D ( 'NONE', #435, #441, #706 ) ;
#618 = LINE ( 'NONE', #265, #148 ) ;
#619 = FACE_OUTER_BOUND ( 'NONE', #454, .T. ) ;
#620 = CARTESIAN_POINT ( 'NONE',  ( 95.00000000000000000, 200.0000000000000000, 4.000000000000000000 ) ) ;
#621 = ORIENTED_EDGE ( 'NONE', *, *, #94, .F. ) ;
#622 = EDGE_CURVE ( 'NONE', #149, #469, #342, .T. ) ;
#623 = DIRECTION ( 'NONE',  ( 0.000000000000000000, -0.000000000000000000, -1.000000000000000000 ) ) ;
#624 = DIRECTION ( 'NONE',  ( 1.000000000000000000, 0.000000000000000000, 0.000000000000000000 ) ) ;
#625 = LINE ( 'NONE', #414, #190 ) ;
#626 = CC_DESIGN_DATE_AND_TIME_ASSIGNMENT ( #687, #259, ( #758 ) ) ;
#627 = DIRECTION ( 'NONE',  ( -0.000000000000000000, -0.000000000000000000, 1.000000000000000000 ) ) ;
#628 = VERTEX_POINT ( 'NONE', #84 ) ;
#629 = CARTESIAN_POINT ( 'NONE',  ( 88.00000000000000000, 193.0000000000000000, 22.00000000000000000 ) ) ;
#630 = DIRECTION ( 'NONE',  ( -0.000000000000000000, -0.000000000000000000, -1.000000000000000000 ) ) ;
#631 = ORIENTED_EDGE ( 'NONE', *, *, #300, .T. ) ;
#632 = DIRECTION ( 'NONE',  ( 1.000000000000000000, 0.000000000000000000, 0.000000000000000000 ) ) ;
#633 = CARTESIAN_POINT ( 'NONE',  ( 93.20000000000000284, 198.1999999999999886, 19.69999999999999929 ) ) ;
#634 = DIRECTION ( 'NONE',  ( 0.000000000000000000, 0.000000000000000000, -1.000000000000000000 ) ) ;
#635 = VECTOR ( 'NONE', #534, 1000.000000000000000 ) ;
#636 =( GEOMETRIC_REPRESENTATION_CONTEXT ( 3 ) GLOBAL_UNCERTAINTY_ASSIGNED_CONTEXT ( ( #150 ) ) GLOBAL_UNIT_ASSIGNED_CONTEXT ( ( #325, #790, #255 ) ) REPRESENTATION_CONTEXT ( 'NONE', 'WORKASPACE' ) );
#637 = EDGE_LOOP ( 'NONE', ( #86, #379, #578, #669 ) ) ;
#638 = ADVANCED_FACE ( 'NONE', ( #143, #616 ), #284, .F. ) ;
#639 = CARTESIAN_POINT ( 'NONE',  ( -95.00000000000000000, 200.0000000000000000, 0.000000000000000000 ) ) ;
#640 = CARTESIAN_POINT ( 'NONE',  ( -95.00000000000000000, 44.99999999999998579, 22.00000000000000000 ) ) ;
#641 = DIRECTION ( 'NONE',  ( -0.000000000000000000, -0.000000000000000000, -1.000000000000000000 ) ) ;
#642 = CARTESIAN_POINT ( 'NONE',  ( 88.00000000000000000, 52.00000000000000711, 22.00000000000000000 ) ) ;
#643 = VERTEX_POINT ( 'NONE', #165 ) ;
#644 = AXIS2_PLACEMENT_3D ( 'NONE', #538, #684, #60 ) ;
#645 = VECTOR ( 'NONE', #96, 1000.000000000000000 ) ;
#646 = ADVANCED_FACE ( 'NONE', ( #375 ), #509, .F. ) ;
#647 = FACE_OUTER_BOUND ( 'NONE', #411, .T. ) ;
#648 = EDGE_CURVE ( 'NONE', #511, #368, #836, .T. ) ;
#649 = ORIENTED_EDGE ( 'NONE', *, *, #733, .F. ) ;
#650 = CARTESIAN_POINT ( 'NONE',  ( 75.00000000000000000, 49.00000000000000000, 100.0000000000000000 ) ) ;
#651 = CARTESIAN_POINT ( 'NONE',  ( 75.00000000000000000, 54.00000000000000000, 100.0000000000000000 ) ) ;
#652 = CARTESIAN_POINT ( 'NONE',  ( 95.00000000000000000, 44.99999999999998579, 22.00000000000000000 ) ) ;
#653 = VERTEX_POINT ( 'NONE', #25 ) ;
#654 = CARTESIAN_POINT ( 'NONE',  ( -93.20000000000000284, 198.1999999999999886, 19.69999999999999929 ) ) ;
#655 = CARTESIAN_POINT ( 'NONE',  ( 0.000000000000000000, 193.0000000000000000, 4.000000000000000000 ) ) ;
#656 = ADVANCED_FACE ( 'NONE', ( #500 ), #364, .F. ) ;
#657 = AXIS2_PLACEMENT_3D ( 'NONE', #513, #380, #242 ) ;
#658 = ORIENTED_EDGE ( 'NONE', *, *, #776, .F. ) ;
#659 = VECTOR ( 'NONE', #773, 1000.000000000000000 ) ;
#660 = PERSON_AND_ORGANIZATION ( #157, #690 ) ;
#661 = LINE ( 'NONE', #386, #542 ) ;
#662 = EDGE_LOOP ( 'NONE', ( #82, #98, #238, #3 ) ) ;
#663 = LINE ( 'NONE', #590, #738 ) ;
#664 = LINE ( 'NONE', #607, #587 ) ;
#665 = VERTEX_POINT ( 'NONE', #510 ) ;
#666 = CARTESIAN_POINT ( 'NONE',  ( 88.00000000000000000, 52.00000000000000711, 22.00000000000000000 ) ) ;
#667 = PLANE ( 'NONE',  #560 ) ;
#668 = CARTESIAN_POINT ( 'NONE',  ( -90.00000000000000000, 50.00000000000000000, 22.00000000000000000 ) ) ;
#669 = ORIENTED_EDGE ( 'NONE', *, *, #276, .F. ) ;
#670 = DATE_TIME_ROLE ( 'creation_date' ) ;
#671 = VECTOR ( 'NONE', #147, 1000.000000000000000 ) ;
#672 = EDGE_CURVE ( 'NONE', #141, #546, #225, .T. ) ;
#673 = CARTESIAN_POINT ( 'NONE',  ( -93.20000000000000284, 46.80000000000000426, 22.00000000000000000 ) ) ;
#674 = LINE ( 'NONE', #693, #256 ) ;
#675 = ORIENTED_EDGE ( 'NONE', *, *, #120, .T. ) ;
#676 = APPROVAL_DATE_TIME ( #470, #526 ) ;
#677 = CARTESIAN_POINT ( 'NONE',  ( 95.00000000000000000, 0.000000000000000000, 0.000000000000000000 ) ) ;
#678 = FACE_BOUND ( 'NONE', #156, .T. ) ;
#679 = ORIENTED_EDGE ( 'NONE', *, *, #686, .F. ) ;
#680 = CARTESIAN_POINT ( 'NONE',  ( 90.00000000000000000, 50.00000000000000000, 19.69999999999999929 ) ) ;
#681 = CARTESIAN_POINT ( 'NONE',  ( -90.00000000000000000, 50.00000000000000000, 19.69999999999999929 ) ) ;
#682 = PLANE ( 'NONE',  #29 ) ;
#683 = EDGE_CURVE ( 'NONE', #546, #581, #770, .T. ) ;
#684 = DIRECTION ( 'NONE',  ( 1.000000000000000000, 0.000000000000000000, 0.000000000000000000 ) ) ;
#685 = ORIENTED_EDGE ( 'NONE', *, *, #449, .T. ) ;
#686 = EDGE_CURVE ( 'NONE', #601, #559, #302, .T. ) ;
#687 = DATE_AND_TIME ( #547, #490 ) ;
#688 = VECTOR ( 'NONE', #746, 1000.000000000000000 ) ;
#689 = CC_DESIGN_DATE_AND_TIME_ASSIGNMENT ( #750, #670, ( #280 ) ) ;
#690 = ORGANIZATION ( 'UNSPECIFIED', 'UNSPECIFIED', '' ) ;
#691 = FACE_OUTER_BOUND ( 'NONE', #564, .T. ) ;
#692 = CARTESIAN_POINT ( 'NONE',  ( 95.00000000000000000, 0.000000000000000000, 4.000000000000000000 ) ) ;
#693 = CARTESIAN_POINT ( 'NONE',  ( 93.20000000000000284, 46.80000000000000426, 19.69999999999999929 ) ) ;
#694 = EDGE_LOOP ( 'NONE', ( #263, #382, #774, #591 ) ) ;
#695 = DIRECTION ( 'NONE',  ( -0.000000000000000000, -0.000000000000000000, -1.000000000000000000 ) ) ;
#696 = DIRECTION ( 'NONE',  ( 0.000000000000000000, 1.000000000000000000, 0.000000000000000000 ) ) ;
#697 = ORIENTED_EDGE ( 'NONE', *, *, #261, .T. ) ;
#698 = CARTESIAN_POINT ( 'NONE',  ( -95.00000000000000000, 44.99999999999998579, 22.00000000000000000 ) ) ;
#699 = DIRECTION ( 'NONE',  ( 0.000000000000000000, -0.000000000000000000, 1.000000000000000000 ) ) ;
#700 = DIRECTION ( 'NONE',  ( 0.000000000000000000, 1.000000000000000000, 0.000000000000000000 ) ) ;
#701 = ORIENTED_EDGE ( 'NONE', *, *, #449, .F. ) ;
#702 = CARTESIAN_POINT ( 'NONE',  ( 95.00000000000000000, 44.99999999999998579, 4.000000000000000000 ) ) ;
#703 = DIRECTION ( 'NONE',  ( -1.000000000000000000, 0.000000000000000000, 0.000000000000000000 ) ) ;
#704 = AXIS2_PLACEMENT_3D ( 'NONE', #533, #270, #799 ) ;
#705 = CC_DESIGN_SECURITY_CLASSIFICATION ( #758, ( #204 ) ) ;
#706 = DIRECTION ( 'NONE',  ( 0.000000000000000000, 0.000000000000000000, 1.000000000000000000 ) ) ;
#707 = EDGE_LOOP ( 'NONE', ( #23, #761, #37, #170 ) ) ;
#708 = CARTESIAN_POINT ( 'NONE',  ( -95.00000000000000000, 200.0000000000000000, 22.00000000000000000 ) ) ;
#709 = EDGE_CURVE ( 'NONE', #69, #562, #162, .T. ) ;
#710 = LINE ( 'NONE', #494, #576 ) ;
#711 = ADVANCED_FACE ( 'NONE', ( #647 ), #20, .T. ) ;
#712 = LINE ( 'NONE', #453, #327 ) ;
#713 = VECTOR ( 'NONE', #62, 1000.000000000000000 ) ;
#714 = AXIS2_PLACEMENT_3D ( 'NONE', #858, #241, #184 ) ;
#715 = CARTESIAN_POINT ( 'NONE',  ( -93.20000000000000284, 46.80000000000000426, 22.00000000000000000 ) ) ;
#716 = ORIENTED_EDGE ( 'NONE', *, *, #709, .T. ) ;
#717 = CARTESIAN_POINT ( 'NONE',  ( -88.00000000000000000, 52.00000000000000711, 22.00000000000000000 ) ) ;
#718 = PERSON_AND_ORGANIZATION_ROLE ( 'design_owner' ) ;
#719 = CARTESIAN_POINT ( 'NONE',  ( 0.000000000000000000, 44.99999999999998579, 4.000000000000000000 ) ) ;
#720 = EDGE_CURVE ( 'NONE', #339, #321, #432, .T. ) ;
#721 = ADVANCED_FACE ( 'NONE', ( #498 ), #371, .F. ) ;
#722 = EDGE_LOOP ( 'NONE', ( #748, #294, #111, #384 ) ) ;
#723 = DIRECTION ( 'NONE',  ( -0.000000000000000000, -0.000000000000000000, 1.000000000000000000 ) ) ;
#724 = LINE ( 'NONE', #853, #446 ) ;
#725 = AXIS2_PLACEMENT_3D ( 'NONE', #522, #39, #795 ) ;
#726 = ORIENTED_EDGE ( 'NONE', *, *, #201, .T. ) ;
#727 = PERSON_AND_ORGANIZATION ( #157, #690 ) ;
#728 = DIRECTION ( 'NONE',  ( 0.000000000000000000, 0.000000000000000000, -1.000000000000000000 ) ) ;
#729 = DIRECTION ( 'NONE',  ( 0.000000000000000000, -0.2837551651986739976, -0.9588967651541396853 ) ) ;
#730 = ORIENTED_EDGE ( 'NONE', *, *, #829, .T. ) ;
#731 = CARTESIAN_POINT ( 'NONE',  ( -95.00000000000000000, 0.000000000000000000, 4.000000000000000000 ) ) ;
#732 = ORIENTED_EDGE ( 'NONE', *, *, #300, .F. ) ;
#733 = EDGE_CURVE ( 'NONE', #31, #229, #158, .T. ) ;
#734 = LINE ( 'NONE', #673, #272 ) ;
#735 = DIRECTION ( 'NONE',  ( -1.000000000000000000, 0.000000000000000000, -0.000000000000000000 ) ) ;
#736 = ORIENTED_EDGE ( 'NONE', *, *, #776, .T. ) ;
#737 = PERSON_AND_ORGANIZATION ( #157, #690 ) ;
#738 = VECTOR ( 'NONE', #723, 1000.000000000000000 ) ;
#739 = LINE ( 'NONE', #408, #178 ) ;
#740 = DIRECTION ( 'NONE',  ( 1.000000000000000000, 0.000000000000000000, 0.000000000000000000 ) ) ;
#741 = VERTEX_POINT ( 'NONE', #367 ) ;
#742 = PERSON_AND_ORGANIZATION ( #157, #690 ) ;
#743 = CARTESIAN_POINT ( 'NONE',  ( -90.00000000000000000, 50.00000000000000000, 19.69999999999999929 ) ) ;
#744 = DIRECTION ( 'NONE',  ( 0.000000000000000000, 1.000000000000000000, 0.000000000000000000 ) ) ;
#745 = EDGE_CURVE ( 'NONE', #581, #206, #580, .T. ) ;
#746 = DIRECTION ( 'NONE',  ( 0.000000000000000000, 1.000000000000000000, 0.000000000000000000 ) ) ;
#747 = EDGE_CURVE ( 'NONE', #555, #55, #710, .T. ) ;
#748 = ORIENTED_EDGE ( 'NONE', *, *, #785, .T. ) ;
#749 = EDGE_CURVE ( 'NONE', #243, #69, #762, .T. ) ;
#750 = DATE_AND_TIME ( #336, #793 ) ;
#751 = DIRECTION ( 'NONE',  ( 0.000000000000000000, 0.9588967651541396853, -0.2837551651986739421 ) ) ;
#752 = VERTEX_POINT ( 'NONE', #237 ) ;
#753 = LINE ( 'NONE', #63, #420 ) ;
#754 = EDGE_LOOP ( 'NONE', ( #477, #801, #588, #697 ) ) ;
#755 = APPROVAL_ROLE ( '' ) ;
#756 = VECTOR ( 'NONE', #392, 1000.000000000000000 ) ;
#757 = CARTESIAN_POINT ( 'NONE',  ( -95.00000000000000000, 0.000000000000000000, 4.000000000000000000 ) ) ;
#758 = SECURITY_CLASSIFICATION ( '', '', #417 ) ;
#759 = ORIENTED_EDGE ( 'NONE', *, *, #53, .T. ) ;
#760 = CARTESIAN_POINT ( 'NONE',  ( -90.00000000000000000, 50.00000000000000000, 19.69999999999999929 ) ) ;
#761 = ORIENTED_EDGE ( 'NONE', *, *, #120, .F. ) ;
#762 = LINE ( 'NONE', #708, #839 ) ;
#763 = DIRECTION ( 'NONE',  ( -0.000000000000000000, -0.000000000000000000, 1.000000000000000000 ) ) ;
#764 = ORIENTED_EDGE ( 'NONE', *, *, #248, .T. ) ;
#765 = ORIENTED_EDGE ( 'NONE', *, *, #326, .F. ) ;
#766 = EDGE_CURVE ( 'NONE', #798, #830, #97, .T. ) ;
#767 = DIRECTION ( 'NONE',  ( -0.000000000000000000, -0.000000000000000000, -1.000000000000000000 ) ) ;
#768 = EDGE_LOOP ( 'NONE', ( #850, #805, #499, #246 ) ) ;
#769 = DIRECTION ( 'NONE',  ( 0.000000000000000000, 1.000000000000000000, 0.000000000000000000 ) ) ;
#770 = LINE ( 'NONE', #169, #474 ) ;
#771 = VERTEX_POINT ( 'NONE', #702 ) ;
#772 = AXIS2_PLACEMENT_3D ( 'NONE', #821, #5, #355 ) ;
#773 = DIRECTION ( 'NONE',  ( -0.000000000000000000, -0.000000000000000000, 1.000000000000000000 ) ) ;
#774 = ORIENTED_EDGE ( 'NONE', *, *, #838, .F. ) ;
#775 = ADVANCED_FACE ( 'NONE', ( #91 ), #171, .T. ) ;
#776 = EDGE_CURVE ( 'NONE', #521, #368, #378, .T. ) ;
#777 = CC_DESIGN_PERSON_AND_ORGANIZATION_ASSIGNMENT ( #742, #142, ( #204 ) ) ;
#778 = CARTESIAN_POINT ( 'NONE',  ( -90.00000000000000000, 50.00000000000000000, 22.00000000000000000 ) ) ;
#779 = CARTESIAN_POINT ( 'NONE',  ( 95.00000000000000000, 0.000000000000000000, 4.000000000000000000 ) ) ;
#780 = PLANE ( 'NONE',  #714 ) ;
#781 = VERTEX_POINT ( 'NONE', #22 ) ;
#782 = CARTESIAN_POINT ( 'NONE',  ( -75.00000000000000000, 25.59183673469387799, 4.000000000000000000 ) ) ;
#783 = VECTOR ( 'NONE', #627, 1000.000000000000000 ) ;
#784 = DIRECTION ( 'NONE',  ( -0.000000000000000000, 1.000000000000000000, 0.000000000000000000 ) ) ;
#785 = EDGE_CURVE ( 'NONE', #497, #562, #563, .T. ) ;
#786 = ORIENTED_EDGE ( 'NONE', *, *, #117, .F. ) ;
#787 = FACE_OUTER_BOUND ( 'NONE', #662, .T. ) ;
#788 = LINE ( 'NONE', #198, #602 ) ;
#789 = ORIENTED_EDGE ( 'NONE', *, *, #648, .F. ) ;
#790 =( NAMED_UNIT ( * ) PLANE_ANGLE_UNIT ( ) SI_UNIT ( $, .RADIAN. ) );
#791 = DIRECTION ( 'NONE',  ( 0.000000000000000000, 0.000000000000000000, -1.000000000000000000 ) ) ;
#792 = AXIS2_PLACEMENT_3D ( 'NONE', #517, #784, #173 ) ;
#793 = LOCAL_TIME ( 15, 48, 54.00000000000000000, #10 ) ;
#794 = VERTEX_POINT ( 'NONE', #56 ) ;
#795 = DIRECTION ( 'NONE',  ( 0.000000000000000000, -0.000000000000000000, -1.000000000000000000 ) ) ;
#796 = FACE_OUTER_BOUND ( 'NONE', #707, .T. ) ;
#797 = EDGE_CURVE ( 'NONE', #200, #149, #322, .T. ) ;
#798 = VERTEX_POINT ( 'NONE', #666 ) ;
#799 = DIRECTION ( 'NONE',  ( 0.000000000000000000, -0.2837551651986739976, -0.9588967651541396853 ) ) ;
#800 = CARTESIAN_POINT ( 'NONE',  ( -95.00000000000000000, 200.0000000000000000, 0.000000000000000000 ) ) ;
#801 = ORIENTED_EDGE ( 'NONE', *, *, #812, .F. ) ;
#802 = CARTESIAN_POINT ( 'NONE',  ( -75.00000000000000000, 25.00000000000000000, 2.000000000000000000 ) ) ;
#803 = AXIS2_PLACEMENT_3D ( 'NONE', #817, #700, #419 ) ;
#804 = CARTESIAN_POINT ( 'NONE',  ( 95.00000000000000000, 200.0000000000000000, 0.000000000000000000 ) ) ;
#805 = ORIENTED_EDGE ( 'NONE', *, *, #810, .F. ) ;
#806 = PERSON_AND_ORGANIZATION_ROLE ( 'design_supplier' ) ;
#807 = AXIS2_PLACEMENT_3D ( 'NONE', #240, #512, #48 ) ;
#808 = AXIS2_PLACEMENT_3D ( 'NONE', #304, #456, #728 ) ;
#809 = DIRECTION ( 'NONE',  ( -1.000000000000000000, 0.000000000000000000, -0.000000000000000000 ) ) ;
#810 = EDGE_CURVE ( 'NONE', #85, #433, #394, .T. ) ;
#811 = DIRECTION ( 'NONE',  ( -0.000000000000000000, -0.000000000000000000, 1.000000000000000000 ) ) ;
#812 = EDGE_CURVE ( 'NONE', #643, #581, #663, .T. ) ;
#813 = CARTESIAN_POINT ( 'NONE',  ( 75.00000000000000000, 0.000000000000000000, 0.000000000000000000 ) ) ;
#814 = ORIENTED_EDGE ( 'NONE', *, *, #459, .T. ) ;
#815 = COORDINATED_UNIVERSAL_TIME_OFFSET ( 5, 0, .BEHIND. ) ;
#816 = DIRECTION ( 'NONE',  ( -0.000000000000000000, -1.000000000000000000, -0.000000000000000000 ) ) ;
#817 = CARTESIAN_POINT ( 'NONE',  ( -88.00000000000000000, 52.00000000000000711, 22.00000000000000000 ) ) ;
#818 = FACE_OUTER_BOUND ( 'NONE', #362, .T. ) ;
#819 = ORIENTED_EDGE ( 'NONE', *, *, #53, .F. ) ;
#820 = CALENDAR_DATE ( 2026, 25, 7 ) ;
#821 = CARTESIAN_POINT ( 'NONE',  ( 0.000000000000000000, 0.000000000000000000, 22.00000000000000000 ) ) ;
#822 = ORIENTED_EDGE ( 'NONE', *, *, #132, .T. ) ;
#823 = CARTESIAN_POINT ( 'NONE',  ( -95.00000000000000000, 44.99999999999998579, 22.00000000000000000 ) ) ;
#824 = EDGE_LOOP ( 'NONE', ( #331, #348, #161, #550 ) ) ;
#825 = VECTOR ( 'NONE', #249, 1000.000000000000000 ) ;
#826 = PLANE ( 'NONE',  #377 ) ;
#827 = CC_DESIGN_APPROVAL ( #306, ( #758 ) ) ;
#828 = ORIENTED_EDGE ( 'NONE', *, *, #622, .T. ) ;
#829 = EDGE_CURVE ( 'NONE', #200, #31, #594, .T. ) ;
#830 = VERTEX_POINT ( 'NONE', #119 ) ;
#831 = CARTESIAN_POINT ( 'NONE',  ( 90.00000000000000000, 195.0000000000000000, 19.69999999999999929 ) ) ;
#832 = ORIENTED_EDGE ( 'NONE', *, *, #683, .F. ) ;
#833 = DIRECTION ( 'NONE',  ( -0.000000000000000000, -1.000000000000000000, -0.000000000000000000 ) ) ;
#834 = ORIENTED_EDGE ( 'NONE', *, *, #523, .F. ) ;
#835 = ADVANCED_FACE ( 'NONE', ( #180 ), #780, .T. ) ;
#836 = LINE ( 'NONE', #235, #603 ) ;
#837 = VECTOR ( 'NONE', #448, 1000.000000000000000 ) ;
#838 = EDGE_CURVE ( 'NONE', #569, #869, #528, .T. ) ;
#839 = VECTOR ( 'NONE', #428, 1000.000000000000000 ) ;
#840 = CC_DESIGN_PERSON_AND_ORGANIZATION_ASSIGNMENT ( #349, #553, ( #280 ) ) ;
#841 = DIRECTION ( 'NONE',  ( 0.000000000000000000, 0.000000000000000000, 1.000000000000000000 ) ) ;
#842 = LINE ( 'NONE', #317, #837 ) ;
#843 = PLANE ( 'NONE',  #725 ) ;
#844 = ORIENTED_EDGE ( 'NONE', *, *, #95, .T. ) ;
#845 = DIRECTION ( 'NONE',  ( 0.000000000000000000, 1.000000000000000000, 0.000000000000000000 ) ) ;
#846 = CARTESIAN_POINT ( 'NONE',  ( -93.20000000000000284, 198.1999999999999886, 19.69999999999999929 ) ) ;
#847 = CARTESIAN_POINT ( 'NONE',  ( 75.00000000000000000, 54.00000000000000000, 100.0000000000000000 ) ) ;
#848 = VECTOR ( 'NONE', #464, 1000.000000000000000 ) ;
#849 = EDGE_CURVE ( 'NONE', #31, #85, #319, .T. ) ;
#850 = ORIENTED_EDGE ( 'NONE', *, *, #396, .T. ) ;
#851 = DIRECTION ( 'NONE',  ( 1.000000000000000000, 0.000000000000000000, 0.000000000000000000 ) ) ;
#852 = ORIENTED_EDGE ( 'NONE', *, *, #250, .F. ) ;
#853 = CARTESIAN_POINT ( 'NONE',  ( -88.00000000000000000, 193.0000000000000000, 22.00000000000000000 ) ) ;
#854 = ORIENTED_EDGE ( 'NONE', *, *, #785, .F. ) ;
#855 = CARTESIAN_POINT ( 'NONE',  ( -75.00000000000000000, 54.00000000000000000, 100.0000000000000000 ) ) ;
#856 = DIRECTION ( 'NONE',  ( 0.000000000000000000, 1.000000000000000000, 0.000000000000000000 ) ) ;
#857 = ORIENTED_EDGE ( 'NONE', *, *, #829, .F. ) ;
#858 = CARTESIAN_POINT ( 'NONE',  ( -90.00000000000000000, 50.00000000000000000, 19.69999999999999929 ) ) ;
#859 = EDGE_CURVE ( 'NONE', #869, #752, #176, .T. ) ;
#860 = DIRECTION ( 'NONE',  ( -0.000000000000000000, -0.000000000000000000, -1.000000000000000000 ) ) ;
#861 = VECTOR ( 'NONE', #51, 1000.000000000000000 ) ;
#862 = VERTEX_POINT ( 'NONE', #715 ) ;
#863 = APPROVAL_STATUS ( 'not_yet_approved' ) ;
#864 = DIRECTION ( 'NONE',  ( 1.000000000000000000, 0.000000000000000000, 0.000000000000000000 ) ) ;
#865 = CARTESIAN_POINT ( 'NONE',  ( -95.00000000000000000, 0.000000000000000000, 0.000000000000000000 ) ) ;
#866 = ORIENTED_EDGE ( 'NONE', *, *, #596, .F. ) ;
#867 = LINE ( 'NONE', #138, #713 ) ;
#868 = CARTESIAN_POINT ( 'NONE',  ( -95.00000000000000000, 44.99999999999998579, 22.00000000000000000 ) ) ;
#869 = VERTEX_POINT ( 'NONE', #654 ) ;
#870 = ADVANCED_FACE ( 'NONE', ( #787 ), #843, .F. ) ;
#871 = DIRECTION ( 'NONE',  ( -0.000000000000000000, -0.000000000000000000, 1.000000000000000000 ) ) ;
ENDSEC;
END-ISO-10303-21;
