ISO-10303-21;
HEADER;
FILE_DESCRIPTION (( 'STEP AP203' ),
    '1' );
FILE_NAME ('jet_ski_dash_front_cover_v1.step',
    '2026-07-25T19:06:26',
    ( '' ),
    ( '' ),
    'SwSTEP 2.0',
    'SolidWorks 2026',
    '' );
FILE_SCHEMA (( 'CONFIG_CONTROL_DESIGN' ));
ENDSEC;

DATA;
#1 = CARTESIAN_POINT ( 'NONE',  ( -82.12610195477196839, 0.000000000000000000, -201.9999999999999432 ) ) ;
#2 = DIRECTION ( 'NONE',  ( 0.000000000000000000, -0.6344933783882420464, -0.7729282973093138942 ) ) ;
#3 = ORIENTED_EDGE ( 'NONE', *, *, #725, .T. ) ;
#4 = CARTESIAN_POINT ( 'NONE',  ( -75.00000000000000000, 55.00000000000000000, -45.00000000000000000 ) ) ;
#5 = ORIENTED_EDGE ( 'NONE', *, *, #898, .T. ) ;
#6 = ORIENTED_EDGE ( 'NONE', *, *, #500, .F. ) ;
#7 = EDGE_CURVE ( 'NONE', #517, #977, #566, .T. ) ;
#8 = DIRECTION ( 'NONE',  ( 0.4273796168934163586, 0.9040722665053035900, 0.000000000000000000 ) ) ;
#9 = CARTESIAN_POINT ( 'NONE',  ( 62.99999999999997158, 55.00000000000000000, -154.9999999999999716 ) ) ;
#10 = ORIENTED_EDGE ( 'NONE', *, *, #728, .T. ) ;
#11 = CARTESIAN_POINT ( 'NONE',  ( -75.00000000000000000, 55.00000000000000000, -142.9999999999999432 ) ) ;
#12 = ORIENTED_EDGE ( 'NONE', *, *, #442, .T. ) ;
#13 = EDGE_CURVE ( 'NONE', #1091, #653, #198, .T. ) ;
#14 = DIRECTION ( 'NONE',  ( -1.000000000000000000, -0.000000000000000000, -0.000000000000000000 ) ) ;
#15 = EDGE_LOOP ( 'NONE', ( #1005, #848, #819, #104 ) ) ;
#16 = VECTOR ( 'NONE', #989, 1000.000000000000000 ) ;
#17 = DIRECTION ( 'NONE',  ( 0.000000000000000000, 0.000000000000000000, -1.000000000000000000 ) ) ;
#18 = AXIS2_PLACEMENT_3D ( 'NONE', #1092, #201, #568 ) ;
#19 = CARTESIAN_POINT ( 'NONE',  ( 75.00000000000000000, 54.00000000000000000, -155.0000000000000000 ) ) ;
#20 = AXIS2_PLACEMENT_3D ( 'NONE', #648, #633, #817 ) ;
#21 = FACE_OUTER_BOUND ( 'NONE', #759, .T. ) ;
#22 = EDGE_LOOP ( 'NONE', ( #404, #315, #186, #1078 ) ) ;
#23 = PERSON_AND_ORGANIZATION_ROLE ( 'design_owner' ) ;
#24 = CARTESIAN_POINT ( 'NONE',  ( 96.57557493112581426, 0.000000000000000000, -3.261555562963179611 ) ) ;
#25 = ORIENTED_EDGE ( 'NONE', *, *, #357, .T. ) ;
#26 = EDGE_CURVE ( 'NONE', #657, #292, #106, .T. ) ;
#27 = SHAPE_DEFINITION_REPRESENTATION ( #98, #149 ) ;
#28 = DIRECTION ( 'NONE',  ( -1.000000000000000000, -0.000000000000000000, -0.000000000000000000 ) ) ;
#29 = VERTEX_POINT ( 'NONE', #19 ) ;
#30 = PERSON_AND_ORGANIZATION ( #927, #229 ) ;
#31 = ORIENTED_EDGE ( 'NONE', *, *, #526, .F. ) ;
#32 = DIRECTION ( 'NONE',  ( -0.000000000000000000, 0.000000000000000000, 1.000000000000000000 ) ) ;
#33 = ORIENTED_EDGE ( 'NONE', *, *, #797, .F. ) ;
#34 = ORIENTED_EDGE ( 'NONE', *, *, #136, .F. ) ;
#35 = DIRECTION ( 'NONE',  ( -1.000000000000000000, -0.000000000000000000, -0.000000000000000000 ) ) ;
#36 = EDGE_CURVE ( 'NONE', #598, #1111, #392, .T. ) ;
#37 =( NAMED_UNIT ( * ) SI_UNIT ( $, .STERADIAN. ) SOLID_ANGLE_UNIT ( ) );
#38 = CARTESIAN_POINT ( 'NONE',  ( -75.00000000000000000, 54.00000000000000000, -45.00000000000000000 ) ) ;
#39 = ORIENTED_EDGE ( 'NONE', *, *, #44, .F. ) ;
#40 = VECTOR ( 'NONE', #676, 1000.000000000000000 ) ;
#41 = LINE ( 'NONE', #658, #1122 ) ;
#42 = AXIS2_PLACEMENT_3D ( 'NONE', #565, #456, #8 ) ;
#43 = CALENDAR_DATE ( 2026, 25, 7 ) ;
#44 = EDGE_CURVE ( 'NONE', #506, #517, #628, .T. ) ;
#45 = ORIENTED_EDGE ( 'NONE', *, *, #680, .F. ) ;
#46 = CARTESIAN_POINT ( 'NONE',  ( 52.33564013840817353, 63.75432525951557494, -155.0000000000000000 ) ) ;
#47 = PLANE ( 'NONE',  #90 ) ;
#48 = ORIENTED_EDGE ( 'NONE', *, *, #1056, .T. ) ;
#49 = APPROVAL ( #487, 'UNSPECIFIED' ) ;
#50 = ORIENTED_EDGE ( 'NONE', *, *, #44, .T. ) ;
#51 = DIRECTION ( 'NONE',  ( 0.7729282973093127840, 0.6344933783882433787, 0.000000000000000000 ) ) ;
#52 = CARTESIAN_POINT ( 'NONE',  ( -83.00000000000000000, 0.000000000000000000, -201.9999999999999716 ) ) ;
#53 = MANIFOLD_SOLID_BREP ( 'Three-Sided Gasket Groove', #205 ) ;
#54 = PLANE ( 'NONE',  #449 ) ;
#55 = ORIENTED_EDGE ( 'NONE', *, *, #74, .T. ) ;
#56 = EDGE_CURVE ( 'NONE', #903, #641, #997, .T. ) ;
#57 = EDGE_LOOP ( 'NONE', ( #133, #894, #681, #316, #983, #755 ) ) ;
#58 = CARTESIAN_POINT ( 'NONE',  ( -102.5999999999999943, 2.399999999999999911, -7.000000000000000000 ) ) ;
#59 = VECTOR ( 'NONE', #76, 999.9999999999998863 ) ;
#60 = VECTOR ( 'NONE', #151, 1000.000000000000000 ) ;
#61 = CARTESIAN_POINT ( 'NONE',  ( 105.8760133893230346, 54.00000000000000000, -105.8760133893234325 ) ) ;
#62 = ORIENTED_EDGE ( 'NONE', *, *, #984, .T. ) ;
#63 = CARTESIAN_POINT ( 'NONE',  ( -101.0000000000000000, 0.000000000000000000, -183.9999999999999147 ) ) ;
#64 = ORIENTED_EDGE ( 'NONE', *, *, #397, .F. ) ;
#65 = DIRECTION ( 'NONE',  ( 0.000000000000000000, 0.000000000000000000, 1.000000000000000000 ) ) ;
#66 = ADVANCED_FACE ( 'NONE', ( #922 ), #378, .T. ) ;
#67 = LINE ( 'NONE', #757, #812 ) ;
#68 = LINE ( 'NONE', #1120, #951 ) ;
#69 = ORIENTED_EDGE ( 'NONE', *, *, #582, .T. ) ;
#70 = DIRECTION ( 'NONE',  ( 0.000000000000000000, 0.000000000000000000, -1.000000000000000000 ) ) ;
#71 = LINE ( 'NONE', #1139, #556 ) ;
#72 = CARTESIAN_POINT ( 'NONE',  ( 75.00000000000000000, 54.00000000000000000, -155.0000000000000000 ) ) ;
#73 = VERTEX_POINT ( 'NONE', #1090 ) ;
#74 = EDGE_CURVE ( 'NONE', #928, #421, #291, .T. ) ;
#75 = DIRECTION ( 'NONE',  ( 0.000000000000000000, 0.000000000000000000, -1.000000000000000000 ) ) ;
#76 = DIRECTION ( 'NONE',  ( 0.7071067811865462405, 0.000000000000000000, -0.7071067811865489050 ) ) ;
#77 = CARTESIAN_POINT ( 'NONE',  ( -82.12610195477196839, 2.399999999999999911, -199.9463395937140717 ) ) ;
#78 = VECTOR ( 'NONE', #583, 1000.000000000000000 ) ;
#79 = EDGE_CURVE ( 'NONE', #613, #139, #1004, .T. ) ;
#80 = VECTOR ( 'NONE', #383, 1000.000000000000114 ) ;
#81 = DIRECTION ( 'NONE',  ( -0.3544063553807967892, 0.7497057517670696614, 0.5588715604081794242 ) ) ;
#82 = LINE ( 'NONE', #347, #855 ) ;
#83 = FACE_BOUND ( 'NONE', #248, .T. ) ;
#84 = DIRECTION ( 'NONE',  ( 1.000000000000000000, -0.000000000000000000, 0.000000000000000000 ) ) ;
#85 = DIRECTION ( 'NONE',  ( 0.000000000000000000, -1.000000000000000000, 0.000000000000000000 ) ) ;
#86 = CARTESIAN_POINT ( 'NONE',  ( 48.60333329145352366, 101.4797419300759458, -105.3097351360093512 ) ) ;
#87 = EDGE_CURVE ( 'NONE', #624, #826, #368, .T. ) ;
#88 = CARTESIAN_POINT ( 'NONE',  ( -99.86545454545455414, 2.399999999999999467, -0.000000000000000000 ) ) ;
#89 = VECTOR ( 'NONE', #787, 1000.000000000000000 ) ;
#90 = AXIS2_PLACEMENT_3D ( 'NONE', #322, #767, #941 ) ;
#91 = CC_DESIGN_APPROVAL ( #49, ( #924 ) ) ;
#92 = VECTOR ( 'NONE', #790, 1000.000000000000000 ) ;
#93 = DIRECTION ( 'NONE',  ( 1.000000000000000000, 0.000000000000000000, 0.000000000000000000 ) ) ;
#94 = ORIENTED_EDGE ( 'NONE', *, *, #131, .F. ) ;
#95 = DIRECTION ( 'NONE',  ( -0.000000000000000000, -0.000000000000000000, 1.000000000000000000 ) ) ;
#96 = EDGE_CURVE ( 'NONE', #29, #854, #209, .T. ) ;
#97 = ORIENTED_EDGE ( 'NONE', *, *, #514, .T. ) ;
#98 = PRODUCT_DEFINITION_SHAPE ( 'NONE', 'NONE',  #924 ) ;
#99 = CARTESIAN_POINT ( 'NONE',  ( 71.04830220385308337, 54.00000000000000000, 0.000000000000000000 ) ) ;
#100 = CARTESIAN_POINT ( 'NONE',  ( -101.0000000000000000, 0.000000000000000000, 2.000000000000000000 ) ) ;
#101 = VERTEX_POINT ( 'NONE', #1070 ) ;
#102 = DATE_AND_TIME ( #1015, #609 ) ;
#103 = DIRECTION ( 'NONE',  ( 0.000000000000000000, -1.000000000000000000, 0.000000000000000000 ) ) ;
#104 = ORIENTED_EDGE ( 'NONE', *, *, #204, .T. ) ;
#105 = PLANE ( 'NONE',  #20 ) ;
#106 = LINE ( 'NONE', #810, #16 ) ;
#107 = DATE_TIME_ROLE ( 'classification_date' ) ;
#108 = DIRECTION ( 'NONE',  ( 0.7729282973093127840, 0.6344933783882433787, 0.000000000000000000 ) ) ;
#109 = VERTEX_POINT ( 'NONE', #273 ) ;
#110 = EDGE_CURVE ( 'NONE', #751, #281, #621, .T. ) ;
#111 = AXIS2_PLACEMENT_3D ( 'NONE', #167, #940, #145 ) ;
#112 = DIRECTION ( 'NONE',  ( 1.000000000000000000, 0.000000000000000000, 0.000000000000000000 ) ) ;
#113 = VECTOR ( 'NONE', #999, 1000.000000000000000 ) ;
#114 = DIRECTION ( 'NONE',  ( 0.000000000000000000, -0.6496523275821463050, 0.7602314471705967636 ) ) ;
#115 = ORIENTED_EDGE ( 'NONE', *, *, #288, .F. ) ;
#116 = VECTOR ( 'NONE', #166, 1000.000000000000000 ) ;
#117 = APPROVAL_ROLE ( '' ) ;
#118 = CARTESIAN_POINT ( 'NONE',  ( 99.40000000000000568, 0.000000000000000000, -7.000000000000000000 ) ) ;
#119 = ORIENTED_EDGE ( 'NONE', *, *, #79, .T. ) ;
#120 = APPROVAL_ROLE ( '' ) ;
#121 = ADVANCED_FACE ( 'NONE', ( #540 ), #893, .T. ) ;
#122 = LINE ( 'NONE', #722, #538 ) ;
#123 = CARTESIAN_POINT ( 'NONE',  ( 82.55201296946772516, 39.02458794920294594, -7.000000000000000000 ) ) ;
#124 = ORIENTED_EDGE ( 'NONE', *, *, #1151, .F. ) ;
#125 = LINE ( 'NONE', #542, #912 ) ;
#126 = EDGE_LOOP ( 'NONE', ( #712, #834, #740, #423 ) ) ;
#127 = FACE_OUTER_BOUND ( 'NONE', #385, .T. ) ;
#128 = CARTESIAN_POINT ( 'NONE',  ( -75.00000000000000000, 54.00000000000000000, -155.0000000000000000 ) ) ;
#129 = ORIENTED_EDGE ( 'NONE', *, *, #237, .F. ) ;
#130 = LINE ( 'NONE', #380, #399 ) ;
#131 = EDGE_CURVE ( 'NONE', #156, #624, #336, .T. ) ;
#132 = APPROVAL_DATE_TIME ( #638, #49 ) ;
#133 = ORIENTED_EDGE ( 'NONE', *, *, #36, .F. ) ;
#134 = VECTOR ( 'NONE', #992, 1000.000000000000000 ) ;
#135 = LINE ( 'NONE', #492, #1077 ) ;
#136 = EDGE_CURVE ( 'NONE', #975, #598, #162, .T. ) ;
#137 = CALENDAR_DATE ( 2026, 25, 7 ) ;
#138 = EDGE_LOOP ( 'NONE', ( #1081, #1022, #1093, #243, #472, #770 ) ) ;
#139 = VERTEX_POINT ( 'NONE', #1058 ) ;
#140 = CARTESIAN_POINT ( 'NONE',  ( 75.00000000000000000, 54.00000000000000000, -45.00000000000000000 ) ) ;
#141 = DIRECTION ( 'NONE',  ( 1.000000000000000000, 0.000000000000000000, 0.000000000000000000 ) ) ;
#142 = ORIENTED_EDGE ( 'NONE', *, *, #87, .T. ) ;
#143 = ORIENTED_EDGE ( 'NONE', *, *, #937, .T. ) ;
#144 = LINE ( 'NONE', #46, #1141 ) ;
#145 = DIRECTION ( 'NONE',  ( 0.000000000000000000, -0.7602314471705966525, -0.6496523275821461940 ) ) ;
#146 = DIRECTION ( 'NONE',  ( -0.000000000000000000, -0.000000000000000000, 1.000000000000000000 ) ) ;
#147 = ORIENTED_EDGE ( 'NONE', *, *, #728, .F. ) ;
#148 = EDGE_CURVE ( 'NONE', #210, #218, #262, .T. ) ;
#149 = ADVANCED_BREP_SHAPE_REPRESENTATION ( 'jet_ski_dash_front_cover_v1', ( #53, #783 ), #450 ) ;
#150 = ORIENTED_EDGE ( 'NONE', *, *, #358, .F. ) ;
#151 = DIRECTION ( 'NONE',  ( 0.3382046757619945332, 0.7154329679580652135, -0.6113699908005284511 ) ) ;
#152 = VECTOR ( 'NONE', #1025, 1000.000000000000000 ) ;
#153 = CARTESIAN_POINT ( 'NONE',  ( 82.99999999999995737, 0.000000000000000000, -201.9999999999999716 ) ) ;
#154 = AXIS2_PLACEMENT_3D ( 'NONE', #882, #84, #163 ) ;
#155 = FACE_OUTER_BOUND ( 'NONE', #459, .T. ) ;
#156 = VERTEX_POINT ( 'NONE', #947 ) ;
#157 = EDGE_CURVE ( 'NONE', #274, #897, #956, .T. ) ;
#158 = CARTESIAN_POINT ( 'NONE',  ( 138.7669224802320969, -1.387778780781445676E-14, -138.7669224802325800 ) ) ;
#159 = CARTESIAN_POINT ( 'NONE',  ( -99.40000000000000568, 0.000000000000000000, -7.000000000000000000 ) ) ;
#160 = CARTESIAN_POINT ( 'NONE',  ( 82.00000000000000000, 0.000000000000000000, -199.9463395937140717 ) ) ;
#161 = ORIENTED_EDGE ( 'NONE', *, *, #831, .T. ) ;
#162 = LINE ( 'NONE', #349, #89 ) ;
#163 = DIRECTION ( 'NONE',  ( 0.000000000000000000, 0.000000000000000000, -1.000000000000000000 ) ) ;
#164 = CARTESIAN_POINT ( 'NONE',  ( 75.00000000000000000, 58.00000000000000000, -155.0000000000000000 ) ) ;
#165 = EDGE_CURVE ( 'NONE', #977, #622, #589, .T. ) ;
#166 = DIRECTION ( 'NONE',  ( -0.000000000000000000, 0.000000000000000000, 1.000000000000000000 ) ) ;
#167 = CARTESIAN_POINT ( 'NONE',  ( 0.000000000000000000, 99.76499808941531455, -116.7462743599540858 ) ) ;
#168 = DIRECTION ( 'NONE',  ( -0.2664535889924770640, 0.7327473697293122035, 0.6261659341323213557 ) ) ;
#169 = VECTOR ( 'NONE', #2, 1000.000000000000000 ) ;
#170 = EDGE_CURVE ( 'NONE', #218, #928, #344, .T. ) ;
#171 = AXIS2_PLACEMENT_3D ( 'NONE', #752, #851, #1112 ) ;
#172 = PLANE ( 'NONE',  #856 ) ;
#173 = PLANE ( 'NONE',  #277 ) ;
#174 = LINE ( 'NONE', #177, #116 ) ;
#175 = CARTESIAN_POINT ( 'NONE',  ( 82.00000000000000000, 2.399999999999999911, -199.9463395937140717 ) ) ;
#176 = EDGE_CURVE ( 'NONE', #798, #496, #522, .T. ) ;
#177 = CARTESIAN_POINT ( 'NONE',  ( -96.57557493112578584, 0.000000000000000000, 0.000000000000000000 ) ) ;
#178 = ORIENTED_EDGE ( 'NONE', *, *, #222, .T. ) ;
#179 = DIRECTION ( 'NONE',  ( 0.000000000000000000, 0.000000000000000000, -1.000000000000000000 ) ) ;
#180 = EDGE_LOOP ( 'NONE', ( #393, #1067, #942, #64 ) ) ;
#181 = AXIS2_PLACEMENT_3D ( 'NONE', #715, #114, #471 ) ;
#182 = VECTOR ( 'NONE', #406, 1000.000000000000000 ) ;
#183 = PRODUCT_DEFINITION_FORMATION_WITH_SPECIFIED_SOURCE ( 'ANY', '', #705, .NOT_KNOWN. ) ;
#184 = FACE_OUTER_BOUND ( 'NONE', #910, .T. ) ;
#185 = DIRECTION ( 'NONE',  ( -1.000000000000000000, 0.000000000000000000, 0.000000000000000000 ) ) ;
#186 = ORIENTED_EDGE ( 'NONE', *, *, #335, .F. ) ;
#187 = LINE ( 'NONE', #395, #885 ) ;
#188 = VERTEX_POINT ( 'NONE', #52 ) ;
#189 = CARTESIAN_POINT ( 'NONE',  ( -79.66029803637978546, 97.04072669886240021, -79.66029803637950124 ) ) ;
#190 = ORIENTED_EDGE ( 'NONE', *, *, #455, .F. ) ;
#191 = ORIENTED_EDGE ( 'NONE', *, *, #808, .F. ) ;
#192 = FACE_OUTER_BOUND ( 'NONE', #460, .T. ) ;
#193 = ORIENTED_EDGE ( 'NONE', *, *, #508, .F. ) ;
#194 = EDGE_CURVE ( 'NONE', #292, #224, #1031, .T. ) ;
#195 = CARTESIAN_POINT ( 'NONE',  ( 0.000000000000000000, 0.000000000000000000, 0.000000000000000000 ) ) ;
#196 = ORIENTED_EDGE ( 'NONE', *, *, #13, .T. ) ;
#197 = CARTESIAN_POINT ( 'NONE',  ( -102.5999999999999943, 0.000000000000000000, -7.000000000000000000 ) ) ;
#198 = LINE ( 'NONE', #100, #1045 ) ;
#199 = ORIENTED_EDGE ( 'NONE', *, *, #148, .F. ) ;
#200 = APPROVAL_DATE_TIME ( #102, #696 ) ;
#201 = DIRECTION ( 'NONE',  ( 0.000000000000000000, -1.000000000000000000, 0.000000000000000000 ) ) ;
#202 = VERTEX_POINT ( 'NONE', #1118 ) ;
#203 = PERSON_AND_ORGANIZATION ( #927, #229 ) ;
#204 = EDGE_CURVE ( 'NONE', #1107, #665, #693, .T. ) ;
#205 = CLOSED_SHELL ( 'NONE', ( #327, #1075, #254, #743, #610, #486, #319, #691, #366, #446, #121, #1024, #1063, #867, #408, #1129, #859, #297, #578, #1011, #765, #954, #1137, #960, #849, #1094, #1068, #647, #698, #242, #943, #529, #416, #881, #66 ) ) ;
#206 = AXIS2_PLACEMENT_3D ( 'NONE', #1117, #671, #65 ) ;
#207 = CARTESIAN_POINT ( 'NONE',  ( 0.000000000000000000, 54.00000000000000000, 0.000000000000000000 ) ) ;
#208 = SECURITY_CLASSIFICATION ( '', '', #820 ) ;
#209 = LINE ( 'NONE', #128, #745 ) ;
#210 = VERTEX_POINT ( 'NONE', #425 ) ;
#211 = CALENDAR_DATE ( 2026, 25, 7 ) ;
#212 = LINE ( 'NONE', #739, #1027 ) ;
#213 = ORIENTED_EDGE ( 'NONE', *, *, #1124, .T. ) ;
#214 = CARTESIAN_POINT ( 'NONE',  ( 50.50000000000000000, 54.00000000000000000, -71.00000000000001421 ) ) ;
#215 = EDGE_CURVE ( 'NONE', #735, #274, #1134, .T. ) ;
#216 = LINE ( 'NONE', #833, #469 ) ;
#217 = VERTEX_POINT ( 'NONE', #963 ) ;
#218 = VERTEX_POINT ( 'NONE', #861 ) ;
#219 = LINE ( 'NONE', #813, #701 ) ;
#220 = CARTESIAN_POINT ( 'NONE',  ( -75.00000000000000000, 54.00000000000000000, -155.0000000000000000 ) ) ;
#221 = ORIENTED_EDGE ( 'NONE', *, *, #564, .F. ) ;
#222 = EDGE_CURVE ( 'NONE', #975, #920, #67, .T. ) ;
#223 = FACE_OUTER_BOUND ( 'NONE', #998, .T. ) ;
#224 = VERTEX_POINT ( 'NONE', #332 ) ;
#225 = ORIENTED_EDGE ( 'NONE', *, *, #667, .T. ) ;
#226 = VECTOR ( 'NONE', #599, 999.9999999999998863 ) ;
#227 = VECTOR ( 'NONE', #497, 1000.000000000000000 ) ;
#228 = DIRECTION ( 'NONE',  ( -0.7071067811865489050, 0.000000000000000000, -0.7071067811865462405 ) ) ;
#229 = ORGANIZATION ( 'UNSPECIFIED', 'UNSPECIFIED', '' ) ;
#230 = PLANE ( 'NONE',  #1100 ) ;
#231 = ORIENTED_EDGE ( 'NONE', *, *, #655, .F. ) ;
#232 = ORIENTED_EDGE ( 'NONE', *, *, #427, .F. ) ;
#233 = PLANE ( 'NONE',  #171 ) ;
#234 = DIRECTION ( 'NONE',  ( -0.3382046757619945887, 0.7154329679580652135, -0.6113699908005284511 ) ) ;
#235 = CARTESIAN_POINT ( 'NONE',  ( 99.86545454545453993, 2.400000000000003908, -182.2109090909090980 ) ) ;
#236 = ORIENTED_EDGE ( 'NONE', *, *, #237, .T. ) ;
#237 = EDGE_CURVE ( 'NONE', #139, #478, #321, .T. ) ;
#238 = EDGE_LOOP ( 'NONE', ( #631, #34, #31, #747 ) ) ;
#239 = CARTESIAN_POINT ( 'NONE',  ( -82.12610195477196839, 0.000000000000000000, -199.9463395937140717 ) ) ;
#240 = LINE ( 'NONE', #160, #351 ) ;
#241 = EDGE_LOOP ( 'NONE', ( #1026, #711, #178, #286 ) ) ;
#242 = ADVANCED_FACE ( 'NONE', ( #683 ), #1042, .T. ) ;
#243 = ORIENTED_EDGE ( 'NONE', *, *, #257, .F. ) ;
#244 = CARTESIAN_POINT ( 'NONE',  ( -81.80330202106473791, 99.65129518929680330, -81.80330202106445370 ) ) ;
#245 = CARTESIAN_POINT ( 'NONE',  ( 82.00000000000000000, 2.399999999999999911, -199.9463395937140717 ) ) ;
#246 = AXIS2_PLACEMENT_3D ( 'NONE', #485, #103, #909 ) ;
#247 = LINE ( 'NONE', #597, #668 ) ;
#248 = EDGE_LOOP ( 'NONE', ( #213, #5, #379, #990, #640, #50 ) ) ;
#249 = EDGE_CURVE ( 'NONE', #854, #73, #71, .T. ) ;
#250 = EDGE_CURVE ( 'NONE', #826, #464, #338, .T. ) ;
#251 = DIRECTION ( 'NONE',  ( -1.000000000000000000, 0.000000000000000000, -0.000000000000000000 ) ) ;
#252 = DIRECTION ( 'NONE',  ( 0.000000000000000000, 0.000000000000000000, -1.000000000000000000 ) ) ;
#253 = LINE ( 'NONE', #1150, #985 ) ;
#254 = ADVANCED_FACE ( 'NONE', ( #435 ), #255, .F. ) ;
#255 = PLANE ( 'NONE',  #111 ) ;
#256 = CARTESIAN_POINT ( 'NONE',  ( -63.00000000000000000, 55.00000000000000000, -154.9999999999999716 ) ) ;
#257 = EDGE_CURVE ( 'NONE', #1033, #512, #503, .T. ) ;
#258 = PLANE ( 'NONE',  #438 ) ;
#259 = CARTESIAN_POINT ( 'NONE',  ( 99.40000000000000568, 2.399999999999999467, -182.6763636363636181 ) ) ;
#260 = VECTOR ( 'NONE', #1062, 1000.000000000000000 ) ;
#261 = VECTOR ( 'NONE', #448, 1000.000000000000000 ) ;
#262 = LINE ( 'NONE', #766, #760 ) ;
#263 = APPROVAL_PERSON_ORGANIZATION ( #654, #49, #382 ) ;
#264 = PLANE ( 'NONE',  #507 ) ;
#265 = CARTESIAN_POINT ( 'NONE',  ( -96.57557493112578584, 0.000000000000000000, -3.261555562963179611 ) ) ;
#266 = APPLICATION_CONTEXT ( 'configuration controlled 3d designs of mechanical parts and assemblies' ) ;
#267 = EDGE_CURVE ( 'NONE', #901, #555, #82, .T. ) ;
#268 = FACE_BOUND ( 'NONE', #311, .T. ) ;
#269 = LINE ( 'NONE', #616, #646 ) ;
#270 = ORIENTED_EDGE ( 'NONE', *, *, #1151, .T. ) ;
#271 = EDGE_CURVE ( 'NONE', #210, #474, #1148, .T. ) ;
#272 = DIRECTION ( 'NONE',  ( 0.000000000000000000, 0.000000000000000000, -1.000000000000000000 ) ) ;
#273 = CARTESIAN_POINT ( 'NONE',  ( 50.50000000000000000, 54.00000000000000000, -130.0000000000000000 ) ) ;
#274 = VERTEX_POINT ( 'NONE', #1135 ) ;
#275 = DIRECTION ( 'NONE',  ( -0.5357509961712355606, -0.6526421226085975524, 0.5357509961712374480 ) ) ;
#276 = EDGE_LOOP ( 'NONE', ( #949, #359, #119, #323 ) ) ;
#277 = AXIS2_PLACEMENT_3D ( 'NONE', #623, #528, #531 ) ;
#278 = VECTOR ( 'NONE', #700, 1000.000000000000000 ) ;
#279 = DIRECTION ( 'NONE',  ( -1.000000000000000000, 0.000000000000000000, 0.000000000000000000 ) ) ;
#280 = DIRECTION ( 'NONE',  ( 0.000000000000000000, 0.6344933783882428235, 0.7729282973093132281 ) ) ;
#281 = VERTEX_POINT ( 'NONE', #690 ) ;
#282 = EDGE_CURVE ( 'NONE', #330, #897, #240, .T. ) ;
#283 = CARTESIAN_POINT ( 'NONE',  ( -99.40000000000000568, 2.400000000000006128, -182.6763636363635612 ) ) ;
#284 = PLANE ( 'NONE',  #1123 ) ;
#285 = DIRECTION ( 'NONE',  ( 0.000000000000000000, -1.000000000000000000, 0.000000000000000000 ) ) ;
#286 = ORIENTED_EDGE ( 'NONE', *, *, #614, .F. ) ;
#287 = CARTESIAN_POINT ( 'NONE',  ( -99.40000000000000568, 2.399999999999999911, -7.000000000000000000 ) ) ;
#288 = EDGE_CURVE ( 'NONE', #217, #1038, #866, .T. ) ;
#289 =( LENGTH_UNIT ( ) NAMED_UNIT ( * ) SI_UNIT ( .MILLI., .METRE. ) );
#290 = FACE_OUTER_BOUND ( 'NONE', #276, .T. ) ;
#291 = LINE ( 'NONE', #9, #717 ) ;
#292 = VERTEX_POINT ( 'NONE', #314 ) ;
#293 = DIRECTION ( 'NONE',  ( -0.000000000000000000, -0.000000000000000000, 1.000000000000000000 ) ) ;
#294 = ORIENTED_EDGE ( 'NONE', *, *, #427, .T. ) ;
#295 = APPROVAL_STATUS ( 'not_yet_approved' ) ;
#296 = ORIENTED_EDGE ( 'NONE', *, *, #442, .F. ) ;
#297 = ADVANCED_FACE ( 'NONE', ( #504 ), #412, .T. ) ;
#298 = VECTOR ( 'NONE', #70, 1000.000000000000000 ) ;
#299 = CARTESIAN_POINT ( 'NONE',  ( -50.50000000000000000, 58.00000000000000000, -71.00000000000001421 ) ) ;
#300 = CARTESIAN_POINT ( 'NONE',  ( -82.12610195477196839, 99.76499808941531455, -116.7462743599540858 ) ) ;
#301 = ORIENTED_EDGE ( 'NONE', *, *, #271, .F. ) ;
#302 = PERSON_AND_ORGANIZATION ( #927, #229 ) ;
#303 = CARTESIAN_POINT ( 'NONE',  ( -82.55201296946771095, 39.02458794920293172, 0.000000000000000000 ) ) ;
#304 = ORIENTED_EDGE ( 'NONE', *, *, #572, .F. ) ;
#305 = PERSON_AND_ORGANIZATION ( #927, #229 ) ;
#306 = EDGE_CURVE ( 'NONE', #494, #217, #68, .T. ) ;
#307 = DIRECTION ( 'NONE',  ( -0.7071067811865462405, 0.000000000000000000, 0.7071067811865489050 ) ) ;
#308 = ORIENTED_EDGE ( 'NONE', *, *, #973, .T. ) ;
#309 = DIRECTION ( 'NONE',  ( 1.000000000000000000, 0.000000000000000000, 0.000000000000000000 ) ) ;
#310 = APPLICATION_PROTOCOL_DEFINITION ( 'international standard', 'config_control_design', 1994, #266 ) ;
#311 = EDGE_LOOP ( 'NONE', ( #900, #304, #501, #1099 ) ) ;
#312 = EDGE_LOOP ( 'NONE', ( #1019, #1130, #454 ) ) ;
#313 = FACE_OUTER_BOUND ( 'NONE', #15, .T. ) ;
#314 = CARTESIAN_POINT ( 'NONE',  ( 50.50000000000000000, 58.00000000000000000, -71.00000000000001421 ) ) ;
#315 = ORIENTED_EDGE ( 'NONE', *, *, #110, .T. ) ;
#316 = ORIENTED_EDGE ( 'NONE', *, *, #772, .F. ) ;
#317 = VECTOR ( 'NONE', #1037, 1000.000000000000000 ) ;
#318 = CARTESIAN_POINT ( 'NONE',  ( -105.8760133893232904, 54.00000000000000000, -105.8760133893228925 ) ) ;
#319 = ADVANCED_FACE ( 'NONE', ( #579 ), #230, .F. ) ;
#320 = VECTOR ( 'NONE', #367, 1000.000000000000000 ) ;
#321 = LINE ( 'NONE', #159, #447 ) ;
#322 = CARTESIAN_POINT ( 'NONE',  ( 82.55201296946772516, 39.02458794920294594, 0.000000000000000000 ) ) ;
#323 = ORIENTED_EDGE ( 'NONE', *, *, #978, .F. ) ;
#324 = EDGE_LOOP ( 'NONE', ( #811, #1017, #886, #591 ) ) ;
#325 = LINE ( 'NONE', #58, #227 ) ;
#326 = CARTESIAN_POINT ( 'NONE',  ( 50.50000000000000000, 58.00000000000000000, -71.00000000000001421 ) ) ;
#327 = ADVANCED_FACE ( 'NONE', ( #957 ), #47, .F. ) ;
#328 = DIRECTION ( 'NONE',  ( 0.000000000000000000, 1.000000000000000000, 0.000000000000000000 ) ) ;
#329 = ORIENTED_EDGE ( 'NONE', *, *, #148, .T. ) ;
#330 = VERTEX_POINT ( 'NONE', #664 ) ;
#331 = DIRECTION ( 'NONE',  ( -0.7071067811865462405, 0.000000000000000000, 0.7071067811865489050 ) ) ;
#332 = CARTESIAN_POINT ( 'NONE',  ( 50.50000000000000000, 58.00000000000000000, -130.0000000000000000 ) ) ;
#333 = LINE ( 'NONE', #935, #625 ) ;
#334 = ORIENTED_EDGE ( 'NONE', *, *, #514, .F. ) ;
#335 = EDGE_CURVE ( 'NONE', #512, #281, #333, .T. ) ;
#336 = LINE ( 'NONE', #63, #226 ) ;
#337 = DIRECTION ( 'NONE',  ( 0.3382046757619945887, 0.7154329679580652135, -0.6113699908005284511 ) ) ;
#338 = LINE ( 'NONE', #1049, #59 ) ;
#339 = AXIS2_PLACEMENT_3D ( 'NONE', #77, #179, #453 ) ;
#340 = CARTESIAN_POINT ( 'NONE',  ( -75.00000000000000000, 54.00000000000000000, -155.0000000000000000 ) ) ;
#341 = VECTOR ( 'NONE', #968, 1000.000000000000000 ) ;
#342 = EDGE_CURVE ( 'NONE', #780, #826, #498, .T. ) ;
#343 = LINE ( 'NONE', #1064, #341 ) ;
#344 = LINE ( 'NONE', #153, #965 ) ;
#345 = CARTESIAN_POINT ( 'NONE',  ( 42.23446726460884548, 106.0425664617519459, -106.1202512788123613 ) ) ;
#346 = CARTESIAN_POINT ( 'NONE',  ( -50.50000000000000000, 54.00000000000000000, -71.00000000000001421 ) ) ;
#347 = CARTESIAN_POINT ( 'NONE',  ( -82.12610195477196839, 2.399999999999999911, -199.9463395937140717 ) ) ;
#348 = CARTESIAN_POINT ( 'NONE',  ( 80.79540052342771617, 0.000000000000000000, -196.7384444370367476 ) ) ;
#349 = CARTESIAN_POINT ( 'NONE',  ( 99.40000000000000568, 2.399999999999999911, -7.000000000000000000 ) ) ;
#350 = DIRECTION ( 'NONE',  ( -0.3382046757619945887, 0.7154329679580652135, -0.6113699908005284511 ) ) ;
#351 = VECTOR ( 'NONE', #252, 1000.000000000000000 ) ;
#352 = LINE ( 'NONE', #604, #260 ) ;
#353 = EDGE_CURVE ( 'NONE', #622, #1115, #853, .T. ) ;
#354 = AXIS2_PLACEMENT_3D ( 'NONE', #303, #387, #806 ) ;
#355 = FACE_OUTER_BOUND ( 'NONE', #945, .T. ) ;
#356 = CARTESIAN_POINT ( 'NONE',  ( -82.12610195477196839, 2.399999999999999911, -199.9463395937140717 ) ) ;
#357 = EDGE_CURVE ( 'NONE', #29, #414, #862, .T. ) ;
#358 = EDGE_CURVE ( 'NONE', #641, #274, #847, .T. ) ;
#359 = ORIENTED_EDGE ( 'NONE', *, *, #704, .T. ) ;
#360 = DIRECTION ( 'NONE',  ( -1.000000000000000000, 0.000000000000000000, -0.000000000000000000 ) ) ;
#361 = DIRECTION ( 'NONE',  ( -1.000000000000000000, -0.000000000000000000, -0.000000000000000000 ) ) ;
#362 = ORIENTED_EDGE ( 'NONE', *, *, #176, .F. ) ;
#363 = LINE ( 'NONE', #703, #795 ) ;
#364 = ORIENTED_EDGE ( 'NONE', *, *, #831, .F. ) ;
#365 = ORIENTED_EDGE ( 'NONE', *, *, #911, .T. ) ;
#366 = ADVANCED_FACE ( 'NONE', ( #155 ), #426, .T. ) ;
#367 = DIRECTION ( 'NONE',  ( 1.000000000000000000, 0.000000000000000000, 0.000000000000000000 ) ) ;
#368 = LINE ( 'NONE', #634, #169 ) ;
#369 = EDGE_LOOP ( 'NONE', ( #763, #55, #45, #1002, #225, #1000, #481, #675 ) ) ;
#370 = CARTESIAN_POINT ( 'NONE',  ( -82.12610195477196839, 0.000000000000000000, -199.9463395937140717 ) ) ;
#371 = ORIENTED_EDGE ( 'NONE', *, *, #872, .T. ) ;
#372 = LINE ( 'NONE', #220, #419 ) ;
#373 = ORIENTED_EDGE ( 'NONE', *, *, #774, .F. ) ;
#374 = VECTOR ( 'NONE', #480, 1000.000000000000000 ) ;
#375 = LOCAL_TIME ( 15, 6, 26.00000000000000000, #895 ) ;
#376 = EDGE_CURVE ( 'NONE', #581, #512, #1043, .T. ) ;
#377 = CARTESIAN_POINT ( 'NONE',  ( -83.00000000000000000, 0.000000000000000000, -201.9999999999999716 ) ) ;
#378 = PLANE ( 'NONE',  #398 ) ;
#379 = ORIENTED_EDGE ( 'NONE', *, *, #1146, .T. ) ;
#380 = CARTESIAN_POINT ( 'NONE',  ( 99.40000000000000568, 0.000000000000000000, -7.000000000000000000 ) ) ;
#381 = ORIENTED_EDGE ( 'NONE', *, *, #26, .F. ) ;
#382 = APPROVAL_ROLE ( '' ) ;
#383 = DIRECTION ( 'NONE',  ( 0.2664535889924772305, 0.7327473697293122035, 0.6261659341323213557 ) ) ;
#384 = CARTESIAN_POINT ( 'NONE',  ( -42.23446726460889522, 106.0425664617519459, -106.1202512788123329 ) ) ;
#385 = EDGE_LOOP ( 'NONE', ( #124, #890, #428, #413 ) ) ;
#386 = APPROVAL_STATUS ( 'not_yet_approved' ) ;
#387 = DIRECTION ( 'NONE',  ( 0.9040722665053035900, -0.4273796168934163586, 0.000000000000000000 ) ) ;
#388 = ORIENTED_EDGE ( 'NONE', *, *, #461, .F. ) ;
#389 = APPLICATION_PROTOCOL_DEFINITION ( 'international standard', 'config_control_design', 1994, #944 ) ;
#390 = VERTEX_POINT ( 'NONE', #235 ) ;
#391 = LINE ( 'NONE', #377, #80 ) ;
#392 = LINE ( 'NONE', #123, #1153 ) ;
#393 = ORIENTED_EDGE ( 'NONE', *, *, #26, .T. ) ;
#394 = DATE_AND_TIME ( #211, #375 ) ;
#395 = CARTESIAN_POINT ( 'NONE',  ( -50.50000000000000000, 58.00000000000000000, -71.00000000000001421 ) ) ;
#396 = EDGE_LOOP ( 'NONE', ( #301, #329, #505, #845, #754, #12, #231, #452 ) ) ;
#397 = EDGE_CURVE ( 'NONE', #657, #109, #247, .T. ) ;
#398 = AXIS2_PLACEMENT_3D ( 'NONE', #649, #723, #1085 ) ;
#399 = VECTOR ( 'NONE', #458, 1000.000000000000000 ) ;
#400 = LINE ( 'NONE', #746, #888 ) ;
#401 = VERTEX_POINT ( 'NONE', #779 ) ;
#402 = DIRECTION ( 'NONE',  ( -0.3544063553807967892, 0.7497057517670696614, 0.5588715604081794242 ) ) ;
#403 = DATE_AND_TIME ( #43, #688 ) ;
#404 = ORIENTED_EDGE ( 'NONE', *, *, #455, .T. ) ;
#405 = DIRECTION ( 'NONE',  ( 0.000000000000000000, 1.000000000000000000, 0.000000000000000000 ) ) ;
#406 = DIRECTION ( 'NONE',  ( 0.7071067811865489050, 0.000000000000000000, 0.7071067811865462405 ) ) ;
#407 = ORIENTED_EDGE ( 'NONE', *, *, #887, .T. ) ;
#408 = ADVANCED_FACE ( 'NONE', ( #1050 ), #1113, .T. ) ;
#409 = EDGE_LOOP ( 'NONE', ( #629, #708, #381, #1132 ) ) ;
#410 = DIRECTION ( 'NONE',  ( 0.7071067811865462405, 0.000000000000000000, -0.7071067811865489050 ) ) ;
#411 = DIRECTION ( 'NONE',  ( 0.000000000000000000, -1.000000000000000000, 0.000000000000000000 ) ) ;
#412 = PLANE ( 'NONE',  #607 ) ;
#413 = ORIENTED_EDGE ( 'NONE', *, *, #461, .T. ) ;
#414 = VERTEX_POINT ( 'NONE', #164 ) ;
#415 = VECTOR ( 'NONE', #337, 1000.000000000000000 ) ;
#416 = ADVANCED_FACE ( 'NONE', ( #758 ), #54, .T. ) ;
#417 = APPROVAL_PERSON_ORGANIZATION ( #203, #1047, #120 ) ;
#418 = CARTESIAN_POINT ( 'NONE',  ( 82.00000000000000000, 2.399999999999999911, -199.9463395937140717 ) ) ;
#419 = VECTOR ( 'NONE', #14, 1000.000000000000000 ) ;
#420 = DIRECTION ( 'NONE',  ( 0.000000000000000000, 0.7602314471705966525, -0.6496523275821461940 ) ) ;
#421 = VERTEX_POINT ( 'NONE', #256 ) ;
#422 = UNCERTAINTY_MEASURE_WITH_UNIT (LENGTH_MEASURE( 1.000000000000000082E-05 ), #289, 'distance_accuracy_value', 'NONE');
#423 = ORIENTED_EDGE ( 'NONE', *, *, #546, .T. ) ;
#424 = LINE ( 'NONE', #158, #720 ) ;
#425 = CARTESIAN_POINT ( 'NONE',  ( 99.40000000000000568, 0.000000000000000000, -185.5999999999999375 ) ) ;
#426 = PLANE ( 'NONE',  #742 ) ;
#427 = EDGE_CURVE ( 'NONE', #281, #414, #535, .T. ) ;
#428 = ORIENTED_EDGE ( 'NONE', *, *, #898, .F. ) ;
#429 = LINE ( 'NONE', #682, #415 ) ;
#430 = DIRECTION ( 'NONE',  ( -0.7071067811865486830, 0.000000000000000000, -0.7071067811865464625 ) ) ;
#431 = DIRECTION ( 'NONE',  ( 0.000000000000000000, 0.000000000000000000, -1.000000000000000000 ) ) ;
#432 = VERTEX_POINT ( 'NONE', #871 ) ;
#433 = PRODUCT_RELATED_PRODUCT_CATEGORY ( 'detail', '', ( #705 ) ) ;
#434 = FACE_OUTER_BOUND ( 'NONE', #409, .T. ) ;
#435 = FACE_OUTER_BOUND ( 'NONE', #1086, .T. ) ;
#436 = VECTOR ( 'NONE', #786, 1000.000000000000114 ) ;
#437 = LINE ( 'NONE', #4, #261 ) ;
#438 = AXIS2_PLACEMENT_3D ( 'NONE', #876, #93, #75 ) ;
#439 = CARTESIAN_POINT ( 'NONE',  ( 62.99999999999997158, 55.00000000000000000, -154.9999999999999716 ) ) ;
#440 = DIRECTION ( 'NONE',  ( 0.000000000000000000, -1.000000000000000000, 0.000000000000000000 ) ) ;
#441 = LINE ( 'NONE', #118, #761 ) ;
#442 = EDGE_CURVE ( 'NONE', #73, #101, #883, .T. ) ;
#443 = CARTESIAN_POINT ( 'NONE',  ( 82.00000000000000000, 0.000000000000000000, -201.9999999999999432 ) ) ;
#444 = LINE ( 'NONE', #356, #1154 ) ;
#445 = FACE_OUTER_BOUND ( 'NONE', #477, .T. ) ;
#446 = ADVANCED_FACE ( 'NONE', ( #1152 ), #801, .T. ) ;
#447 = VECTOR ( 'NONE', #672, 1000.000000000000000 ) ;
#448 = DIRECTION ( 'NONE',  ( 1.000000000000000000, 0.000000000000000000, 0.000000000000000000 ) ) ;
#449 = AXIS2_PLACEMENT_3D ( 'NONE', #969, #713, #608 ) ;
#450 =( GEOMETRIC_REPRESENTATION_CONTEXT ( 3 ) GLOBAL_UNCERTAINTY_ASSIGNED_CONTEXT ( ( #422 ) ) GLOBAL_UNIT_ASSIGNED_CONTEXT ( ( #289, #569, #37 ) ) REPRESENTATION_CONTEXT ( 'NONE', 'WORKASPACE' ) );
#451 = PLANE ( 'NONE',  #1060 ) ;
#452 = ORIENTED_EDGE ( 'NONE', *, *, #970, .F. ) ;
#453 = DIRECTION ( 'NONE',  ( -1.000000000000000000, 0.000000000000000000, -0.000000000000000000 ) ) ;
#454 = ORIENTED_EDGE ( 'NONE', *, *, #1157, .F. ) ;
#455 = EDGE_CURVE ( 'NONE', #581, #751, #437, .T. ) ;
#456 = DIRECTION ( 'NONE',  ( 0.9040722665053035900, -0.4273796168934163586, 0.000000000000000000 ) ) ;
#457 = ORIENTED_EDGE ( 'NONE', *, *, #686, .T. ) ;
#458 = DIRECTION ( 'NONE',  ( -0.000000000000000000, -0.000000000000000000, 1.000000000000000000 ) ) ;
#459 = EDGE_LOOP ( 'NONE', ( #814, #1029, #1121, #587 ) ) ;
#460 = EDGE_LOOP ( 'NONE', ( #544, #661, #958, #97 ) ) ;
#461 = EDGE_CURVE ( 'NONE', #863, #401, #972, .T. ) ;
#462 = PLANE ( 'NONE',  #1103 ) ;
#463 = ORIENTED_EDGE ( 'NONE', *, *, #335, .T. ) ;
#464 = VERTEX_POINT ( 'NONE', #1055 ) ;
#465 = LINE ( 'NONE', #11, #468 ) ;
#466 = VERTEX_POINT ( 'NONE', #265 ) ;
#467 = VECTOR ( 'NONE', #234, 1000.000000000000000 ) ;
#468 = VECTOR ( 'NONE', #1087, 1000.000000000000000 ) ;
#469 = VECTOR ( 'NONE', #921, 1000.000000000000000 ) ;
#470 = DIRECTION ( 'NONE',  ( 0.000000000000000000, -1.000000000000000000, 0.000000000000000000 ) ) ;
#471 = DIRECTION ( 'NONE',  ( 0.000000000000000000, -0.7602314471705966525, -0.6496523275821461940 ) ) ;
#472 = ORIENTED_EDGE ( 'NONE', *, *, #667, .F. ) ;
#473 = CARTESIAN_POINT ( 'NONE',  ( -50.50000000000000000, 58.00000000000000000, -130.0000000000000000 ) ) ;
#474 = VERTEX_POINT ( 'NONE', #259 ) ;
#475 = APPROVAL_DATE_TIME ( #1082, #1047 ) ;
#476 = DIRECTION ( 'NONE',  ( 0.000000000000000000, 0.000000000000000000, 1.000000000000000000 ) ) ;
#477 = EDGE_LOOP ( 'NONE', ( #573, #1102, #373, #1008 ) ) ;
#478 = VERTEX_POINT ( 'NONE', #889 ) ;
#479 = EDGE_CURVE ( 'NONE', #735, #330, #880, .T. ) ;
#480 = DIRECTION ( 'NONE',  ( -1.000000000000000000, -0.000000000000000000, -0.000000000000000000 ) ) ;
#481 = ORIENTED_EDGE ( 'NONE', *, *, #357, .F. ) ;
#482 = CARTESIAN_POINT ( 'NONE',  ( -71.04830220385305495, 54.00000000000000000, 0.000000000000000000 ) ) ;
#483 = CARTESIAN_POINT ( 'NONE',  ( -99.40000000000000568, 2.399999999999999911, -7.000000000000000000 ) ) ;
#484 = ORIENTED_EDGE ( 'NONE', *, *, #772, .T. ) ;
#485 = CARTESIAN_POINT ( 'NONE',  ( 0.000000000000000000, 54.00000000000000000, 0.000000000000000000 ) ) ;
#486 = ADVANCED_FACE ( 'NONE', ( #612, #83 ), #173, .F. ) ;
#487 = APPROVAL_STATUS ( 'not_yet_approved' ) ;
#488 = VECTOR ( 'NONE', #865, 1000.000000000000000 ) ;
#489 = AXIS2_PLACEMENT_3D ( 'NONE', #244, #1041, #51 ) ;
#490 = VECTOR ( 'NONE', #350, 1000.000000000000000 ) ;
#491 = ORIENTED_EDGE ( 'NONE', *, *, #495, .T. ) ;
#492 = CARTESIAN_POINT ( 'NONE',  ( -50.50000000000000000, 54.00000000000000000, -130.0000000000000000 ) ) ;
#493 = DIRECTION ( 'NONE',  ( 1.000000000000000000, -0.000000000000000000, 0.000000000000000000 ) ) ;
#494 = VERTEX_POINT ( 'NONE', #1149 ) ;
#495 = EDGE_CURVE ( 'NONE', #641, #901, #444, .T. ) ;
#496 = VERTEX_POINT ( 'NONE', #694 ) ;
#497 = DIRECTION ( 'NONE',  ( 1.000000000000000000, 0.000000000000000000, 0.000000000000000000 ) ) ;
#498 = LINE ( 'NONE', #1128, #815 ) ;
#499 = ORIENTED_EDGE ( 'NONE', *, *, #249, .F. ) ;
#500 = EDGE_CURVE ( 'NONE', #218, #897, #352, .T. ) ;
#501 = ORIENTED_EDGE ( 'NONE', *, *, #194, .F. ) ;
#502 = DIRECTION ( 'NONE',  ( 0.4273796168934164141, -0.9040722665053034790, 0.000000000000000000 ) ) ;
#503 = LINE ( 'NONE', #852, #92 ) ;
#504 = FACE_OUTER_BOUND ( 'NONE', #1021, .T. ) ;
#505 = ORIENTED_EDGE ( 'NONE', *, *, #170, .T. ) ;
#506 = VERTEX_POINT ( 'NONE', #348 ) ;
#507 = AXIS2_PLACEMENT_3D ( 'NONE', #962, #606, #879 ) ;
#508 = EDGE_CURVE ( 'NONE', #653, #1111, #363, .T. ) ;
#509 = VECTOR ( 'NONE', #645, 1000.000000000000000 ) ;
#510 = LINE ( 'NONE', #929, #60 ) ;
#511 = CARTESIAN_POINT ( 'NONE',  ( 0.000000000000000000, 54.00000000000000000, 0.000000000000000000 ) ) ;
#512 = VERTEX_POINT ( 'NONE', #520 ) ;
#513 = DIRECTION ( 'NONE',  ( 0.7729282973093142273, -0.6344933783882414913, 0.000000000000000000 ) ) ;
#514 = EDGE_CURVE ( 'NONE', #496, #156, #1065, .T. ) ;
#515 = DIRECTION ( 'NONE',  ( 0.000000000000000000, 0.000000000000000000, -1.000000000000000000 ) ) ;
#516 = DIRECTION ( 'NONE',  ( 0.000000000000000000, 0.7602314471705966525, -0.6496523275821461940 ) ) ;
#517 = VERTEX_POINT ( 'NONE', #1156 ) ;
#518 = CARTESIAN_POINT ( 'NONE',  ( 99.40000000000000568, 0.000000000000000000, -7.000000000000000000 ) ) ;
#519 = CARTESIAN_POINT ( 'NONE',  ( 82.00000000000000000, 99.76499808941531455, -116.7462743599540858 ) ) ;
#520 = CARTESIAN_POINT ( 'NONE',  ( -75.00000000000000000, 58.00000000000000000, -45.00000000000000000 ) ) ;
#521 = FACE_OUTER_BOUND ( 'NONE', #1014, .T. ) ;
#522 = LINE ( 'NONE', #778, #488 ) ;
#523 = VECTOR ( 'NONE', #673, 1000.000000000000000 ) ;
#524 = CARTESIAN_POINT ( 'NONE',  ( 75.00000000000000000, 58.00000000000000000, -45.00000000000000000 ) ) ;
#525 = VECTOR ( 'NONE', #272, 1000.000000000000000 ) ;
#526 = EDGE_CURVE ( 'NONE', #474, #975, #269, .T. ) ;
#527 = CARTESIAN_POINT ( 'NONE',  ( 0.000000000000000000, 58.00000000000000000, 0.000000000000000000 ) ) ;
#528 = DIRECTION ( 'NONE',  ( 0.000000000000000000, 1.000000000000000000, 0.000000000000000000 ) ) ;
#529 = ADVANCED_FACE ( 'NONE', ( #976 ), #878, .T. ) ;
#530 = CARTESIAN_POINT ( 'NONE',  ( -96.57557493112578584, 0.000000000000000000, -180.9582700293386779 ) ) ;
#531 = DIRECTION ( 'NONE',  ( 0.000000000000000000, -0.000000000000000000, 1.000000000000000000 ) ) ;
#532 = LINE ( 'NONE', #1051, #967 ) ;
#533 = ORIENTED_EDGE ( 'NONE', *, *, #774, .T. ) ;
#534 = EDGE_CURVE ( 'NONE', #506, #622, #964, .T. ) ;
#535 = LINE ( 'NONE', #524, #932 ) ;
#536 = ORIENTED_EDGE ( 'NONE', *, *, #282, .T. ) ;
#537 = VECTOR ( 'NONE', #85, 1000.000000000000000 ) ;
#538 = VECTOR ( 'NONE', #1012, 1000.000000000000000 ) ;
#539 = CARTESIAN_POINT ( 'NONE',  ( 99.40000000000000568, 2.399999999999999911, -7.000000000000000000 ) ) ;
#540 = FACE_OUTER_BOUND ( 'NONE', #807, .T. ) ;
#541 = ORIENTED_EDGE ( 'NONE', *, *, #768, .F. ) ;
#542 = CARTESIAN_POINT ( 'NONE',  ( 101.0000000000000000, 0.000000000000000000, -184.0000000000000000 ) ) ;
#543 = EDGE_CURVE ( 'NONE', #920, #1111, #441, .T. ) ;
#544 = ORIENTED_EDGE ( 'NONE', *, *, #905, .T. ) ;
#545 = FACE_OUTER_BOUND ( 'NONE', #396, .T. ) ;
#546 = EDGE_CURVE ( 'NONE', #109, #494, #829, .T. ) ;
#547 = ORIENTED_EDGE ( 'NONE', *, *, #534, .F. ) ;
#548 = ORIENTED_EDGE ( 'NONE', *, *, #131, .T. ) ;
#549 = LINE ( 'NONE', #902, #908 ) ;
#550 = VERTEX_POINT ( 'NONE', #283 ) ;
#551 = DIRECTION ( 'NONE',  ( 0.000000000000000000, 0.000000000000000000, 1.000000000000000000 ) ) ;
#552 = FACE_OUTER_BOUND ( 'NONE', #818, .T. ) ;
#553 = CARTESIAN_POINT ( 'NONE',  ( 0.000000000000000000, 0.000000000000000000, -196.7384444370367476 ) ) ;
#554 = CARTESIAN_POINT ( 'NONE',  ( 50.50000000000000000, 54.00000000000000000, -71.00000000000001421 ) ) ;
#555 = VERTEX_POINT ( 'NONE', #370 ) ;
#556 = VECTOR ( 'NONE', #1036, 1000.000000000000000 ) ;
#557 = VECTOR ( 'NONE', #410, 999.9999999999998863 ) ;
#558 = EDGE_CURVE ( 'NONE', #390, #598, #219, .T. ) ;
#559 = LINE ( 'NONE', #1069, #525 ) ;
#560 = ORIENTED_EDGE ( 'NONE', *, *, #36, .T. ) ;
#561 = COORDINATED_UNIVERSAL_TIME_OFFSET ( 5, 0, .BEHIND. ) ;
#562 = CARTESIAN_POINT ( 'NONE',  ( 61.15903688706409014, 54.00000000000000711, -150.5929898915822207 ) ) ;
#563 = ORIENTED_EDGE ( 'NONE', *, *, #250, .T. ) ;
#564 = EDGE_CURVE ( 'NONE', #624, #581, #465, .T. ) ;
#565 = CARTESIAN_POINT ( 'NONE',  ( -78.93572390344650103, 37.31506948162926562, 0.000000000000000000 ) ) ;
#566 = LINE ( 'NONE', #384, #666 ) ;
#567 = ORIENTED_EDGE ( 'NONE', *, *, #915, .T. ) ;
#568 = DIRECTION ( 'NONE',  ( 0.000000000000000000, -0.000000000000000000, -1.000000000000000000 ) ) ;
#569 =( NAMED_UNIT ( * ) PLANE_ANGLE_UNIT ( ) SI_UNIT ( $, .RADIAN. ) );
#570 = ORIENTED_EDGE ( 'NONE', *, *, #905, .F. ) ;
#571 = DIRECTION ( 'NONE',  ( -0.9040722665053035900, -0.4273796168934164696, 0.000000000000000000 ) ) ;
#572 = EDGE_CURVE ( 'NONE', #224, #432, #1007, .T. ) ;
#573 = ORIENTED_EDGE ( 'NONE', *, *, #358, .T. ) ;
#574 = VECTOR ( 'NONE', #777, 1000.000000000000000 ) ;
#575 = AXIS2_PLACEMENT_3D ( 'NONE', #803, #17, #360 ) ;
#576 = ORIENTED_EDGE ( 'NONE', *, *, #797, .T. ) ;
#577 = CARTESIAN_POINT ( 'NONE',  ( -101.0000000000000000, 0.000000000000000000, -7.000000000000000000 ) ) ;
#578 = ADVANCED_FACE ( 'NONE', ( #748 ), #835, .T. ) ;
#579 = FACE_OUTER_BOUND ( 'NONE', #776, .T. ) ;
#580 = ORIENTED_EDGE ( 'NONE', *, *, #887, .F. ) ;
#581 = VERTEX_POINT ( 'NONE', #1101 ) ;
#582 = EDGE_CURVE ( 'NONE', #903, #555, #41, .T. ) ;
#583 = DIRECTION ( 'NONE',  ( 1.000000000000000000, 0.000000000000000000, 0.000000000000000000 ) ) ;
#584 = DIRECTION ( 'NONE',  ( -1.000000000000000000, 0.000000000000000000, -0.000000000000000000 ) ) ;
#585 = DIRECTION ( 'NONE',  ( 0.000000000000000000, -0.6496523275821463050, -0.7602314471705967636 ) ) ;
#586 = ORIENTED_EDGE ( 'NONE', *, *, #572, .T. ) ;
#587 = ORIENTED_EDGE ( 'NONE', *, *, #734, .T. ) ;
#588 = LINE ( 'NONE', #946, #874 ) ;
#589 = LINE ( 'NONE', #1052, #836 ) ;
#590 = DIRECTION ( 'NONE',  ( 0.000000000000000000, -1.000000000000000000, 0.000000000000000000 ) ) ;
#591 = ORIENTED_EDGE ( 'NONE', *, *, #215, .T. ) ;
#592 = VECTOR ( 'NONE', #870, 1000.000000000000000 ) ;
#593 = EDGE_CURVE ( 'NONE', #414, #1033, #212, .T. ) ;
#594 = ORIENTED_EDGE ( 'NONE', *, *, #7, .F. ) ;
#595 = VECTOR ( 'NONE', #168, 1000.000000000000114 ) ;
#596 = PLANE ( 'NONE',  #206 ) ;
#597 = CARTESIAN_POINT ( 'NONE',  ( 50.50000000000000000, 54.00000000000000000, -71.00000000000001421 ) ) ;
#598 = VERTEX_POINT ( 'NONE', #821 ) ;
#599 = DIRECTION ( 'NONE',  ( 0.3544063553807968447, 0.7497057517670698834, 0.5588715604081792021 ) ) ;
#600 = FACE_OUTER_BOUND ( 'NONE', #241, .T. ) ;
#601 = DIRECTION ( 'NONE',  ( 0.000000000000000000, 0.000000000000000000, -1.000000000000000000 ) ) ;
#602 = CARTESIAN_POINT ( 'NONE',  ( -82.12610195477196839, 2.399999999999999911, -199.9463395937140717 ) ) ;
#603 = DIRECTION ( 'NONE',  ( 0.000000000000000000, -0.7602314471705966525, -0.6496523275821461940 ) ) ;
#604 = CARTESIAN_POINT ( 'NONE',  ( 82.99999999999995737, 0.000000000000000000, -201.9999999999999716 ) ) ;
#605 = EDGE_CURVE ( 'NONE', #432, #1038, #187, .T. ) ;
#606 = DIRECTION ( 'NONE',  ( 0.000000000000000000, 0.000000000000000000, 1.000000000000000000 ) ) ;
#607 = AXIS2_PLACEMENT_3D ( 'NONE', #511, #590, #684 ) ;
#608 = DIRECTION ( 'NONE',  ( -1.000000000000000000, 0.000000000000000000, -0.000000000000000000 ) ) ;
#609 = LOCAL_TIME ( 15, 6, 26.00000000000000000, #561 ) ;
#610 = ADVANCED_FACE ( 'NONE', ( #21 ), #642, .F. ) ;
#611 = LINE ( 'NONE', #1061, #490 ) ;
#612 = FACE_OUTER_BOUND ( 'NONE', #827, .T. ) ;
#613 = VERTEX_POINT ( 'NONE', #652 ) ;
#614 = EDGE_CURVE ( 'NONE', #210, #920, #130, .T. ) ;
#615 = DIRECTION ( 'NONE',  ( 0.000000000000000000, -0.000000000000000000, -1.000000000000000000 ) ) ;
#616 = CARTESIAN_POINT ( 'NONE',  ( 99.40000000000000568, 2.399999999999999911, -7.000000000000000000 ) ) ;
#617 = ORIENTED_EDGE ( 'NONE', *, *, #56, .T. ) ;
#618 = ORIENTED_EDGE ( 'NONE', *, *, #534, .T. ) ;
#619 = CC_DESIGN_DATE_AND_TIME_ASSIGNMENT ( #394, #107, ( #208 ) ) ;
#620 = CARTESIAN_POINT ( 'NONE',  ( -61.15903688706414698, 53.99999999999999289, -150.5929898915822207 ) ) ;
#621 = LINE ( 'NONE', #907, #950 ) ;
#622 = VERTEX_POINT ( 'NONE', #562 ) ;
#623 = CARTESIAN_POINT ( 'NONE',  ( 0.000000000000000000, 0.000000000000000000, 0.000000000000000000 ) ) ;
#624 = VERTEX_POINT ( 'NONE', #733 ) ;
#625 = VECTOR ( 'NONE', #141, 1000.000000000000000 ) ;
#626 = VECTOR ( 'NONE', #741, 1000.000000000000000 ) ;
#627 = LINE ( 'NONE', #299, #744 ) ;
#628 = LINE ( 'NONE', #553, #979 ) ;
#629 = ORIENTED_EDGE ( 'NONE', *, *, #288, .T. ) ;
#630 = CARTESIAN_POINT ( 'NONE',  ( -75.00000000000000000, 54.00000000000000000, -155.0000000000000000 ) ) ;
#631 = ORIENTED_EDGE ( 'NONE', *, *, #558, .T. ) ;
#632 = FACE_OUTER_BOUND ( 'NONE', #180, .T. ) ;
#633 = DIRECTION ( 'NONE',  ( -0.5357509961712355606, -0.6526421226085975524, 0.5357509961712374480 ) ) ;
#634 = CARTESIAN_POINT ( 'NONE',  ( -75.00000000000000000, 102.9877561884482020, -84.54218791589022430 ) ) ;
#635 = PLANE ( 'NONE',  #18 ) ;
#636 = ORIENTED_EDGE ( 'NONE', *, *, #546, .F. ) ;
#637 = EDGE_CURVE ( 'NONE', #613, #550, #1016, .T. ) ;
#638 = DATE_AND_TIME ( #930, #914 ) ;
#639 = PLANE ( 'NONE',  #1009 ) ;
#640 = ORIENTED_EDGE ( 'NONE', *, *, #768, .T. ) ;
#641 = VERTEX_POINT ( 'NONE', #919 ) ;
#642 = PLANE ( 'NONE',  #354 ) ;
#643 = ORIENTED_EDGE ( 'NONE', *, *, #136, .T. ) ;
#644 = VECTOR ( 'NONE', #280, 1000.000000000000227 ) ;
#645 = DIRECTION ( 'NONE',  ( 1.000000000000000000, 0.000000000000000000, 0.000000000000000000 ) ) ;
#646 = VECTOR ( 'NONE', #1145, 1000.000000000000000 ) ;
#647 = ADVANCED_FACE ( 'NONE', ( #192 ), #635, .T. ) ;
#648 = CARTESIAN_POINT ( 'NONE',  ( 81.80330202106445370, 99.65129518929694541, -81.80330202106475213 ) ) ;
#649 = CARTESIAN_POINT ( 'NONE',  ( 0.000000000000000000, 2.399999999999999911, 0.000000000000000000 ) ) ;
#650 = ORIENTED_EDGE ( 'NONE', *, *, #582, .F. ) ;
#651 = PERSON_AND_ORGANIZATION_ROLE ( 'classification_officer' ) ;
#652 = CARTESIAN_POINT ( 'NONE',  ( -99.40000000000000568, 2.399999999999999911, -7.000000000000000000 ) ) ;
#653 = VERTEX_POINT ( 'NONE', #926 ) ;
#654 = PERSON_AND_ORGANIZATION ( #927, #229 ) ;
#655 = EDGE_CURVE ( 'NONE', #390, #101, #125, .T. ) ;
#656 = PLANE ( 'NONE',  #721 ) ;
#657 = VERTEX_POINT ( 'NONE', #554 ) ;
#658 = CARTESIAN_POINT ( 'NONE',  ( -82.12610195477196839, 0.000000000000000000, -199.9463395937140717 ) ) ;
#659 = CARTESIAN_POINT ( 'NONE',  ( 0.000000000000000000, 0.000000000000000000, -3.261555562963179611 ) ) ;
#660 = ORIENTED_EDGE ( 'NONE', *, *, #808, .T. ) ;
#661 = ORIENTED_EDGE ( 'NONE', *, *, #637, .F. ) ;
#662 = CC_DESIGN_PERSON_AND_ORGANIZATION_ASSIGNMENT ( #305, #23, ( #705 ) ) ;
#663 = PLANE ( 'NONE',  #489 ) ;
#664 = CARTESIAN_POINT ( 'NONE',  ( 82.00000000000000000, 0.000000000000000000, -199.9463395937140717 ) ) ;
#665 = VERTEX_POINT ( 'NONE', #718 ) ;
#666 = VECTOR ( 'NONE', #917, 1000.000000000000114 ) ;
#667 = EDGE_CURVE ( 'NONE', #780, #1033, #1080, .T. ) ;
#668 = VECTOR ( 'NONE', #431, 1000.000000000000000 ) ;
#669 = CC_DESIGN_SECURITY_CLASSIFICATION ( #208, ( #183 ) ) ;
#670 = EDGE_LOOP ( 'NONE', ( #576, #891, #115, #727 ) ) ;
#671 = DIRECTION ( 'NONE',  ( -1.000000000000000000, 0.000000000000000000, 0.000000000000000000 ) ) ;
#672 = DIRECTION ( 'NONE',  ( 0.000000000000000000, 0.000000000000000000, -1.000000000000000000 ) ) ;
#673 = DIRECTION ( 'NONE',  ( 0.000000000000000000, 1.000000000000000000, 0.000000000000000000 ) ) ;
#674 = ORIENTED_EDGE ( 'NONE', *, *, #165, .T. ) ;
#675 = ORIENTED_EDGE ( 'NONE', *, *, #96, .T. ) ;
#676 = DIRECTION ( 'NONE',  ( 0.000000000000000000, 0.000000000000000000, -1.000000000000000000 ) ) ;
#677 = CARTESIAN_POINT ( 'NONE',  ( 82.00000000000000000, 2.399999999999999911, -199.9463395937140717 ) ) ;
#678 = CARTESIAN_POINT ( 'NONE',  ( 0.000000000000000000, 2.399999999999999467, -199.9490909090908133 ) ) ;
#679 = EDGE_LOOP ( 'NONE', ( #1073, #547, #541, #143 ) ) ;
#680 = EDGE_CURVE ( 'NONE', #464, #421, #549, .T. ) ;
#681 = ORIENTED_EDGE ( 'NONE', *, *, #655, .T. ) ;
#682 = CARTESIAN_POINT ( 'NONE',  ( -101.0000000000000000, 0.000000000000000000, 2.000000000000000000 ) ) ;
#683 = FACE_OUTER_BOUND ( 'NONE', #324, .T. ) ;
#684 = DIRECTION ( 'NONE',  ( 0.000000000000000000, -0.000000000000000000, -1.000000000000000000 ) ) ;
#685 = ORIENTED_EDGE ( 'NONE', *, *, #13, .F. ) ;
#686 = EDGE_CURVE ( 'NONE', #73, #29, #864, .T. ) ;
#687 = VECTOR ( 'NONE', #796, 1000.000000000000000 ) ;
#688 = LOCAL_TIME ( 15, 6, 26.00000000000000000, #913 ) ;
#689 = CARTESIAN_POINT ( 'NONE',  ( 0.000000000000000000, 2.399999999999999911, 0.000000000000000000 ) ) ;
#690 = CARTESIAN_POINT ( 'NONE',  ( 75.00000000000000000, 58.00000000000000000, -45.00000000000000000 ) ) ;
#691 = ADVANCED_FACE ( 'NONE', ( #313 ), #955, .T. ) ;
#692 = CARTESIAN_POINT ( 'NONE',  ( -99.40000000000000568, 91.02155975512370389, -74.71919084375818443 ) ) ;
#693 = LINE ( 'NONE', #773, #467 ) ;
#694 = CARTESIAN_POINT ( 'NONE',  ( -99.86545454545455414, 2.399999999999999467, -7.000000000000000000 ) ) ;
#695 = DIRECTION ( 'NONE',  ( 0.000000000000000000, 0.000000000000000000, 1.000000000000000000 ) ) ;
#696 = APPROVAL ( #386, 'UNSPECIFIED' ) ;
#697 = CARTESIAN_POINT ( 'NONE',  ( 75.00000000000000000, 102.9877561884481878, -84.54218791589040904 ) ) ;
#698 = ADVANCED_FACE ( 'NONE', ( #223 ), #233, .T. ) ;
#699 = VECTOR ( 'NONE', #285, 1000.000000000000000 ) ;
#700 = DIRECTION ( 'NONE',  ( 0.000000000000000000, -0.6344933783882420464, -0.7729282973093138942 ) ) ;
#701 = VECTOR ( 'NONE', #726, 1000.000000000000000 ) ;
#702 = VECTOR ( 'NONE', #81, 1000.000000000000114 ) ;
#703 = CARTESIAN_POINT ( 'NONE',  ( 101.0000000000000000, 0.000000000000000000, 2.000000000000000000 ) ) ;
#704 = EDGE_CURVE ( 'NONE', #496, #613, #325, .T. ) ;
#705 = PRODUCT ( 'jet_ski_dash_front_cover_v1', 'jet_ski_dash_front_cover_v1', '', ( #904 ) ) ;
#706 = CARTESIAN_POINT ( 'NONE',  ( 64.21818181818170501, 54.00000000000000000, -155.0000000000000000 ) ) ;
#707 = CARTESIAN_POINT ( 'NONE',  ( -48.60333329145352366, 101.4797419300759174, -105.3097351360094081 ) ) ;
#708 = ORIENTED_EDGE ( 'NONE', *, *, #1039, .T. ) ;
#709 = CC_DESIGN_DATE_AND_TIME_ASSIGNMENT ( #403, #749, ( #924 ) ) ;
#710 = LINE ( 'NONE', #980, #1142 ) ;
#711 = ORIENTED_EDGE ( 'NONE', *, *, #526, .T. ) ;
#712 = ORIENTED_EDGE ( 'NONE', *, *, #306, .T. ) ;
#713 = DIRECTION ( 'NONE',  ( 0.000000000000000000, 0.000000000000000000, -1.000000000000000000 ) ) ;
#714 = DIRECTION ( 'NONE',  ( 1.000000000000000000, 0.000000000000000000, -0.000000000000000000 ) ) ;
#715 = CARTESIAN_POINT ( 'NONE',  ( 0.000000000000000000, 97.16638877908673066, -113.7053485712717134 ) ) ;
#716 = ORIENTED_EDGE ( 'NONE', *, *, #500, .T. ) ;
#717 = VECTOR ( 'NONE', #185, 1000.000000000000000 ) ;
#718 = CARTESIAN_POINT ( 'NONE',  ( 71.04830220385308337, 54.00000000000000000, -49.40701010841772245 ) ) ;
#719 = ORIENTED_EDGE ( 'NONE', *, *, #79, .F. ) ;
#720 = VECTOR ( 'NONE', #228, 1000.000000000000000 ) ;
#721 = AXIS2_PLACEMENT_3D ( 'NONE', #38, #1010, #832 ) ;
#722 = CARTESIAN_POINT ( 'NONE',  ( 141.0381818181816129, 2.399999999999999467, -141.0381818181821529 ) ) ;
#723 = DIRECTION ( 'NONE',  ( 0.000000000000000000, -1.000000000000000000, 0.000000000000000000 ) ) ;
#724 = EDGE_LOOP ( 'NONE', ( #802, #48, #308, #270, #10, #674 ) ) ;
#725 = EDGE_CURVE ( 'NONE', #1091, #581, #429, .T. ) ;
#726 = DIRECTION ( 'NONE',  ( 0.000000000000000000, 0.000000000000000000, 1.000000000000000000 ) ) ;
#727 = ORIENTED_EDGE ( 'NONE', *, *, #306, .F. ) ;
#728 = EDGE_CURVE ( 'NONE', #401, #977, #1030, .T. ) ;
#729 = LINE ( 'NONE', #482, #626 ) ;
#730 = DIRECTION ( 'NONE',  ( 0.000000000000000000, -0.000000000000000000, -1.000000000000000000 ) ) ;
#731 = DIRECTION ( 'NONE',  ( 1.000000000000000000, 0.000000000000000000, 0.000000000000000000 ) ) ;
#732 = ORIENTED_EDGE ( 'NONE', *, *, #725, .F. ) ;
#733 = CARTESIAN_POINT ( 'NONE',  ( -75.00000000000000000, 55.00000000000000000, -142.9999999999999432 ) ) ;
#734 = EDGE_CURVE ( 'NONE', #466, #202, #510, .T. ) ;
#735 = VERTEX_POINT ( 'NONE', #418 ) ;
#736 = ORIENTED_EDGE ( 'NONE', *, *, #872, .F. ) ;
#737 = CARTESIAN_POINT ( 'NONE',  ( 101.0000000000000284, 0.000000000000000000, -7.000000000000000000 ) ) ;
#738 = DIRECTION ( 'NONE',  ( 0.4273796168934164141, -0.9040722665053034790, 0.000000000000000000 ) ) ;
#739 = CARTESIAN_POINT ( 'NONE',  ( -75.00000000000000000, 58.00000000000000000, -155.0000000000000000 ) ) ;
#740 = ORIENTED_EDGE ( 'NONE', *, *, #397, .T. ) ;
#741 = DIRECTION ( 'NONE',  ( 0.000000000000000000, 0.000000000000000000, -1.000000000000000000 ) ) ;
#742 = AXIS2_PLACEMENT_3D ( 'NONE', #753, #775, #516 ) ;
#743 = ADVANCED_FACE ( 'NONE', ( #1023 ), #663, .F. ) ;
#744 = VECTOR ( 'NONE', #112, 1000.000000000000000 ) ;
#745 = VECTOR ( 'NONE', #361, 1000.000000000000000 ) ;
#746 = CARTESIAN_POINT ( 'NONE',  ( -138.7669224802324379, 0.000000000000000000, -138.7669224802318979 ) ) ;
#747 = ORIENTED_EDGE ( 'NONE', *, *, #970, .T. ) ;
#748 = FACE_OUTER_BOUND ( 'NONE', #312, .T. ) ;
#749 = DATE_TIME_ROLE ( 'creation_date' ) ;
#750 = EDGE_CURVE ( 'NONE', #217, #657, #846, .T. ) ;
#751 = VERTEX_POINT ( 'NONE', #842 ) ;
#752 = CARTESIAN_POINT ( 'NONE',  ( -82.12610195477196839, 2.399999999999999911, -199.9463395937140717 ) ) ;
#753 = CARTESIAN_POINT ( 'NONE',  ( 0.000000000000000000, -1.610837052017543014, -1.885022082148188449 ) ) ;
#754 = ORIENTED_EDGE ( 'NONE', *, *, #249, .T. ) ;
#755 = ORIENTED_EDGE ( 'NONE', *, *, #508, .T. ) ;
#756 = CARTESIAN_POINT ( 'NONE',  ( -50.50000000000000000, 54.00000000000000000, -71.00000000000001421 ) ) ;
#757 = CARTESIAN_POINT ( 'NONE',  ( 99.40000000000000568, 2.399999999999999911, -7.000000000000000000 ) ) ;
#758 = FACE_OUTER_BOUND ( 'NONE', #830, .T. ) ;
#759 = EDGE_LOOP ( 'NONE', ( #362, #371, #3, #221, #94, #334 ) ) ;
#760 = VECTOR ( 'NONE', #430, 1000.000000000000000 ) ;
#761 = VECTOR ( 'NONE', #309, 1000.000000000000000 ) ;
#762 = AXIS2_PLACEMENT_3D ( 'NONE', #214, #493, #995 ) ;
#763 = ORIENTED_EDGE ( 'NONE', *, *, #781, .F. ) ;
#764 = CARTESIAN_POINT ( 'NONE',  ( 78.93572390344651524, 37.31506948162927984, 0.000000000000000000 ) ) ;
#765 = ADVANCED_FACE ( 'NONE', ( #1126 ), #596, .F. ) ;
#766 = CARTESIAN_POINT ( 'NONE',  ( 101.0000000000000000, 0.000000000000000000, -184.0000000000000000 ) ) ;
#767 = DIRECTION ( 'NONE',  ( -0.9040722665053035900, -0.4273796168934164696, 0.000000000000000000 ) ) ;
#768 = EDGE_CURVE ( 'NONE', #936, #506, #424, .T. ) ;
#769 = ORIENTED_EDGE ( 'NONE', *, *, #7, .T. ) ;
#770 = ORIENTED_EDGE ( 'NONE', *, *, #342, .T. ) ;
#771 = DIRECTION ( 'NONE',  ( 1.000000000000000000, 0.000000000000000000, 0.000000000000000000 ) ) ;
#772 = EDGE_CURVE ( 'NONE', #751, #101, #1138, .T. ) ;
#773 = CARTESIAN_POINT ( 'NONE',  ( 86.20341456640498734, 21.94110846383251001, -22.01123006842005125 ) ) ;
#774 = EDGE_CURVE ( 'NONE', #901, #735, #1020, .T. ) ;
#775 = DIRECTION ( 'NONE',  ( 0.000000000000000000, -0.6496523275821463050, -0.7602314471705967636 ) ) ;
#776 = EDGE_LOOP ( 'NONE', ( #365, #190, #732, #196 ) ) ;
#777 = DIRECTION ( 'NONE',  ( 1.000000000000000000, 0.000000000000000000, 0.000000000000000000 ) ) ;
#778 = CARTESIAN_POINT ( 'NONE',  ( -82.55201296946771095, 39.02458794920293172, -7.000000000000000000 ) ) ;
#779 = CARTESIAN_POINT ( 'NONE',  ( -71.04830220385305495, 54.00000000000000000, -140.7037245747932559 ) ) ;
#780 = VERTEX_POINT ( 'NONE', #939 ) ;
#781 = EDGE_CURVE ( 'NONE', #928, #854, #144, .T. ) ;
#782 = VECTOR ( 'NONE', #793, 1000.000000000000227 ) ;
#783 = AXIS2_PLACEMENT_3D ( 'NONE', #195, #551, #1104 ) ;
#784 = DIRECTION ( 'NONE',  ( 0.7071067811865462405, 0.000000000000000000, -0.7071067811865489050 ) ) ;
#785 = DIRECTION ( 'NONE',  ( -0.2664535889924770640, 0.7327473697293122035, 0.6261659341323214667 ) ) ;
#786 = DIRECTION ( 'NONE',  ( 0.3544063553807968447, 0.7497057517670698834, 0.5588715604081790911 ) ) ;
#787 = DIRECTION ( 'NONE',  ( 1.000000000000000000, 0.000000000000000000, 0.000000000000000000 ) ) ;
#788 = CC_DESIGN_PERSON_AND_ORGANIZATION_ASSIGNMENT ( #30, #1095, ( #183 ) ) ;
#789 = CARTESIAN_POINT ( 'NONE',  ( 96.57557493112581426, 0.000000000000000000, -180.9582700293387063 ) ) ;
#790 = DIRECTION ( 'NONE',  ( -0.000000000000000000, -0.000000000000000000, 1.000000000000000000 ) ) ;
#791 = DIRECTION ( 'NONE',  ( 0.000000000000000000, 0.000000000000000000, -1.000000000000000000 ) ) ;
#792 = PLANE ( 'NONE',  #154 ) ;
#793 = DIRECTION ( 'NONE',  ( 0.000000000000000000, 0.6344933783882428235, 0.7729282973093132281 ) ) ;
#794 = DIRECTION ( 'NONE',  ( 0.000000000000000000, -1.000000000000000000, 0.000000000000000000 ) ) ;
#795 = VECTOR ( 'NONE', #986, 1000.000000000000000 ) ;
#796 = DIRECTION ( 'NONE',  ( 0.000000000000000000, 0.000000000000000000, -1.000000000000000000 ) ) ;
#797 = EDGE_CURVE ( 'NONE', #494, #432, #135, .T. ) ;
#798 = VERTEX_POINT ( 'NONE', #577 ) ;
#799 = DIRECTION ( 'NONE',  ( 0.000000000000000000, 0.000000000000000000, -1.000000000000000000 ) ) ;
#800 = EDGE_LOOP ( 'NONE', ( #580, #570, #548, #142, #563, #850, #824, #161 ) ) ;
#801 = PLANE ( 'NONE',  #839 ) ;
#802 = ORIENTED_EDGE ( 'NONE', *, *, #353, .T. ) ;
#803 = CARTESIAN_POINT ( 'NONE',  ( -102.5999999999999943, 2.399999999999999911, -7.000000000000000000 ) ) ;
#804 = DIRECTION ( 'NONE',  ( -1.000000000000000000, 0.000000000000000000, 0.000000000000000000 ) ) ;
#805 = ORIENTED_EDGE ( 'NONE', *, *, #686, .F. ) ;
#806 = DIRECTION ( 'NONE',  ( 0.4273796168934163586, 0.9040722665053035900, 0.000000000000000000 ) ) ;
#807 = EDGE_LOOP ( 'NONE', ( #858, #594, #39, #618 ) ) ;
#808 = EDGE_CURVE ( 'NONE', #555, #330, #934, .T. ) ;
#809 = DIRECTION ( 'NONE',  ( -1.000000000000000000, 0.000000000000000000, -0.000000000000000000 ) ) ;
#810 = CARTESIAN_POINT ( 'NONE',  ( 50.50000000000000000, 54.00000000000000000, -71.00000000000001421 ) ) ;
#811 = ORIENTED_EDGE ( 'NONE', *, *, #157, .T. ) ;
#812 = VECTOR ( 'NONE', #411, 1000.000000000000000 ) ;
#813 = CARTESIAN_POINT ( 'NONE',  ( 99.86545454545458256, 2.399999999999999467, 0.000000000000000000 ) ) ;
#814 = ORIENTED_EDGE ( 'NONE', *, *, #973, .F. ) ;
#815 = VECTOR ( 'NONE', #146, 1000.000000000000000 ) ;
#816 = AXIS2_PLACEMENT_3D ( 'NONE', #689, #794, #1048 ) ;
#817 = DIRECTION ( 'NONE',  ( 0.000000000000000000, -0.6344933783882428235, -0.7729282973093131170 ) ) ;
#818 = EDGE_LOOP ( 'NONE', ( #407, #129, #719, #933 ) ) ;
#819 = ORIENTED_EDGE ( 'NONE', *, *, #1116, .F. ) ;
#820 = SECURITY_CLASSIFICATION_LEVEL ( 'unclassified' ) ;
#821 = CARTESIAN_POINT ( 'NONE',  ( 99.86545454545456835, 2.399999999999999911, -7.000000000000000000 ) ) ;
#822 = ORIENTED_EDGE ( 'NONE', *, *, #170, .F. ) ;
#823 = COORDINATED_UNIVERSAL_TIME_OFFSET ( 5, 0, .BEHIND. ) ;
#824 = ORIENTED_EDGE ( 'NONE', *, *, #1110, .F. ) ;
#825 = CARTESIAN_POINT ( 'NONE',  ( -101.0000000000000000, 0.000000000000000000, 2.000000000000000000 ) ) ;
#826 = VERTEX_POINT ( 'NONE', #1133 ) ;
#827 = EDGE_LOOP ( 'NONE', ( #1083, #236, #364, #841, #69, #660, #536, #6, #199, #1044, #1040, #193, #685, #736 ) ) ;
#828 = PERSON_AND_ORGANIZATION_ROLE ( 'design_supplier' ) ;
#829 = LINE ( 'NONE', #896, #374 ) ;
#830 = EDGE_LOOP ( 'NONE', ( #560, #844, #868, #643 ) ) ;
#831 = EDGE_CURVE ( 'NONE', #188, #478, #588, .T. ) ;
#832 = DIRECTION ( 'NONE',  ( 0.000000000000000000, 0.000000000000000000, 1.000000000000000000 ) ) ;
#833 = CARTESIAN_POINT ( 'NONE',  ( 50.50000000000000000, 54.00000000000000000, -130.0000000000000000 ) ) ;
#834 = ORIENTED_EDGE ( 'NONE', *, *, #750, .T. ) ;
#835 = PLANE ( 'NONE',  #246 ) ;
#836 = VECTOR ( 'NONE', #1127, 1000.000000000000000 ) ;
#837 = CC_DESIGN_PERSON_AND_ORGANIZATION_ASSIGNMENT ( #991, #651, ( #208 ) ) ;
#838 = PERSON_AND_ORGANIZATION ( #927, #229 ) ;
#839 = AXIS2_PLACEMENT_3D ( 'NONE', #1072, #275, #1053 ) ;
#840 = APPROVAL_PERSON_ORGANIZATION ( #925, #696, #117 ) ;
#841 = ORIENTED_EDGE ( 'NONE', *, *, #915, .F. ) ;
#842 = CARTESIAN_POINT ( 'NONE',  ( 75.00000000000000000, 55.00000000000000711, -45.00000000000000711 ) ) ;
#843 = CARTESIAN_POINT ( 'NONE',  ( -75.00000000000000000, 54.00000000000000000, -45.00000000000000000 ) ) ;
#844 = ORIENTED_EDGE ( 'NONE', *, *, #543, .F. ) ;
#845 = ORIENTED_EDGE ( 'NONE', *, *, #781, .T. ) ;
#846 = LINE ( 'NONE', #756, #574 ) ;
#847 = LINE ( 'NONE', #678, #317 ) ;
#848 = ORIENTED_EDGE ( 'NONE', *, *, #937, .F. ) ;
#849 = ADVANCED_FACE ( 'NONE', ( #521, #268 ), #172, .F. ) ;
#850 = ORIENTED_EDGE ( 'NONE', *, *, #680, .T. ) ;
#851 = DIRECTION ( 'NONE',  ( 1.000000000000000000, 0.000000000000000000, 0.000000000000000000 ) ) ;
#852 = CARTESIAN_POINT ( 'NONE',  ( -75.00000000000000000, 58.00000000000000000, -45.00000000000000000 ) ) ;
#853 = LINE ( 'NONE', #61, #182 ) ;
#854 = VERTEX_POINT ( 'NONE', #706 ) ;
#855 = VECTOR ( 'NONE', #440, 1000.000000000000000 ) ;
#856 = AXIS2_PLACEMENT_3D ( 'NONE', #527, #959, #615 ) ;
#857 = CC_DESIGN_APPROVAL ( #1047, ( #183 ) ) ;
#858 = ORIENTED_EDGE ( 'NONE', *, *, #165, .F. ) ;
#859 = ADVANCED_FACE ( 'NONE', ( #1054 ), #264, .T. ) ;
#860 = CARTESIAN_POINT ( 'NONE',  ( 75.00000000000000000, 55.00000000000000000, -45.00000000000000000 ) ) ;
#861 = CARTESIAN_POINT ( 'NONE',  ( 82.99999999999995737, 0.000000000000000000, -201.9999999999999716 ) ) ;
#862 = LINE ( 'NONE', #72, #966 ) ;
#863 = VERTEX_POINT ( 'NONE', #530 ) ;
#864 = LINE ( 'NONE', #140, #298 ) ;
#865 = DIRECTION ( 'NONE',  ( 0.4273796168934163586, 0.9040722665053035900, 0.000000000000000000 ) ) ;
#866 = LINE ( 'NONE', #1032, #152 ) ;
#867 = ADVANCED_FACE ( 'NONE', ( #355 ), #792, .T. ) ;
#868 = ORIENTED_EDGE ( 'NONE', *, *, #222, .F. ) ;
#869 = FACE_OUTER_BOUND ( 'NONE', #931, .T. ) ;
#870 = DIRECTION ( 'NONE',  ( 0.000000000000000000, 0.000000000000000000, -1.000000000000000000 ) ) ;
#871 = CARTESIAN_POINT ( 'NONE',  ( -50.50000000000000000, 58.00000000000000000, -130.0000000000000000 ) ) ;
#872 = EDGE_CURVE ( 'NONE', #798, #1091, #343, .T. ) ;
#873 = VECTOR ( 'NONE', #515, 1000.000000000000000 ) ;
#874 = VECTOR ( 'NONE', #331, 1000.000000000000000 ) ;
#875 = LOCAL_TIME ( 15, 6, 26.00000000000000000, #1109 ) ;
#876 = CARTESIAN_POINT ( 'NONE',  ( 99.40000000000000568, 2.399999999999999911, -7.000000000000000000 ) ) ;
#877 = CARTESIAN_POINT ( 'NONE',  ( 99.40000000000000568, 91.02155975512376074, -74.71919084375839759 ) ) ;
#878 = PLANE ( 'NONE',  #339 ) ;
#879 = DIRECTION ( 'NONE',  ( 1.000000000000000000, 0.000000000000000000, -0.000000000000000000 ) ) ;
#880 = LINE ( 'NONE', #175, #537 ) ;
#881 = ADVANCED_FACE ( 'NONE', ( #600 ), #258, .T. ) ;
#882 = CARTESIAN_POINT ( 'NONE',  ( 75.00000000000000000, 54.00000000000000000, -45.00000000000000000 ) ) ;
#883 = LINE ( 'NONE', #697, #782 ) ;
#884 = DIRECTION ( 'NONE',  ( -1.000000000000000000, 0.000000000000000000, 0.000000000000000000 ) ) ;
#885 = VECTOR ( 'NONE', #293, 1000.000000000000000 ) ;
#886 = ORIENTED_EDGE ( 'NONE', *, *, #479, .F. ) ;
#887 = EDGE_CURVE ( 'NONE', #550, #478, #974, .T. ) ;
#888 = VECTOR ( 'NONE', #307, 999.9999999999998863 ) ;
#889 = CARTESIAN_POINT ( 'NONE',  ( -99.40000000000000568, 0.000000000000000000, -185.5999999999999091 ) ) ;
#890 = ORIENTED_EDGE ( 'NONE', *, *, #734, .F. ) ;
#891 = ORIENTED_EDGE ( 'NONE', *, *, #605, .T. ) ;
#892 = DIRECTION ( 'NONE',  ( 0.5357509961712376700, -0.6526421226085969973, 0.5357509961712357827 ) ) ;
#893 = PLANE ( 'NONE',  #181 ) ;
#894 = ORIENTED_EDGE ( 'NONE', *, *, #558, .F. ) ;
#895 = COORDINATED_UNIVERSAL_TIME_OFFSET ( 5, 0, .BEHIND. ) ;
#896 = CARTESIAN_POINT ( 'NONE',  ( -50.50000000000000000, 54.00000000000000000, -130.0000000000000000 ) ) ;
#897 = VERTEX_POINT ( 'NONE', #443 ) ;
#898 = EDGE_CURVE ( 'NONE', #863, #466, #174, .T. ) ;
#899 = CARTESIAN_POINT ( 'NONE',  ( -50.50000000000000000, 58.00000000000000000, -71.00000000000001421 ) ) ;
#900 = ORIENTED_EDGE ( 'NONE', *, *, #605, .F. ) ;
#901 = VERTEX_POINT ( 'NONE', #602 ) ;
#902 = CARTESIAN_POINT ( 'NONE',  ( -52.33564013840838669, 63.75432525951550389, -155.0000000000000000 ) ) ;
#903 = VERTEX_POINT ( 'NONE', #1 ) ;
#904 = MECHANICAL_CONTEXT ( 'NONE', #944, 'mechanical' ) ;
#905 = EDGE_CURVE ( 'NONE', #156, #550, #253, .T. ) ;
#906 = DIRECTION ( 'NONE',  ( 0.7729282973093127840, 0.6344933783882433787, 0.000000000000000000 ) ) ;
#907 = CARTESIAN_POINT ( 'NONE',  ( 75.00000000000000000, 54.00000000000000000, -45.00000000000000000 ) ) ;
#908 = VECTOR ( 'NONE', #108, 1000.000000000000114 ) ;
#909 = DIRECTION ( 'NONE',  ( 0.000000000000000000, -0.000000000000000000, -1.000000000000000000 ) ) ;
#910 = EDGE_LOOP ( 'NONE', ( #147, #388, #987, #769 ) ) ;
#911 = EDGE_CURVE ( 'NONE', #653, #751, #611, .T. ) ;
#912 = VECTOR ( 'NONE', #402, 999.9999999999998863 ) ;
#913 = COORDINATED_UNIVERSAL_TIME_OFFSET ( 5, 0, .BEHIND. ) ;
#914 = LOCAL_TIME ( 15, 6, 26.00000000000000000, #823 ) ;
#915 = EDGE_CURVE ( 'NONE', #903, #188, #532, .T. ) ;
#916 = FACE_OUTER_BOUND ( 'NONE', #724, .T. ) ;
#917 = DIRECTION ( 'NONE',  ( 0.2664535889924771195, 0.7327473697293122035, 0.6261659341323214667 ) ) ;
#918 = ORIENTED_EDGE ( 'NONE', *, *, #110, .F. ) ;
#919 = CARTESIAN_POINT ( 'NONE',  ( -82.12610195477196839, 2.399999999999999467, -199.9490909090908133 ) ) ;
#920 = VERTEX_POINT ( 'NONE', #518 ) ;
#921 = DIRECTION ( 'NONE',  ( 0.000000000000000000, 1.000000000000000000, 0.000000000000000000 ) ) ;
#922 = FACE_OUTER_BOUND ( 'NONE', #238, .T. ) ;
#923 = ORIENTED_EDGE ( 'NONE', *, *, #593, .T. ) ;
#924 = PRODUCT_DEFINITION ( 'UNKNOWN', '', #183, #1131 ) ;
#925 = PERSON_AND_ORGANIZATION ( #927, #229 ) ;
#926 = CARTESIAN_POINT ( 'NONE',  ( 101.0000000000000000, 0.000000000000000000, 2.000000000000000000 ) ) ;
#927 = PERSON ( 'UNSPECIFIED', 'UNSPECIFIED', 'UNSPECIFIED', ('UNSPECIFIED'), ('UNSPECIFIED'), ('UNSPECIFIED') ) ;
#928 = VERTEX_POINT ( 'NONE', #439 ) ;
#929 = CARTESIAN_POINT ( 'NONE',  ( -86.20341456640497313, 21.94110846383250291, -22.01123006842004415 ) ) ;
#930 = CALENDAR_DATE ( 2026, 25, 7 ) ;
#931 = EDGE_LOOP ( 'NONE', ( #62, #586, #33, #636 ) ) ;
#932 = VECTOR ( 'NONE', #791, 1000.000000000000000 ) ;
#933 = ORIENTED_EDGE ( 'NONE', *, *, #637, .T. ) ;
#934 = LINE ( 'NONE', #239, #1006 ) ;
#935 = CARTESIAN_POINT ( 'NONE',  ( -75.00000000000000000, 58.00000000000000000, -45.00000000000000000 ) ) ;
#936 = VERTEX_POINT ( 'NONE', #789 ) ;
#937 = EDGE_CURVE ( 'NONE', #936, #1115, #971, .T. ) ;
#938 = EDGE_LOOP ( 'NONE', ( #191, #1034, #533, #1136 ) ) ;
#939 = CARTESIAN_POINT ( 'NONE',  ( -75.00000000000000000, 54.00000000000000000, -155.0000000000000000 ) ) ;
#940 = DIRECTION ( 'NONE',  ( 0.000000000000000000, -0.6496523275821463050, 0.7602314471705967636 ) ) ;
#941 = DIRECTION ( 'NONE',  ( 0.4273796168934164141, -0.9040722665053034790, 0.000000000000000000 ) ) ;
#942 = ORIENTED_EDGE ( 'NONE', *, *, #984, .F. ) ;
#943 = ADVANCED_FACE ( 'NONE', ( #445 ), #1147, .T. ) ;
#944 = APPLICATION_CONTEXT ( 'configuration controlled 3d designs of mechanical parts and assemblies' ) ;
#945 = EDGE_LOOP ( 'NONE', ( #484, #296, #457, #25, #232, #918 ) ) ;
#946 = CARTESIAN_POINT ( 'NONE',  ( -83.00000000000000000, 0.000000000000000000, -201.9999999999999716 ) ) ;
#947 = CARTESIAN_POINT ( 'NONE',  ( -99.86545454545455414, 2.400000000000000799, -182.2109090909090128 ) ) ;
#948 = CARTESIAN_POINT ( 'NONE',  ( 0.000000000000000000, 0.9877722583110418730, 1.155903706534198161 ) ) ;
#949 = ORIENTED_EDGE ( 'NONE', *, *, #176, .T. ) ;
#950 = VECTOR ( 'NONE', #982, 1000.000000000000000 ) ;
#951 = VECTOR ( 'NONE', #1140, 1000.000000000000000 ) ;
#952 = VECTOR ( 'NONE', #476, 1000.000000000000000 ) ;
#953 = ORIENTED_EDGE ( 'NONE', *, *, #56, .F. ) ;
#954 = ADVANCED_FACE ( 'NONE', ( #869 ), #451, .F. ) ;
#955 = PLANE ( 'NONE',  #1046 ) ;
#956 = LINE ( 'NONE', #519, #1057 ) ;
#957 = FACE_OUTER_BOUND ( 'NONE', #57, .T. ) ;
#958 = ORIENTED_EDGE ( 'NONE', *, *, #704, .F. ) ;
#959 = DIRECTION ( 'NONE',  ( 0.000000000000000000, -1.000000000000000000, 0.000000000000000000 ) ) ;
#960 = ADVANCED_FACE ( 'NONE', ( #434 ), #1143, .F. ) ;
#961 = DIRECTION ( 'NONE',  ( -1.000000000000000000, 0.000000000000000000, -0.000000000000000000 ) ) ;
#962 = CARTESIAN_POINT ( 'NONE',  ( -75.00000000000000000, 54.00000000000000000, -45.00000000000000000 ) ) ;
#963 = CARTESIAN_POINT ( 'NONE',  ( -50.50000000000000000, 54.00000000000000000, -71.00000000000001421 ) ) ;
#964 = LINE ( 'NONE', #345, #595 ) ;
#965 = VECTOR ( 'NONE', #785, 1000.000000000000114 ) ;
#966 = VECTOR ( 'NONE', #328, 1000.000000000000000 ) ;
#967 = VECTOR ( 'NONE', #884, 1000.000000000000000 ) ;
#968 = DIRECTION ( 'NONE',  ( 0.000000000000000000, 0.000000000000000000, 1.000000000000000000 ) ) ;
#969 = CARTESIAN_POINT ( 'NONE',  ( 99.40000000000000568, 2.399999999999999911, -7.000000000000000000 ) ) ;
#970 = EDGE_CURVE ( 'NONE', #474, #390, #122, .T. ) ;
#971 = LINE ( 'NONE', #86, #702 ) ;
#972 = LINE ( 'NONE', #707, #436 ) ;
#973 = EDGE_CURVE ( 'NONE', #665, #202, #710, .T. ) ;
#974 = LINE ( 'NONE', #692, #278 ) ;
#975 = VERTEX_POINT ( 'NONE', #539 ) ;
#976 = FACE_OUTER_BOUND ( 'NONE', #938, .T. ) ;
#977 = VERTEX_POINT ( 'NONE', #620 ) ;
#978 = EDGE_CURVE ( 'NONE', #798, #139, #996, .T. ) ;
#979 = VECTOR ( 'NONE', #804, 1000.000000000000000 ) ;
#980 = CARTESIAN_POINT ( 'NONE',  ( 0.000000000000000000, 54.00000000000000711, -49.40701010841772955 ) ) ;
#981 = VECTOR ( 'NONE', #28, 1000.000000000000000 ) ;
#982 = DIRECTION ( 'NONE',  ( 0.000000000000000000, 1.000000000000000000, 0.000000000000000000 ) ) ;
#983 = ORIENTED_EDGE ( 'NONE', *, *, #911, .F. ) ;
#984 = EDGE_CURVE ( 'NONE', #109, #224, #216, .T. ) ;
#985 = VECTOR ( 'NONE', #784, 999.9999999999998863 ) ;
#986 = DIRECTION ( 'NONE',  ( 0.000000000000000000, 0.000000000000000000, -1.000000000000000000 ) ) ;
#987 = ORIENTED_EDGE ( 'NONE', *, *, #1124, .F. ) ;
#988 = LINE ( 'NONE', #99, #952 ) ;
#989 = DIRECTION ( 'NONE',  ( 0.000000000000000000, 1.000000000000000000, 0.000000000000000000 ) ) ;
#990 = ORIENTED_EDGE ( 'NONE', *, *, #1116, .T. ) ;
#991 = PERSON_AND_ORGANIZATION ( #927, #229 ) ;
#992 = DIRECTION ( 'NONE',  ( 0.000000000000000000, 1.000000000000000000, 0.000000000000000000 ) ) ;
#993 = CC_DESIGN_PERSON_AND_ORGANIZATION_ASSIGNMENT ( #838, #1001, ( #924 ) ) ;
#994 = ORIENTED_EDGE ( 'NONE', *, *, #1110, .T. ) ;
#995 = DIRECTION ( 'NONE',  ( 0.000000000000000000, 0.000000000000000000, -1.000000000000000000 ) ) ;
#996 = LINE ( 'NONE', #197, #320 ) ;
#997 = LINE ( 'NONE', #300, #1074 ) ;
#998 = EDGE_LOOP ( 'NONE', ( #617, #491, #1125, #650 ) ) ;
#999 = DIRECTION ( 'NONE',  ( 0.000000000000000000, 0.000000000000000000, -1.000000000000000000 ) ) ;
#1000 = ORIENTED_EDGE ( 'NONE', *, *, #593, .F. ) ;
#1001 = PERSON_AND_ORGANIZATION_ROLE ( 'creator' ) ;
#1002 = ORIENTED_EDGE ( 'NONE', *, *, #1157, .T. ) ;
#1003 = CARTESIAN_POINT ( 'NONE',  ( 71.04830220385308337, 54.00000000000000711, -140.7037245747932559 ) ) ;
#1004 = LINE ( 'NONE', #1013, #699 ) ;
#1005 = ORIENTED_EDGE ( 'NONE', *, *, #1056, .F. ) ;
#1006 = VECTOR ( 'NONE', #771, 1000.000000000000000 ) ;
#1007 = LINE ( 'NONE', #473, #981 ) ;
#1008 = ORIENTED_EDGE ( 'NONE', *, *, #495, .F. ) ;
#1009 = AXIS2_PLACEMENT_3D ( 'NONE', #189, #892, #906 ) ;
#1010 = DIRECTION ( 'NONE',  ( -1.000000000000000000, 0.000000000000000000, 0.000000000000000000 ) ) ;
#1011 = ADVANCED_FACE ( 'NONE', ( #916, #1076 ), #284, .T. ) ;
#1012 = DIRECTION ( 'NONE',  ( 0.7071067811865489050, 0.000000000000000000, 0.7071067811865462405 ) ) ;
#1013 = CARTESIAN_POINT ( 'NONE',  ( -99.40000000000000568, 2.399999999999999911, -7.000000000000000000 ) ) ;
#1014 = EDGE_LOOP ( 'NONE', ( #1114, #463, #294, #923 ) ) ;
#1015 = CALENDAR_DATE ( 2026, 25, 7 ) ;
#1016 = LINE ( 'NONE', #287, #113 ) ;
#1017 = ORIENTED_EDGE ( 'NONE', *, *, #282, .F. ) ;
#1018 = LINE ( 'NONE', #659, #509 ) ;
#1019 = ORIENTED_EDGE ( 'NONE', *, *, #250, .F. ) ;
#1020 = LINE ( 'NONE', #1035, #78 ) ;
#1021 = EDGE_LOOP ( 'NONE', ( #499, #1066, #805 ) ) ;
#1022 = ORIENTED_EDGE ( 'NONE', *, *, #564, .T. ) ;
#1023 = FACE_OUTER_BOUND ( 'NONE', #800, .T. ) ;
#1024 = ADVANCED_FACE ( 'NONE', ( #184 ), #639, .T. ) ;
#1025 = DIRECTION ( 'NONE',  ( 0.000000000000000000, 1.000000000000000000, 0.000000000000000000 ) ) ;
#1026 = ORIENTED_EDGE ( 'NONE', *, *, #271, .T. ) ;
#1027 = VECTOR ( 'NONE', #35, 1000.000000000000000 ) ;
#1028 = CC_DESIGN_APPROVAL ( #696, ( #208 ) ) ;
#1029 = ORIENTED_EDGE ( 'NONE', *, *, #204, .F. ) ;
#1030 = LINE ( 'NONE', #318, #557 ) ;
#1031 = LINE ( 'NONE', #326, #592 ) ;
#1032 = CARTESIAN_POINT ( 'NONE',  ( -50.50000000000000000, 54.00000000000000000, -71.00000000000001421 ) ) ;
#1033 = VERTEX_POINT ( 'NONE', #1097 ) ;
#1034 = ORIENTED_EDGE ( 'NONE', *, *, #267, .F. ) ;
#1035 = CARTESIAN_POINT ( 'NONE',  ( -82.12610195477196839, 2.399999999999999911, -199.9463395937140717 ) ) ;
#1036 = DIRECTION ( 'NONE',  ( 0.7071067811865489050, 0.000000000000000000, 0.7071067811865462405 ) ) ;
#1037 = DIRECTION ( 'NONE',  ( 1.000000000000000000, 0.000000000000000000, 0.000000000000000000 ) ) ;
#1038 = VERTEX_POINT ( 'NONE', #899 ) ;
#1039 = EDGE_CURVE ( 'NONE', #1038, #292, #627, .T. ) ;
#1040 = ORIENTED_EDGE ( 'NONE', *, *, #543, .T. ) ;
#1041 = DIRECTION ( 'NONE',  ( 0.5357509961712376700, -0.6526421226085969973, 0.5357509961712357827 ) ) ;
#1042 = PLANE ( 'NONE',  #1119 ) ;
#1043 = LINE ( 'NONE', #843, #523 ) ;
#1044 = ORIENTED_EDGE ( 'NONE', *, *, #614, .T. ) ;
#1045 = VECTOR ( 'NONE', #731, 1000.000000000000000 ) ;
#1046 = AXIS2_PLACEMENT_3D ( 'NONE', #764, #571, #502 ) ;
#1047 = APPROVAL ( #295, 'UNSPECIFIED' ) ;
#1048 = DIRECTION ( 'NONE',  ( 0.000000000000000000, -0.000000000000000000, -1.000000000000000000 ) ) ;
#1049 = CARTESIAN_POINT ( 'NONE',  ( -109.6090909090910088, 54.00000000000000000, -109.6090909090906109 ) ) ;
#1050 = FACE_OUTER_BOUND ( 'NONE', #369, .T. ) ;
#1051 = CARTESIAN_POINT ( 'NONE',  ( 82.99999999999995737, 0.000000000000000000, -201.9999999999999716 ) ) ;
#1052 = CARTESIAN_POINT ( 'NONE',  ( 0.000000000000000000, 54.00000000000000000, -150.5929898915822207 ) ) ;
#1053 = DIRECTION ( 'NONE',  ( 0.000000000000000000, -0.6344933783882428235, -0.7729282973093131170 ) ) ;
#1054 = FACE_OUTER_BOUND ( 'NONE', #22, .T. ) ;
#1055 = CARTESIAN_POINT ( 'NONE',  ( -64.21818181818179028, 54.00000000000000000, -155.0000000000000000 ) ) ;
#1056 = EDGE_CURVE ( 'NONE', #1115, #665, #988, .T. ) ;
#1057 = VECTOR ( 'NONE', #603, 1000.000000000000114 ) ;
#1058 = CARTESIAN_POINT ( 'NONE',  ( -99.40000000000000568, 0.000000000000000000, -7.000000000000000000 ) ) ;
#1059 = AXIS2_PLACEMENT_3D ( 'NONE', #340, #601, #961 ) ;
#1060 = AXIS2_PLACEMENT_3D ( 'NONE', #1155, #799, #251 ) ;
#1061 = CARTESIAN_POINT ( 'NONE',  ( 101.0000000000000000, 0.000000000000000000, 2.000000000000000000 ) ) ;
#1062 = DIRECTION ( 'NONE',  ( -1.000000000000000000, 0.000000000000000000, 0.000000000000000000 ) ) ;
#1063 = ADVANCED_FACE ( 'NONE', ( #127 ), #1084, .T. ) ;
#1064 = CARTESIAN_POINT ( 'NONE',  ( -101.0000000000000000, 0.000000000000000000, -183.9999999999999147 ) ) ;
#1065 = LINE ( 'NONE', #88, #687 ) ;
#1066 = ORIENTED_EDGE ( 'NONE', *, *, #96, .F. ) ;
#1067 = ORIENTED_EDGE ( 'NONE', *, *, #194, .T. ) ;
#1068 = ADVANCED_FACE ( 'NONE', ( #290 ), #1089, .T. ) ;
#1069 = CARTESIAN_POINT ( 'NONE',  ( 96.57557493112581426, 0.000000000000000000, 0.000000000000000000 ) ) ;
#1070 = CARTESIAN_POINT ( 'NONE',  ( 75.00000000000000000, 55.00000000000000000, -143.0000000000000000 ) ) ;
#1071 = ORIENTED_EDGE ( 'NONE', *, *, #157, .F. ) ;
#1072 = CARTESIAN_POINT ( 'NONE',  ( 79.66029803637951545, 97.04072669886254232, -79.66029803637979967 ) ) ;
#1073 = ORIENTED_EDGE ( 'NONE', *, *, #353, .F. ) ;
#1074 = VECTOR ( 'NONE', #1098, 1000.000000000000114 ) ;
#1075 = ADVANCED_FACE ( 'NONE', ( #545 ), #105, .F. ) ;
#1076 = FACE_BOUND ( 'NONE', #126, .T. ) ;
#1077 = VECTOR ( 'NONE', #405, 1000.000000000000000 ) ;
#1078 = ORIENTED_EDGE ( 'NONE', *, *, #376, .F. ) ;
#1079 = AXIS2_PLACEMENT_3D ( 'NONE', #346, #695, #714 ) ;
#1080 = LINE ( 'NONE', #630, #134 ) ;
#1081 = ORIENTED_EDGE ( 'NONE', *, *, #87, .F. ) ;
#1082 = DATE_AND_TIME ( #137, #875 ) ;
#1083 = ORIENTED_EDGE ( 'NONE', *, *, #978, .T. ) ;
#1084 = PLANE ( 'NONE',  #42 ) ;
#1085 = DIRECTION ( 'NONE',  ( 0.000000000000000000, -0.000000000000000000, -1.000000000000000000 ) ) ;
#1086 = EDGE_LOOP ( 'NONE', ( #953, #567, #994, #1096, #822, #716, #1071, #150 ) ) ;
#1087 = DIRECTION ( 'NONE',  ( 0.000000000000000000, 0.000000000000000000, 1.000000000000000000 ) ) ;
#1088 = PLANE ( 'NONE',  #762 ) ;
#1089 = PLANE ( 'NONE',  #575 ) ;
#1090 = CARTESIAN_POINT ( 'NONE',  ( 75.00000000000000000, 54.00000000000000000, -144.2181818181817334 ) ) ;
#1091 = VERTEX_POINT ( 'NONE', #825 ) ;
#1092 = CARTESIAN_POINT ( 'NONE',  ( 0.000000000000000000, 2.399999999999999911, 0.000000000000000000 ) ) ;
#1093 = ORIENTED_EDGE ( 'NONE', *, *, #376, .T. ) ;
#1094 = ADVANCED_FACE ( 'NONE', ( #552 ), #462, .T. ) ;
#1095 = PERSON_AND_ORGANIZATION_ROLE ( 'creator' ) ;
#1096 = ORIENTED_EDGE ( 'NONE', *, *, #74, .F. ) ;
#1097 = CARTESIAN_POINT ( 'NONE',  ( -75.00000000000000000, 58.00000000000000000, -155.0000000000000000 ) ) ;
#1098 = DIRECTION ( 'NONE',  ( -0.000000000000000000, 0.7602314471705966525, 0.6496523275821461940 ) ) ;
#1099 = ORIENTED_EDGE ( 'NONE', *, *, #1039, .F. ) ;
#1100 = AXIS2_PLACEMENT_3D ( 'NONE', #948, #585, #420 ) ;
#1101 = CARTESIAN_POINT ( 'NONE',  ( -75.00000000000000000, 55.00000000000000711, -45.00000000000000000 ) ) ;
#1102 = ORIENTED_EDGE ( 'NONE', *, *, #215, .F. ) ;
#1103 = AXIS2_PLACEMENT_3D ( 'NONE', #483, #809, #32 ) ;
#1104 = DIRECTION ( 'NONE',  ( 1.000000000000000000, 0.000000000000000000, 0.000000000000000000 ) ) ;
#1105 = CC_DESIGN_PERSON_AND_ORGANIZATION_ASSIGNMENT ( #302, #828, ( #183 ) ) ;
#1106 = FACE_OUTER_BOUND ( 'NONE', #138, .T. ) ;
#1107 = VERTEX_POINT ( 'NONE', #24 ) ;
#1108 = DIRECTION ( 'NONE',  ( -0.000000000000000000, -0.000000000000000000, 1.000000000000000000 ) ) ;
#1109 = COORDINATED_UNIVERSAL_TIME_OFFSET ( 5, 0, .BEHIND. ) ;
#1110 = EDGE_CURVE ( 'NONE', #188, #421, #391, .T. ) ;
#1111 = VERTEX_POINT ( 'NONE', #737 ) ;
#1112 = DIRECTION ( 'NONE',  ( 0.000000000000000000, 0.000000000000000000, -1.000000000000000000 ) ) ;
#1113 = PLANE ( 'NONE',  #1059 ) ;
#1114 = ORIENTED_EDGE ( 'NONE', *, *, #257, .T. ) ;
#1115 = VERTEX_POINT ( 'NONE', #1003 ) ;
#1116 = EDGE_CURVE ( 'NONE', #1107, #936, #559, .T. ) ;
#1117 = CARTESIAN_POINT ( 'NONE',  ( -50.50000000000000000, 54.00000000000000000, -71.00000000000001421 ) ) ;
#1118 = CARTESIAN_POINT ( 'NONE',  ( -71.04830220385305495, 54.00000000000000711, -49.40701010841772245 ) ) ;
#1119 = AXIS2_PLACEMENT_3D ( 'NONE', #245, #584, #1144 ) ;
#1120 = CARTESIAN_POINT ( 'NONE',  ( -50.50000000000000000, 54.00000000000000000, -71.00000000000001421 ) ) ;
#1121 = ORIENTED_EDGE ( 'NONE', *, *, #1146, .F. ) ;
#1122 = VECTOR ( 'NONE', #1108, 1000.000000000000000 ) ;
#1123 = AXIS2_PLACEMENT_3D ( 'NONE', #207, #470, #730 ) ;
#1124 = EDGE_CURVE ( 'NONE', #517, #863, #400, .T. ) ;
#1125 = ORIENTED_EDGE ( 'NONE', *, *, #267, .T. ) ;
#1126 = FACE_OUTER_BOUND ( 'NONE', #670, .T. ) ;
#1127 = DIRECTION ( 'NONE',  ( 1.000000000000000000, 0.000000000000000000, 0.000000000000000000 ) ) ;
#1128 = CARTESIAN_POINT ( 'NONE',  ( -75.00000000000000000, 54.00000000000000000, -45.00000000000000000 ) ) ;
#1129 = ADVANCED_FACE ( 'NONE', ( #1106 ), #656, .T. ) ;
#1130 = ORIENTED_EDGE ( 'NONE', *, *, #342, .F. ) ;
#1131 = DESIGN_CONTEXT ( 'detailed design', #266, 'design' ) ;
#1132 = ORIENTED_EDGE ( 'NONE', *, *, #750, .F. ) ;
#1133 = CARTESIAN_POINT ( 'NONE',  ( -75.00000000000000000, 54.00000000000000000, -144.2181818181817334 ) ) ;
#1134 = LINE ( 'NONE', #677, #873 ) ;
#1135 = CARTESIAN_POINT ( 'NONE',  ( 82.00000000000000000, 2.399999999999999911, -199.9490909090908133 ) ) ;
#1136 = ORIENTED_EDGE ( 'NONE', *, *, #479, .T. ) ;
#1137 = ADVANCED_FACE ( 'NONE', ( #632 ), #1088, .F. ) ;
#1138 = LINE ( 'NONE', #860, #40 ) ;
#1139 = CARTESIAN_POINT ( 'NONE',  ( 109.6090909090907388, 54.00000000000000000, -109.6090909090911367 ) ) ;
#1140 = DIRECTION ( 'NONE',  ( -0.000000000000000000, -0.000000000000000000, 1.000000000000000000 ) ) ;
#1141 = VECTOR ( 'NONE', #513, 999.9999999999998863 ) ;
#1142 = VECTOR ( 'NONE', #279, 1000.000000000000000 ) ;
#1143 = PLANE ( 'NONE',  #1079 ) ;
#1144 = DIRECTION ( 'NONE',  ( -0.000000000000000000, 0.000000000000000000, 1.000000000000000000 ) ) ;
#1145 = DIRECTION ( 'NONE',  ( -0.000000000000000000, -0.000000000000000000, 1.000000000000000000 ) ) ;
#1146 = EDGE_CURVE ( 'NONE', #466, #1107, #1018, .T. ) ;
#1147 = PLANE ( 'NONE',  #816 ) ;
#1148 = LINE ( 'NONE', #877, #644 ) ;
#1149 = CARTESIAN_POINT ( 'NONE',  ( -50.50000000000000000, 54.00000000000000000, -130.0000000000000000 ) ) ;
#1150 = CARTESIAN_POINT ( 'NONE',  ( -141.0381818181819540, 2.400000000000013234, -141.0381818181814424 ) ) ;
#1151 = EDGE_CURVE ( 'NONE', #202, #401, #729, .T. ) ;
#1152 = FACE_OUTER_BOUND ( 'NONE', #679, .T. ) ;
#1153 = VECTOR ( 'NONE', #738, 1000.000000000000114 ) ;
#1154 = VECTOR ( 'NONE', #95, 1000.000000000000000 ) ;
#1155 = CARTESIAN_POINT ( 'NONE',  ( -50.50000000000000000, 54.00000000000000000, -130.0000000000000000 ) ) ;
#1156 = CARTESIAN_POINT ( 'NONE',  ( -80.79540052342774459, 0.000000000000000000, -196.7384444370367476 ) ) ;
#1157 = EDGE_CURVE ( 'NONE', #464, #780, #372, .T. ) ;
ENDSEC;
END-ISO-10303-21;
