ISO-10303-21;
HEADER;
FILE_DESCRIPTION (( 'STEP AP203' ),
    '1' );
FILE_NAME ('source_geometry.step',
    '2026-07-25T17:40:45',
    ( '' ),
    ( '' ),
    'SwSTEP 2.0',
    'SolidWorks 2026',
    '' );
FILE_SCHEMA (( 'CONFIG_CONTROL_DESIGN' ));
ENDSEC;

DATA;
#1 = ORIENTED_EDGE ( 'NONE', *, *, #574, .T. ) ;
#2 = DIRECTION ( 'NONE',  ( 0.1396787400997854811, 0.000000000000000000, 0.9901968741437918720 ) ) ;
#3 = PLANE ( 'NONE',  #190 ) ;
#4 = DIRECTION ( 'NONE',  ( -5.551115123125795324E-15, -0.1908089953765322866, -0.9816271834476663072 ) ) ;
#5 = VECTOR ( 'NONE', #710, 1000.000000000000114 ) ;
#6 = ORIENTED_EDGE ( 'NONE', *, *, #854, .T. ) ;
#7 = DIRECTION ( 'NONE',  ( 0.1379922230598587540, 0.000000000000000000, -0.9904333124319870674 ) ) ;
#8 = DIRECTION ( 'NONE',  ( 0.000000000000000000, 0.000000000000000000, -1.000000000000000000 ) ) ;
#9 = DIRECTION ( 'NONE',  ( 0.000000000000000000, 1.000000000000000000, 0.000000000000000000 ) ) ;
#10 = ORIENTED_EDGE ( 'NONE', *, *, #118, .T. ) ;
#11 = DIRECTION ( 'NONE',  ( 0.000000000000000000, 1.000000000000000000, 0.000000000000000000 ) ) ;
#12 = CARTESIAN_POINT ( 'NONE',  ( 67.13497944227624714, 0.000000000000000000, 200.0000000000000284 ) ) ;
#13 = DIRECTION ( 'NONE',  ( 0.1396787400997854811, 0.000000000000000000, 0.9901968741437918720 ) ) ;
#14 = VERTEX_POINT ( 'NONE', #836 ) ;
#15 = CALENDAR_DATE ( 2026, 25, 7 ) ;
#16 = DIRECTION ( 'NONE',  ( -1.000000000000000000, 0.000000000000000000, 0.000000000000000000 ) ) ;
#17 = VECTOR ( 'NONE', #54, 1000.000000000000000 ) ;
#18 = LINE ( 'NONE', #173, #507 ) ;
#19 = ORIENTED_EDGE ( 'NONE', *, *, #51, .T. ) ;
#20 = EDGE_CURVE ( 'NONE', #14, #400, #249, .T. ) ;
#21 = DATE_AND_TIME ( #620, #316 ) ;
#22 = LINE ( 'NONE', #810, #139 ) ;
#23 = AXIS2_PLACEMENT_3D ( 'NONE', #403, #668, #601 ) ;
#24 = CARTESIAN_POINT ( 'NONE',  ( 93.37453214907490917, 5.009999999999999787, 11.66672637156582226 ) ) ;
#25 = AXIS2_PLACEMENT_3D ( 'NONE', #224, #621, #605 ) ;
#26 = EDGE_LOOP ( 'NONE', ( #346, #455, #445, #423, #543 ) ) ;
#27 = LINE ( 'NONE', #554, #480 ) ;
#28 = LINE ( 'NONE', #694, #252 ) ;
#29 = ADVANCED_FACE ( 'NONE', ( #115 ), #384, .F. ) ;
#30 = CC_DESIGN_APPROVAL ( #767, ( #792 ) ) ;
#31 = VERTEX_POINT ( 'NONE', #238 ) ;
#32 = DATE_AND_TIME ( #628, #291 ) ;
#33 = CARTESIAN_POINT ( 'NONE',  ( 0.000000000000000000, 5.000000000000000000, 0.000000000000000000 ) ) ;
#34 = ORIENTED_EDGE ( 'NONE', *, *, #616, .F. ) ;
#35 = EDGE_CURVE ( 'NONE', #828, #298, #111, .T. ) ;
#36 = AXIS2_PLACEMENT_3D ( 'NONE', #232, #691, #288 ) ;
#37 = VECTOR ( 'NONE', #584, 1000.000000000000000 ) ;
#38 = CARTESIAN_POINT ( 'NONE',  ( 68.33597266354398414, 5.000000000000000000, 191.3799222305985950 ) ) ;
#39 = VECTOR ( 'NONE', #491, 1000.000000000000114 ) ;
#40 = EDGE_LOOP ( 'NONE', ( #41, #56, #239, #773 ) ) ;
#41 = ORIENTED_EDGE ( 'NONE', *, *, #727, .F. ) ;
#42 = ORIENTED_EDGE ( 'NONE', *, *, #392, .F. ) ;
#43 = CARTESIAN_POINT ( 'NONE',  ( 59.79255063547954308, 83.59759843262351353, 20.45467605649572107 ) ) ;
#44 = EDGE_CURVE ( 'NONE', #725, #171, #648, .T. ) ;
#45 = ORIENTED_EDGE ( 'NONE', *, *, #566, .T. ) ;
#46 = ORIENTED_EDGE ( 'NONE', *, *, #92, .T. ) ;
#47 = DIRECTION ( 'NONE',  ( 0.1379922230598587540, 0.000000000000000000, -0.9904333124319870674 ) ) ;
#48 = VECTOR ( 'NONE', #486, 1000.000000000000000 ) ;
#49 = DIRECTION ( 'NONE',  ( 0.000000000000000000, -0.1908089953765322866, -0.9816271834476663072 ) ) ;
#50 = CARTESIAN_POINT ( 'NONE',  ( -89.51823385683611889, 54.14878292919352987, 26.17894591779167257 ) ) ;
#51 = EDGE_CURVE ( 'NONE', #222, #132, #642, .T. ) ;
#52 = ORIENTED_EDGE ( 'NONE', *, *, #35, .F. ) ;
#53 = LINE ( 'NONE', #775, #5 ) ;
#54 = DIRECTION ( 'NONE',  ( -1.000000000000000000, 0.000000000000000000, 3.061616997868383141E-16 ) ) ;
#55 = EDGE_CURVE ( 'NONE', #328, #673, #235, .T. ) ;
#56 = ORIENTED_EDGE ( 'NONE', *, *, #165, .F. ) ;
#57 = CARTESIAN_POINT ( 'NONE',  ( -66.78768308664606934, 0.000000000000000000, 200.0000000000000284 ) ) ;
#58 = ADVANCED_FACE ( 'NONE', ( #454 ), #315, .F. ) ;
#59 = ADVANCED_FACE ( 'NONE', ( #438 ), #743, .T. ) ;
#60 = CARTESIAN_POINT ( 'NONE',  ( -89.51823385683611889, 54.14878292919354408, 26.17894591779167257 ) ) ;
#61 = VERTEX_POINT ( 'NONE', #394 ) ;
#62 = EDGE_CURVE ( 'NONE', #473, #61, #211, .T. ) ;
#63 = VECTOR ( 'NONE', #135, 1000.000000000000000 ) ;
#64 = CARTESIAN_POINT ( 'NONE',  ( -68.00126588822611495, 0.000000000000000000, 191.3967874009979084 ) ) ;
#65 = ORIENTED_EDGE ( 'NONE', *, *, #680, .F. ) ;
#66 = PLANE ( 'NONE',  #698 ) ;
#67 = VECTOR ( 'NONE', #13, 1000.000000000000114 ) ;
#68 = DIRECTION ( 'NONE',  ( 0.7071067811865475727, -0.6941152380128960964, 0.1349223345421380615 ) ) ;
#69 = CARTESIAN_POINT ( 'NONE',  ( -93.44338904000566970, 5.009999999999999787, 9.168315206907401205 ) ) ;
#70 = ORIENTED_EDGE ( 'NONE', *, *, #578, .F. ) ;
#71 = PLANE ( 'NONE',  #72 ) ;
#72 = AXIS2_PLACEMENT_3D ( 'NONE', #520, #599, #262 ) ;
#73 = LINE ( 'NONE', #402, #851 ) ;
#74 = DIRECTION ( 'NONE',  ( 1.000000000000000000, 0.000000000000000000, 0.000000000000000000 ) ) ;
#75 = ORIENTED_EDGE ( 'NONE', *, *, #702, .F. ) ;
#76 = CARTESIAN_POINT ( 'NONE',  ( 59.79255063547954308, 84.07462092106484874, 22.90874401511488401 ) ) ;
#77 = DIRECTION ( 'NONE',  ( 0.6558663201827837907, 0.000000000000000000, -0.7548770562481642576 ) ) ;
#78 = DIRECTION ( 'NONE',  ( -0.1355038962840367789, 0.1890491284188468568, 0.9725734528229317277 ) ) ;
#79 = AXIS2_PLACEMENT_3D ( 'NONE', #416, #666, #546 ) ;
#80 = VERTEX_POINT ( 'NONE', #467 ) ;
#81 = CARTESIAN_POINT ( 'NONE',  ( 89.79255063547954308, 5.000000000000000000, 0.000000000000000000 ) ) ;
#82 = DIRECTION ( 'NONE',  ( -0.000000000000000000, -0.1908089953765315649, -0.9816271834476665292 ) ) ;
#83 = CARTESIAN_POINT ( 'NONE',  ( 89.79255063547954308, 54.62580541763485797, 28.63301387641083195 ) ) ;
#84 = EDGE_LOOP ( 'NONE', ( #492, #246, #94, #341, #583, #707 ) ) ;
#85 = APPLICATION_PROTOCOL_DEFINITION ( 'international standard', 'config_control_design', 1994, #565 ) ;
#86 = DIRECTION ( 'NONE',  ( 0.000000000000000000, 1.000000000000000000, 0.000000000000000000 ) ) ;
#87 = EDGE_CURVE ( 'NONE', #379, #328, #858, .T. ) ;
#88 = PLANE ( 'NONE',  #637 ) ;
#89 = EDGE_LOOP ( 'NONE', ( #598, #846, #153, #495 ) ) ;
#90 = SECURITY_CLASSIFICATION_LEVEL ( 'unclassified' ) ;
#91 = DIRECTION ( 'NONE',  ( 5.551115123125795324E-15, 0.1908089953765322866, 0.9816271834476663072 ) ) ;
#92 = EDGE_CURVE ( 'NONE', #709, #374, #197, .T. ) ;
#93 = DIRECTION ( 'NONE',  ( -1.000000000000000000, 0.000000000000000000, 0.000000000000000000 ) ) ;
#94 = ORIENTED_EDGE ( 'NONE', *, *, #853, .F. ) ;
#95 = CALENDAR_DATE ( 2026, 25, 7 ) ;
#96 = EDGE_CURVE ( 'NONE', #619, #725, #587, .T. ) ;
#97 = CARTESIAN_POINT ( 'NONE',  ( -47.57539682539682957, 6.874855701142875475, 35.36806650653350914 ) ) ;
#98 = DIRECTION ( 'NONE',  ( 0.000000000000000000, 0.9816271834476665292, -0.1908089953765315649 ) ) ;
#99 = ORIENTED_EDGE ( 'NONE', *, *, #461, .F. ) ;
#100 = APPROVAL ( #684, 'UNSPECIFIED' ) ;
#101 = CARTESIAN_POINT ( 'NONE',  ( 89.79255063547955729, 5.000000000000000000, 37.37624634966955739 ) ) ;
#102 = UNCERTAINTY_MEASURE_WITH_UNIT (LENGTH_MEASURE( 1.000000000000000082E-05 ), #337, 'distance_accuracy_value', 'NONE');
#103 = ORIENTED_EDGE ( 'NONE', *, *, #616, .T. ) ;
#104 =( NAMED_UNIT ( * ) SI_UNIT ( $, .STERADIAN. ) SOLID_ANGLE_UNIT ( ) );
#105 = DIRECTION ( 'NONE',  ( 0.000000000000000000, 0.9816271834476665292, -0.1908089953765315649 ) ) ;
#106 = ORIENTED_EDGE ( 'NONE', *, *, #114, .T. ) ;
#107 = VECTOR ( 'NONE', #724, 1000.000000000000000 ) ;
#108 = DIRECTION ( 'NONE',  ( 1.137523590804463576E-16, 0.9816271834476665292, -0.1908089953765315649 ) ) ;
#109 = ORIENTED_EDGE ( 'NONE', *, *, #127, .F. ) ;
#110 = DIRECTION ( 'NONE',  ( 1.000000000000000000, -0.000000000000000000, -0.000000000000000000 ) ) ;
#111 = LINE ( 'NONE', #844, #395 ) ;
#112 = VECTOR ( 'NONE', #7, 1000.000000000000227 ) ;
#113 = CARTESIAN_POINT ( 'NONE',  ( 115.0425506354795431, 29.83971903558128247, 33.45094100966824868 ) ) ;
#114 = EDGE_CURVE ( 'NONE', #132, #632, #476, .T. ) ;
#115 = FACE_OUTER_BOUND ( 'NONE', #833, .T. ) ;
#116 = DIRECTION ( 'NONE',  ( 0.000000000000000000, -0.1908089953765322866, -0.9816271834476663072 ) ) ;
#117 = VECTOR ( 'NONE', #505, 1000.000000000000000 ) ;
#118 = EDGE_CURVE ( 'NONE', #508, #250, #325, .T. ) ;
#119 = ADVANCED_BREP_SHAPE_REPRESENTATION ( 'source_geometry', ( #470, #524 ), #332 ) ;
#120 = CARTESIAN_POINT ( 'NONE',  ( 89.79255063547954308, 4.576610165086372639, 35.81480018430651313 ) ) ;
#121 = EDGE_LOOP ( 'NONE', ( #365, #75, #783, #45 ) ) ;
#122 = PLANE ( 'NONE',  #519 ) ;
#123 = ADVANCED_FACE ( 'NONE', ( #789 ), #593, .F. ) ;
#124 = ORIENTED_EDGE ( 'NONE', *, *, #703, .F. ) ;
#125 = ORIENTED_EDGE ( 'NONE', *, *, #296, .T. ) ;
#126 = FACE_OUTER_BOUND ( 'NONE', #312, .T. ) ;
#127 = EDGE_CURVE ( 'NONE', #336, #247, #865, .T. ) ;
#128 = ORGANIZATION ( 'UNSPECIFIED', 'UNSPECIFIED', '' ) ;
#129 = AXIS2_PLACEMENT_3D ( 'NONE', #541, #822, #8 ) ;
#130 = FACE_OUTER_BOUND ( 'NONE', #656, .T. ) ;
#131 = LINE ( 'NONE', #804, #484 ) ;
#132 = VERTEX_POINT ( 'NONE', #259 ) ;
#133 = CARTESIAN_POINT ( 'NONE',  ( 89.79255063547954308, 7.351878189584214240, 37.82213446515265787 ) ) ;
#134 = VECTOR ( 'NONE', #462, 1000.000000000000000 ) ;
#135 = DIRECTION ( 'NONE',  ( 0.000000000000000000, -1.000000000000000000, 0.000000000000000000 ) ) ;
#136 = CARTESIAN_POINT ( 'NONE',  ( -89.51823385683610468, 5.053632653527702523, 38.26886814292567607 ) ) ;
#137 = ORIENTED_EDGE ( 'NONE', *, *, #720, .T. ) ;
#138 = CARTESIAN_POINT ( 'NONE',  ( 95.00000000000000000, 5.000000000000000000, -3.735172737399426436E-14 ) ) ;
#139 = VECTOR ( 'NONE', #490, 1000.000000000000000 ) ;
#140 = PLANE ( 'NONE',  #152 ) ;
#141 = PLANE ( 'NONE',  #23 ) ;
#142 = ORIENTED_EDGE ( 'NONE', *, *, #304, .F. ) ;
#143 = DIRECTION ( 'NONE',  ( 1.000000000000000000, 7.917942019832754995E-17, -1.539092017549510892E-17 ) ) ;
#144 = CC_DESIGN_APPROVAL ( #740, ( #780 ) ) ;
#145 = PLANE ( 'NONE',  #129 ) ;
#146 = DIRECTION ( 'NONE',  ( 5.551115123125795324E-15, 0.1908089953765322866, 0.9816271834476663072 ) ) ;
#147 = ORIENTED_EDGE ( 'NONE', *, *, #44, .F. ) ;
#148 = DIRECTION ( 'NONE',  ( -0.9999407275575979970, 0.000000000000000000, 0.01088767062239373411 ) ) ;
#149 = DIRECTION ( 'NONE',  ( -0.000000000000000000, -0.1908089953765315649, -0.9816271834476665292 ) ) ;
#150 = ADVANCED_FACE ( 'NONE', ( #733 ), #728, .T. ) ;
#151 = LINE ( 'NONE', #64, #774 ) ;
#152 = AXIS2_PLACEMENT_3D ( 'NONE', #681, #814, #205 ) ;
#153 = ORIENTED_EDGE ( 'NONE', *, *, #427, .F. ) ;
#154 = APPROVAL_DATE_TIME ( #21, #100 ) ;
#155 = EDGE_CURVE ( 'NONE', #61, #222, #131, .T. ) ;
#156 = AXIS2_PLACEMENT_3D ( 'NONE', #136, #672, #193 ) ;
#157 = FACE_OUTER_BOUND ( 'NONE', #575, .T. ) ;
#158 = CARTESIAN_POINT ( 'NONE',  ( 93.34732865881748864, 5.009999999999999787, 9.168315206907401205 ) ) ;
#159 = ORIENTED_EDGE ( 'NONE', *, *, #385, .F. ) ;
#160 = DATE_AND_TIME ( #697, #613 ) ;
#161 = ADVANCED_FACE ( 'NONE', ( #662 ), #330, .T. ) ;
#162 = PLANE ( 'NONE',  #79 ) ;
#163 = DIRECTION ( 'NONE',  ( 0.000000000000000000, 0.1908089953765322866, 0.9816271834476663072 ) ) ;
#164 = ORIENTED_EDGE ( 'NONE', *, *, #364, .F. ) ;
#165 = EDGE_CURVE ( 'NONE', #191, #573, #151, .T. ) ;
#166 = FACE_OUTER_BOUND ( 'NONE', #440, .T. ) ;
#167 = AXIS2_PLACEMENT_3D ( 'NONE', #525, #528, #794 ) ;
#168 = PLANE ( 'NONE',  #36 ) ;
#169 = ORIENTED_EDGE ( 'NONE', *, *, #581, .F. ) ;
#170 = DIRECTION ( 'NONE',  ( -0.1396787400997854534, 0.000000000000000000, -0.9901968741437918720 ) ) ;
#171 = VERTEX_POINT ( 'NONE', #60 ) ;
#172 = EDGE_CURVE ( 'NONE', #718, #561, #458, .T. ) ;
#173 = CARTESIAN_POINT ( 'NONE',  ( -89.51823385683610468, 5.053632653527702523, 38.26886814292567607 ) ) ;
#174 = ORIENTED_EDGE ( 'NONE', *, *, #376, .T. ) ;
#175 = CARTESIAN_POINT ( 'NONE',  ( 0.000000000000000000, 0.000000000000000000, 0.000000000000000000 ) ) ;
#176 = CARTESIAN_POINT ( 'NONE',  ( 47.42460317460317754, 8.019709673402061867, 41.25782960721944193 ) ) ;
#177 = EDGE_CURVE ( 'NONE', #396, #673, #538, .T. ) ;
#178 = ORIENTED_EDGE ( 'NONE', *, *, #562, .T. ) ;
#179 = CARTESIAN_POINT ( 'NONE',  ( -93.35427309131999607, 5.000000000000000000, 11.66672637156582226 ) ) ;
#180 = ORIENTED_EDGE ( 'NONE', *, *, #821, .F. ) ;
#181 = AXIS2_PLACEMENT_3D ( 'NONE', #595, #406, #726 ) ;
#182 = ORIENTED_EDGE ( 'NONE', *, *, #114, .F. ) ;
#183 = LINE ( 'NONE', #453, #452 ) ;
#184 = ADVANCED_FACE ( 'NONE', ( #852 ), #141, .T. ) ;
#185 = CARTESIAN_POINT ( 'NONE',  ( 47.42460317460318464, 66.75411389145054386, 23.72871778856507774 ) ) ;
#186 = ORIENTED_EDGE ( 'NONE', *, *, #447, .F. ) ;
#187 = EDGE_CURVE ( 'NONE', #250, #191, #533, .T. ) ;
#188 = ORIENTED_EDGE ( 'NONE', *, *, #209, .F. ) ;
#189 = LINE ( 'NONE', #641, #830 ) ;
#190 = AXIS2_PLACEMENT_3D ( 'NONE', #269, #576, #116 ) ;
#191 = VERTEX_POINT ( 'NONE', #630 ) ;
#192 = LINE ( 'NONE', #81, #444 ) ;
#193 = DIRECTION ( 'NONE',  ( 5.449125503307720872E-15, 0.000000000000000000, 1.000000000000000000 ) ) ;
#194 = EDGE_LOOP ( 'NONE', ( #640, #670, #801, #188, #722 ) ) ;
#195 = FACE_OUTER_BOUND ( 'NONE', #678, .T. ) ;
#196 = DIRECTION ( 'NONE',  ( 0.01088767062239372890, 0.000000000000000000, 0.9999407275575978860 ) ) ;
#197 = LINE ( 'NONE', #408, #618 ) ;
#198 = ORIENTED_EDGE ( 'NONE', *, *, #389, .F. ) ;
#199 = PLANE ( 'NONE',  #181 ) ;
#200 = VECTOR ( 'NONE', #514, 1000.000000000000227 ) ;
#201 = DIRECTION ( 'NONE',  ( 3.061616997868383141E-16, -0.000000000000000000, 1.000000000000000000 ) ) ;
#202 = DIRECTION ( 'NONE',  ( -0.000000000000000000, -1.000000000000000000, -0.000000000000000000 ) ) ;
#203 = ORIENTED_EDGE ( 'NONE', *, *, #177, .F. ) ;
#204 = DIRECTION ( 'NONE',  ( -1.000000000000000000, 1.116624078546661531E-16, -2.170497335785045066E-17 ) ) ;
#205 = DIRECTION ( 'NONE',  ( -1.000000000000000000, 0.000000000000000000, -0.000000000000000000 ) ) ;
#206 = CARTESIAN_POINT ( 'NONE',  ( -58.09929714678818868, 5.000000000000000000, 200.0000000000000284 ) ) ;
#207 = VERTEX_POINT ( 'NONE', #24 ) ;
#208 = CARTESIAN_POINT ( 'NONE',  ( 93.34732865881747443, 5.000000000000000000, 9.168315206907401205 ) ) ;
#209 = EDGE_CURVE ( 'NONE', #396, #709, #350, .T. ) ;
#210 = CARTESIAN_POINT ( 'NONE',  ( -68.00126588822611495, 5.000000000000000000, 191.3967874009978516 ) ) ;
#211 = LINE ( 'NONE', #522, #797 ) ;
#212 = ORIENTED_EDGE ( 'NONE', *, *, #695, .F. ) ;
#213 = PERSON_AND_ORGANIZATION_ROLE ( 'creator' ) ;
#214 = FACE_OUTER_BOUND ( 'NONE', #539, .T. ) ;
#215 = LINE ( 'NONE', #547, #521 ) ;
#216 = VECTOR ( 'NONE', #513, 1000.000000000000000 ) ;
#217 = ORIENTED_EDGE ( 'NONE', *, *, #96, .F. ) ;
#218 = DATE_TIME_ROLE ( 'classification_date' ) ;
#219 = VECTOR ( 'NONE', #417, 1000.000000000000227 ) ;
#220 = CARTESIAN_POINT ( 'NONE',  ( 93.37453214907490917, 5.000000000000000000, 11.66672637156582226 ) ) ;
#221 = DIRECTION ( 'NONE',  ( 0.7071067811865475727, 0.6941152380128960964, -0.1349223345421386167 ) ) ;
#222 = VERTEX_POINT ( 'NONE', #749 ) ;
#223 = DATE_AND_TIME ( #95, #737 ) ;
#224 = CARTESIAN_POINT ( 'NONE',  ( 0.000000000000000000, 5.009999999999999787, 0.000000000000000000 ) ) ;
#225 = DIRECTION ( 'NONE',  ( 1.000000000000000000, 0.000000000000000000, -0.000000000000000000 ) ) ;
#226 = ORIENTED_EDGE ( 'NONE', *, *, #20, .T. ) ;
#227 = CARTESIAN_POINT ( 'NONE',  ( 0.000000000000000000, 0.000000000000000000, 0.000000000000000000 ) ) ;
#228 = PLANE ( 'NONE',  #369 ) ;
#229 = ORIENTED_EDGE ( 'NONE', *, *, #714, .F. ) ;
#230 = VECTOR ( 'NONE', #149, 1000.000000000000000 ) ;
#231 = PERSON_AND_ORGANIZATION ( #588, #128 ) ;
#232 = CARTESIAN_POINT ( 'NONE',  ( -93.44338904000566970, 5.000000000000000000, 9.168315206907401205 ) ) ;
#233 = ORIENTED_EDGE ( 'NONE', *, *, #385, .T. ) ;
#234 = EDGE_CURVE ( 'NONE', #298, #271, #617, .T. ) ;
#235 = LINE ( 'NONE', #651, #17 ) ;
#236 = LINE ( 'NONE', #708, #411 ) ;
#237 = VECTOR ( 'NONE', #78, 1000.000000000000000 ) ;
#238 = CARTESIAN_POINT ( 'NONE',  ( 68.33597266354398414, 5.000000000000000000, 191.3799222305985950 ) ) ;
#239 = ORIENTED_EDGE ( 'NONE', *, *, #187, .F. ) ;
#240 = FACE_BOUND ( 'NONE', #594, .T. ) ;
#241 = ORIENTED_EDGE ( 'NONE', *, *, #62, .F. ) ;
#242 = EDGE_CURVE ( 'NONE', #61, #725, #18, .T. ) ;
#243 = ORIENTED_EDGE ( 'NONE', *, *, #51, .F. ) ;
#244 = DIRECTION ( 'NONE',  ( 1.137523590804463576E-16, 0.9816271834476665292, -0.1908089953765315927 ) ) ;
#245 = LINE ( 'NONE', #715, #439 ) ;
#246 = ORIENTED_EDGE ( 'NONE', *, *, #165, .T. ) ;
#247 = VERTEX_POINT ( 'NONE', #158 ) ;
#248 = CARTESIAN_POINT ( 'NONE',  ( 124.2275950942860163, 5.000000000000000000, 142.7355434558184015 ) ) ;
#249 = LINE ( 'NONE', #717, #502 ) ;
#250 = VERTEX_POINT ( 'NONE', #542 ) ;
#251 = CARTESIAN_POINT ( 'NONE',  ( 93.37453214907489496, 5.009999999999999787, 11.66672637156582226 ) ) ;
#252 = VECTOR ( 'NONE', #292, 1000.000000000000114 ) ;
#253 = VECTOR ( 'NONE', #747, 1000.000000000000000 ) ;
#254 = PLANE ( 'NONE',  #323 ) ;
#255 = CARTESIAN_POINT ( 'NONE',  ( 95.00000000000000000, 5.000000000000000000, -3.735172737399426436E-14 ) ) ;
#256 = AXIS2_PLACEMENT_3D ( 'NONE', #265, #9, #799 ) ;
#257 = CARTESIAN_POINT ( 'NONE',  ( 93.34732865881748864, 5.000000000000000000, 9.168315206907401205 ) ) ;
#258 = CARTESIAN_POINT ( 'NONE',  ( 93.37453214907489496, 5.000000000000000000, 11.66672637156582226 ) ) ;
#259 = CARTESIAN_POINT ( 'NONE',  ( 89.79255063547955729, 4.880124553411517851, 37.37624634966951476 ) ) ;
#260 = ORIENTED_EDGE ( 'NONE', *, *, #859, .F. ) ;
#261 = SECURITY_CLASSIFICATION ( '', '', #90 ) ;
#262 = DIRECTION ( 'NONE',  ( 0.000000000000000000, -0.9816271834476665292, 0.1908089953765315649 ) ) ;
#263 = CC_DESIGN_PERSON_AND_ORGANIZATION_ASSIGNMENT ( #430, #286, ( #308 ) ) ;
#264 = CARTESIAN_POINT ( 'NONE',  ( -95.00000000000000000, 5.000000000000000000, 2.081899558550500674E-14 ) ) ;
#265 = CARTESIAN_POINT ( 'NONE',  ( 0.000000000000000000, 5.000000000000000000, 0.000000000000000000 ) ) ;
#266 = VERTEX_POINT ( 'NONE', #682 ) ;
#267 = PLANE ( 'NONE',  #553 ) ;
#268 = EDGE_CURVE ( 'NONE', #838, #602, #284, .T. ) ;
#269 = CARTESIAN_POINT ( 'NONE',  ( 0.000000000000000000, -2.298245536056528149, 0.4467336777730149255 ) ) ;
#270 = DIRECTION ( 'NONE',  ( 0.7548770562481642576, -0.000000000000000000, 0.6558663201827837907 ) ) ;
#271 = VERTEX_POINT ( 'NONE', #753 ) ;
#272 = FACE_OUTER_BOUND ( 'NONE', #839, .T. ) ;
#273 = FACE_OUTER_BOUND ( 'NONE', #696, .T. ) ;
#274 = DIRECTION ( 'NONE',  ( -0.7548770562481642576, 0.000000000000000000, -0.6558663201827837907 ) ) ;
#275 = ORIENTED_EDGE ( 'NONE', *, *, #702, .T. ) ;
#276 = PERSON_AND_ORGANIZATION_ROLE ( 'classification_officer' ) ;
#277 = VECTOR ( 'NONE', #143, 1000.000000000000000 ) ;
#278 = PLANE ( 'NONE',  #357 ) ;
#279 = EDGE_CURVE ( 'NONE', #561, #266, #550, .T. ) ;
#280 = CARTESIAN_POINT ( 'NONE',  ( 89.79255063547954308, 54.14878292919354408, 26.17894591779167257 ) ) ;
#281 = EDGE_LOOP ( 'NONE', ( #623, #451, #147, #217 ) ) ;
#282 = APPROVAL_ROLE ( '' ) ;
#283 = CARTESIAN_POINT ( 'NONE',  ( 58.43163953922414322, 0.000000000000000000, 200.0000000000000284 ) ) ;
#284 = LINE ( 'NONE', #811, #39 ) ;
#285 = ORIENTED_EDGE ( 'NONE', *, *, #268, .F. ) ;
#286 = PERSON_AND_ORGANIZATION_ROLE ( 'design_owner' ) ;
#287 = LINE ( 'NONE', #412, #746 ) ;
#288 = DIRECTION ( 'NONE',  ( 1.000000000000000000, 0.000000000000000000, -0.000000000000000000 ) ) ;
#289 = ORIENTED_EDGE ( 'NONE', *, *, #731, .F. ) ;
#290 = CARTESIAN_POINT ( 'NONE',  ( 89.70662804902075038, 5.000000000000002665, 37.99295205983258228 ) ) ;
#291 = LOCAL_TIME ( 13, 40, 45.00000000000000000, #485 ) ;
#292 = DIRECTION ( 'NONE',  ( 0.7071067811865473507, 0.6941152380128962074, -0.1349223345421380893 ) ) ;
#293 = ORIENTED_EDGE ( 'NONE', *, *, #234, .T. ) ;
#294 = EDGE_CURVE ( 'NONE', #828, #649, #215, .T. ) ;
#295 = APPROVAL_DATE_TIME ( #32, #767 ) ;
#296 = EDGE_CURVE ( 'NONE', #473, #632, #297, .T. ) ;
#297 = LINE ( 'NONE', #816, #327 ) ;
#298 = VERTEX_POINT ( 'NONE', #280 ) ;
#299 = VECTOR ( 'NONE', #441, 1000.000000000000000 ) ;
#300 = ADVANCED_FACE ( 'NONE', ( #686 ), #625, .T. ) ;
#301 = LINE ( 'NONE', #563, #479 ) ;
#302 = ADVANCED_FACE ( 'NONE', ( #428 ), #88, .T. ) ;
#303 = DIRECTION ( 'NONE',  ( 0.000000000000000000, -0.000000000000000000, 1.000000000000000000 ) ) ;
#304 = EDGE_CURVE ( 'NONE', #361, #602, #487, .T. ) ;
#305 = ORIENTED_EDGE ( 'NONE', *, *, #242, .F. ) ;
#306 = ORIENTED_EDGE ( 'NONE', *, *, #700, .F. ) ;
#307 = FACE_OUTER_BOUND ( 'NONE', #121, .T. ) ;
#308 = PRODUCT ( 'source_geometry', 'source_geometry', '', ( #545 ) ) ;
#309 = AXIS2_PLACEMENT_3D ( 'NONE', #413, #738, #4 ) ;
#310 = ORIENTED_EDGE ( 'NONE', *, *, #296, .F. ) ;
#311 = DIRECTION ( 'NONE',  ( 0.000000000000000000, 0.000000000000000000, -1.000000000000000000 ) ) ;
#312 = EDGE_LOOP ( 'NONE', ( #174, #356, #701, #782, #52, #734 ) ) ;
#313 = ORIENTED_EDGE ( 'NONE', *, *, #714, .T. ) ;
#314 = CARTESIAN_POINT ( 'NONE',  ( -47.57539682539682957, 6.874855701142875475, 35.36806650653350914 ) ) ;
#315 = PLANE ( 'NONE',  #687 ) ;
#316 = LOCAL_TIME ( 13, 40, 45.00000000000000000, #352 ) ;
#317 = ORIENTED_EDGE ( 'NONE', *, *, #209, .T. ) ;
#318 = CARTESIAN_POINT ( 'NONE',  ( -89.51823385683611889, 5.000000000000000888, 35.73250153731024170 ) ) ;
#319 = CARTESIAN_POINT ( 'NONE',  ( 68.33597266354398414, 0.000000000000000000, 191.3799222305985950 ) ) ;
#320 = ORIENTED_EDGE ( 'NONE', *, *, #817, .T. ) ;
#321 = FACE_OUTER_BOUND ( 'NONE', #721, .T. ) ;
#322 = ADVANCED_FACE ( 'NONE', ( #622 ), #168, .F. ) ;
#323 = AXIS2_PLACEMENT_3D ( 'NONE', #732, #201, #723 ) ;
#324 = LINE ( 'NONE', #185, #674 ) ;
#325 = LINE ( 'NONE', #398, #529 ) ;
#326 = CC_DESIGN_PERSON_AND_ORGANIZATION_ASSIGNMENT ( #813, #276, ( #261 ) ) ;
#327 = VECTOR ( 'NONE', #225, 1000.000000000000000 ) ;
#328 = VERTEX_POINT ( 'NONE', #611 ) ;
#329 = LINE ( 'NONE', #527, #629 ) ;
#330 = PLANE ( 'NONE',  #256 ) ;
#331 = ORIENTED_EDGE ( 'NONE', *, *, #720, .F. ) ;
#332 =( GEOMETRIC_REPRESENTATION_CONTEXT ( 3 ) GLOBAL_UNCERTAINTY_ASSIGNED_CONTEXT ( ( #102 ) ) GLOBAL_UNIT_ASSIGNED_CONTEXT ( ( #337, #741, #104 ) ) REPRESENTATION_CONTEXT ( 'NONE', 'WORKASPACE' ) );
#333 = DIRECTION ( 'NONE',  ( 0.000000000000000000, 0.000000000000000000, -1.000000000000000000 ) ) ;
#334 = DIRECTION ( 'NONE',  ( 1.000000000000000000, 0.000000000000000000, 0.000000000000000000 ) ) ;
#335 = DIRECTION ( 'NONE',  ( 1.000000000000000000, -0.000000000000000000, -0.000000000000000000 ) ) ;
#336 = VERTEX_POINT ( 'NONE', #359 ) ;
#337 =( LENGTH_UNIT ( ) NAMED_UNIT ( * ) SI_UNIT ( .MILLI., .METRE. ) );
#338 = VECTOR ( 'NONE', #644, 1000.000000000000000 ) ;
#339 = FACE_OUTER_BOUND ( 'NONE', #504, .T. ) ;
#340 = CARTESIAN_POINT ( 'NONE',  ( -25.11284161067828080, 117.8478892070729103, 16.34388568509001161 ) ) ;
#341 = ORIENTED_EDGE ( 'NONE', *, *, #55, .F. ) ;
#342 = EDGE_CURVE ( 'NONE', #171, #80, #28, .T. ) ;
#343 = CARTESIAN_POINT ( 'NONE',  ( 89.79255063547954308, 5.000000000000000000, 35.73250153731024170 ) ) ;
#344 = LINE ( 'NONE', #609, #675 ) ;
#345 = DIRECTION ( 'NONE',  ( 0.000000000000000000, -0.000000000000000000, 1.000000000000000000 ) ) ;
#346 = ORIENTED_EDGE ( 'NONE', *, *, #242, .T. ) ;
#347 = PERSON_AND_ORGANIZATION ( #588, #128 ) ;
#348 = APPLICATION_CONTEXT ( 'configuration controlled 3d designs of mechanical parts and assemblies' ) ;
#349 = LINE ( 'NONE', #12, #818 ) ;
#350 = LINE ( 'NONE', #677, #67 ) ;
#351 = ORIENTED_EDGE ( 'NONE', *, *, #268, .T. ) ;
#352 = COORDINATED_UNIVERSAL_TIME_OFFSET ( 5, 0, .BEHIND. ) ;
#353 = ADVANCED_FACE ( 'NONE', ( #555 ), #228, .F. ) ;
#354 = CARTESIAN_POINT ( 'NONE',  ( -47.57539682539682246, 66.75411389145054386, 23.72871778856507774 ) ) ;
#355 = DIRECTION ( 'NONE',  ( 0.1379922230598587540, 0.000000000000000000, -0.9904333124319870674 ) ) ;
#356 = ORIENTED_EDGE ( 'NONE', *, *, #342, .T. ) ;
#357 = AXIS2_PLACEMENT_3D ( 'NONE', #671, #77, #537 ) ;
#358 = DIRECTION ( 'NONE',  ( -0.000000000000000000, -0.1908089953765315649, -0.9816271834476665292 ) ) ;
#359 = CARTESIAN_POINT ( 'NONE',  ( -93.44338904000566970, 5.009999999999999787, 9.168315206907401205 ) ) ;
#360 = EDGE_CURVE ( 'NONE', #805, #336, #432, .T. ) ;
#361 = VERTEX_POINT ( 'NONE', #101 ) ;
#362 = CC_DESIGN_SECURITY_CLASSIFICATION ( #261, ( #780 ) ) ;
#363 = CARTESIAN_POINT ( 'NONE',  ( 89.79255063547954308, 5.053632653527702523, 38.26886814292567607 ) ) ;
#364 = EDGE_CURVE ( 'NONE', #222, #271, #497, .T. ) ;
#365 = ORIENTED_EDGE ( 'NONE', *, *, #704, .T. ) ;
#366 = DIRECTION ( 'NONE',  ( 1.000000000000000000, 0.000000000000000000, 0.000000000000000000 ) ) ;
#367 = CC_DESIGN_DATE_AND_TIME_ASSIGNMENT ( #223, #218, ( #261 ) ) ;
#368 = EDGE_LOOP ( 'NONE', ( #241, #125, #182, #243, #861 ) ) ;
#369 = AXIS2_PLACEMENT_3D ( 'NONE', #494, #760, #170 ) ;
#370 = AXIS2_PLACEMENT_3D ( 'NONE', #176, #510, #713 ) ;
#371 = EDGE_CURVE ( 'NONE', #649, #473, #301, .T. ) ;
#372 = VECTOR ( 'NONE', #355, 1000.000000000000227 ) ;
#373 = EDGE_LOOP ( 'NONE', ( #567, #124, #530, #198 ) ) ;
#374 = VERTEX_POINT ( 'NONE', #834 ) ;
#375 = CARTESIAN_POINT ( 'NONE',  ( 68.33597266354398414, 0.000000000000000000, 191.3799222305985950 ) ) ;
#376 = EDGE_CURVE ( 'NONE', #649, #171, #435, .T. ) ;
#377 = LOCAL_TIME ( 13, 40, 45.00000000000000000, #557 ) ;
#378 = ORIENTED_EDGE ( 'NONE', *, *, #859, .T. ) ;
#379 = VERTEX_POINT ( 'NONE', #635 ) ;
#380 = LINE ( 'NONE', #251, #338 ) ;
#381 = DIRECTION ( 'NONE',  ( 1.116624078546661531E-16, 1.000000000000000000, 0.000000000000000000 ) ) ;
#382 = EDGE_LOOP ( 'NONE', ( #643, #203, #777, #551 ) ) ;
#383 = CARTESIAN_POINT ( 'NONE',  ( -95.00000000000000000, 0.000000000000000000, 2.081899558550500674E-14 ) ) ;
#384 = PLANE ( 'NONE',  #572 ) ;
#385 = EDGE_CURVE ( 'NONE', #31, #718, #769, .T. ) ;
#386 = ORIENTED_EDGE ( 'NONE', *, *, #731, .T. ) ;
#387 = PLANE ( 'NONE',  #370 ) ;
#388 = ORIENTED_EDGE ( 'NONE', *, *, #427, .T. ) ;
#389 = EDGE_CURVE ( 'NONE', #754, #298, #448, .T. ) ;
#390 = ORIENTED_EDGE ( 'NONE', *, *, #461, .T. ) ;
#391 = CARTESIAN_POINT ( 'NONE',  ( 67.13497944227624714, 5.000000000000000000, 200.0000000000000284 ) ) ;
#392 = EDGE_CURVE ( 'NONE', #759, #612, #596, .T. ) ;
#393 = CARTESIAN_POINT ( 'NONE',  ( 0.000000000000000000, 76.72274273148062207, -14.91339045003777741 ) ) ;
#394 = CARTESIAN_POINT ( 'NONE',  ( -89.51823385683610468, 5.053632653527702523, 38.26886814292567607 ) ) ;
#395 = VECTOR ( 'NONE', #770, 1000.000000000000114 ) ;
#396 = VERTEX_POINT ( 'NONE', #264 ) ;
#397 = DIRECTION ( 'NONE',  ( 0.000000000000000000, -1.000000000000000000, 0.000000000000000000 ) ) ;
#398 = CARTESIAN_POINT ( 'NONE',  ( -124.0117176746999519, 5.000000000000000000, 142.7327452223292994 ) ) ;
#399 = VECTOR ( 'NONE', #202, 1000.000000000000000 ) ;
#400 = VERTEX_POINT ( 'NONE', #798 ) ;
#401 = DIRECTION ( 'NONE',  ( -1.000000000000000000, 0.000000000000000000, 3.061616997868383141E-16 ) ) ;
#402 = CARTESIAN_POINT ( 'NONE',  ( -93.44338904000566970, 5.000000000000000000, 9.168315206907401205 ) ) ;
#403 = CARTESIAN_POINT ( 'NONE',  ( 47.42460317460318464, 67.89896786370971427, 29.61848088925101408 ) ) ;
#404 = EDGE_LOOP ( 'NONE', ( #180, #436, #607, #534, #10, #659, #433, #386, #310, #627, #418 ) ) ;
#405 = VECTOR ( 'NONE', #11, 1000.000000000000000 ) ;
#406 = DIRECTION ( 'NONE',  ( 0.000000000000000000, -0.1908089953765315649, -0.9816271834476665292 ) ) ;
#407 = CARTESIAN_POINT ( 'NONE',  ( 47.42460317460317754, 6.874855701142883468, 35.36806650653350914 ) ) ;
#408 = CARTESIAN_POINT ( 'NONE',  ( -93.35427309131999607, 5.000000000000000000, 11.66672637156582226 ) ) ;
#409 = ORIENTED_EDGE ( 'NONE', *, *, #711, .T. ) ;
#410 = DIRECTION ( 'NONE',  ( -0.6565088639691565309, -0.000000000000000000, -0.7543183091572998045 ) ) ;
#411 = VECTOR ( 'NONE', #426, 1000.000000000000000 ) ;
#412 = CARTESIAN_POINT ( 'NONE',  ( -47.57539682539682957, 8.019709673402052985, 41.25782960721944193 ) ) ;
#413 = CARTESIAN_POINT ( 'NONE',  ( -59.51823385683631784, 76.72274273148069312, -14.91339045003745412 ) ) ;
#414 = ORIENTED_EDGE ( 'NONE', *, *, #127, .T. ) ;
#415 = SHAPE_DEFINITION_REPRESENTATION ( #421, #119 ) ;
#416 = CARTESIAN_POINT ( 'NONE',  ( -93.35427309131999607, 5.000000000000000000, 11.66672637156582226 ) ) ;
#417 = DIRECTION ( 'NONE',  ( 0.000000000000000000, 0.1908089953765323143, 0.9816271834476663072 ) ) ;
#418 = ORIENTED_EDGE ( 'NONE', *, *, #294, .F. ) ;
#419 = PERSON_AND_ORGANIZATION_ROLE ( 'design_supplier' ) ;
#420 = CARTESIAN_POINT ( 'NONE',  ( 47.42460317460319175, 6.874855701142883468, 35.36806650653350914 ) ) ;
#421 = PRODUCT_DEFINITION_SHAPE ( 'NONE', 'NONE',  #792 ) ;
#422 = CARTESIAN_POINT ( 'NONE',  ( 67.13497944227624714, 5.000000000000000000, 200.0000000000000284 ) ) ;
#423 = ORIENTED_EDGE ( 'NONE', *, *, #371, .T. ) ;
#424 = COORDINATED_UNIVERSAL_TIME_OFFSET ( 5, 0, .BEHIND. ) ;
#425 = VECTOR ( 'NONE', #658, 1000.000000000000114 ) ;
#426 = DIRECTION ( 'NONE',  ( 0.000000000000000000, -1.000000000000000000, 0.000000000000000000 ) ) ;
#427 = EDGE_CURVE ( 'NONE', #759, #778, #245, .T. ) ;
#428 = FACE_OUTER_BOUND ( 'NONE', #373, .T. ) ;
#429 = ORIENTED_EDGE ( 'NONE', *, *, #661, .F. ) ;
#430 = PERSON_AND_ORGANIZATION ( #588, #128 ) ;
#431 = ADVANCED_FACE ( 'NONE', ( #849 ), #254, .F. ) ;
#432 = LINE ( 'NONE', #560, #558 ) ;
#433 = ORIENTED_EDGE ( 'NONE', *, *, #695, .T. ) ;
#434 = APPROVAL_STATUS ( 'not_yet_approved' ) ;
#435 = LINE ( 'NONE', #699, #589 ) ;
#436 = ORIENTED_EDGE ( 'NONE', *, *, #304, .T. ) ;
#437 = ADVANCED_FACE ( 'NONE', ( #130 ), #781, .F. ) ;
#438 = FACE_OUTER_BOUND ( 'NONE', #281, .T. ) ;
#439 = VECTOR ( 'NONE', #457, 1000.000000000000114 ) ;
#440 = EDGE_LOOP ( 'NONE', ( #825, #137, #178, #70 ) ) ;
#441 = DIRECTION ( 'NONE',  ( 1.000000000000000000, 0.000000000000000000, 0.000000000000000000 ) ) ;
#442 = ORIENTED_EDGE ( 'NONE', *, *, #821, .T. ) ;
#443 = DIRECTION ( 'NONE',  ( 0.000000000000000000, 1.000000000000000000, 0.000000000000000000 ) ) ;
#444 = VECTOR ( 'NONE', #333, 1000.000000000000000 ) ;
#445 = ORIENTED_EDGE ( 'NONE', *, *, #376, .F. ) ;
#446 = DIRECTION ( 'NONE',  ( -1.000000000000000000, 0.000000000000000000, -0.000000000000000000 ) ) ;
#447 = EDGE_CURVE ( 'NONE', #819, #612, #324, .T. ) ;
#448 = LINE ( 'NONE', #647, #450 ) ;
#449 = CARTESIAN_POINT ( 'NONE',  ( 47.42460317460318464, 67.89896786370971427, 29.61848088925101408 ) ) ;
#450 = VECTOR ( 'NONE', #68, 999.9999999999998863 ) ;
#451 = ORIENTED_EDGE ( 'NONE', *, *, #342, .F. ) ;
#452 = VECTOR ( 'NONE', #47, 1000.000000000000227 ) ;
#453 = CARTESIAN_POINT ( 'NONE',  ( 67.13497944227624714, 5.000000000000000000, 200.0000000000000284 ) ) ;
#454 = FACE_OUTER_BOUND ( 'NONE', #84, .T. ) ;
#455 = ORIENTED_EDGE ( 'NONE', *, *, #44, .T. ) ;
#456 = CARTESIAN_POINT ( 'NONE',  ( -47.57539682539682957, 8.019709673402052985, 41.25782960721944193 ) ) ;
#457 = DIRECTION ( 'NONE',  ( -1.137523590804463576E-16, -0.9816271834476665292, 0.1908089953765315649 ) ) ;
#458 = LINE ( 'NONE', #319, #107 ) ;
#459 = ORIENTED_EDGE ( 'NONE', *, *, #96, .T. ) ;
#460 = FACE_BOUND ( 'NONE', #89, .T. ) ;
#461 = EDGE_CURVE ( 'NONE', #247, #207, #592, .T. ) ;
#462 = DIRECTION ( 'NONE',  ( -0.000000000000000000, -1.000000000000000000, -0.000000000000000000 ) ) ;
#463 = EDGE_CURVE ( 'NONE', #602, #709, #793, .T. ) ;
#464 = ORIENTED_EDGE ( 'NONE', *, *, #87, .F. ) ;
#465 = LINE ( 'NONE', #391, #112 ) ;
#466 = DIRECTION ( 'NONE',  ( -1.000000000000000000, 0.000000000000000000, 0.000000000000000000 ) ) ;
#467 = CARTESIAN_POINT ( 'NONE',  ( -59.51823385683611889, 83.59759843262351353, 20.45467605649572107 ) ) ;
#468 = ORIENTED_EDGE ( 'NONE', *, *, #279, .T. ) ;
#469 = DIRECTION ( 'NONE',  ( 1.000000000000000000, 0.000000000000000000, -0.000000000000000000 ) ) ;
#470 = MANIFOLD_SOLID_BREP ( 'Cut-Extrude2', #758 ) ;
#471 = CARTESIAN_POINT ( 'NONE',  ( -59.51823385683611889, 84.07462092106484874, 22.90874401511488401 ) ) ;
#472 = DIRECTION ( 'NONE',  ( 0.000000000000000000, -1.000000000000000000, 0.000000000000000000 ) ) ;
#473 = VERTEX_POINT ( 'NONE', #736 ) ;
#474 = VECTOR ( 'NONE', #796, 1000.000000000000114 ) ;
#475 = LINE ( 'NONE', #407, #48 ) ;
#476 = LINE ( 'NONE', #597, #237 ) ;
#477 = ORIENTED_EDGE ( 'NONE', *, *, #511, .T. ) ;
#478 = COORDINATED_UNIVERSAL_TIME_OFFSET ( 5, 0, .BEHIND. ) ;
#479 = VECTOR ( 'NONE', #499, 1000.000000000000000 ) ;
#480 = VECTOR ( 'NONE', #784, 1000.000000000000227 ) ;
#481 = DIRECTION ( 'NONE',  ( 0.1379922230598587540, 0.000000000000000000, -0.9904333124319870674 ) ) ;
#482 = CARTESIAN_POINT ( 'NONE',  ( 59.79255063547954308, 76.72274273148062207, -14.91339045003777741 ) ) ;
#483 = EDGE_LOOP ( 'NONE', ( #765, #186, #706, #548 ) ) ;
#484 = VECTOR ( 'NONE', #335, 1000.000000000000000 ) ;
#485 = COORDINATED_UNIVERSAL_TIME_OFFSET ( 5, 0, .BEHIND. ) ;
#486 = DIRECTION ( 'NONE',  ( -1.000000000000000000, -8.217111201995402610E-17, 0.000000000000000000 ) ) ;
#487 = LINE ( 'NONE', #422, #372 ) ;
#488 = ORIENTED_EDGE ( 'NONE', *, *, #661, .T. ) ;
#489 = ADVANCED_FACE ( 'NONE', ( #600 ), #278, .F. ) ;
#490 = DIRECTION ( 'NONE',  ( -1.000000000000000000, -0.000000000000000000, -0.000000000000000000 ) ) ;
#491 = DIRECTION ( 'NONE',  ( 0.01088767062239372890, 0.000000000000000000, 0.9999407275575978860 ) ) ;
#492 = ORIENTED_EDGE ( 'NONE', *, *, #711, .F. ) ;
#493 = VECTOR ( 'NONE', #244, 1000.000000000000000 ) ;
#494 = CARTESIAN_POINT ( 'NONE',  ( -95.00000000000000000, 5.000000000000000000, 2.081899558550500674E-14 ) ) ;
#495 = ORIENTED_EDGE ( 'NONE', *, *, #835, .T. ) ;
#496 = DATE_AND_TIME ( #15, #377 ) ;
#497 = LINE ( 'NONE', #363, #850 ) ;
#498 = ORIENTED_EDGE ( 'NONE', *, *, #703, .T. ) ;
#499 = DIRECTION ( 'NONE',  ( 5.449125503307720872E-15, -0.000000000000000000, 1.000000000000000000 ) ) ;
#500 = ORIENTED_EDGE ( 'NONE', *, *, #680, .T. ) ;
#501 = LINE ( 'NONE', #248, #37 ) ;
#502 = VECTOR ( 'NONE', #108, 1000.000000000000114 ) ;
#503 = EDGE_LOOP ( 'NONE', ( #414, #169, #34, #320 ) ) ;
#504 = EDGE_LOOP ( 'NONE', ( #99, #109, #509, #842 ) ) ;
#505 = DIRECTION ( 'NONE',  ( 1.000000000000000000, 0.000000000000000000, 0.000000000000000000 ) ) ;
#506 = ADVANCED_FACE ( 'NONE', ( #339 ), #532, .T. ) ;
#507 = VECTOR ( 'NONE', #98, 1000.000000000000114 ) ;
#508 = VERTEX_POINT ( 'NONE', #210 ) ;
#509 = ORIENTED_EDGE ( 'NONE', *, *, #360, .F. ) ;
#510 = DIRECTION ( 'NONE',  ( 8.066139725291018486E-17, -0.9816271834476665292, 0.1908089953765315649 ) ) ;
#511 = EDGE_CURVE ( 'NONE', #754, #80, #22, .T. ) ;
#512 = VECTOR ( 'NONE', #469, 1000.000000000000000 ) ;
#513 = DIRECTION ( 'NONE',  ( -0.000000000000000000, -0.1908089953765315649, -0.9816271834476665292 ) ) ;
#514 = DIRECTION ( 'NONE',  ( -5.551115123125796113E-15, -0.1908089953765323143, -0.9816271834476663072 ) ) ;
#515 = LINE ( 'NONE', #580, #117 ) ;
#516 = ADVANCED_FACE ( 'NONE', ( #214 ), #145, .T. ) ;
#517 = DIRECTION ( 'NONE',  ( 1.000000000000000000, -1.116624078546661531E-16, 2.170497335785045374E-17 ) ) ;
#518 = CC_DESIGN_PERSON_AND_ORGANIZATION_ASSIGNMENT ( #689, #419, ( #780 ) ) ;
#519 = AXIS2_PLACEMENT_3D ( 'NONE', #840, #311, #446 ) ;
#520 = CARTESIAN_POINT ( 'NONE',  ( 89.79255063547954308, 5.053632653527702523, 38.26886814292567607 ) ) ;
#521 = VECTOR ( 'NONE', #93, 1000.000000000000000 ) ;
#522 = CARTESIAN_POINT ( 'NONE',  ( -89.51823385683610468, 5.053632653527702523, 38.26886814292567607 ) ) ;
#523 = CARTESIAN_POINT ( 'NONE',  ( 68.33597266354398414, 5.000000000000000000, 191.3799222305985950 ) ) ;
#524 = AXIS2_PLACEMENT_3D ( 'NONE', #227, #679, #366 ) ;
#525 = CARTESIAN_POINT ( 'NONE',  ( 67.13497944227624714, 5.000000000000000000, 200.0000000000000284 ) ) ;
#526 = ORIENTED_EDGE ( 'NONE', *, *, #652, .F. ) ;
#527 = CARTESIAN_POINT ( 'NONE',  ( -95.00000000000000000, 0.000000000000000000, 2.081899558550500674E-14 ) ) ;
#528 = DIRECTION ( 'NONE',  ( -0.9904333124319871784, 0.000000000000000000, -0.1379922230598587818 ) ) ;
#529 = VECTOR ( 'NONE', #270, 1000.000000000000114 ) ;
#530 = ORIENTED_EDGE ( 'NONE', *, *, #234, .F. ) ;
#531 = DIRECTION ( 'NONE',  ( 0.01088767062239373237, 0.000000000000000000, 0.9999407275575978860 ) ) ;
#532 = PLANE ( 'NONE',  #25 ) ;
#533 = LINE ( 'NONE', #206, #591 ) ;
#534 = ORIENTED_EDGE ( 'NONE', *, *, #646, .T. ) ;
#535 = LINE ( 'NONE', #133, #277 ) ;
#536 = EDGE_CURVE ( 'NONE', #718, #328, #349, .T. ) ;
#537 = DIRECTION ( 'NONE',  ( 0.000000000000000000, 1.000000000000000000, 0.000000000000000000 ) ) ;
#538 = LINE ( 'NONE', #808, #399 ) ;
#539 = EDGE_LOOP ( 'NONE', ( #790, #293, #164, #19, #229, #442 ) ) ;
#540 = APPROVAL_PERSON_ORGANIZATION ( #820, #740, #755 ) ;
#541 = CARTESIAN_POINT ( 'NONE',  ( 89.79255063547954308, 4.576610165086372639, 35.81480018430651313 ) ) ;
#542 = CARTESIAN_POINT ( 'NONE',  ( -58.09929714678819579, 5.000000000000000000, 200.0000000000000284 ) ) ;
#543 = ORIENTED_EDGE ( 'NONE', *, *, #62, .T. ) ;
#544 = CC_DESIGN_PERSON_AND_ORGANIZATION_ASSIGNMENT ( #231, #751, ( #792 ) ) ;
#545 = MECHANICAL_CONTEXT ( 'NONE', #565, 'mechanical' ) ;
#546 = DIRECTION ( 'NONE',  ( -0.03564637947426896325, 0.000000000000000000, -0.9993644658633689115 ) ) ;
#547 = CARTESIAN_POINT ( 'NONE',  ( 0.000000000000000000, 5.000000000000000000, 35.73250153731023460 ) ) ;
#548 = ORIENTED_EDGE ( 'NONE', *, *, #835, .F. ) ;
#549 = LINE ( 'NONE', #685, #604 ) ;
#550 = LINE ( 'NONE', #757, #748 ) ;
#551 = ORIENTED_EDGE ( 'NONE', *, *, #87, .T. ) ;
#552 = APPROVAL_DATE_TIME ( #160, #740 ) ;
#553 = AXIS2_PLACEMENT_3D ( 'NONE', #456, #204, #735 ) ;
#554 = CARTESIAN_POINT ( 'NONE',  ( 47.42460317460318464, 66.75411389145054386, 23.72871778856507774 ) ) ;
#555 = FACE_OUTER_BOUND ( 'NONE', #194, .T. ) ;
#556 = ORIENTED_EDGE ( 'NONE', *, *, #92, .F. ) ;
#557 = COORDINATED_UNIVERSAL_TIME_OFFSET ( 5, 0, .BEHIND. ) ;
#558 = VECTOR ( 'NONE', #831, 999.9999999999998863 ) ;
#559 = VECTOR ( 'NONE', #110, 1000.000000000000000 ) ;
#560 = CARTESIAN_POINT ( 'NONE',  ( -93.35427309131999607, 5.009999999999999787, 11.66672637156582226 ) ) ;
#561 = VERTEX_POINT ( 'NONE', #283 ) ;
#562 = EDGE_CURVE ( 'NONE', #577, #664, #475, .T. ) ;
#563 = CARTESIAN_POINT ( 'NONE',  ( -89.51823385683631784, 5.000000000000000000, 4.877960911203515023E-13 ) ) ;
#564 = ORIENTED_EDGE ( 'NONE', *, *, #817, .F. ) ;
#565 = APPLICATION_CONTEXT ( 'configuration controlled 3d designs of mechanical parts and assemblies' ) ;
#566 = EDGE_CURVE ( 'NONE', #602, #207, #676, .T. ) ;
#567 = ORIENTED_EDGE ( 'NONE', *, *, #854, .F. ) ;
#568 = ADVANCED_FACE ( 'NONE', ( #273 ), #162, .F. ) ;
#569 = CC_DESIGN_DATE_AND_TIME_ASSIGNMENT ( #496, #762, ( #792 ) ) ;
#570 = EDGE_LOOP ( 'NONE', ( #390, #729, #285, #750 ) ) ;
#571 = CARTESIAN_POINT ( 'NONE',  ( 89.79255063547954308, 84.07462092106484874, 22.90874401511488401 ) ) ;
#572 = AXIS2_PLACEMENT_3D ( 'NONE', #449, #517, #381 ) ;
#573 = VERTEX_POINT ( 'NONE', #807 ) ;
#574 = EDGE_CURVE ( 'NONE', #400, #819, #615, .T. ) ;
#575 = EDGE_LOOP ( 'NONE', ( #306, #636, #409, #468 ) ) ;
#576 = DIRECTION ( 'NONE',  ( 0.000000000000000000, -0.9816271834476664182, 0.1908089953765323143 ) ) ;
#577 = VERTEX_POINT ( 'NONE', #420 ) ;
#578 = EDGE_CURVE ( 'NONE', #778, #664, #287, .T. ) ;
#579 = ORIENTED_EDGE ( 'NONE', *, *, #536, .T. ) ;
#580 = CARTESIAN_POINT ( 'NONE',  ( -66.78768308664606934, 5.000000000000000000, 200.0000000000000284 ) ) ;
#581 = EDGE_CURVE ( 'NONE', #838, #247, #344, .T. ) ;
#582 = DIRECTION ( 'NONE',  ( 0.000000000000000000, 1.000000000000000000, 0.000000000000000000 ) ) ;
#583 = ORIENTED_EDGE ( 'NONE', *, *, #536, .F. ) ;
#584 = DIRECTION ( 'NONE',  ( 0.7543183091572996934, -0.000000000000000000, -0.6565088639691564198 ) ) ;
#585 = ADVANCED_FACE ( 'NONE', ( #157 ), #140, .F. ) ;
#586 = CARTESIAN_POINT ( 'NONE',  ( -47.57539682539682246, 67.89896786370971427, 29.61848088925101408 ) ) ;
#587 = LINE ( 'NONE', #340, #425 ) ;
#588 = PERSON ( 'UNSPECIFIED', 'UNSPECIFIED', 'UNSPECIFIED', ('UNSPECIFIED'), ('UNSPECIFIED'), ('UNSPECIFIED') ) ;
#589 = VECTOR ( 'NONE', #105, 1000.000000000000114 ) ;
#590 = CARTESIAN_POINT ( 'NONE',  ( -47.57539682539681536, 7.351878189584202694, 37.82213446515265787 ) ) ;
#591 = VECTOR ( 'NONE', #472, 1000.000000000000000 ) ;
#592 = LINE ( 'NONE', #857, #785 ) ;
#593 = PLANE ( 'NONE',  #167 ) ;
#594 = EDGE_LOOP ( 'NONE', ( #65, #683, #429, #809 ) ) ;
#595 = CARTESIAN_POINT ( 'NONE',  ( -89.51823385683611889, 4.576610165086372639, 35.81480018430651313 ) ) ;
#596 = LINE ( 'NONE', #586, #216 ) ;
#597 = CARTESIAN_POINT ( 'NONE',  ( 67.94168052439250971, 35.36550588174961973, 194.2099372907682664 ) ) ;
#598 = ORIENTED_EDGE ( 'NONE', *, *, #20, .F. ) ;
#599 = DIRECTION ( 'NONE',  ( 0.000000000000000000, 0.1908089953765315649, 0.9816271834476665292 ) ) ;
#600 = FACE_OUTER_BOUND ( 'NONE', #40, .T. ) ;
#601 = DIRECTION ( 'NONE',  ( 0.000000000000000000, -0.1908089953765315649, -0.9816271834476665292 ) ) ;
#602 = VERTEX_POINT ( 'NONE', #220 ) ;
#603 = CARTESIAN_POINT ( 'NONE',  ( 47.42460317460318464, 66.75411389145054386, 23.72871778856507774 ) ) ;
#604 = VECTOR ( 'NONE', #91, 1000.000000000000114 ) ;
#605 = DIRECTION ( 'NONE',  ( 0.000000000000000000, 0.000000000000000000, 1.000000000000000000 ) ) ;
#606 = DIRECTION ( 'NONE',  ( -0.03564637947426897019, 0.000000000000000000, -0.9993644658633689115 ) ) ;
#607 = ORIENTED_EDGE ( 'NONE', *, *, #463, .T. ) ;
#608 = CARTESIAN_POINT ( 'NONE',  ( -93.35427309131999607, 5.009999999999999787, 11.66672637156582226 ) ) ;
#609 = CARTESIAN_POINT ( 'NONE',  ( 93.34732865881747443, 5.000000000000000000, 9.168315206907401205 ) ) ;
#610 = EDGE_CURVE ( 'NONE', #80, #619, #549, .T. ) ;
#611 = CARTESIAN_POINT ( 'NONE',  ( 95.00000000000000000, 0.000000000000000000, -3.735172737399426436E-14 ) ) ;
#612 = VERTEX_POINT ( 'NONE', #354 ) ;
#613 = LOCAL_TIME ( 13, 40, 45.00000000000000000, #424 ) ;
#614 = APPROVAL_ROLE ( '' ) ;
#615 = LINE ( 'NONE', #742, #230 ) ;
#616 = EDGE_CURVE ( 'NONE', #374, #838, #73, .T. ) ;
#617 = LINE ( 'NONE', #83, #219 ) ;
#618 = VECTOR ( 'NONE', #606, 999.9999999999998863 ) ;
#619 = VERTEX_POINT ( 'NONE', #471 ) ;
#620 = CALENDAR_DATE ( 2026, 25, 7 ) ;
#621 = DIRECTION ( 'NONE',  ( 0.000000000000000000, 1.000000000000000000, -0.000000000000000000 ) ) ;
#622 = FACE_OUTER_BOUND ( 'NONE', #503, .T. ) ;
#623 = ORIENTED_EDGE ( 'NONE', *, *, #610, .F. ) ;
#624 = CARTESIAN_POINT ( 'NONE',  ( -89.51823385683610468, 54.62580541763487219, 28.63301387641083195 ) ) ;
#625 = PLANE ( 'NONE',  #856 ) ;
#626 = ADVANCED_FACE ( 'NONE', ( #803 ), #3, .T. ) ;
#627 = ORIENTED_EDGE ( 'NONE', *, *, #371, .F. ) ;
#628 = CALENDAR_DATE ( 2026, 25, 7 ) ;
#629 = VECTOR ( 'NONE', #2, 1000.000000000000114 ) ;
#630 = CARTESIAN_POINT ( 'NONE',  ( -58.09929714678819579, 0.000000000000000000, 200.0000000000000284 ) ) ;
#631 = DESIGN_CONTEXT ( 'detailed design', #348, 'design' ) ;
#632 = VERTEX_POINT ( 'NONE', #290 ) ;
#633 = PERSON_AND_ORGANIZATION ( #588, #128 ) ;
#634 = VECTOR ( 'NONE', #847, 999.9999999999998863 ) ;
#635 = CARTESIAN_POINT ( 'NONE',  ( 95.00000000000000000, 5.000000000000000000, -3.735172737399426436E-14 ) ) ;
#636 = ORIENTED_EDGE ( 'NONE', *, *, #187, .T. ) ;
#637 = AXIS2_PLACEMENT_3D ( 'NONE', #482, #221, #163 ) ;
#638 = PRODUCT_RELATED_PRODUCT_CATEGORY ( 'detail', '', ( #308 ) ) ;
#639 = ORIENTED_EDGE ( 'NONE', *, *, #279, .F. ) ;
#640 = ORIENTED_EDGE ( 'NONE', *, *, #853, .T. ) ;
#641 = CARTESIAN_POINT ( 'NONE',  ( -68.00126588822611495, 5.000000000000000000, 191.3967874009979369 ) ) ;
#642 = LINE ( 'NONE', #120, #645 ) ;
#643 = ORIENTED_EDGE ( 'NONE', *, *, #55, .T. ) ;
#644 = DIRECTION ( 'NONE',  ( -1.000000000000000000, 0.000000000000000000, 0.000000000000000000 ) ) ;
#645 = VECTOR ( 'NONE', #655, 1000.000000000000114 ) ;
#646 = EDGE_CURVE ( 'NONE', #709, #508, #53, .T. ) ;
#647 = CARTESIAN_POINT ( 'NONE',  ( 25.38715838932171920, 117.3708667186316319, 13.88981772647083623 ) ) ;
#648 = LINE ( 'NONE', #50, #200 ) ;
#649 = VERTEX_POINT ( 'NONE', #318 ) ;
#650 = LINE ( 'NONE', #113, #634 ) ;
#651 = CARTESIAN_POINT ( 'NONE',  ( 95.00000000000000000, 0.000000000000000000, -3.735172737399426436E-14 ) ) ;
#652 = EDGE_CURVE ( 'NONE', #619, #795, #756, .T. ) ;
#653 = DIRECTION ( 'NONE',  ( 0.000000000000000000, 1.000000000000000000, 0.000000000000000000 ) ) ;
#654 = APPROVAL_PERSON_ORGANIZATION ( #745, #100, #282 ) ;
#655 = DIRECTION ( 'NONE',  ( -0.000000000000000000, -0.1908089953765322866, -0.9816271834476663072 ) ) ;
#656 = EDGE_LOOP ( 'NONE', ( #477, #761, #692, #6 ) ) ;
#657 = DIRECTION ( 'NONE',  ( 0.000000000000000000, -0.9816271834476664182, 0.1908089953765323143 ) ) ;
#658 = DIRECTION ( 'NONE',  ( -0.7071067811865473507, -0.6941152380128962074, 0.1349223345421380893 ) ) ;
#659 = ORIENTED_EDGE ( 'NONE', *, *, #700, .T. ) ;
#660 = PLANE ( 'NONE',  #768 ) ;
#661 = EDGE_CURVE ( 'NONE', #664, #612, #843, .T. ) ;
#662 = FACE_OUTER_BOUND ( 'NONE', #404, .T. ) ;
#663 = CC_DESIGN_PERSON_AND_ORGANIZATION_ASSIGNMENT ( #633, #213, ( #780 ) ) ;
#664 = VERTEX_POINT ( 'NONE', #314 ) ;
#665 = CARTESIAN_POINT ( 'NONE',  ( 59.79255063547954308, 84.07462092106484874, 22.90874401511488401 ) ) ;
#666 = DIRECTION ( 'NONE',  ( 0.9993644658633689115, 0.000000000000000000, -0.03564637947426896325 ) ) ;
#667 = APPROVAL_PERSON_ORGANIZATION ( #347, #767, #614 ) ;
#668 = DIRECTION ( 'NONE',  ( 0.000000000000000000, -0.9816271834476665292, 0.1908089953765315649 ) ) ;
#669 = ADVANCED_FACE ( 'NONE', ( #166 ), #387, .F. ) ;
#670 = ORIENTED_EDGE ( 'NONE', *, *, #727, .T. ) ;
#671 = CARTESIAN_POINT ( 'NONE',  ( -68.00126588822611495, 5.000000000000000000, 191.3967874009979084 ) ) ;
#672 = DIRECTION ( 'NONE',  ( -1.000000000000000000, 1.059202699863104472E-15, 5.449125503307720872E-15 ) ) ;
#673 = VERTEX_POINT ( 'NONE', #383 ) ;
#674 = VECTOR ( 'NONE', #466, 1000.000000000000000 ) ;
#675 = VECTOR ( 'NONE', #86, 1000.000000000000000 ) ;
#676 = LINE ( 'NONE', #752, #253 ) ;
#677 = CARTESIAN_POINT ( 'NONE',  ( -95.00000000000000000, 5.000000000000000000, 2.081899558550500674E-14 ) ) ;
#678 = EDGE_LOOP ( 'NONE', ( #388, #688, #488, #42 ) ) ;
#679 = DIRECTION ( 'NONE',  ( 0.000000000000000000, 0.000000000000000000, 1.000000000000000000 ) ) ;
#680 = EDGE_CURVE ( 'NONE', #819, #577, #27, .T. ) ;
#681 = CARTESIAN_POINT ( 'NONE',  ( -66.78768308664606934, 5.000000000000000000, 200.0000000000000284 ) ) ;
#682 = CARTESIAN_POINT ( 'NONE',  ( 58.43163953922414322, 5.000000000000000000, 200.0000000000000284 ) ) ;
#683 = ORIENTED_EDGE ( 'NONE', *, *, #447, .T. ) ;
#684 = APPROVAL_STATUS ( 'not_yet_approved' ) ;
#685 = CARTESIAN_POINT ( 'NONE',  ( -59.51823385683612599, 83.59759843262352774, 20.45467605649572107 ) ) ;
#686 = FACE_OUTER_BOUND ( 'NONE', #812, .T. ) ;
#687 = AXIS2_PLACEMENT_3D ( 'NONE', #175, #582, #303 ) ;
#688 = ORIENTED_EDGE ( 'NONE', *, *, #578, .T. ) ;
#689 = PERSON_AND_ORGANIZATION ( #588, #128 ) ;
#690 = CARTESIAN_POINT ( 'NONE',  ( 47.42460317460317754, 8.019709673402061867, 41.25782960721944193 ) ) ;
#691 = DIRECTION ( 'NONE',  ( 0.000000000000000000, 0.000000000000000000, 1.000000000000000000 ) ) ;
#692 = ORIENTED_EDGE ( 'NONE', *, *, #652, .T. ) ;
#693 = APPLICATION_PROTOCOL_DEFINITION ( 'international standard', 'config_control_design', 1994, #348 ) ;
#694 = CARTESIAN_POINT ( 'NONE',  ( -114.7682338568361189, 29.36269654713993660, 30.99687305104909640 ) ) ;
#695 = EDGE_CURVE ( 'NONE', #266, #31, #501, .T. ) ;
#696 = EDGE_LOOP ( 'NONE', ( #841, #564, #556, #275 ) ) ;
#697 = CALENDAR_DATE ( 2026, 25, 7 ) ;
#698 = AXIS2_PLACEMENT_3D ( 'NONE', #523, #410, #397 ) ;
#699 = CARTESIAN_POINT ( 'NONE',  ( -89.51823385683611889, 4.576610165086372639, 35.81480018430651313 ) ) ;
#700 = EDGE_CURVE ( 'NONE', #250, #266, #515, .T. ) ;
#701 = ORIENTED_EDGE ( 'NONE', *, *, #511, .F. ) ;
#702 = EDGE_CURVE ( 'NONE', #709, #805, #837, .T. ) ;
#703 = EDGE_CURVE ( 'NONE', #271, #795, #650, .T. ) ;
#704 = EDGE_CURVE ( 'NONE', #207, #805, #380, .T. ) ;
#705 = AXIS2_PLACEMENT_3D ( 'NONE', #393, #657, #49 ) ;
#706 = ORIENTED_EDGE ( 'NONE', *, *, #574, .F. ) ;
#707 = ORIENTED_EDGE ( 'NONE', *, *, #172, .T. ) ;
#708 = CARTESIAN_POINT ( 'NONE',  ( 89.79255063547954308, 5.000000000000000000, 37.37624634966957160 ) ) ;
#709 = VERTEX_POINT ( 'NONE', #179 ) ;
#710 = DIRECTION ( 'NONE',  ( 0.1396787400997854811, 0.000000000000000000, 0.9901968741437918720 ) ) ;
#711 = EDGE_CURVE ( 'NONE', #191, #561, #779, .T. ) ;
#712 = ORIENTED_EDGE ( 'NONE', *, *, #800, .T. ) ;
#713 = DIRECTION ( 'NONE',  ( 0.000000000000000000, -0.1908089953765315649, -0.9816271834476665292 ) ) ;
#714 = EDGE_CURVE ( 'NONE', #361, #132, #236, .T. ) ;
#715 = CARTESIAN_POINT ( 'NONE',  ( -47.57539682539683668, 5.053632653527717622, 38.26886814292567607 ) ) ;
#716 = VECTOR ( 'NONE', #653, 1000.000000000000000 ) ;
#717 = CARTESIAN_POINT ( 'NONE',  ( 47.42460317460317754, 5.053632653527706964, 38.26886814292567607 ) ) ;
#718 = VERTEX_POINT ( 'NONE', #375 ) ;
#719 = CARTESIAN_POINT ( 'NONE',  ( -47.57539682539682957, 67.23113637989186486, 26.18278574718423712 ) ) ;
#720 = EDGE_CURVE ( 'NONE', #14, #577, #845, .T. ) ;
#721 = EDGE_LOOP ( 'NONE', ( #526, #459, #305, #787, #744, #498 ) ) ;
#722 = ORIENTED_EDGE ( 'NONE', *, *, #177, .T. ) ;
#723 = DIRECTION ( 'NONE',  ( 1.000000000000000000, 0.000000000000000000, -3.061616997868383141E-16 ) ) ;
#724 = DIRECTION ( 'NONE',  ( -0.7543183091572996934, -0.000000000000000000, 0.6565088639691564198 ) ) ;
#725 = VERTEX_POINT ( 'NONE', #624 ) ;
#726 = DIRECTION ( 'NONE',  ( 0.000000000000000000, 0.9816271834476665292, -0.1908089953765315649 ) ) ;
#727 = EDGE_CURVE ( 'NONE', #573, #508, #189, .T. ) ;
#728 = PLANE ( 'NONE',  #156 ) ;
#729 = ORIENTED_EDGE ( 'NONE', *, *, #566, .F. ) ;
#730 = LINE ( 'NONE', #802, #405 ) ;
#731 = EDGE_CURVE ( 'NONE', #31, #632, #183, .T. ) ;
#732 = CARTESIAN_POINT ( 'NONE',  ( 95.00000000000000000, 5.000000000000000000, -3.735172737399426436E-14 ) ) ;
#733 = FACE_OUTER_BOUND ( 'NONE', #26, .T. ) ;
#734 = ORIENTED_EDGE ( 'NONE', *, *, #294, .T. ) ;
#735 = DIRECTION ( 'NONE',  ( -1.116624078546661531E-16, -1.000000000000000000, 0.000000000000000000 ) ) ;
#736 = CARTESIAN_POINT ( 'NONE',  ( -89.51823385683610468, 5.000000000000000000, 37.99295205983257517 ) ) ;
#737 = LOCAL_TIME ( 13, 40, 45.00000000000000000, #478 ) ;
#738 = DIRECTION ( 'NONE',  ( -0.7071067811865477948, 0.6941152380128966515, -0.1349223345421347031 ) ) ;
#739 = ORIENTED_EDGE ( 'NONE', *, *, #172, .F. ) ;
#740 = APPROVAL ( #434, 'UNSPECIFIED' ) ;
#741 =( NAMED_UNIT ( * ) PLANE_ANGLE_UNIT ( ) SI_UNIT ( $, .RADIAN. ) );
#742 = CARTESIAN_POINT ( 'NONE',  ( 47.42460317460318464, 67.89896786370971427, 29.61848088925101408 ) ) ;
#743 = PLANE ( 'NONE',  #309 ) ;
#744 = ORIENTED_EDGE ( 'NONE', *, *, #364, .T. ) ;
#745 = PERSON_AND_ORGANIZATION ( #588, #128 ) ;
#746 = VECTOR ( 'NONE', #82, 1000.000000000000000 ) ;
#747 = DIRECTION ( 'NONE',  ( 0.000000000000000000, 1.000000000000000000, 0.000000000000000000 ) ) ;
#748 = VECTOR ( 'NONE', #823, 1000.000000000000000 ) ;
#749 = CARTESIAN_POINT ( 'NONE',  ( 89.79255063547954308, 5.053632653527702523, 38.26886814292567607 ) ) ;
#750 = ORIENTED_EDGE ( 'NONE', *, *, #581, .T. ) ;
#751 = PERSON_AND_ORGANIZATION_ROLE ( 'creator' ) ;
#752 = CARTESIAN_POINT ( 'NONE',  ( 93.37453214907489496, 5.000000000000000000, 11.66672637156582226 ) ) ;
#753 = CARTESIAN_POINT ( 'NONE',  ( 89.79255063547954308, 54.62580541763487219, 28.63301387641083195 ) ) ;
#754 = VERTEX_POINT ( 'NONE', #43 ) ;
#755 = APPROVAL_ROLE ( '' ) ;
#756 = LINE ( 'NONE', #571, #559 ) ;
#757 = CARTESIAN_POINT ( 'NONE',  ( 58.43163953922411480, 5.000000000000000000, 200.0000000000000284 ) ) ;
#758 = CLOSED_SHELL ( 'NONE', ( #59, #302, #489, #848, #300, #161, #123, #431, #353, #585, #58, #826, #763, #568, #322, #506, #832, #150, #766, #516, #626, #437, #29, #184, #860, #669 ) ) ;
#759 = VERTEX_POINT ( 'NONE', #719 ) ;
#760 = DIRECTION ( 'NONE',  ( 0.9901968741437919830, 0.000000000000000000, -0.1396787400997854811 ) ) ;
#761 = ORIENTED_EDGE ( 'NONE', *, *, #610, .T. ) ;
#762 = DATE_TIME_ROLE ( 'creation_date' ) ;
#763 = ADVANCED_FACE ( 'NONE', ( #307 ), #122, .F. ) ;
#764 = DIRECTION ( 'NONE',  ( 0.000000000000000000, 0.9816271834476665292, -0.1908089953765315649 ) ) ;
#765 = ORIENTED_EDGE ( 'NONE', *, *, #392, .T. ) ;
#766 = ADVANCED_FACE ( 'NONE', ( #240, #126 ), #199, .T. ) ;
#767 = APPROVAL ( #829, 'UNSPECIFIED' ) ;
#768 = AXIS2_PLACEMENT_3D ( 'NONE', #208, #148, #531 ) ;
#769 = LINE ( 'NONE', #38, #63 ) ;
#770 = DIRECTION ( 'NONE',  ( 0.000000000000000000, 0.9816271834476665292, -0.1908089953765315649 ) ) ;
#771 = CARTESIAN_POINT ( 'NONE',  ( -93.35427309131999607, 5.000000000000000000, 11.66672637156582226 ) ) ;
#772 = EDGE_LOOP ( 'NONE', ( #142, #313, #106, #289, #233, #579, #464, #260 ) ) ;
#773 = ORIENTED_EDGE ( 'NONE', *, *, #118, .F. ) ;
#774 = VECTOR ( 'NONE', #274, 1000.000000000000114 ) ;
#775 = CARTESIAN_POINT ( 'NONE',  ( -95.00000000000000000, 5.000000000000000000, 2.081899558550500674E-14 ) ) ;
#776 = VECTOR ( 'NONE', #16, 1000.000000000000000 ) ;
#777 = ORIENTED_EDGE ( 'NONE', *, *, #800, .F. ) ;
#778 = VERTEX_POINT ( 'NONE', #590 ) ;
#779 = LINE ( 'NONE', #57, #299 ) ;
#780 = PRODUCT_DEFINITION_FORMATION_WITH_SPECIFIED_SOURCE ( 'ANY', '', #308, .NOT_KNOWN. ) ;
#781 = PLANE ( 'NONE',  #705 ) ;
#782 = ORIENTED_EDGE ( 'NONE', *, *, #389, .T. ) ;
#783 = ORIENTED_EDGE ( 'NONE', *, *, #463, .F. ) ;
#784 = DIRECTION ( 'NONE',  ( -1.137523590804463576E-16, -0.9816271834476664182, 0.1908089953765315927 ) ) ;
#785 = VECTOR ( 'NONE', #196, 1000.000000000000114 ) ;
#786 = VECTOR ( 'NONE', #358, 1000.000000000000000 ) ;
#787 = ORIENTED_EDGE ( 'NONE', *, *, #155, .T. ) ;
#788 = LINE ( 'NONE', #76, #474 ) ;
#789 = FACE_OUTER_BOUND ( 'NONE', #772, .T. ) ;
#790 = ORIENTED_EDGE ( 'NONE', *, *, #35, .T. ) ;
#791 = LINE ( 'NONE', #862, #512 ) ;
#792 = PRODUCT_DEFINITION ( 'UNKNOWN', '', #780, #631 ) ;
#793 = LINE ( 'NONE', #258, #776 ) ;
#794 = DIRECTION ( 'NONE',  ( -0.1379922230598587540, 0.000000000000000000, 0.9904333124319870674 ) ) ;
#795 = VERTEX_POINT ( 'NONE', #665 ) ;
#796 = DIRECTION ( 'NONE',  ( -0.000000000000000000, -0.1908089953765322866, -0.9816271834476663072 ) ) ;
#797 = VECTOR ( 'NONE', #146, 1000.000000000000114 ) ;
#798 = CARTESIAN_POINT ( 'NONE',  ( 47.42460317460318464, 67.23113637989186486, 26.18278574718423712 ) ) ;
#799 = DIRECTION ( 'NONE',  ( 0.000000000000000000, -0.000000000000000000, 1.000000000000000000 ) ) ;
#800 = EDGE_CURVE ( 'NONE', #379, #396, #855, .T. ) ;
#801 = ORIENTED_EDGE ( 'NONE', *, *, #646, .F. ) ;
#802 = CARTESIAN_POINT ( 'NONE',  ( -93.44338904000566970, 5.000000000000000000, 9.168315206907401205 ) ) ;
#803 = FACE_OUTER_BOUND ( 'NONE', #368, .T. ) ;
#804 = CARTESIAN_POINT ( 'NONE',  ( 89.79255063547954308, 5.053632653527702523, 38.26886814292567607 ) ) ;
#805 = VERTEX_POINT ( 'NONE', #608 ) ;
#806 = FACE_OUTER_BOUND ( 'NONE', #570, .T. ) ;
#807 = CARTESIAN_POINT ( 'NONE',  ( -68.00126588822611495, 0.000000000000000000, 191.3967874009978516 ) ) ;
#808 = CARTESIAN_POINT ( 'NONE',  ( -95.00000000000000000, 5.000000000000000000, 2.081899558550500674E-14 ) ) ;
#809 = ORIENTED_EDGE ( 'NONE', *, *, #562, .F. ) ;
#810 = CARTESIAN_POINT ( 'NONE',  ( -89.51823385683611889, 83.59759843262351353, 20.45467605649572107 ) ) ;
#811 = CARTESIAN_POINT ( 'NONE',  ( 93.34732865881747443, 5.000000000000000000, 9.168315206907401205 ) ) ;
#812 = EDGE_LOOP ( 'NONE', ( #103, #351, #378, #712, #317, #46 ) ) ;
#813 = PERSON_AND_ORGANIZATION ( #588, #128 ) ;
#814 = DIRECTION ( 'NONE',  ( 0.000000000000000000, 0.000000000000000000, -1.000000000000000000 ) ) ;
#815 = VECTOR ( 'NONE', #74, 1000.000000000000000 ) ;
#816 = CARTESIAN_POINT ( 'NONE',  ( 0.000000000000000000, 5.000000000000000000, 37.99295205983257517 ) ) ;
#817 = EDGE_CURVE ( 'NONE', #374, #336, #730, .T. ) ;
#818 = VECTOR ( 'NONE', #481, 1000.000000000000227 ) ;
#819 = VERTEX_POINT ( 'NONE', #603 ) ;
#820 = PERSON_AND_ORGANIZATION ( #588, #128 ) ;
#821 = EDGE_CURVE ( 'NONE', #361, #828, #192, .T. ) ;
#822 = DIRECTION ( 'NONE',  ( 1.000000000000000000, -0.000000000000000000, 0.000000000000000000 ) ) ;
#823 = DIRECTION ( 'NONE',  ( 0.000000000000000000, 1.000000000000000000, 0.000000000000000000 ) ) ;
#824 = VECTOR ( 'NONE', #401, 1000.000000000000000 ) ;
#825 = ORIENTED_EDGE ( 'NONE', *, *, #864, .T. ) ;
#826 = ADVANCED_FACE ( 'NONE', ( #806 ), #660, .F. ) ;
#827 = DIRECTION ( 'NONE',  ( 0.000000000000000000, 1.000000000000000000, 0.000000000000000000 ) ) ;
#828 = VERTEX_POINT ( 'NONE', #343 ) ;
#829 = APPROVAL_STATUS ( 'not_yet_approved' ) ;
#830 = VECTOR ( 'NONE', #443, 1000.000000000000000 ) ;
#831 = DIRECTION ( 'NONE',  ( -0.03564637947426897019, 0.000000000000000000, -0.9993644658633689115 ) ) ;
#832 = ADVANCED_FACE ( 'NONE', ( #460, #321 ), #71, .T. ) ;
#833 = EDGE_LOOP ( 'NONE', ( #226, #1, #500, #331 ) ) ;
#834 = CARTESIAN_POINT ( 'NONE',  ( -93.44338904000566970, 5.000000000000000000, 9.168315206907401205 ) ) ;
#835 = EDGE_CURVE ( 'NONE', #759, #400, #791, .T. ) ;
#836 = CARTESIAN_POINT ( 'NONE',  ( 47.42460317460317754, 7.351878189584210688, 37.82213446515265787 ) ) ;
#837 = LINE ( 'NONE', #771, #716 ) ;
#838 = VERTEX_POINT ( 'NONE', #257 ) ;
#839 = EDGE_LOOP ( 'NONE', ( #159, #212, #639, #739 ) ) ;
#840 = CARTESIAN_POINT ( 'NONE',  ( 93.37453214907489496, 5.000000000000000000, 11.66672637156582226 ) ) ;
#841 = ORIENTED_EDGE ( 'NONE', *, *, #360, .T. ) ;
#842 = ORIENTED_EDGE ( 'NONE', *, *, #704, .F. ) ;
#843 = LINE ( 'NONE', #97, #493 ) ;
#844 = CARTESIAN_POINT ( 'NONE',  ( 89.79255063547954308, 4.576610165086372639, 35.81480018430651313 ) ) ;
#845 = LINE ( 'NONE', #690, #786 ) ;
#846 = ORIENTED_EDGE ( 'NONE', *, *, #864, .F. ) ;
#847 = DIRECTION ( 'NONE',  ( -0.7071067811865475727, 0.6941152380128960964, -0.1349223345421380615 ) ) ;
#848 = ADVANCED_FACE ( 'NONE', ( #272 ), #66, .F. ) ;
#849 = FACE_OUTER_BOUND ( 'NONE', #382, .T. ) ;
#850 = VECTOR ( 'NONE', #764, 1000.000000000000114 ) ;
#851 = VECTOR ( 'NONE', #334, 1000.000000000000000 ) ;
#852 = FACE_OUTER_BOUND ( 'NONE', #483, .T. ) ;
#853 = EDGE_CURVE ( 'NONE', #673, #573, #329, .T. ) ;
#854 = EDGE_CURVE ( 'NONE', #795, #754, #788, .T. ) ;
#855 = LINE ( 'NONE', #138, #824 ) ;
#856 = AXIS2_PLACEMENT_3D ( 'NONE', #33, #827, #345 ) ;
#857 = CARTESIAN_POINT ( 'NONE',  ( 93.34732865881747443, 5.009999999999999787, 9.168315206907401205 ) ) ;
#858 = LINE ( 'NONE', #255, #134 ) ;
#859 = EDGE_CURVE ( 'NONE', #602, #379, #465, .T. ) ;
#860 = ADVANCED_FACE ( 'NONE', ( #195 ), #267, .F. ) ;
#861 = ORIENTED_EDGE ( 'NONE', *, *, #155, .F. ) ;
#862 = CARTESIAN_POINT ( 'NONE',  ( 89.79255063547954308, 67.23113637989186486, 26.18278574718423712 ) ) ;
#863 = CC_DESIGN_APPROVAL ( #100, ( #261 ) ) ;
#864 = EDGE_CURVE ( 'NONE', #778, #14, #535, .T. ) ;
#865 = LINE ( 'NONE', #69, #815 ) ;
ENDSEC;
END-ISO-10303-21;
